<svg width="109" height="13" viewBox="0 0 109 13" fill="none" xmlns="http://www.w3.org/2000/svg">
<path d="M0.656 0.799999H3.248C4.12267 0.799999 4.77867 1.03467 5.216 1.504C5.65333 1.97333 5.872 2.66133 5.872 3.568V4.672C5.872 5.57867 5.65333 6.26667 5.216 6.736C4.77867 7.20533 4.12267 7.44 3.248 7.44H2.416V12H0.656V0.799999ZM3.248 5.84C3.536 5.84 3.74933 5.76 3.888 5.6C4.03733 5.44 4.112 5.168 4.112 4.784V3.456C4.112 3.072 4.03733 2.8 3.888 2.64C3.74933 2.48 3.536 2.4 3.248 2.4H2.416V5.84H3.248ZM7.62538 0.799999H10.0094L11.8334 12H10.0734L9.75338 9.776V9.808H7.75338L7.43338 12H5.80138L7.62538 0.799999ZM9.54538 8.288L8.76138 2.752H8.72938L7.96137 8.288H9.54538ZM12.6873 0.799999H14.4473V12H12.6873V0.799999ZM15.7654 0.799999H17.5254V5.52L19.7654 0.799999H21.5254L19.4294 4.912L21.5574 12H19.7174L18.2294 7.008L17.5254 8.432V12H15.7654V0.799999ZM24.569 12.16C23.7157 12.16 23.0703 11.92 22.633 11.44C22.1957 10.9493 21.977 10.2507 21.977 9.344V8.704H23.641V9.472C23.641 10.1973 23.945 10.56 24.553 10.56C24.8517 10.56 25.0757 10.4747 25.225 10.304C25.385 10.1227 25.465 9.83467 25.465 9.44C25.465 8.97067 25.3583 8.56 25.145 8.208C24.9317 7.84533 24.537 7.41333 23.961 6.912C23.2357 6.272 22.729 5.696 22.441 5.184C22.153 4.66133 22.009 4.07467 22.009 3.424C22.009 2.53867 22.233 1.856 22.681 1.376C23.129 0.885333 23.7797 0.639999 24.633 0.639999C25.4757 0.639999 26.1103 0.885333 26.537 1.376C26.9743 1.856 27.193 2.54933 27.193 3.456V3.92H25.529V3.344C25.529 2.96 25.4543 2.68267 25.305 2.512C25.1557 2.33067 24.937 2.24 24.649 2.24C24.0623 2.24 23.769 2.59733 23.769 3.312C23.769 3.71733 23.8757 4.096 24.089 4.448C24.313 4.8 24.713 5.22667 25.289 5.728C26.025 6.368 26.5317 6.94933 26.809 7.472C27.0863 7.99467 27.225 8.608 27.225 9.312C27.225 10.2293 26.9957 10.9333 26.537 11.424C26.089 11.9147 25.433 12.16 24.569 12.16ZM30.7141 12.16C29.8715 12.16 29.2261 11.92 28.7781 11.44C28.3408 10.96 28.1221 10.2827 28.1221 9.408V3.392C28.1221 2.51733 28.3408 1.84 28.7781 1.36C29.2261 0.879999 29.8715 0.639999 30.7141 0.639999C31.5568 0.639999 32.1968 0.879999 32.6341 1.36C33.0821 1.84 33.3061 2.51733 33.3061 3.392V4.576H31.6421V3.28C31.6421 2.58667 31.3488 2.24 30.7621 2.24C30.1755 2.24 29.8821 2.58667 29.8821 3.28V9.536C29.8821 10.2187 30.1755 10.56 30.7621 10.56C31.3488 10.56 31.6421 10.2187 31.6421 9.536V7.824H33.3061V9.408C33.3061 10.2827 33.0821 10.96 32.6341 11.44C32.1968 11.92 31.5568 12.16 30.7141 12.16ZM36.9344 12.16C36.0704 12.16 35.409 11.9147 34.9504 11.424C34.4917 10.9333 34.2624 10.24 34.2624 9.344V3.456C34.2624 2.56 34.4917 1.86667 34.9504 1.376C35.409 0.885333 36.0704 0.639999 36.9344 0.639999C37.7984 0.639999 38.4597 0.885333 38.9184 1.376C39.377 1.86667 39.6064 2.56 39.6064 3.456V9.344C39.6064 10.24 39.377 10.9333 38.9184 11.424C38.4597 11.9147 37.7984 12.16 36.9344 12.16ZM36.9344 10.56C37.5424 10.56 37.8464 10.192 37.8464 9.456V3.344C37.8464 2.608 37.5424 2.24 36.9344 2.24C36.3264 2.24 36.0224 2.608 36.0224 3.344V9.456C36.0224 10.192 36.3264 10.56 36.9344 10.56ZM40.7966 0.799999H45.4526V2.4H42.5566V5.52H44.8286V7.12H42.5566V12H40.7966V0.799999ZM46.2966 0.799999H50.9526V2.4H48.0566V5.52H50.3286V7.12H48.0566V12H46.2966V0.799999ZM51.7966 0.799999H56.5966V2.4H53.5566V5.36H55.9726V6.96H53.5566V10.4H56.5966V12H51.7966V0.799999ZM57.6091 0.799999H62.4091V2.4H59.3691V5.36H61.7851V6.96H59.3691V10.4H62.4091V12H57.6091V0.799999ZM65.9841 0.799999H68.5921C69.4988 0.799999 70.1601 1.01333 70.5761 1.44C70.9921 1.856 71.2001 2.50133 71.2001 3.376V4.064C71.2001 5.22667 70.8161 5.96267 70.0481 6.272V6.304C70.4748 6.432 70.7735 6.69333 70.9441 7.088C71.1255 7.48267 71.2161 8.01067 71.2161 8.672V10.64C71.2161 10.96 71.2268 11.2213 71.2481 11.424C71.2695 11.616 71.3228 11.808 71.4081 12H69.6161C69.5521 11.8187 69.5095 11.648 69.4881 11.488C69.4668 11.328 69.4561 11.04 69.4561 10.624V8.576C69.4561 8.064 69.3708 7.70667 69.2001 7.504C69.0401 7.30133 68.7575 7.2 68.3521 7.2H67.7441V12H65.9841V0.799999ZM68.3841 5.6C68.7361 5.6 68.9975 5.50933 69.1681 5.328C69.3495 5.14667 69.4401 4.84267 69.4401 4.416V3.552C69.4401 3.14667 69.3655 2.85333 69.2161 2.672C69.0775 2.49067 68.8535 2.4 68.5441 2.4H67.7441V5.6H68.3841ZM72.4373 0.799999H77.2373V2.4H74.1973V5.36H76.6133V6.96H74.1973V10.4H77.2373V12H72.4373V0.799999ZM80.7458 12.16C79.8924 12.16 79.2418 11.92 78.7938 11.44C78.3458 10.9493 78.1217 10.2507 78.1217 9.344V3.456C78.1217 2.54933 78.3458 1.856 78.7938 1.376C79.2418 0.885333 79.8924 0.639999 80.7458 0.639999C81.5991 0.639999 82.2498 0.885333 82.6978 1.376C83.1458 1.856 83.3698 2.54933 83.3698 3.456V4.416H81.7057V3.344C81.7057 2.608 81.4018 2.24 80.7938 2.24C80.1858 2.24 79.8818 2.608 79.8818 3.344V9.472C79.8818 10.1973 80.1858 10.56 80.7938 10.56C81.4018 10.56 81.7057 10.1973 81.7057 9.472V7.28H80.8258V5.68H83.3698V9.344C83.3698 10.2507 83.1458 10.9493 82.6978 11.44C82.2498 11.92 81.5991 12.16 80.7458 12.16ZM87.0598 12.16C86.2064 12.16 85.5558 11.92 85.1078 11.44C84.6598 10.9493 84.4358 10.2507 84.4358 9.344V0.799999H86.1957V9.472C86.1957 9.856 86.2704 10.1333 86.4198 10.304C86.5798 10.4747 86.8038 10.56 87.0918 10.56C87.3798 10.56 87.5984 10.4747 87.7478 10.304C87.9078 10.1333 87.9878 9.856 87.9878 9.472V0.799999H89.6838V9.344C89.6838 10.2507 89.4598 10.9493 89.0118 11.44C88.5638 11.92 87.9131 12.16 87.0598 12.16ZM90.9373 0.799999H92.6973V10.4H95.5933V12H90.9373V0.799999ZM97.8598 0.799999H100.244L102.068 12H100.308L99.9878 9.776V9.808H97.9878L97.6678 12H96.0358L97.8598 0.799999ZM99.7798 8.288L98.9958 2.752H98.9638L98.1957 8.288H99.7798ZM102.922 0.799999H105.53C106.436 0.799999 107.098 1.01333 107.514 1.44C107.93 1.856 108.138 2.50133 108.138 3.376V4.064C108.138 5.22667 107.754 5.96267 106.986 6.272V6.304C107.412 6.432 107.711 6.69333 107.882 7.088C108.063 7.48267 108.154 8.01067 108.154 8.672V10.64C108.154 10.96 108.164 11.2213 108.186 11.424C108.207 11.616 108.26 11.808 108.346 12H106.554C106.49 11.8187 106.447 11.648 106.426 11.488C106.404 11.328 106.394 11.04 106.394 10.624V8.576C106.394 8.064 106.308 7.70667 106.138 7.504C105.978 7.30133 105.695 7.2 105.29 7.2H104.682V12H102.922V0.799999ZM105.322 5.6C105.674 5.6 105.935 5.50933 106.106 5.328C106.287 5.14667 106.378 4.84267 106.378 4.416V3.552C106.378 3.14667 106.303 2.85333 106.154 2.672C106.015 2.49067 105.791 2.4 105.482 2.4H104.682V5.6H105.322Z" fill="#6A5542"/>
</svg>
