<svg xmlns="http://www.w3.org/2000/svg" viewBox="0 0 169.74 169.74"><defs><style>.cls-1{fill:#87191a;}.cls-2{font-size:16.16px;fill:#fff2d8;font-family:Oranienbaum-Regular, Oranienbaum;}</style></defs><g id="Layer_2" data-name="Layer 2"><g id="Layer_1-2" data-name="Layer 1"><circle class="cls-1" cx="84.87" cy="84.87" r="84.87"/><text class="cls-2" transform="translate(84.75 27.48) rotate(3.72)">C</text><text class="cls-2" transform="translate(92.37 27.95) rotate(11.39)">h</text><text class="cls-2" transform="translate(100.15 29.51) rotate(18.94)">o</text><text class="cls-2" transform="translate(107.12 31.99) rotate(24.44)"> </text><text class="cls-2" transform="matrix(0.87, 0.49, -0.49, 0.87, 110.51, 33.44)">y</text><text class="cls-2" transform="translate(116.3 36.69) rotate(36.45)">o</text><text class="cls-2" transform="translate(122.18 40.99) rotate(43.87)">u</text><text class="cls-2" transform="matrix(0.62, 0.78, -0.78, 0.62, 127.88, 46.44)">b</text><text class="cls-2" transform="matrix(0.52, 0.86, -0.86, 0.52, 132.76, 52.61)">e</text><text class="cls-2" transform="translate(136.36 58.54) rotate(65.69)">e</text><text class="cls-2" transform="matrix(0.29, 0.96, -0.96, 0.29, 139.25, 64.81)">n</text><text class="cls-2" transform="matrix(0.19, 0.98, -0.98, 0.19, 141.51, 72.6)"> </text><text class="cls-2" transform="translate(142.53 76.05) rotate(86.94)">W</text><text class="cls-2" transform="translate(143.02 88.2) rotate(95.93)">e</text><text class="cls-2" transform="matrix(-0.23, 0.97, -0.97, -0.23, 142.35, 95.08)">b</text><text class="cls-2" transform="matrix(-0.33, 0.95, -0.95, -0.33, 140.44, 102.79)"> </text><text class="cls-2" transform="translate(139.36 106.29) rotate(114.77)">P</text><text class="cls-2" transform="matrix(-0.54, 0.84, -0.84, -0.54, 136.08, 113.45)">u</text><text class="cls-2" transform="matrix(-0.65, 0.76, -0.76, -0.65, 131.86, 120.1)">b</text><text class="cls-2" transform="translate(126.66 126.1) rotate(136.07)">l</text><text class="cls-2" transform="matrix(-0.77, 0.64, -0.64, -0.77, 123.79, 128.87)">i</text><text class="cls-2" transform="matrix(-0.82, 0.57, -0.57, -0.82, 120.74, 131.5)">s</text><text class="cls-2" transform="matrix(-0.88, 0.47, -0.47, -0.88, 115.63, 135.15)">h</text><text class="cls-2" transform="matrix(-0.94, 0.35, -0.35, -0.94, 108.59, 138.85)">e</text><text class="cls-2" transform="matrix(-0.97, 0.25, -0.25, -0.97, 102.06, 141.27)">r</text><text class="cls-2" transform="matrix(-0.99, 0.17, -0.17, -0.99, 96.58, 142.63)"> </text><text class="cls-2" transform="translate(92.86 143.27) rotate(174.09)"> </text><text class="cls-2" transform="translate(89.11 143.66) rotate(177.78)"> </text><text class="cls-2" transform="translate(85.55 144.13) rotate(-174.34)">W</text><text class="cls-2" transform="matrix(-0.97, -0.26, 0.26, -0.97, 73.47, 142.77)">e</text><text class="cls-2" transform="translate(66.72 140.92) rotate(-159.76)">l</text><text class="cls-2" transform="translate(62.99 139.62) rotate(-154.45)">c</text><text class="cls-2" transform="translate(56.97 136.78) rotate(-147.55)">o</text><text class="cls-2" transform="translate(50.72 133.08) rotate(-138.07)">m</text><text class="cls-2" transform="matrix(-0.63, -0.78, 0.78, -0.63, 41.88, 124.9)">e</text><text class="cls-2" transform="matrix(-0.55, -0.83, 0.83, -0.55, 37.52, 119.39)"> </text><text class="cls-2" transform="translate(35.43 116.31) rotate(-118.99)">t</text><text class="cls-2" transform="matrix(-0.39, -0.92, 0.92, -0.39, 32.78, 111.68)">o</text><text class="cls-2" transform="matrix(-0.3, -0.95, 0.95, -0.3, 29.99, 104.82)"> </text><text class="cls-2" transform="translate(28.63 101.49) rotate(-99.5)">m</text><text class="cls-2" transform="translate(26.86 90.03) rotate(-90.93)">y</text><text class="cls-2" transform="translate(26.82 83.16) rotate(-85.65)"> </text><text class="cls-2" transform="translate(26.99 79.48) rotate(-79.96)">p</text><text class="cls-2" transform="translate(28.34 71.83) rotate(-72.5)">o</text><text class="cls-2" transform="translate(30.59 64.82) rotate(-66.07)">r</text><text class="cls-2" transform="matrix(0.49, -0.87, 0.87, 0.49, 32.86, 59.68)">t</text><text class="cls-2" transform="translate(35.42 55.12) rotate(-55.59)">f</text><text class="cls-2" transform="matrix(0.65, -0.76, 0.76, 0.65, 38.06, 51.12)">o</text><text class="cls-2" transform="translate(42.89 45.51) rotate(-44.23)">l</text><text class="cls-2" transform="translate(45.76 42.71) rotate(-40.26)">i</text><text class="cls-2" transform="translate(48.74 40.07) rotate(-34.69)">o</text><text class="cls-2" transform="translate(54.87 35.92) rotate(-29.23)"> </text><text class="cls-2" transform="matrix(0.9, -0.44, 0.44, 0.9, 58.18, 34.08)">:</text><text class="cls-2" transform="matrix(0.92, -0.38, 0.38, 0.92, 60.85, 32.77)"> </text><text class="cls-2" transform="translate(64.31 31.32) rotate(-18.52)">)</text></g></g></svg>