<?xml version="1.0" encoding="utf-8"?>
<!-- Generator: Adobe Illustrator 24.2.0, SVG Export Plug-In . SVG Version: 6.00 Build 0)  -->
<svg version="1.1" id="Layer_1" xmlns="http://www.w3.org/2000/svg" xmlns:xlink="http://www.w3.org/1999/xlink" x="0px" y="0px"
	 viewBox="0 0 250 250" style="enable-background:new 0 0 250 250;" xml:space="preserve">
<style type="text/css">
	.st0{fill:#6F6A4A;}
</style>
<path class="st0" d="M137.2,124.59c-1.94,0.44-3.74,1.5-5.4,3.17c-1.58,1.54-2.83,3.81-3.76,6.82c-0.92,3-1.39,6.81-1.41,11.43
	c0.09,4.6,0.87,10.16,2.37,16.69c1.49,6.53,3.2,11.88,5.12,16.06c2.02,4.15,4.17,7.42,6.43,9.8c2.24,2.28,4.51,3.75,6.8,4.4
	c2.4,0.63,4.77,0.68,7.12,0.15c2.65-0.61,5.04-1.69,7.15-3.25c2.11-1.56,3.89-3.41,5.33-5.57c1.44-2.15,2.44-4.58,3-7.29
	c0.66-2.73,0.87-5.57,0.63-8.52l2.29-0.52c0.34,3.36,0.12,6.63-0.65,9.81c-0.7,3.06-1.88,5.85-3.56,8.38
	c-1.68,2.53-3.81,4.68-6.41,6.46c-2.48,1.85-5.35,3.15-8.61,3.9c-3.98,0.91-7.99,0.97-12.04,0.17c-3.97-0.92-7.69-2.64-11.17-5.18
	c-3.5-2.64-6.59-6.06-9.27-10.28c-2.6-4.34-4.58-9.47-5.93-15.39c-1.35-5.92-1.79-11.35-1.31-16.29c0.56-5.07,1.81-9.48,3.74-13.25
	c1.91-3.87,4.36-7.01,7.35-9.41c2.97-2.5,6.29-4.17,9.97-5.02c2.45-0.56,4.69-0.64,6.71-0.25c2.12,0.37,3.96,0.87,5.49,1.48
	c1.79,0.77,3.4,1.74,4.85,2.92c0.06-1.62,0.55-3.24,1.47-4.85c1.02-1.63,2.05-2.78,3.08-3.44l2.3-0.52c0.1,1.37,0.26,2.78,0.49,4.24
	c0.18,1.25,0.38,2.6,0.6,4.05c0.33,1.43,0.64,2.81,0.94,4.13c0.35,1.53,0.71,3.11,1.09,4.74c0.45,1.51,0.87,2.86,1.25,4.06
	c0.43,1.4,0.9,2.75,1.4,4.03l-2.3,0.52c-3.62-6.9-7.77-11.91-12.45-15.03C145.3,124.83,141.07,123.7,137.2,124.59z"/>
<path class="st0" d="M162.06,94.79l-11.55-63.32l-9.69-0.63l-0.28-1.54l21.62-3.94l1.69,9.27c0.65-2.25,1.7-4.41,3.13-6.47
	c1.18-1.7,2.79-3.38,4.83-5.03c2.04-1.65,4.6-2.75,7.69-3.32c3.09-0.56,6.02-0.51,8.8,0.15c2.88,0.64,5.49,1.82,7.82,3.52
	c2.31,1.6,4.25,3.75,5.8,6.44c1.64,2.57,2.78,5.61,3.42,9.11l8.45,46.33l9.69,0.63l0.28,1.54l-30.12,5.49l-0.28-1.54l8.07-3.87
	l-8.45-46.33c-1.33-7.31-3.46-12.24-6.37-14.8c-2.83-2.68-5.79-3.73-8.88-3.17c-2.57,0.47-4.66,1.59-6.25,3.37
	c-1.59,1.78-2.89,3.67-3.91,5.66c-1.17,2.34-2.09,4.9-2.75,7.68l9.58,52.51l8.92,0.77l0.28,1.54l-30.12,5.49l-0.28-1.54
	L162.06,94.79z"/>
<path class="st0" d="M40.9,32.62c-1.92,0.51-3.68,1.63-5.28,3.35c-1.53,1.6-2.7,3.91-3.52,6.94c-0.82,3.03-1.16,6.86-1.01,11.48
	c0.24,4.59,1.23,10.12,2.94,16.6c1.72,6.47,3.61,11.76,5.68,15.87c2.17,4.08,4.42,7.27,6.76,9.57c2.32,2.2,4.63,3.59,6.95,4.16
	c2.42,0.55,4.79,0.51,7.12-0.1c2.63-0.7,4.97-1.86,7.03-3.49s3.77-3.55,5.13-5.75c1.36-2.2,2.28-4.67,2.75-7.39
	c0.57-2.75,0.68-5.59,0.33-8.53l2.28-0.6c0.45,3.34,0.35,6.62-0.31,9.83c-0.59,3.08-1.68,5.91-3.27,8.5
	c-1.59,2.59-3.65,4.81-6.19,6.68c-2.41,1.94-5.23,3.34-8.47,4.2c-3.94,1.05-7.95,1.24-12.02,0.59c-4-0.78-7.78-2.38-11.34-4.79
	c-3.59-2.51-6.8-5.83-9.63-9.95c-2.75-4.25-4.91-9.31-6.47-15.18c-1.56-5.87-2.18-11.28-1.87-16.23c0.38-5.08,1.47-9.54,3.27-13.38
	c1.77-3.94,4.11-7.16,7.02-9.66c2.88-2.61,6.14-4.39,9.78-5.36c2.43-0.64,4.66-0.8,6.7-0.48c2.14,0.3,3.98,0.73,5.54,1.29
	c1.81,0.71,3.46,1.63,4.95,2.75c0-1.62,0.44-3.26,1.3-4.89c0.97-1.66,1.95-2.85,2.96-3.55l2.28-0.6c0.15,1.37,0.36,2.77,0.63,4.22
	c0.22,1.24,0.47,2.58,0.74,4.03c0.38,1.42,0.74,2.78,1.09,4.1c0.4,1.52,0.82,3.09,1.25,4.7c0.5,1.49,0.97,2.83,1.39,4.02
	c0.48,1.39,0.99,2.71,1.54,3.98l-2.28,0.6c-3.86-6.77-8.18-11.64-12.97-14.59C49.01,32.58,44.74,31.6,40.9,32.62z"/>
<path class="st0" d="M97.05,186.31c-8.88,2.03-15,5.52-18.38,10.48c-3.3,4.83-4.15,10.72-2.57,17.66c1.05,4.59,2.99,7.91,5.81,9.94
	c2.83,2.04,5.57,2.75,8.22,2.15c2.45-0.56,4.43-1.76,5.94-3.61c1.61-1.87,2.88-3.83,3.82-5.86c1.09-2.29,1.89-4.89,2.41-7.8
	L97.05,186.31z M78.06,156.02c-3.06,0.7-5.37,2.35-6.92,4.96c-1.57,2.51-1.97,5.5-1.17,8.96c0.19,0.82,0.35,1.53,0.49,2.14
	c0.24,0.59,0.47,1.13,0.69,1.61c0.22,0.49,0.49,0.96,0.81,1.43l-11.54,5.86c-0.27-0.26-0.52-0.63-0.74-1.12
	c-0.22-0.49-0.45-1.03-0.69-1.61c-0.14-0.61-0.33-1.43-0.56-2.45c-0.49-2.14-0.45-4.3,0.13-6.47c0.55-2.27,1.63-4.4,3.21-6.37
	c1.67-2.1,3.77-3.92,6.32-5.47c2.62-1.67,5.77-2.93,9.45-3.77c7.35-1.68,13.59-0.9,18.73,2.33c5.24,3.2,8.65,8.28,10.24,15.21
	l10.49,45.91l9.71,0.2l0.35,1.53l-21.43,4.89l-2.1-9.18c-0.63,2.4-1.62,4.66-2.96,6.79c-1.1,1.75-2.65,3.45-4.64,5.08
	c-1.86,1.71-4.33,2.92-7.39,3.62c-7.35,1.68-13.3,1.22-17.87-1.39c-4.47-2.63-7.36-6.85-8.69-12.67c-0.65-2.86-0.54-5.89,0.34-9.09
	c0.98-3.23,2.8-6.33,5.45-9.3c2.75-2.99,6.48-5.72,11.17-8.19c4.67-2.57,10.48-4.65,17.42-6.23l-2.1-9.18
	c-1.75-7.65-4.14-12.74-7.19-15.27C84.12,156.25,81.12,155.32,78.06,156.02z"/>
<path class="st0" d="M120.26,41.04c-1.78-0.09-3.64,0.45-5.58,1.61c-1.83,1.06-3.6,2.97-5.31,5.71c-1.6,2.65-3.03,6.24-4.3,10.79
	c-1.17,4.55-1.92,10.28-2.26,17.18c-0.34,6.9-0.15,12.67,0.56,17.32c0.82,4.65,1.89,8.42,3.21,11.32c1.43,2.8,3.01,4.86,4.72,6.21
	c1.82,1.24,3.63,1.91,5.4,2c1.78,0.09,3.58-0.4,5.42-1.46c1.94-1.16,3.72-3.06,5.31-5.71c1.71-2.75,3.14-6.39,4.31-10.95
	c1.27-4.55,2.08-10.27,2.42-17.17c0.34-6.9,0.1-12.67-0.72-17.33c-0.71-4.65-1.79-8.37-3.22-11.16c-1.32-2.89-2.9-4.96-4.72-6.21
	C123.78,41.84,122.04,41.13,120.26,41.04z M120.38,38.69c3.87,0.19,7.54,1.26,11,3.22c3.58,1.85,6.64,4.52,9.19,8
	c2.66,3.38,4.66,7.51,5.99,12.4c1.44,4.79,2.01,10.21,1.71,16.27c-0.3,6.06-1.4,11.46-3.31,16.18c-1.8,4.63-4.19,8.54-7.18,11.75
	c-2.88,3.11-6.19,5.46-9.94,7.05c-3.64,1.5-7.39,2.15-11.26,1.96c-3.97-0.2-7.69-1.22-11.17-3.07c-3.47-1.95-6.53-4.62-9.19-8
	c-2.55-3.48-4.55-7.61-5.99-12.4c-1.33-4.89-1.85-10.36-1.55-16.42c0.3-6.06,1.35-11.41,3.15-16.03c1.91-4.73,4.3-8.64,7.18-11.75
	c2.99-3.21,6.3-5.56,9.94-7.05C112.6,39.2,116.4,38.49,120.38,38.69z"/>
<path class="st0" d="M69.91,142.36l-1.22,2.89l-16.64-6.99l-19.4,46.17c-2.47,5.89-3.22,10.63-2.23,14.22
	c1.03,3.5,2.8,5.77,5.31,6.83c3.28,1.38,6.54,1.33,9.77-0.15c3.37-1.54,6.24-4.59,8.61-9.15l2.17,0.91
	c-2.7,5.34-6.19,8.92-10.48,10.75c-4.15,1.77-8.4,1.75-12.74-0.08c-6.18-2.59-10.35-6.45-12.51-11.56
	c-2.13-5.21-1.97-10.7,0.46-16.49l19.46-46.31l-12.3-5.17l1.22-2.89l12.3,5.17l6.99-16.64l14.92-3.1l-10.34,24.6L69.91,142.36z"/>
<path class="st0" d="M213.61,124.61l0.57,3.09l-17.75,3.29l9.12,49.24c1.16,6.28,3.14,10.65,5.94,13.11c2.78,2.36,5.5,3.29,8.18,2.8
	c3.5-0.65,6.19-2.48,8.08-5.49c1.97-3.13,2.7-7.26,2.18-12.38l2.32-0.43c0.67,5.94-0.28,10.86-2.86,14.74
	c-2.5,3.76-6.06,6.07-10.69,6.93c-6.59,1.22-12.19,0.29-16.8-2.8c-4.63-3.19-7.52-7.87-8.67-14.04l-9.15-49.4l-13.12,2.43
	l-0.57-3.09l13.12-2.43l-3.29-17.75L191,101.65l4.86,26.24L213.61,124.61z"/>
</svg>
