<svg width="129" height="18" viewBox="0 0 129 18" fill="none" xmlns="http://www.w3.org/2000/svg">
<path d="M1.88 3.496C1.89067 3.37867 1.864 3.29333 1.8 3.24C1.736 3.18667 1.672 3.16 1.608 3.16C1.448 3.16 1.304 3.224 1.176 3.352L0.92 3.032C1.08 2.84 1.23467 2.664 1.384 2.504C1.53333 2.344 1.688 2.20533 1.848 2.088C2.008 1.97067 2.184 1.88 2.376 1.816C2.57867 1.752 2.808 1.72 3.064 1.72C3.52267 1.72 3.832 1.84267 3.992 2.088C4.152 2.32267 4.22667 2.62133 4.216 2.984L4.136 4.792H5.08L5.144 3.24C5.15467 3.09067 5.096 3.00533 4.968 2.984C4.85067 2.96267 4.74933 2.97333 4.664 3.016L4.52 2.744C4.68 2.552 4.824 2.38667 4.952 2.248C5.09067 2.10933 5.224 1.99733 5.352 1.912C5.49067 1.816 5.63467 1.74667 5.784 1.704C5.944 1.66133 6.12533 1.64 6.328 1.64C6.78667 1.64 7.096 1.74133 7.256 1.944C7.416 2.136 7.48533 2.456 7.464 2.904L7.384 4.792H8.328L8.392 2.952C8.40267 2.81333 8.34933 2.73333 8.232 2.712C8.11467 2.68 8.01333 2.69067 7.928 2.744L7.768 2.472C8.07733 2.088 8.35467 1.81067 8.6 1.64C8.856 1.45867 9.18667 1.368 9.592 1.368C10.0507 1.368 10.36 1.46933 10.52 1.672C10.68 1.864 10.7493 2.184 10.728 2.632L10.536 7.304C10.504 7.93333 10.3867 8.37067 10.184 8.616C9.992 8.85067 9.66133 8.968 9.192 8.968C8.76533 8.968 8.488 8.84533 8.36 8.6C8.14667 8.71733 7.912 8.808 7.656 8.872C7.4 8.936 7.08533 8.968 6.712 8.968C6.02933 8.968 5.56 8.81867 5.304 8.52C5.09067 8.66933 4.84 8.78133 4.552 8.856C4.27467 8.93067 3.912 8.968 3.464 8.968C2.824 8.968 2.36533 8.79733 2.088 8.456C1.82133 8.104 1.704 7.624 1.736 7.016L1.88 3.496ZM17.176 7.768C17.1227 8.792 16.6693 9.304 15.816 9.304H14.44L14.584 5.864H13.816L13.672 9.304H11.288L11.496 2.872C11.5067 2.59467 11.4907 2.40267 11.448 2.296C11.4053 2.17867 11.2667 2.12 11.032 2.12L11.064 1.576C11.32 1.576 11.5653 1.57067 11.8 1.56C12.0347 1.53867 12.2693 1.51733 12.504 1.496C12.7387 1.464 12.9787 1.432 13.224 1.4C13.48 1.35733 13.7467 1.31467 14.024 1.272L13.864 5H14.632L14.808 1.128C15.2133 1.04267 15.5653 0.967999 15.864 0.903999C16.1733 0.829333 16.504 0.792 16.856 0.792C17.0693 0.792 17.2293 0.818666 17.336 0.872C17.4427 0.925333 17.4907 1.02667 17.48 1.176L17.176 7.768ZM16.568 10.024L16.392 13.624C16.3813 13.848 16.3013 14.056 16.152 14.248C16.0027 14.44 15.8107 14.6053 15.576 14.744C15.352 14.8933 15.1013 15.0107 14.824 15.096C14.5573 15.1813 14.296 15.224 14.04 15.224C13.2933 15.224 12.936 14.9253 12.968 14.328L13.144 10.728H5.08V10.024H16.568ZM5.048 5.448H4.104L4.008 7.784C3.99733 7.92267 4.03467 8.03467 4.12 8.12C4.20533 8.19467 4.30667 8.232 4.424 8.232C4.52 8.232 4.62133 8.22133 4.728 8.2C4.83467 8.168 4.94667 8.12 5.064 8.056C4.98933 7.8 4.968 7.45333 5 7.016L5.048 5.448ZM8.296 5.448H7.352L7.256 7.784C7.24533 7.92267 7.28267 8.03467 7.368 8.12C7.464 8.19467 7.57067 8.232 7.688 8.232C7.89067 8.232 8.06667 8.18933 8.216 8.104V7.8L8.296 5.448ZM34.1736 7.864H31.9336L31.6456 13.624C31.635 13.848 31.5496 14.056 31.3896 14.248C31.2296 14.44 31.0323 14.6053 30.7976 14.744C30.563 14.8933 30.307 15.0107 30.0296 15.096C29.7523 15.1813 29.4856 15.224 29.2296 15.224C28.515 15.224 28.1576 14.9253 28.1576 14.328L28.3656 9.976C27.907 10.3067 27.4216 10.6053 26.9096 10.872C26.4083 11.1387 25.9016 11.3627 25.3896 11.544C24.8883 11.7253 24.403 11.8693 23.9336 11.976C23.4643 12.072 23.0376 12.12 22.6536 12.12C22.1096 12.12 21.6243 12.0773 21.1976 11.992C20.771 11.9067 20.4136 11.752 20.1256 11.528C19.8483 11.2933 19.6403 10.9787 19.5016 10.584C19.363 10.1893 19.3096 9.688 19.3416 9.08L19.6296 3.064H18.9416V2.36H27.1496V3.064H23.1336L22.8296 9.224C22.8083 9.55467 22.8243 9.82667 22.8776 10.04C22.9416 10.2533 23.0376 10.424 23.1656 10.552C23.2936 10.68 23.4536 10.7707 23.6456 10.824C23.8483 10.8773 24.083 10.904 24.3496 10.904C24.6056 10.904 24.899 10.8613 25.2296 10.776C25.5603 10.68 25.9016 10.552 26.2536 10.392C26.6163 10.232 26.979 10.0453 27.3416 9.832C27.715 9.608 28.0723 9.37333 28.4136 9.128L28.7176 3.144C28.739 2.71733 28.659 2.43467 28.4776 2.296C28.307 2.14667 28.067 2.072 27.7576 2.072L27.7896 1.528C28.2696 1.51733 28.7176 1.47467 29.1336 1.4C29.5496 1.31467 29.9283 1.22933 30.2696 1.144C30.6216 1.048 30.9363 0.967999 31.2136 0.903999C31.491 0.829333 31.7256 0.792 31.9176 0.792C32.067 0.792 32.1683 0.818666 32.2216 0.872C32.275 0.914666 32.2963 0.984 32.2856 1.08L31.9816 7H34.1736V7.864ZM43.2051 7.16C43.1838 7.49067 43.1145 7.768 42.9971 7.992C42.8798 8.216 42.7251 8.39733 42.5331 8.536C42.3411 8.67467 42.1278 8.776 41.8931 8.84C41.6585 8.89333 41.4185 8.92 41.1731 8.92C40.8745 8.92 40.6398 8.86667 40.4691 8.76C40.2985 8.65333 40.1705 8.50933 40.0851 8.328C39.7865 8.52 39.3971 8.66933 38.9171 8.776C38.4478 8.872 37.9678 8.92 37.4771 8.92C37.1358 8.92 36.8158 8.872 36.5171 8.776C36.2291 8.68 35.9785 8.54667 35.7651 8.376C35.5518 8.19467 35.3811 7.976 35.2531 7.72C35.1358 7.464 35.0878 7.176 35.1091 6.856L35.2851 3.384C35.2958 3.26667 35.2585 3.18133 35.1731 3.128C35.0985 3.064 35.0185 3.032 34.9331 3.032C34.8158 3.032 34.6931 3.05333 34.5651 3.096C34.4478 3.128 34.3465 3.176 34.2611 3.24L33.9891 2.904C34.1811 2.712 34.3998 2.536 34.6451 2.376C34.8905 2.20533 35.1465 2.06133 35.4131 1.944C35.6905 1.816 35.9678 1.71467 36.2451 1.64C36.5331 1.56533 36.8158 1.528 37.0931 1.528C37.5731 1.528 37.9358 1.63467 38.1811 1.848C38.4371 2.06133 38.5545 2.39733 38.5331 2.856L38.4531 4.44H40.1331L40.1971 3.384C40.2078 3.26667 40.1705 3.18133 40.0851 3.128C40.0105 3.064 39.9305 3.032 39.8451 3.032C39.7278 3.032 39.6051 3.05333 39.4771 3.096C39.3598 3.128 39.2585 3.176 39.1731 3.24L38.9011 2.904C39.0931 2.712 39.3065 2.536 39.5411 2.376C39.7865 2.20533 40.0425 2.06133 40.3091 1.944C40.5758 1.816 40.8478 1.71467 41.1251 1.64C41.4131 1.56533 41.6958 1.528 41.9731 1.528C42.4531 1.528 42.8158 1.63467 43.0611 1.848C43.3171 2.06133 43.4345 2.39733 43.4131 2.856L43.2051 7.16ZM37.2051 12.456C37.2051 11.5067 37.6638 10.776 38.5811 10.264C39.5091 9.752 40.8905 9.496 42.7251 9.496C44.4958 9.496 45.8078 9.72533 46.6611 10.184C47.5251 10.632 47.9571 11.3253 47.9571 12.264C47.9571 13.2133 47.4931 13.944 46.5651 14.456C45.6478 14.968 44.2718 15.224 42.4371 15.224C40.6558 15.224 39.3385 15 38.4851 14.552C37.6318 14.104 37.2051 13.4053 37.2051 12.456ZM44.4531 9.064L44.7251 3.144C44.7465 2.71733 44.6665 2.43467 44.4851 2.296C44.3145 2.14667 44.0745 2.072 43.7651 2.072L43.7971 1.528C44.2771 1.51733 44.7251 1.47467 45.1411 1.4C45.5571 1.31467 45.9358 1.22933 46.2771 1.144C46.6291 1.048 46.9438 0.967999 47.2211 0.903999C47.4985 0.829333 47.7331 0.792 47.9251 0.792C48.0745 0.792 48.1758 0.818666 48.2291 0.872C48.2825 0.914666 48.3038 0.984 48.2931 1.08L48.1171 4.76H50.0851V5.624H48.0691L47.9091 9.064H44.4531ZM40.5971 12.456C40.5971 13.0427 40.7625 13.5333 41.0931 13.928C41.4345 14.3227 41.8931 14.52 42.4691 14.52C42.7891 14.52 43.0771 14.456 43.3331 14.328C43.5891 14.2 43.8078 14.0293 43.9891 13.816C44.1705 13.6133 44.3091 13.3733 44.4051 13.096C44.5118 12.8293 44.5651 12.552 44.5651 12.264C44.5651 11.6773 44.3945 11.1867 44.0531 10.792C43.7225 10.3973 43.2691 10.2 42.6931 10.2C42.3731 10.2 42.0851 10.264 41.8291 10.392C41.5731 10.52 41.3545 10.6907 41.1731 10.904C40.9918 11.1067 40.8478 11.3467 40.7411 11.624C40.6451 11.8907 40.5971 12.168 40.5971 12.456ZM38.7251 8.136C38.9278 8.136 39.1465 8.09867 39.3811 8.024C39.6158 7.93867 39.8131 7.832 39.9731 7.704V7.688L40.1011 5.144H38.4211L38.2931 7.672C38.2825 7.82133 38.3198 7.93867 38.4051 8.024C38.5011 8.09867 38.6078 8.136 38.7251 8.136ZM55.9308 2.968C55.9521 2.81867 55.9254 2.70667 55.8508 2.632C55.7761 2.54667 55.6801 2.504 55.5628 2.504H54.8108V1.8H61.0508C61.8081 1.8 62.4374 1.88 62.9388 2.04C63.4401 2.2 63.8348 2.408 64.1228 2.664C64.4214 2.90933 64.6294 3.18667 64.7468 3.496C64.8748 3.80533 64.9441 4.11467 64.9548 4.424C64.9761 5.352 64.6881 6.11467 64.0908 6.712C63.4934 7.29867 62.6401 7.65067 61.5308 7.768L61.9468 7.832C62.2988 7.90667 62.5868 8.04 62.8108 8.232C63.0348 8.424 63.2161 8.648 63.3548 8.904C63.4934 9.16 63.6054 9.44267 63.6908 9.752C63.7868 10.0507 63.8774 10.3493 63.9628 10.648C64.0694 11.0213 64.2668 11.256 64.5548 11.352C64.8428 11.448 65.2428 11.3093 65.7548 10.936L66.0268 11.24C65.7814 11.5813 65.5094 11.8747 65.2108 12.12C64.9121 12.3547 64.6081 12.552 64.2988 12.712C64.0001 12.872 63.7014 12.9893 63.4028 13.064C63.1148 13.1387 62.8588 13.176 62.6348 13.176C62.3894 13.176 62.1494 13.1387 61.9148 13.064C61.6908 12.9893 61.4881 12.8613 61.3068 12.68C61.1254 12.4987 60.9654 12.264 60.8268 11.976C60.6881 11.688 60.5868 11.3253 60.5228 10.888C60.4801 10.6213 60.4268 10.344 60.3628 10.056C60.2988 9.768 60.2188 9.49067 60.1228 9.224C60.0268 8.95733 59.9148 8.72267 59.7868 8.52C59.6588 8.30667 59.5148 8.152 59.3548 8.056C59.2694 8.00267 59.1521 7.97067 59.0028 7.96C58.8641 7.94933 58.7308 7.93867 58.6028 7.928L58.2988 11.944C58.2774 12.168 58.2028 12.36 58.0748 12.52C57.9468 12.6693 57.7868 12.7973 57.5948 12.904C57.4028 13 57.1841 13.0693 56.9388 13.112C56.6934 13.1653 56.4481 13.192 56.2028 13.192C55.5094 13.192 55.1681 12.92 55.1788 12.376L55.9308 2.968ZM59.3228 2.488C59.2268 2.49867 59.1574 2.53067 59.1148 2.584C59.0721 2.62667 59.0454 2.712 59.0348 2.84L58.6668 7.24H59.6428C59.8348 7.24 60.0534 7.20267 60.2988 7.128C60.5441 7.04267 60.7734 6.89867 60.9868 6.696C61.2001 6.48267 61.3814 6.18933 61.5308 5.816C61.6801 5.432 61.7548 4.94133 61.7548 4.344C61.7548 4.12 61.7228 3.90133 61.6588 3.688C61.5948 3.464 61.4934 3.26667 61.3548 3.096C61.2161 2.91467 61.0401 2.77067 60.8268 2.664C60.6134 2.54667 60.3628 2.488 60.0748 2.488H59.3228ZM70.8789 13.208C70.3135 13.2187 69.7749 13.1333 69.2629 12.952C68.7615 12.76 68.3189 12.488 67.9349 12.136C67.5615 11.7733 67.2629 11.336 67.0389 10.824C66.8149 10.312 66.7029 9.736 66.7029 9.096C66.7029 8.296 66.8469 7.59733 67.1349 7C67.4229 6.392 67.8069 5.89067 68.2869 5.496C68.7669 5.09067 69.3162 4.792 69.9349 4.6C70.5535 4.39733 71.1989 4.296 71.8709 4.296C72.4895 4.296 73.0335 4.36 73.5029 4.488C73.9722 4.616 74.3669 4.78667 74.6869 5C75.0069 5.20267 75.2469 5.43733 75.4069 5.704C75.5669 5.97067 75.6469 6.24267 75.6469 6.52C75.6469 7.01067 75.5029 7.42133 75.2149 7.752C74.9269 8.08267 74.5269 8.36 74.0149 8.584C73.5029 8.79733 72.8895 8.968 72.1749 9.096C71.4709 9.21333 70.6975 9.30933 69.8549 9.384C69.8975 9.704 69.9935 9.99733 70.1429 10.264C70.3029 10.52 70.5002 10.744 70.7349 10.936C70.9695 11.128 71.2309 11.2773 71.5189 11.384C71.8175 11.4907 72.1375 11.544 72.4789 11.544C73.0015 11.544 73.4655 11.4587 73.8709 11.288C74.2762 11.1067 74.6549 10.8613 75.0069 10.552L75.2469 10.76C75.0869 11.144 74.8682 11.4853 74.5909 11.784C74.3135 12.0827 73.9882 12.3387 73.6149 12.552C73.2415 12.7653 72.8202 12.9253 72.3509 13.032C71.8922 13.1493 71.4015 13.208 70.8789 13.208ZM72.8949 5.928C72.8949 5.59733 72.8095 5.33067 72.6389 5.128C72.4789 4.92533 72.2229 4.824 71.8709 4.824C71.5935 4.824 71.3322 4.92533 71.0869 5.128C70.8415 5.32 70.6229 5.59733 70.4309 5.96C70.2495 6.312 70.1002 6.73867 69.9829 7.24C69.8762 7.73067 69.8229 8.26933 69.8229 8.856C70.3242 8.78133 70.7669 8.648 71.1509 8.456C71.5349 8.25333 71.8549 8.01867 72.1109 7.752C72.3669 7.47467 72.5589 7.18133 72.6869 6.872C72.8255 6.552 72.8949 6.23733 72.8949 5.928ZM79.7533 13.736C79.4333 13.8533 79.1879 14.056 79.0173 14.344C78.8573 14.632 78.7879 14.9787 78.8093 15.384C78.8306 15.6613 78.9319 15.8853 79.1133 16.056C79.2946 16.2373 79.5079 16.376 79.7533 16.472C80.0093 16.568 80.2759 16.632 80.5533 16.664C80.8306 16.696 81.0813 16.712 81.3053 16.712C81.5079 16.712 81.7319 16.7013 81.9773 16.68C82.2226 16.6587 82.4573 16.616 82.6813 16.552C82.9159 16.488 83.1346 16.4027 83.3373 16.296C83.5399 16.2 83.7053 16.072 83.8333 15.912C83.9399 15.784 84.0199 15.6133 84.0733 15.4C84.1373 15.1973 84.1639 14.984 84.1533 14.76C84.1426 14.536 84.0893 14.3173 83.9933 14.104C83.8973 13.8907 83.7373 13.7093 83.5133 13.56C83.2786 13.4213 83.0119 13.3253 82.7133 13.272C82.4146 13.2187 82.0999 13.1867 81.7693 13.176C81.4493 13.1653 81.1186 13.16 80.7773 13.16C80.4359 13.1707 80.1053 13.16 79.7853 13.128C79.2413 13.0747 78.8039 12.9253 78.4733 12.68C78.1426 12.424 77.9506 12.0933 77.8973 11.688C77.8333 11.3573 77.9079 11.016 78.1213 10.664C78.3453 10.312 78.6279 10.0187 78.9693 9.784C78.6279 9.63467 78.3559 9.42667 78.1533 9.16C77.9613 8.88267 77.8546 8.568 77.8333 8.216C77.8013 7.576 77.9026 7.016 78.1373 6.536C78.3826 6.056 78.7239 5.65067 79.1613 5.32C79.5986 4.98933 80.1213 4.73333 80.7293 4.552C81.3373 4.37067 81.9879 4.264 82.6813 4.232C83.5133 4.2 84.2066 4.25333 84.7613 4.392C85.2519 4.232 85.6626 4.01867 85.9933 3.752C86.3346 3.47467 86.6013 3.19733 86.7933 2.92C86.9533 2.97333 87.1239 3.08 87.3053 3.24C87.4866 3.38933 87.6466 3.56 87.7853 3.752C87.9346 3.944 88.0519 4.14667 88.1373 4.36C88.2333 4.56267 88.2759 4.73333 88.2653 4.872L86.0733 5C86.5533 5.384 86.8093 5.86933 86.8413 6.456C86.8839 7.17067 86.7773 7.75733 86.5213 8.216C86.2653 8.664 85.9079 9.02133 85.4493 9.288C85.0013 9.55467 84.4733 9.74667 83.8653 9.864C83.2573 9.98133 82.6279 10.056 81.9773 10.088C81.5719 10.1093 81.1933 10.1147 80.8413 10.104C80.4999 10.0933 80.1906 10.0667 79.9133 10.024L79.6893 10.2C79.6039 10.264 79.5399 10.3867 79.4973 10.568C79.4653 10.7493 79.5079 10.8933 79.6253 11C79.6999 11.0747 79.7799 11.1387 79.8653 11.192C79.9506 11.2347 80.0573 11.272 80.1853 11.304C80.3239 11.336 80.4946 11.3573 80.6973 11.368C80.9106 11.3787 81.1826 11.3787 81.5133 11.368C82.3133 11.3253 83.0333 11.32 83.6733 11.352C84.3133 11.3733 84.8733 11.4587 85.3533 11.608C85.8333 11.7573 86.2279 11.976 86.5373 12.264C86.8466 12.5413 87.0706 12.9093 87.2093 13.368C87.2946 13.6453 87.3426 13.9333 87.3533 14.232C87.3639 14.5413 87.3266 14.84 87.2413 15.128C87.1559 15.4267 87.0173 15.7093 86.8253 15.976C86.6439 16.2533 86.3986 16.4933 86.0893 16.696C85.5239 17.1013 84.8413 17.3733 84.0413 17.512C83.2519 17.6507 82.3559 17.72 81.3533 17.72C79.7959 17.72 78.6173 17.5173 77.8173 17.112C77.0279 16.7173 76.6173 16.1947 76.5853 15.544C76.5639 15.16 76.6226 14.8293 76.7613 14.552C76.9106 14.2853 77.1239 14.0613 77.4013 13.88C77.6786 13.7093 78.0146 13.5813 78.4093 13.496C78.8146 13.4213 79.2626 13.3947 79.7533 13.416V13.736ZM82.6813 4.872C82.4146 4.88267 82.1586 4.952 81.9133 5.08C81.6786 5.208 81.4706 5.4 81.2893 5.656C81.1186 5.912 80.9853 6.24267 80.8893 6.648C80.7933 7.05333 80.7613 7.53333 80.7933 8.088C80.8039 8.41867 80.8519 8.68 80.9373 8.872C81.0226 9.05333 81.1186 9.18667 81.2253 9.272C81.3426 9.35733 81.4653 9.41067 81.5933 9.432C81.7213 9.44267 81.8439 9.448 81.9613 9.448C82.2386 9.43733 82.4946 9.37333 82.7293 9.256C82.9746 9.13867 83.1826 8.95733 83.3533 8.712C83.5346 8.46667 83.6679 8.152 83.7533 7.768C83.8493 7.37333 83.8813 6.89333 83.8493 6.328C83.8173 5.76267 83.6946 5.37867 83.4813 5.176C83.2786 4.96267 83.0119 4.86133 82.6813 4.872ZM95.8366 6.504C95.8473 6.28 95.826 6.104 95.7726 5.976C95.73 5.83733 95.6606 5.736 95.5646 5.672C95.4793 5.59733 95.3726 5.54933 95.2446 5.528C95.1166 5.496 94.9833 5.48 94.8446 5.48L94.8606 4.952C95.3193 4.94133 95.7513 4.89867 96.1566 4.824C96.562 4.74933 96.9353 4.66933 97.2766 4.584C97.618 4.49867 97.922 4.424 98.1886 4.36C98.4553 4.296 98.6793 4.264 98.8606 4.264C99.01 4.264 99.1166 4.30667 99.1806 4.392C99.2446 4.47733 99.2713 4.568 99.2606 4.664L98.7646 10.632C98.7326 11.0907 98.8606 11.3787 99.1486 11.496C99.4473 11.6027 99.8793 11.4693 100.445 11.096L100.653 11.352C100.397 11.672 100.119 11.944 99.8206 12.168C99.522 12.392 99.2233 12.5787 98.9246 12.728C98.626 12.8667 98.3326 12.968 98.0446 13.032C97.7566 13.1067 97.4953 13.144 97.2606 13.144C96.8446 13.144 96.4926 13.064 96.2046 12.904C95.9273 12.744 95.7246 12.4933 95.5966 12.152C95.3513 12.4933 95.042 12.7493 94.6686 12.92C94.306 13.0907 93.8953 13.1867 93.4366 13.208C92.1353 13.2827 91.154 13.064 90.4926 12.552C89.8313 12.04 89.5433 11.272 89.6286 10.248L89.9486 6.136C89.9593 6.01867 89.922 5.928 89.8366 5.864C89.7513 5.8 89.666 5.768 89.5806 5.768C89.4633 5.768 89.346 5.78933 89.2286 5.832C89.1113 5.864 89.01 5.912 88.9246 5.976L88.6686 5.592C89.042 5.21867 89.506 4.90933 90.0606 4.664C90.6153 4.408 91.1646 4.28 91.7086 4.28C92.1886 4.28 92.5726 4.38667 92.8606 4.6C93.1593 4.81333 93.298 5.144 93.2766 5.592L92.8766 11.144C92.8553 11.3893 92.8606 11.5973 92.8926 11.768C92.9246 11.928 92.978 12.0613 93.0526 12.168C93.1273 12.264 93.2126 12.3387 93.3086 12.392C93.4153 12.4347 93.5273 12.456 93.6446 12.456C93.7513 12.456 93.89 12.4453 94.0606 12.424C94.242 12.392 94.4233 12.3333 94.6046 12.248C94.786 12.1627 94.9513 12.0347 95.1006 11.864C95.2606 11.6933 95.3833 11.464 95.4686 11.176L95.8366 6.504ZM105.247 10.664C105.215 11.1653 105.353 11.4587 105.663 11.544C105.983 11.6293 106.425 11.48 106.991 11.096L107.167 11.336C106.911 11.6453 106.633 11.9173 106.335 12.152C106.036 12.3867 105.737 12.5787 105.439 12.728C105.14 12.8773 104.847 12.9893 104.559 13.064C104.281 13.1387 104.025 13.176 103.791 13.176C103.119 13.176 102.633 12.9893 102.335 12.616C102.036 12.2427 101.913 11.7147 101.967 11.032L102.559 2.328C102.569 2.104 102.548 1.92267 102.495 1.784C102.452 1.64533 102.383 1.544 102.287 1.48C102.191 1.40533 102.079 1.35733 101.951 1.336C101.823 1.304 101.689 1.288 101.551 1.288L101.583 0.775999C102.041 0.765333 102.473 0.722666 102.879 0.648C103.295 0.573333 103.673 0.493333 104.015 0.407999C104.367 0.311999 104.676 0.231999 104.943 0.167999C105.22 0.0933329 105.449 0.0559998 105.631 0.0559998C105.78 0.0559998 105.876 0.0986662 105.919 0.183999C105.972 0.269333 105.993 0.359999 105.983 0.455999L105.247 10.664ZM117.234 10.696C117.191 11.1547 117.303 11.448 117.57 11.576C117.847 11.6933 118.274 11.5653 118.85 11.192L119.026 11.448C118.77 11.768 118.498 12.04 118.21 12.264C117.933 12.4773 117.65 12.6587 117.362 12.808C117.074 12.9467 116.791 13.048 116.514 13.112C116.247 13.176 115.997 13.208 115.762 13.208C115.314 13.208 114.946 13.128 114.658 12.968C114.381 12.808 114.183 12.5413 114.066 12.168C113.885 12.5093 113.623 12.7707 113.282 12.952C112.941 13.1227 112.562 13.208 112.146 13.208C111.559 13.208 111.01 13.1333 110.498 12.984C109.986 12.8347 109.538 12.6 109.154 12.28C108.781 11.9493 108.482 11.5333 108.258 11.032C108.045 10.52 107.938 9.912 107.938 9.208C107.938 8.30133 108.093 7.53867 108.402 6.92C108.722 6.29067 109.122 5.784 109.602 5.4C110.082 5.00533 110.61 4.72267 111.186 4.552C111.762 4.38133 112.306 4.296 112.818 4.296C113.319 4.296 113.751 4.38667 114.114 4.568C114.477 4.74933 114.754 5.02133 114.946 5.384L117.33 4.296H117.634L117.234 10.696ZM114.322 5.704C114.333 5.576 114.301 5.45867 114.226 5.352C114.162 5.24533 114.071 5.15467 113.954 5.08C113.837 5.00533 113.709 4.952 113.57 4.92C113.431 4.87733 113.293 4.856 113.154 4.856C112.866 4.856 112.599 4.94133 112.354 5.112C112.109 5.28267 111.895 5.55467 111.714 5.928C111.533 6.30133 111.389 6.78667 111.282 7.384C111.175 7.98133 111.122 8.70133 111.122 9.544C111.122 10.0027 111.138 10.424 111.17 10.808C111.213 11.1813 111.282 11.5013 111.378 11.768C111.485 12.0347 111.623 12.2427 111.794 12.392C111.965 12.5307 112.178 12.6 112.434 12.6C112.53 12.6 112.642 12.5893 112.77 12.568C112.909 12.536 113.047 12.4827 113.186 12.408C113.335 12.3333 113.479 12.2267 113.618 12.088C113.757 11.9387 113.874 11.752 113.97 11.528C113.97 11.4533 113.97 11.384 113.97 11.32C113.97 11.2453 113.975 11.1653 113.986 11.08L114.322 5.704ZM120.869 6.504C120.879 6.28 120.863 6.104 120.821 5.976C120.778 5.83733 120.709 5.736 120.613 5.672C120.517 5.59733 120.405 5.54933 120.277 5.528C120.149 5.496 120.015 5.48 119.877 5.48L119.909 4.952C120.367 4.94133 120.799 4.89867 121.205 4.824C121.61 4.74933 121.983 4.66933 122.325 4.584C122.666 4.49867 122.97 4.424 123.237 4.36C123.503 4.296 123.727 4.264 123.909 4.264C124.058 4.264 124.154 4.296 124.197 4.36C124.25 4.41333 124.277 4.488 124.277 4.584L124.165 6.216C124.495 6.056 124.81 5.87467 125.109 5.672C125.418 5.45867 125.701 5.25067 125.957 5.048C126.223 4.83467 126.458 4.62667 126.661 4.424C126.874 4.21067 127.05 4.024 127.189 3.864C127.37 3.91733 127.557 4.04533 127.749 4.248C127.941 4.44 128.111 4.664 128.261 4.92C128.421 5.176 128.549 5.44267 128.645 5.72C128.751 5.98667 128.805 6.22133 128.805 6.424L124.101 7.144L123.717 12.984L120.437 13.144L120.869 6.504Z" fill="#6A5542"/>
</svg>
