<svg width="159" height="39" viewBox="0 0 159 39" fill="none" xmlns="http://www.w3.org/2000/svg">
<path d="M1.328 13V1.8H6.176C7.17867 1.8 8.04267 1.96533 8.768 2.296C9.49333 2.616 10.0533 3.08 10.448 3.688C10.8427 4.296 11.04 5.02133 11.04 5.864C11.04 6.696 10.8427 7.416 10.448 8.024C10.0533 8.632 9.49333 9.10133 8.768 9.432C8.04267 9.752 7.17867 9.912 6.176 9.912H2.768L3.92 8.744V13H1.328ZM3.92 9.032L2.768 7.8H6.032C6.832 7.8 7.42933 7.62933 7.824 7.288C8.21867 6.94667 8.416 6.472 8.416 5.864C8.416 5.24533 8.21867 4.76533 7.824 4.424C7.42933 4.08267 6.832 3.912 6.032 3.912H2.768L3.92 2.68V9.032ZM17.9164 13V11.32L17.7564 10.952V7.944C17.7564 7.41067 17.591 6.99467 17.2604 6.696C16.9404 6.39733 16.4444 6.248 15.7724 6.248C15.3137 6.248 14.8604 6.32267 14.4124 6.472C13.975 6.61067 13.6017 6.80267 13.2924 7.048L12.3964 5.304C12.8657 4.97333 13.431 4.71733 14.0924 4.536C14.7537 4.35467 15.4257 4.264 16.1084 4.264C17.4204 4.264 18.439 4.57333 19.1644 5.192C19.8897 5.81067 20.2524 6.776 20.2524 8.088V13H17.9164ZM15.2924 13.128C14.6204 13.128 14.0444 13.016 13.5644 12.792C13.0844 12.5573 12.7164 12.2427 12.4604 11.848C12.2044 11.4533 12.0764 11.0107 12.0764 10.52C12.0764 10.008 12.199 9.56 12.4444 9.176C12.7004 8.792 13.1004 8.49333 13.6444 8.28C14.1884 8.056 14.8977 7.944 15.7724 7.944H18.0604V9.4H16.0444C15.4577 9.4 15.0524 9.496 14.8284 9.688C14.615 9.88 14.5084 10.12 14.5084 10.408C14.5084 10.728 14.631 10.984 14.8764 11.176C15.1324 11.3573 15.479 11.448 15.9164 11.448C16.3324 11.448 16.7057 11.352 17.0364 11.16C17.367 10.9573 17.607 10.664 17.7564 10.28L18.1404 11.432C17.959 11.9867 17.6284 12.408 17.1484 12.696C16.6684 12.984 16.0497 13.128 15.2924 13.128ZM22.5114 13V4.392H25.0074V13H22.5114ZM23.7594 3.192C23.3007 3.192 22.9274 3.05867 22.6394 2.792C22.3514 2.52533 22.2074 2.19467 22.2074 1.8C22.2074 1.40533 22.3514 1.07467 22.6394 0.808C22.9274 0.541333 23.3007 0.407999 23.7594 0.407999C24.218 0.407999 24.5914 0.535999 24.8794 0.792C25.1674 1.03733 25.3114 1.35733 25.3114 1.752C25.3114 2.168 25.1674 2.51467 24.8794 2.792C24.602 3.05867 24.2287 3.192 23.7594 3.192ZM29.3879 11.24L29.4519 8.2L33.4679 4.392H36.4439L32.5879 8.312L31.2919 9.368L29.3879 11.24ZM27.3239 13V1.128H29.8199V13H27.3239ZM33.7399 13L30.8279 9.384L32.3959 7.448L36.7639 13H33.7399ZM40.5011 13.128C39.7651 13.128 39.0558 13.0427 38.3731 12.872C37.7011 12.6907 37.1678 12.4667 36.7731 12.2L37.6051 10.408C37.9998 10.6533 38.4638 10.856 38.9971 11.016C39.5411 11.1653 40.0745 11.24 40.5971 11.24C41.1731 11.24 41.5785 11.1707 41.8131 11.032C42.0585 10.8933 42.1811 10.7013 42.1811 10.456C42.1811 10.2533 42.0851 10.104 41.8931 10.008C41.7118 9.90133 41.4665 9.82133 41.1571 9.768C40.8478 9.71467 40.5065 9.66133 40.1331 9.608C39.7705 9.55467 39.4025 9.48533 39.0291 9.4C38.6558 9.304 38.3145 9.16533 38.0051 8.984C37.6958 8.80267 37.4451 8.55733 37.2531 8.248C37.0718 7.93867 36.9811 7.53867 36.9811 7.048C36.9811 6.504 37.1358 6.024 37.4451 5.608C37.7651 5.192 38.2238 4.86667 38.8211 4.632C39.4185 4.38667 40.1331 4.264 40.9651 4.264C41.5518 4.264 42.1491 4.328 42.7571 4.456C43.3651 4.584 43.8718 4.77067 44.2771 5.016L43.4451 6.792C43.0291 6.54667 42.6078 6.38133 42.1811 6.296C41.7651 6.2 41.3598 6.152 40.9651 6.152C40.4105 6.152 40.0051 6.22667 39.7491 6.376C39.4931 6.52533 39.3651 6.71733 39.3651 6.952C39.3651 7.16533 39.4558 7.32533 39.6371 7.432C39.8291 7.53867 40.0798 7.624 40.3891 7.688C40.6985 7.752 41.0345 7.81067 41.3971 7.864C41.7705 7.90667 42.1438 7.976 42.5171 8.072C42.8905 8.168 43.2265 8.30667 43.5251 8.488C43.8345 8.65867 44.0851 8.89867 44.2771 9.208C44.4691 9.50667 44.5651 9.90133 44.5651 10.392C44.5651 10.9253 44.4051 11.4 44.0851 11.816C43.7651 12.2213 43.3011 12.5413 42.6931 12.776C42.0958 13.0107 41.3651 13.128 40.5011 13.128ZM51.6411 13.192C50.7771 13.192 49.9718 13.0533 49.2251 12.776C48.4891 12.488 47.8491 12.0827 47.3051 11.56C46.7611 11.0373 46.3345 10.424 46.0251 9.72C45.7265 9.016 45.5771 8.24267 45.5771 7.4C45.5771 6.55733 45.7265 5.784 46.0251 5.08C46.3345 4.376 46.7611 3.76267 47.3051 3.24C47.8598 2.71733 48.5051 2.31733 49.2411 2.04C49.9771 1.752 50.7825 1.608 51.6571 1.608C52.6278 1.608 53.5025 1.77867 54.2811 2.12C55.0705 2.45067 55.7318 2.94133 56.2651 3.592L54.6011 5.128C54.2171 4.69067 53.7905 4.36533 53.3211 4.152C52.8518 3.928 52.3398 3.816 51.7851 3.816C51.2625 3.816 50.7825 3.90133 50.3451 4.072C49.9078 4.24267 49.5291 4.488 49.2091 4.808C48.8891 5.128 48.6385 5.50667 48.4571 5.944C48.2865 6.38133 48.2011 6.86667 48.2011 7.4C48.2011 7.93333 48.2865 8.41867 48.4571 8.856C48.6385 9.29333 48.8891 9.672 49.2091 9.992C49.5291 10.312 49.9078 10.5573 50.3451 10.728C50.7825 10.8987 51.2625 10.984 51.7851 10.984C52.3398 10.984 52.8518 10.8773 53.3211 10.664C53.7905 10.44 54.2171 10.104 54.6011 9.656L56.2651 11.192C55.7318 11.8427 55.0705 12.3387 54.2811 12.68C53.5025 13.0213 52.6225 13.192 51.6411 13.192ZM61.6386 13.128C60.7213 13.128 59.9053 12.936 59.1906 12.552C58.4866 12.168 57.9266 11.6453 57.5106 10.984C57.1053 10.312 56.9026 9.54933 56.9026 8.696C56.9026 7.832 57.1053 7.06933 57.5106 6.408C57.9266 5.736 58.4866 5.21333 59.1906 4.84C59.9053 4.456 60.7213 4.264 61.6386 4.264C62.5453 4.264 63.356 4.456 64.0706 4.84C64.7853 5.21333 65.3453 5.73067 65.7506 6.392C66.156 7.05333 66.3586 7.82133 66.3586 8.696C66.3586 9.54933 66.156 10.312 65.7506 10.984C65.3453 11.6453 64.7853 12.168 64.0706 12.552C63.356 12.936 62.5453 13.128 61.6386 13.128ZM61.6386 11.08C62.0546 11.08 62.428 10.984 62.7586 10.792C63.0893 10.6 63.3506 10.328 63.5426 9.976C63.7346 9.61333 63.8306 9.18667 63.8306 8.696C63.8306 8.19467 63.7346 7.768 63.5426 7.416C63.3506 7.064 63.0893 6.792 62.7586 6.6C62.428 6.408 62.0546 6.312 61.6386 6.312C61.2226 6.312 60.8493 6.408 60.5186 6.6C60.188 6.792 59.9213 7.064 59.7186 7.416C59.5266 7.768 59.4306 8.19467 59.4306 8.696C59.4306 9.18667 59.5266 9.61333 59.7186 9.976C59.9213 10.328 60.188 10.6 60.5186 10.792C60.8493 10.984 61.2226 11.08 61.6386 11.08ZM68.331 13V4.2C68.331 3.22933 68.619 2.456 69.195 1.88C69.771 1.29333 70.5923 0.999999 71.659 0.999999C72.0217 0.999999 72.3683 1.03733 72.699 1.112C73.0403 1.18667 73.3283 1.304 73.563 1.464L72.907 3.272C72.7683 3.176 72.6137 3.10133 72.443 3.048C72.2723 2.99467 72.091 2.968 71.899 2.968C71.5363 2.968 71.2537 3.07467 71.051 3.288C70.859 3.49067 70.763 3.8 70.763 4.216V5.016L70.827 6.088V13H68.331ZM67.003 6.504V4.584H72.971V6.504H67.003ZM74.6435 13V4.2C74.6435 3.22933 74.9315 2.456 75.5075 1.88C76.0835 1.29333 76.9048 0.999999 77.9715 0.999999C78.3342 0.999999 78.6808 1.03733 79.0115 1.112C79.3528 1.18667 79.6408 1.304 79.8755 1.464L79.2195 3.272C79.0808 3.176 78.9262 3.10133 78.7555 3.048C78.5848 2.99467 78.4035 2.968 78.2115 2.968C77.8488 2.968 77.5662 3.07467 77.3635 3.288C77.1715 3.49067 77.0755 3.8 77.0755 4.216V5.016L77.1395 6.088V13H74.6435ZM73.3155 6.504V4.584H79.2835V6.504H73.3155ZM84.6896 13.128C83.7083 13.128 82.8443 12.936 82.0976 12.552C81.3616 12.168 80.791 11.6453 80.3856 10.984C79.9803 10.312 79.7776 9.54933 79.7776 8.696C79.7776 7.832 79.975 7.06933 80.3696 6.408C80.775 5.736 81.3243 5.21333 82.0176 4.84C82.711 4.456 83.495 4.264 84.3696 4.264C85.2123 4.264 85.9696 4.44533 86.6416 4.808C87.3243 5.16 87.863 5.672 88.2576 6.344C88.6523 7.00533 88.8496 7.8 88.8496 8.728C88.8496 8.824 88.8443 8.936 88.8336 9.064C88.823 9.18133 88.8123 9.29333 88.8016 9.4H81.8096V7.944H87.4896L86.5296 8.376C86.5296 7.928 86.439 7.53867 86.2576 7.208C86.0763 6.87733 85.8256 6.62133 85.5056 6.44C85.1856 6.248 84.8123 6.152 84.3856 6.152C83.959 6.152 83.5803 6.248 83.2496 6.44C82.9296 6.62133 82.679 6.88267 82.4976 7.224C82.3163 7.55467 82.2256 7.94933 82.2256 8.408V8.792C82.2256 9.26133 82.327 9.67733 82.5296 10.04C82.743 10.392 83.0363 10.664 83.4096 10.856C83.7936 11.0373 84.2416 11.128 84.7536 11.128C85.2123 11.128 85.6123 11.0587 85.9536 10.92C86.3056 10.7813 86.6256 10.5733 86.9136 10.296L88.2416 11.736C87.847 12.184 87.351 12.5307 86.7536 12.776C86.1563 13.0107 85.4683 13.128 84.6896 13.128ZM94.7834 13.128C93.802 13.128 92.938 12.936 92.1914 12.552C91.4554 12.168 90.8847 11.6453 90.4794 10.984C90.074 10.312 89.8714 9.54933 89.8714 8.696C89.8714 7.832 90.0687 7.06933 90.4634 6.408C90.8687 5.736 91.418 5.21333 92.1114 4.84C92.8047 4.456 93.5887 4.264 94.4634 4.264C95.306 4.264 96.0634 4.44533 96.7354 4.808C97.418 5.16 97.9567 5.672 98.3514 6.344C98.746 7.00533 98.9434 7.8 98.9434 8.728C98.9434 8.824 98.938 8.936 98.9274 9.064C98.9167 9.18133 98.906 9.29333 98.8954 9.4H91.9034V7.944H97.5834L96.6234 8.376C96.6234 7.928 96.5327 7.53867 96.3514 7.208C96.17 6.87733 95.9194 6.62133 95.5994 6.44C95.2794 6.248 94.906 6.152 94.4794 6.152C94.0527 6.152 93.674 6.248 93.3434 6.44C93.0234 6.62133 92.7727 6.88267 92.5914 7.224C92.41 7.55467 92.3194 7.94933 92.3194 8.408V8.792C92.3194 9.26133 92.4207 9.67733 92.6234 10.04C92.8367 10.392 93.13 10.664 93.5034 10.856C93.8874 11.0373 94.3354 11.128 94.8474 11.128C95.306 11.128 95.706 11.0587 96.0474 10.92C96.3994 10.7813 96.7194 10.5733 97.0074 10.296L98.3354 11.736C97.9407 12.184 97.4447 12.5307 96.8474 12.776C96.25 13.0107 95.562 13.128 94.7834 13.128ZM105.312 13V1.8H110.784C112.192 1.8 113.248 2.06667 113.952 2.6C114.667 3.13333 115.024 3.83733 115.024 4.712C115.024 5.29867 114.88 5.81067 114.592 6.248C114.304 6.67467 113.91 7.00533 113.408 7.24C112.907 7.47467 112.331 7.592 111.68 7.592L111.984 6.936C112.688 6.936 113.312 7.05333 113.856 7.288C114.4 7.512 114.822 7.848 115.12 8.296C115.43 8.744 115.584 9.29333 115.584 9.944C115.584 10.904 115.206 11.656 114.448 12.2C113.691 12.7333 112.576 13 111.104 13H105.312ZM107.888 11.048H110.912C111.584 11.048 112.091 10.9413 112.432 10.728C112.784 10.504 112.96 10.152 112.96 9.672C112.96 9.20267 112.784 8.856 112.432 8.632C112.091 8.39733 111.584 8.28 110.912 8.28H107.696V6.392H110.464C111.094 6.392 111.574 6.28533 111.904 6.072C112.246 5.848 112.416 5.512 112.416 5.064C112.416 4.62667 112.246 4.30133 111.904 4.088C111.574 3.864 111.094 3.752 110.464 3.752H107.888V11.048ZM121.467 13.128C120.549 13.128 119.733 12.936 119.019 12.552C118.315 12.168 117.755 11.6453 117.339 10.984C116.933 10.312 116.731 9.54933 116.731 8.696C116.731 7.832 116.933 7.06933 117.339 6.408C117.755 5.736 118.315 5.21333 119.019 4.84C119.733 4.456 120.549 4.264 121.467 4.264C122.373 4.264 123.184 4.456 123.899 4.84C124.613 5.21333 125.173 5.73067 125.579 6.392C125.984 7.05333 126.187 7.82133 126.187 8.696C126.187 9.54933 125.984 10.312 125.579 10.984C125.173 11.6453 124.613 12.168 123.899 12.552C123.184 12.936 122.373 13.128 121.467 13.128ZM121.467 11.08C121.883 11.08 122.256 10.984 122.587 10.792C122.917 10.6 123.179 10.328 123.371 9.976C123.563 9.61333 123.659 9.18667 123.659 8.696C123.659 8.19467 123.563 7.768 123.371 7.416C123.179 7.064 122.917 6.792 122.587 6.6C122.256 6.408 121.883 6.312 121.467 6.312C121.051 6.312 120.677 6.408 120.347 6.6C120.016 6.792 119.749 7.064 119.547 7.416C119.355 7.768 119.259 8.19467 119.259 8.696C119.259 9.18667 119.355 9.61333 119.547 9.976C119.749 10.328 120.016 10.6 120.347 10.792C120.677 10.984 121.051 11.08 121.467 11.08ZM127.855 13V1.128H130.351V13H127.855ZM136.364 13.128C135.553 13.128 134.822 12.9467 134.172 12.584C133.521 12.2107 133.004 11.6933 132.62 11.032C132.246 10.3707 132.06 9.592 132.06 8.696C132.06 7.78933 132.246 7.00533 132.62 6.344C133.004 5.68267 133.521 5.17067 134.172 4.808C134.822 4.44533 135.553 4.264 136.364 4.264C137.089 4.264 137.724 4.424 138.268 4.744C138.812 5.064 139.233 5.54933 139.532 6.2C139.83 6.85067 139.98 7.68267 139.98 8.696C139.98 9.69867 139.836 10.5307 139.548 11.192C139.26 11.8427 138.844 12.328 138.3 12.648C137.766 12.968 137.121 13.128 136.364 13.128ZM136.796 11.08C137.201 11.08 137.569 10.984 137.9 10.792C138.23 10.6 138.492 10.328 138.684 9.976C138.886 9.61333 138.988 9.18667 138.988 8.696C138.988 8.19467 138.886 7.768 138.684 7.416C138.492 7.064 138.23 6.792 137.9 6.6C137.569 6.408 137.201 6.312 136.796 6.312C136.38 6.312 136.006 6.408 135.676 6.6C135.345 6.792 135.078 7.064 134.876 7.416C134.684 7.768 134.588 8.19467 134.588 8.696C134.588 9.18667 134.684 9.61333 134.876 9.976C135.078 10.328 135.345 10.6 135.676 10.792C136.006 10.984 136.38 11.08 136.796 11.08ZM139.052 13V11.24L139.1 8.68L138.94 6.136V1.128H141.436V13H139.052ZM0.912 38V26.8H6.304C7.34933 26.8 8.25067 26.9707 9.008 27.312C9.776 27.6533 10.368 28.144 10.784 28.784C11.2 29.4133 11.408 30.16 11.408 31.024C11.408 31.888 11.2 32.6347 10.784 33.264C10.368 33.8933 9.776 34.384 9.008 34.736C8.25067 35.0773 7.34933 35.248 6.304 35.248H3.008L4.688 33.632V38H0.912ZM4.688 34.048L3.008 32.336H6.064C6.58667 32.336 6.97067 32.2187 7.216 31.984C7.472 31.7493 7.6 31.4293 7.6 31.024C7.6 30.6187 7.472 30.2987 7.216 30.064C6.97067 29.8293 6.58667 29.712 6.064 29.712H3.008L4.688 28V34.048ZM17.7523 38V36.448L17.4963 36.032V33.088C17.4963 32.6613 17.3629 32.336 17.0963 32.112C16.8403 31.888 16.4189 31.776 15.8323 31.776C15.4376 31.776 15.0376 31.84 14.6323 31.968C14.2269 32.0853 13.8803 32.2507 13.5923 32.464L12.4403 30.08C12.9523 29.76 13.5656 29.5147 14.2803 29.344C14.9949 29.1733 15.6936 29.088 16.3763 29.088C17.8803 29.088 19.0429 29.424 19.8643 30.096C20.6963 30.768 21.1123 31.8347 21.1123 33.296V38H17.7523ZM15.2723 38.16C14.5576 38.16 13.9603 38.0373 13.4803 37.792C13.0003 37.5467 12.6376 37.2213 12.3923 36.816C12.1469 36.4 12.0243 35.9413 12.0243 35.44C12.0243 34.8747 12.1683 34.3947 12.4563 34C12.7443 33.6053 13.1816 33.3067 13.7682 33.104C14.3656 32.9013 15.1176 32.8 16.0243 32.8H17.8483V34.544H16.6003C16.2163 34.544 15.9336 34.608 15.7523 34.736C15.5816 34.8533 15.4963 35.0347 15.4963 35.28C15.4963 35.4827 15.5709 35.6533 15.7203 35.792C15.8803 35.92 16.0936 35.984 16.3602 35.984C16.6056 35.984 16.8296 35.92 17.0323 35.792C17.2456 35.6533 17.4003 35.44 17.4963 35.152L17.9603 36.224C17.8216 36.8747 17.5283 37.36 17.0803 37.68C16.6323 38 16.0296 38.16 15.2723 38.16ZM22.675 38V29.248H26.291V38H22.675ZM24.483 28.544C23.8217 28.544 23.2937 28.368 22.899 28.016C22.5043 27.664 22.307 27.2267 22.307 26.704C22.307 26.1813 22.5043 25.744 22.899 25.392C23.2937 25.04 23.8217 24.864 24.483 24.864C25.1443 24.864 25.6723 25.0293 26.067 25.36C26.4617 25.6907 26.659 26.1173 26.659 26.64C26.659 27.1947 26.4617 27.6533 26.067 28.016C25.6723 28.368 25.1443 28.544 24.483 28.544ZM30.9178 36.56L30.9978 32.304L34.0218 29.248H38.2938L34.2938 33.44L32.4858 34.896L30.9178 36.56ZM27.8938 38V26.128H31.5098V38H27.8938ZM34.2138 38L31.8138 34.96L34.0378 32.224L38.5818 38H34.2138ZM42.4115 38.16C41.6648 38.16 40.9288 38.08 40.2035 37.92C39.4782 37.76 38.8915 37.552 38.4435 37.296L39.4355 34.912C39.8515 35.1573 40.3315 35.3493 40.8755 35.488C41.4302 35.6267 41.9688 35.696 42.4915 35.696C42.9288 35.696 43.2222 35.6587 43.3715 35.584C43.5315 35.5093 43.6115 35.408 43.6115 35.28C43.6115 35.152 43.5208 35.0613 43.3395 35.008C43.1582 34.944 42.9182 34.896 42.6195 34.864C42.3208 34.832 41.9902 34.7947 41.6275 34.752C41.2755 34.6987 40.9182 34.624 40.5555 34.528C40.1928 34.432 39.8622 34.288 39.5635 34.096C39.2648 33.904 39.0248 33.648 38.8435 33.328C38.6622 32.9973 38.5715 32.5813 38.5715 32.08C38.5715 31.5253 38.7368 31.024 39.0675 30.576C39.4088 30.128 39.9102 29.7707 40.5715 29.504C41.2435 29.2267 42.0702 29.088 43.0515 29.088C43.6915 29.088 44.3315 29.1467 44.9715 29.264C45.6115 29.3813 46.1608 29.5627 46.6195 29.808L45.6275 32.192C45.1795 31.9467 44.7368 31.7813 44.2995 31.696C43.8728 31.6 43.4728 31.552 43.0995 31.552C42.6408 31.552 42.3262 31.5947 42.1555 31.68C41.9955 31.7653 41.9155 31.8613 41.9155 31.968C41.9155 32.096 42.0062 32.192 42.1875 32.256C42.3688 32.32 42.6088 32.368 42.9075 32.4C43.2062 32.432 43.5315 32.4747 43.8835 32.528C44.2462 32.5707 44.6035 32.6453 44.9555 32.752C45.3182 32.848 45.6488 32.992 45.9475 33.184C46.2462 33.376 46.4862 33.6373 46.6675 33.968C46.8488 34.288 46.9395 34.6987 46.9395 35.2C46.9395 35.7227 46.7742 36.2133 46.4435 36.672C46.1128 37.12 45.6115 37.4827 44.9395 37.76C44.2675 38.0267 43.4248 38.16 42.4115 38.16ZM53.9384 38.256C53.0424 38.256 52.2104 38.1173 51.4424 37.84C50.685 37.552 50.0237 37.1467 49.4584 36.624C48.9037 36.1013 48.4717 35.4827 48.1624 34.768C47.853 34.0533 47.6984 33.264 47.6984 32.4C47.6984 31.536 47.853 30.7467 48.1624 30.032C48.4717 29.3173 48.9037 28.6987 49.4584 28.176C50.0237 27.6533 50.685 27.2533 51.4424 26.976C52.2104 26.688 53.0424 26.544 53.9384 26.544C55.037 26.544 56.0077 26.736 56.8504 27.12C57.7037 27.504 58.4077 28.0587 58.9624 28.784L56.5784 30.912C56.2477 30.496 55.8797 30.176 55.4744 29.952C55.0797 29.7173 54.6317 29.6 54.1304 29.6C53.7357 29.6 53.3784 29.664 53.0584 29.792C52.7384 29.92 52.461 30.1067 52.2264 30.352C52.0024 30.5973 51.8264 30.896 51.6984 31.248C51.5704 31.5893 51.5064 31.9733 51.5064 32.4C51.5064 32.8267 51.5704 33.216 51.6984 33.568C51.8264 33.9093 52.0024 34.2027 52.2264 34.448C52.461 34.6933 52.7384 34.88 53.0584 35.008C53.3784 35.136 53.7357 35.2 54.1304 35.2C54.6317 35.2 55.0797 35.088 55.4744 34.864C55.8797 34.6293 56.2477 34.304 56.5784 33.888L58.9624 36.016C58.4077 36.7307 57.7037 37.2853 56.8504 37.68C56.0077 38.064 55.037 38.256 53.9384 38.256ZM64.3146 38.16C63.3226 38.16 62.4426 37.968 61.6746 37.584C60.9173 37.1893 60.32 36.6507 59.8826 35.968C59.4453 35.2853 59.2266 34.5013 59.2266 33.616C59.2266 32.7307 59.4453 31.9467 59.8826 31.264C60.32 30.5813 60.9173 30.048 61.6746 29.664C62.4426 29.28 63.3226 29.088 64.3146 29.088C65.3066 29.088 66.1866 29.28 66.9546 29.664C67.7226 30.048 68.32 30.5813 68.7466 31.264C69.184 31.9467 69.4026 32.7307 69.4026 33.616C69.4026 34.5013 69.184 35.2853 68.7466 35.968C68.32 36.6507 67.7226 37.1893 66.9546 37.584C66.1866 37.968 65.3066 38.16 64.3146 38.16ZM64.3146 35.344C64.5813 35.344 64.8213 35.28 65.0346 35.152C65.248 35.024 65.4186 34.832 65.5466 34.576C65.6746 34.3093 65.7386 33.9893 65.7386 33.616C65.7386 33.232 65.6746 32.9173 65.5466 32.672C65.4186 32.416 65.248 32.224 65.0346 32.096C64.8213 31.968 64.5813 31.904 64.3146 31.904C64.048 31.904 63.808 31.968 63.5946 32.096C63.3813 32.224 63.2106 32.416 63.0826 32.672C62.9546 32.9173 62.8906 33.232 62.8906 33.616C62.8906 33.9893 62.9546 34.3093 63.0826 34.576C63.2106 34.832 63.3813 35.024 63.5946 35.152C63.808 35.28 64.048 35.344 64.3146 35.344ZM70.9344 38V29.68C70.9344 28.5493 71.2704 27.648 71.9424 26.976C72.625 26.304 73.5904 25.968 74.8384 25.968C75.2224 25.968 75.6064 26.0053 75.9904 26.08C76.385 26.144 76.7157 26.2507 76.9824 26.4L76.1184 28.912C76.001 28.8587 75.873 28.8107 75.7344 28.768C75.5957 28.7253 75.4517 28.704 75.3024 28.704C75.0464 28.704 74.8384 28.784 74.6784 28.944C74.5184 29.104 74.4384 29.36 74.4384 29.712V30.128L74.5504 31.616V38H70.9344ZM69.7344 32.368V29.728H76.3424V32.368H69.7344ZM78.0594 38V29.68C78.0594 28.5493 78.3954 27.648 79.0674 26.976C79.75 26.304 80.7154 25.968 81.9634 25.968C82.3474 25.968 82.7314 26.0053 83.1154 26.08C83.51 26.144 83.8407 26.2507 84.1074 26.4L83.2434 28.912C83.126 28.8587 82.998 28.8107 82.8594 28.768C82.7207 28.7253 82.5767 28.704 82.4274 28.704C82.1714 28.704 81.9634 28.784 81.8034 28.944C81.6434 29.104 81.5634 29.36 81.5634 29.712V30.128L81.6754 31.616V38H78.0594ZM76.8594 32.368V29.728H83.4674V32.368H76.8594ZM89.2258 38.16C88.1591 38.16 87.2258 37.9627 86.4258 37.568C85.6364 37.1733 85.0231 36.6347 84.5858 35.952C84.1484 35.2587 83.9298 34.48 83.9298 33.616C83.9298 32.7307 84.1431 31.9467 84.5698 31.264C85.0071 30.5813 85.5991 30.048 86.3458 29.664C87.1031 29.28 87.9511 29.088 88.8898 29.088C89.7538 29.088 90.5484 29.2587 91.2738 29.6C92.0098 29.9413 92.5964 30.448 93.0338 31.12C93.4818 31.792 93.7058 32.624 93.7058 33.616C93.7058 33.744 93.7004 33.888 93.6898 34.048C93.6791 34.1973 93.6684 34.336 93.6578 34.464H86.9218V32.72H91.7378L90.3778 33.184C90.3778 32.8427 90.3138 32.5547 90.1858 32.32C90.0684 32.0747 89.9031 31.888 89.6898 31.76C89.4764 31.6213 89.2204 31.552 88.9218 31.552C88.6231 31.552 88.3618 31.6213 88.1378 31.76C87.9244 31.888 87.7591 32.0747 87.6418 32.32C87.5244 32.5547 87.4658 32.8427 87.4658 33.184V33.728C87.4658 34.1013 87.5404 34.4213 87.6898 34.688C87.8391 34.9547 88.0524 35.1573 88.3298 35.296C88.6071 35.424 88.9431 35.488 89.3378 35.488C89.7431 35.488 90.0738 35.4347 90.3298 35.328C90.5964 35.2213 90.8738 35.0613 91.1618 34.848L93.0498 36.752C92.6231 37.2107 92.0951 37.5627 91.4658 37.808C90.8471 38.0427 90.1004 38.16 89.2258 38.16ZM99.6789 38.16C98.6122 38.16 97.6789 37.9627 96.8789 37.568C96.0895 37.1733 95.4762 36.6347 95.0389 35.952C94.6015 35.2587 94.3829 34.48 94.3829 33.616C94.3829 32.7307 94.5962 31.9467 95.0229 31.264C95.4602 30.5813 96.0522 30.048 96.7989 29.664C97.5562 29.28 98.4042 29.088 99.3429 29.088C100.207 29.088 101.002 29.2587 101.727 29.6C102.463 29.9413 103.05 30.448 103.487 31.12C103.935 31.792 104.159 32.624 104.159 33.616C104.159 33.744 104.154 33.888 104.143 34.048C104.132 34.1973 104.122 34.336 104.111 34.464H97.3749V32.72H102.191L100.831 33.184C100.831 32.8427 100.767 32.5547 100.639 32.32C100.522 32.0747 100.356 31.888 100.143 31.76C99.9295 31.6213 99.6735 31.552 99.3749 31.552C99.0762 31.552 98.8149 31.6213 98.5909 31.76C98.3775 31.888 98.2122 32.0747 98.0949 32.32C97.9775 32.5547 97.9189 32.8427 97.9189 33.184V33.728C97.9189 34.1013 97.9935 34.4213 98.1429 34.688C98.2922 34.9547 98.5055 35.1573 98.7829 35.296C99.0602 35.424 99.3962 35.488 99.7909 35.488C100.196 35.488 100.527 35.4347 100.783 35.328C101.05 35.2213 101.327 35.0613 101.615 34.848L103.503 36.752C103.076 37.2107 102.548 37.5627 101.919 37.808C101.3 38.0427 100.554 38.16 99.6789 38.16ZM110.209 38V26.8H116.193C117.74 26.8 118.881 27.0773 119.617 27.632C120.353 28.176 120.721 28.8747 120.721 29.728C120.721 30.2933 120.561 30.8 120.241 31.248C119.932 31.6853 119.478 32.032 118.881 32.288C118.284 32.544 117.548 32.672 116.673 32.672L116.993 31.808C117.868 31.808 118.62 31.9307 119.249 32.176C119.889 32.4213 120.38 32.7787 120.721 33.248C121.073 33.7067 121.249 34.2613 121.249 34.912C121.249 35.8827 120.844 36.64 120.033 37.184C119.233 37.728 118.06 38 116.513 38H110.209ZM113.921 35.36H116.193C116.609 35.36 116.918 35.2853 117.121 35.136C117.334 34.9867 117.441 34.768 117.441 34.48C117.441 34.192 117.334 33.9733 117.121 33.824C116.918 33.6747 116.609 33.6 116.193 33.6H113.665V31.104H115.681C116.108 31.104 116.417 31.0347 116.609 30.896C116.812 30.7467 116.913 30.5387 116.913 30.272C116.913 29.9947 116.812 29.7867 116.609 29.648C116.417 29.5093 116.108 29.44 115.681 29.44H113.921V35.36ZM122.472 38V26.128H126.088V38H122.472ZM132.987 38V36.448L132.731 36.032V33.088C132.731 32.6613 132.597 32.336 132.331 32.112C132.075 31.888 131.653 31.776 131.067 31.776C130.672 31.776 130.272 31.84 129.867 31.968C129.461 32.0853 129.115 32.2507 128.827 32.464L127.675 30.08C128.187 29.76 128.8 29.5147 129.515 29.344C130.229 29.1733 130.928 29.088 131.611 29.088C133.115 29.088 134.277 29.424 135.099 30.096C135.931 30.768 136.347 31.8347 136.347 33.296V38H132.987ZM130.507 38.16C129.792 38.16 129.195 38.0373 128.715 37.792C128.235 37.5467 127.872 37.2213 127.627 36.816C127.381 36.4 127.259 35.9413 127.259 35.44C127.259 34.8747 127.403 34.3947 127.691 34C127.979 33.6053 128.416 33.3067 129.003 33.104C129.6 32.9013 130.352 32.8 131.259 32.8H133.083V34.544H131.835C131.451 34.544 131.168 34.608 130.987 34.736C130.816 34.8533 130.731 35.0347 130.731 35.28C130.731 35.4827 130.805 35.6533 130.955 35.792C131.115 35.92 131.328 35.984 131.595 35.984C131.84 35.984 132.064 35.92 132.267 35.792C132.48 35.6533 132.635 35.44 132.731 35.152L133.195 36.224C133.056 36.8747 132.763 37.36 132.315 37.68C131.867 38 131.264 38.16 130.507 38.16ZM142.77 38.16C141.767 38.16 140.876 37.968 140.098 37.584C139.319 37.2 138.706 36.6667 138.258 35.984C137.82 35.2907 137.602 34.5013 137.602 33.616C137.602 32.7307 137.82 31.9467 138.258 31.264C138.706 30.5813 139.319 30.048 140.098 29.664C140.876 29.28 141.767 29.088 142.77 29.088C143.836 29.088 144.748 29.3173 145.506 29.776C146.263 30.2347 146.786 30.8693 147.074 31.68L144.274 33.056C144.092 32.6507 143.868 32.3573 143.602 32.176C143.346 31.9947 143.063 31.904 142.754 31.904C142.487 31.904 142.236 31.968 142.002 32.096C141.778 32.224 141.596 32.416 141.458 32.672C141.33 32.9173 141.266 33.232 141.266 33.616C141.266 34 141.33 34.32 141.458 34.576C141.596 34.832 141.778 35.024 142.002 35.152C142.236 35.28 142.487 35.344 142.754 35.344C143.063 35.344 143.346 35.2533 143.602 35.072C143.868 34.8907 144.092 34.5973 144.274 34.192L147.074 35.568C146.786 36.3787 146.263 37.0133 145.506 37.472C144.748 37.9307 143.836 38.16 142.77 38.16ZM150.933 36.56L151.013 32.304L154.037 29.248H158.309L154.309 33.44L152.501 34.896L150.933 36.56ZM147.909 38V26.128H151.525V38H147.909ZM154.229 38L151.829 34.96L154.053 32.224L158.597 38H154.229Z" fill="#6A5542"/>
</svg>
