<svg width="149" height="18" viewBox="0 0 149 18" fill="none" xmlns="http://www.w3.org/2000/svg">
<path d="M4.04 9.808C3.48533 9.808 2.968 9.70133 2.488 9.488C2.008 9.264 1.624 8.93333 1.336 8.496C1.048 8.048 0.904 7.488 0.904 6.816C0.904 5.96267 1.112 5.19467 1.528 4.512C1.944 3.82933 2.504 3.232 3.208 2.72C3.92267 2.208 4.73333 1.78667 5.64 1.456C6.55733 1.11467 7.51733 0.858666 8.52 0.688C9.52267 0.517333 10.5147 0.431999 11.496 0.431999C12.424 0.431999 13.304 0.506666 14.136 0.655999C14.9787 0.805333 15.7253 1.03467 16.376 1.344C17.0267 1.64267 17.5387 2.02133 17.912 2.48C18.2853 2.928 18.472 3.45067 18.472 4.048C18.472 4.912 18.2 5.632 17.656 6.208C17.112 6.77333 16.3387 7.2 15.336 7.488C14.344 7.776 13.1707 7.92 11.816 7.92C11.7093 7.92 11.656 7.86667 11.656 7.76C11.656 7.65333 11.7093 7.6 11.816 7.6C13.8533 7.6 15.416 7.29067 16.504 6.672C17.6027 6.05333 18.152 5.17867 18.152 4.048C18.152 3.504 17.9707 3.02933 17.608 2.624C17.256 2.208 16.7707 1.86133 16.152 1.584C15.5333 1.30667 14.824 1.09867 14.024 0.959999C13.2347 0.821333 12.3973 0.752 11.512 0.752C10.5627 0.752 9.59733 0.832 8.616 0.992C7.64533 1.152 6.71733 1.392 5.832 1.712C4.95733 2.032 4.17333 2.43733 3.48 2.928C2.78667 3.408 2.23733 3.97333 1.832 4.624C1.42667 5.264 1.224 5.99467 1.224 6.816C1.224 7.392 1.35733 7.88267 1.624 8.288C1.89067 8.68267 2.248 8.98667 2.696 9.2C3.144 9.40267 3.62933 9.504 4.152 9.504C4.81333 9.504 5.48533 9.33333 6.168 8.992C6.86133 8.64 7.45333 8.10133 7.944 7.376C8.14667 7.07733 8.32267 6.74667 8.472 6.384C8.632 6.01067 8.75467 5.63733 8.84 5.264C8.936 4.89067 8.984 4.55467 8.984 4.256C8.984 3.85067 8.89867 3.568 8.728 3.408H8.712C8.68 3.408 8.63733 3.41333 8.584 3.424C8.53067 3.43467 8.49333 3.44533 8.472 3.456C8.536 3.59467 8.568 3.792 8.568 4.048C8.568 4.336 8.52533 4.66667 8.44 5.04C8.36533 5.41333 8.25333 5.78667 8.104 6.16C7.95467 6.53333 7.77867 6.86933 7.576 7.168C7.33067 7.53067 7.01067 7.85067 6.616 8.128C6.232 8.39467 5.816 8.60267 5.368 8.752C4.93067 8.90133 4.49867 8.976 4.072 8.976C3.48533 8.976 2.97867 8.81067 2.552 8.48C2.136 8.14933 1.928 7.60533 1.928 6.848C1.928 6.09067 2.10933 5.41867 2.472 4.832C2.84533 4.23467 3.34667 3.71733 3.976 3.28C4.616 2.84267 5.336 2.48 6.136 2.192C6.94667 1.904 7.79467 1.69067 8.68 1.552C9.56533 1.41333 10.4347 1.344 11.288 1.344C12.056 1.344 12.7867 1.40267 13.48 1.52C14.1733 1.62667 14.7867 1.792 15.32 2.016C15.8533 2.24 16.2693 2.51733 16.568 2.848C16.8773 3.168 17.032 3.54667 17.032 3.984C17.032 4.48533 16.8827 4.928 16.584 5.312C16.2853 5.68533 15.8907 6 15.4 6.256C14.9093 6.512 14.376 6.704 13.8 6.832C13.224 6.96 12.6587 7.024 12.104 7.024C11.9973 7.024 11.944 6.97067 11.944 6.864C11.944 6.75733 11.9973 6.704 12.104 6.704C12.6587 6.704 13.208 6.64533 13.752 6.528C14.296 6.4 14.792 6.21867 15.24 5.984C15.688 5.74933 16.0453 5.46667 16.312 5.136C16.5787 4.79467 16.712 4.41067 16.712 3.984C16.712 3.61067 16.568 3.28 16.28 2.992C16.0027 2.704 15.6133 2.464 15.112 2.272C14.6107 2.06933 14.0347 1.92 13.384 1.824C12.7333 1.71733 12.0453 1.664 11.32 1.664C10.4987 1.664 9.66133 1.73333 8.808 1.872C7.95467 2 7.13333 2.19733 6.344 2.464C5.56533 2.73067 4.86667 3.072 4.248 3.488C3.64 3.89333 3.15467 4.37867 2.792 4.944C2.42933 5.49867 2.248 6.13333 2.248 6.848C2.248 7.46667 2.44533 7.92533 2.84 8.224C3.23467 8.52267 3.704 8.672 4.248 8.672C4.78133 8.672 5.33067 8.53333 5.896 8.256C6.472 7.968 6.94133 7.54667 7.304 6.992C7.50667 6.68267 7.67733 6.34667 7.816 5.984C7.95467 5.62133 8.06133 5.26933 8.136 4.928C8.21067 4.576 8.248 4.27733 8.248 4.032C8.248 3.79733 8.216 3.632 8.152 3.536C8.13067 3.504 8.12 3.46133 8.12 3.408C8.12 3.312 8.17867 3.23733 8.296 3.184C8.41333 3.12 8.536 3.088 8.664 3.088C8.792 3.088 8.888 3.12 8.952 3.184C9.08 3.29067 9.17067 3.44 9.224 3.632C9.27733 3.81333 9.304 4.02133 9.304 4.256C9.304 4.59733 9.25067 4.97067 9.144 5.376C9.048 5.78133 8.91467 6.176 8.744 6.56C8.584 6.944 8.408 7.27467 8.216 7.552C7.88533 8.04267 7.48533 8.45867 7.016 8.8C6.55733 9.13067 6.072 9.38133 5.56 9.552C5.048 9.72267 4.54133 9.808 4.04 9.808ZM7.048 12C6.84533 12 6.68 11.92 6.552 11.76C6.424 11.5893 6.36 11.424 6.36 11.264C6.36 11.1147 6.41333 11.008 6.52 10.944C7.11733 10.5707 7.672 10.0213 8.184 9.296C8.696 8.56 9.26133 7.59467 9.88 6.4C10.008 6.15467 10.1627 5.85067 10.344 5.488C10.5253 5.12533 10.712 4.752 10.904 4.368C11.1067 3.97333 11.2933 3.6 11.464 3.248C11.6347 2.88533 11.7733 2.58667 11.88 2.352C11.912 2.288 11.96 2.256 12.024 2.256C12.0773 2.256 12.12 2.27733 12.152 2.32C12.1947 2.36267 12.2 2.416 12.168 2.48C12.0613 2.71467 11.9227 3.01333 11.752 3.376C11.5813 3.728 11.3947 4.10133 11.192 4.496C11 4.89067 10.8133 5.26933 10.632 5.632C10.4507 5.99467 10.296 6.304 10.168 6.56C9.56 7.744 8.98933 8.72 8.456 9.488C7.92267 10.2453 7.33067 10.8213 6.68 11.216C6.66933 11.2693 6.696 11.36 6.76 11.488C6.824 11.6053 6.92 11.664 7.048 11.664C7.10133 11.664 7.16 11.648 7.224 11.616C7.736 11.3387 8.22133 10.9387 8.68 10.416C9.13867 9.89333 9.57067 9.296 9.976 8.624C10.3813 7.952 10.76 7.25333 11.112 6.528C11.464 5.80267 11.7893 5.09867 12.088 4.416C12.3867 3.72267 12.6587 3.104 12.904 2.56C12.936 2.496 12.984 2.464 13.048 2.464C13.1013 2.464 13.144 2.48533 13.176 2.528C13.2187 2.57067 13.2293 2.624 13.208 2.688C12.952 3.24267 12.6693 3.872 12.36 4.576C12.0613 5.28 11.7307 6 11.368 6.736C11.016 7.472 10.632 8.18133 10.216 8.864C9.8 9.536 9.35733 10.1387 8.888 10.672C8.41867 11.2053 7.91733 11.616 7.384 11.904C7.27733 11.968 7.16533 12 7.048 12ZM18.1066 11.056C17.8506 11.056 17.68 10.9547 17.5946 10.752C17.52 10.5387 17.4826 10.3627 17.4826 10.224C17.4826 9.95733 17.5733 9.64267 17.7546 9.28C17.936 8.91733 18.1706 8.56 18.4586 8.208C18.7466 7.856 19.056 7.56267 19.3866 7.328C19.7173 7.09333 20.032 6.976 20.3306 6.976C20.48 6.976 20.5546 7.02933 20.5546 7.136C20.5546 7.17867 20.5386 7.22133 20.5066 7.264C20.4746 7.296 20.432 7.30667 20.3786 7.296C20.144 7.27467 19.8773 7.37067 19.5786 7.584C19.2906 7.78667 19.008 8.05333 18.7306 8.384C18.464 8.704 18.24 9.02933 18.0586 9.36C17.888 9.69067 17.8026 9.97867 17.8026 10.224C17.8026 10.3733 17.8293 10.496 17.8826 10.592C17.936 10.688 18.0106 10.736 18.1066 10.736C18.288 10.736 18.496 10.6293 18.7306 10.416C18.976 10.192 19.2266 9.91467 19.4826 9.584C19.7386 9.24267 19.984 8.89067 20.2186 8.528C20.464 8.15467 20.6773 7.81867 20.8586 7.52C21.0506 7.21067 21.1946 6.98133 21.2906 6.832C21.4933 6.53333 21.696 6.32533 21.8986 6.208C22.1013 6.08 22.288 6.016 22.4586 6.016C22.6506 6.016 22.8053 6.07467 22.9226 6.192C23.0506 6.30933 23.1146 6.45867 23.1146 6.64C23.1146 6.8 23.056 6.97067 22.9386 7.152C22.8533 7.28 22.7146 7.49333 22.5226 7.792C22.3306 8.08 22.1333 8.39467 21.9306 8.736C21.728 9.06667 21.5573 9.37067 21.4186 9.648C21.2693 9.968 21.1946 10.224 21.1946 10.416C21.1946 10.6293 21.3013 10.736 21.5146 10.736C21.7066 10.736 21.92 10.672 22.1546 10.544C22.4 10.416 22.6453 10.2507 22.8906 10.048C23.136 9.84533 23.3653 9.63733 23.5786 9.424C23.792 9.2 23.968 8.99733 24.1066 8.816C24.1386 8.77333 24.176 8.752 24.2186 8.752C24.2826 8.752 24.3306 8.784 24.3626 8.848C24.4053 8.90133 24.4053 8.95467 24.3626 9.008C24.224 9.21067 24.032 9.42933 23.7866 9.664C23.552 9.89867 23.296 10.1227 23.0186 10.336C22.7413 10.5493 22.464 10.7253 22.1866 10.864C21.9093 10.992 21.664 11.056 21.4506 11.056C21.248 11.056 21.0986 10.9973 21.0026 10.88C20.9173 10.7627 20.8746 10.6133 20.8746 10.432C20.8746 10.208 20.9386 9.952 21.0666 9.664C21.2053 9.36533 21.376 9.04 21.5786 8.688C21.792 8.32533 22 7.98933 22.2026 7.68C22.416 7.36 22.576 7.12 22.6826 6.96C22.7573 6.85333 22.7946 6.74667 22.7946 6.64C22.7946 6.43733 22.688 6.336 22.4746 6.336C22.3573 6.336 22.2133 6.38933 22.0426 6.496C21.8826 6.60267 21.7173 6.77867 21.5466 7.024C21.312 7.376 21.0506 7.78133 20.7626 8.24C20.4853 8.69867 20.2026 9.13067 19.9146 9.536C19.6266 9.93067 19.328 10.2827 19.0186 10.592C18.72 10.9013 18.416 11.056 18.1066 11.056ZM16.8906 9.088C16.8373 9.088 16.7946 9.06133 16.7626 9.008C16.72 8.95467 16.72 8.896 16.7626 8.832C16.944 8.576 17.152 8.29867 17.3866 8C17.632 7.69067 17.904 7.40267 18.2026 7.136C18.5013 6.85867 18.8213 6.63467 19.1626 6.464C19.504 6.28267 19.8613 6.192 20.2346 6.192C20.352 6.192 20.4693 6.208 20.5866 6.24C20.704 6.26133 20.816 6.29333 20.9226 6.336C20.9866 6.368 21.0186 6.416 21.0186 6.48C21.0186 6.52267 20.9973 6.56533 20.9546 6.608C20.912 6.64 20.8586 6.64533 20.7946 6.624C20.7946 6.624 20.7786 6.61867 20.7466 6.608C20.7146 6.59733 20.672 6.58667 20.6186 6.576C20.5653 6.55467 20.5066 6.53867 20.4426 6.528C20.3786 6.51733 20.3093 6.512 20.2346 6.512C19.7973 6.512 19.3813 6.64533 18.9866 6.912C18.592 7.17867 18.224 7.504 17.8826 7.888C17.552 8.272 17.264 8.64533 17.0186 9.008C16.9866 9.06133 16.944 9.088 16.8906 9.088ZM20.9386 12.08C20.4586 12.08 20.112 11.952 19.8986 11.696C19.696 11.4293 19.5946 11.1413 19.5946 10.832C19.5946 10.576 19.6586 10.3307 19.7866 10.096C19.8186 10.0427 19.8666 10.016 19.9306 10.016C19.984 10.016 20.0266 10.0427 20.0586 10.096C20.1013 10.1387 20.1066 10.192 20.0746 10.256C19.968 10.448 19.9146 10.64 19.9146 10.832C19.9146 11.0667 19.9946 11.28 20.1546 11.472C20.3146 11.664 20.576 11.76 20.9386 11.76C21.344 11.76 21.728 11.6747 22.0906 11.504C22.464 11.3227 22.816 11.1093 23.1466 10.864C23.168 10.8427 23.2 10.832 23.2426 10.832C23.3493 10.832 23.4026 10.8853 23.4026 10.992C23.4026 11.0453 23.3813 11.088 23.3386 11.12C22.9973 11.376 22.6293 11.6 22.2346 11.792C21.84 11.984 21.408 12.08 20.9386 12.08ZM17.8826 12.064C17.5306 12.064 17.216 11.9467 16.9386 11.712C16.672 11.4773 16.5493 11.1147 16.5706 10.624C16.5706 10.528 16.624 10.48 16.7306 10.48C16.7733 10.48 16.816 10.496 16.8586 10.528C16.8906 10.5493 16.9013 10.5867 16.8906 10.64C16.88 11.024 16.976 11.3067 17.1786 11.488C17.3813 11.6587 17.616 11.744 17.8826 11.744C18.096 11.744 18.3093 11.696 18.5226 11.6C18.736 11.4933 18.912 11.344 19.0506 11.152C19.0826 11.1093 19.1253 11.088 19.1786 11.088C19.232 11.088 19.28 11.1147 19.3226 11.168C19.3653 11.2213 19.36 11.28 19.3066 11.344C19.136 11.5787 18.9226 11.76 18.6666 11.888C18.4106 12.0053 18.1493 12.064 17.8826 12.064ZM28.6344 5.568C28.3784 5.568 28.1597 5.47733 27.9784 5.296C27.797 5.11467 27.7064 4.896 27.7064 4.64C27.7064 4.37333 27.797 4.14933 27.9784 3.968C28.1597 3.78667 28.3784 3.696 28.6344 3.696C28.901 3.696 29.125 3.78667 29.3064 3.968C29.4877 4.14933 29.5784 4.37333 29.5784 4.64C29.5784 4.896 29.4877 5.11467 29.3064 5.296C29.125 5.47733 28.901 5.568 28.6344 5.568ZM28.6344 5.248C28.8157 5.248 28.965 5.18933 29.0824 5.072C29.1997 4.95467 29.2584 4.81067 29.2584 4.64C29.2584 4.45867 29.1997 4.30933 29.0824 4.192C28.965 4.07467 28.8157 4.016 28.6344 4.016C28.4637 4.016 28.3197 4.07467 28.2024 4.192C28.085 4.30933 28.0264 4.45867 28.0264 4.64C28.0264 4.81067 28.085 4.95467 28.2024 5.072C28.3197 5.18933 28.4637 5.248 28.6344 5.248ZM26.4744 11.104C26.2717 11.104 26.1277 11.0293 26.0424 10.88C25.9677 10.7307 25.9304 10.5653 25.9304 10.384C25.9304 10.2347 25.9677 10.0213 26.0424 9.744C26.117 9.46667 26.2184 9.168 26.3464 8.848C26.485 8.51733 26.6397 8.21333 26.8104 7.936C26.981 7.648 27.157 7.41867 27.3384 7.248C27.4344 7.152 27.5357 7.06667 27.6424 6.992C27.749 6.84267 27.8024 6.704 27.8024 6.576C27.8024 6.416 27.7277 6.29333 27.5784 6.208C27.4397 6.112 27.285 6.064 27.1144 6.064C26.933 6.064 26.7944 6.10667 26.6984 6.192C26.549 6.33067 26.389 6.496 26.2184 6.688C26.0584 6.86933 25.8877 7.08267 25.7064 7.328C25.5144 7.57333 25.3117 7.84 25.0984 8.128C24.885 8.40533 24.6397 8.704 24.3624 9.024C24.3304 9.06667 24.2877 9.088 24.2344 9.088C24.181 9.088 24.1384 9.056 24.1064 8.992C24.0637 8.928 24.0637 8.86933 24.1064 8.816C24.3837 8.50667 24.629 8.208 24.8424 7.92C25.0664 7.632 25.269 7.37067 25.4504 7.136C25.6424 6.89067 25.8184 6.672 25.9784 6.48C26.149 6.27733 26.3197 6.10133 26.4904 5.952C26.6504 5.80267 26.8477 5.728 27.0824 5.728C27.3597 5.728 27.6104 5.824 27.8344 6.016C28.0584 6.19733 28.1704 6.41067 28.1704 6.656C28.1704 6.86933 28.0584 7.06667 27.8344 7.248L27.7544 7.312C27.6477 7.408 27.5357 7.50933 27.4184 7.616C27.3117 7.72267 27.221 7.84 27.1464 7.968C27.029 8.21333 26.8957 8.48533 26.7464 8.784C26.6077 9.072 26.485 9.36 26.3784 9.648C26.2824 9.936 26.2344 10.192 26.2344 10.416C26.2344 10.6613 26.3357 10.784 26.5384 10.784C26.6344 10.784 26.7517 10.7573 26.8904 10.704C27.221 10.5653 27.5624 10.3467 27.9144 10.048C28.2664 9.74933 28.645 9.33867 29.0504 8.816C29.0824 8.77333 29.1197 8.752 29.1624 8.752C29.2264 8.752 29.2797 8.784 29.3224 8.848C29.365 8.90133 29.3597 8.95467 29.3064 9.008C28.9757 9.43467 28.6664 9.78133 28.3784 10.048C28.101 10.3147 27.7757 10.5547 27.4024 10.768C27.1997 10.8853 27.0237 10.9707 26.8744 11.024C26.725 11.0773 26.5917 11.104 26.4744 11.104ZM26.3944 12.08C25.8717 12.08 25.461 11.8987 25.1624 11.536C24.8744 11.1733 24.7517 10.7253 24.7944 10.192C24.805 10.032 24.853 9.808 24.9384 9.52C25.0237 9.22133 25.1304 8.92267 25.2584 8.624C25.397 8.31467 25.5357 8.064 25.6744 7.872C25.7064 7.82933 25.749 7.808 25.8024 7.808C25.8557 7.808 25.9037 7.83467 25.9464 7.888C25.989 7.94133 25.9837 8 25.9304 8.064C25.8024 8.23467 25.6744 8.464 25.5464 8.752C25.429 9.04 25.3277 9.32267 25.2424 9.6C25.1677 9.87733 25.125 10.0853 25.1144 10.224C25.0824 10.6187 25.1784 10.976 25.4024 11.296C25.6264 11.616 25.9624 11.776 26.4104 11.776C26.6877 11.776 27.013 11.696 27.3864 11.536C27.7597 11.3653 28.165 11.0827 28.6024 10.688C28.6237 10.6667 28.6557 10.656 28.6984 10.656C28.773 10.656 28.8264 10.6933 28.8584 10.768C28.901 10.832 28.8904 10.8907 28.8264 10.944C28.3677 11.3493 27.9304 11.6427 27.5144 11.824C27.109 11.9947 26.7357 12.08 26.3944 12.08ZM29.1719 9.088C29.1185 9.088 29.0759 9.056 29.0439 8.992C29.0012 8.928 29.0012 8.86933 29.0439 8.816C29.3105 8.51733 29.6252 8.144 29.9879 7.696C30.3612 7.23733 30.7665 6.752 31.2039 6.24C31.6519 5.71733 32.1159 5.20533 32.5959 4.704C33.0759 4.192 33.5612 3.728 34.0519 3.312C34.5425 2.896 35.0225 2.56533 35.4919 2.32C35.9719 2.064 36.4252 1.936 36.8519 1.936C36.9799 1.936 37.1345 1.96267 37.3159 2.016C37.5079 2.06933 37.6785 2.16 37.8279 2.288C37.9772 2.40533 38.0519 2.57067 38.0519 2.784C38.0519 2.976 37.9985 3.11467 37.8919 3.2C37.7852 3.27467 37.6572 3.32267 37.5079 3.344C37.3585 3.36533 37.2145 3.376 37.0759 3.376C36.7559 3.376 36.4252 3.46133 36.0839 3.632C35.7425 3.792 35.4119 4 35.0919 4.256C34.7719 4.512 34.4732 4.78933 34.1959 5.088C33.9185 5.376 33.6839 5.648 33.4919 5.904C33.4599 5.94667 33.4172 5.968 33.3639 5.968C33.3105 5.968 33.2625 5.94133 33.2199 5.888C33.1879 5.83467 33.1932 5.776 33.2359 5.712C33.4279 5.456 33.6625 5.17867 33.9399 4.88C34.2279 4.57067 34.5425 4.27733 34.8839 4C35.2359 3.72267 35.5985 3.49867 35.9719 3.328C36.3452 3.14667 36.7132 3.056 37.0759 3.056C37.1719 3.056 37.3052 3.05067 37.4759 3.04C37.6465 3.01867 37.7319 2.93333 37.7319 2.784C37.7319 2.63467 37.6305 2.512 37.4279 2.416C37.2359 2.30933 37.0439 2.256 36.8519 2.256C36.4572 2.256 36.0305 2.384 35.5719 2.64C35.1239 2.88533 34.6599 3.216 34.1799 3.632C33.6999 4.048 33.2199 4.50667 32.7399 5.008C32.2705 5.50933 31.8172 6.016 31.3799 6.528C30.9532 7.02933 30.5585 7.49867 30.1959 7.936C29.8439 8.37333 29.5452 8.736 29.2999 9.024C29.2679 9.06667 29.2252 9.088 29.1719 9.088ZM33.9399 12.064C33.7265 12.064 33.5025 12.0373 33.2679 11.984C33.0439 11.92 32.8519 11.808 32.6919 11.648C32.5425 11.4773 32.4679 11.2373 32.4679 10.928C32.4679 10.8747 32.4732 10.7573 32.4839 10.576C32.5052 10.3947 32.5265 10.1973 32.5479 9.984C32.5692 9.76 32.5852 9.55733 32.5959 9.376C32.6172 9.19467 32.6279 9.08267 32.6279 9.04C32.6385 8.912 32.7292 8.84267 32.8999 8.832C33.0705 8.81067 33.3372 8.74667 33.6999 8.64C33.8599 8.58667 34.0732 8.512 34.3399 8.416C34.6172 8.32 34.8839 8.18133 35.1399 8C35.3959 7.81867 35.5825 7.584 35.6999 7.296C35.7319 7.21067 35.7479 7.12533 35.7479 7.04C35.7479 6.85867 35.6572 6.69867 35.4759 6.56C35.2945 6.42133 34.9959 6.352 34.5799 6.352C34.1745 6.352 33.7692 6.464 33.3639 6.688C32.9585 6.90133 32.5799 7.168 32.2279 7.488C31.8865 7.808 31.5879 8.128 31.3319 8.448C31.2999 8.49067 31.2572 8.512 31.2039 8.512C31.1505 8.512 31.1025 8.48533 31.0599 8.432C31.0279 8.368 31.0385 8.30933 31.0919 8.256C31.3479 7.94667 31.6572 7.62133 32.0199 7.28C32.3932 6.928 32.7985 6.63467 33.2359 6.4C33.6732 6.15467 34.1212 6.032 34.5799 6.032C35.0279 6.032 35.3852 6.128 35.6519 6.32C35.9292 6.50133 36.0679 6.736 36.0679 7.024C36.0679 7.33333 35.9025 7.65333 35.5719 7.984C35.2519 8.31467 34.7612 8.592 34.0999 8.816C33.9292 8.86933 33.7212 8.92267 33.4759 8.976C33.2305 9.02933 33.0545 9.06667 32.9479 9.088C32.9372 9.23733 32.9159 9.44533 32.8839 9.712C32.8625 9.97867 32.8412 10.2293 32.8199 10.464C32.7985 10.6987 32.7879 10.8533 32.7879 10.928C32.7879 11.2373 32.8945 11.4507 33.1079 11.568C33.3319 11.6853 33.6092 11.744 33.9399 11.744C34.2812 11.744 34.6172 11.6747 34.9479 11.536C35.2785 11.3973 35.5772 11.2267 35.8439 11.024C35.8652 11.0027 35.8972 10.992 35.9399 10.992C36.0465 10.992 36.0999 11.0453 36.0999 11.152C36.0999 11.2053 36.0785 11.248 36.0359 11.28C35.7372 11.504 35.4119 11.6907 35.0599 11.84C34.7079 11.9893 34.3345 12.064 33.9399 12.064ZM29.6999 12.048C29.4759 12.048 29.3105 11.9733 29.2039 11.824C29.1079 11.6747 29.0599 11.5147 29.0599 11.344C29.0599 11.1733 29.1079 10.9707 29.2039 10.736C29.2999 10.5013 29.4065 10.272 29.5239 10.048C29.6519 9.81333 29.7532 9.616 29.8279 9.456C29.8599 9.392 29.9079 9.36 29.9719 9.36C30.0252 9.36 30.0679 9.38667 30.0999 9.44C30.1425 9.48267 30.1479 9.536 30.1159 9.6C30.0519 9.728 29.9612 9.904 29.8439 10.128C29.7265 10.352 29.6199 10.576 29.5239 10.8C29.4279 11.024 29.3799 11.2053 29.3799 11.344C29.3799 11.6 29.4865 11.728 29.6999 11.728C29.9132 11.728 30.1105 11.5893 30.2919 11.312C30.4839 11.0347 30.6972 10.6827 30.9319 10.256C31.1665 9.82933 31.4439 9.38667 31.7639 8.928C32.0839 8.46933 32.4732 8.05333 32.9319 7.68C33.3905 7.30667 33.9505 7.03467 34.6119 6.864H34.6599C34.7665 6.864 34.8199 6.91733 34.8199 7.024C34.8199 7.09867 34.7772 7.14667 34.6919 7.168C34.0305 7.33867 33.4545 7.64267 32.9639 8.08C32.4839 8.50667 32.0572 9.008 31.6839 9.584C31.3212 10.1493 30.9799 10.7307 30.6599 11.328C30.5852 11.4773 30.4679 11.6373 30.3079 11.808C30.1479 11.968 29.9452 12.048 29.6999 12.048ZM34.4999 10.96C34.2119 10.96 34.0252 10.8693 33.9399 10.688C33.8652 10.496 33.8279 10.2667 33.8279 10C33.8279 9.91467 33.8279 9.82933 33.8279 9.744C33.8385 9.648 33.8439 9.552 33.8439 9.456C33.8439 9.34933 33.8972 9.296 34.0039 9.296C34.1105 9.296 34.1639 9.35467 34.1639 9.472C34.1532 9.57867 34.1479 9.68 34.1479 9.776C34.1479 9.872 34.1479 9.96267 34.1479 10.048C34.1479 10.2507 34.1692 10.4 34.2119 10.496C34.2652 10.592 34.3612 10.64 34.4999 10.64C34.6812 10.64 34.8785 10.576 35.0919 10.448C35.3159 10.32 35.5399 10.16 35.7639 9.968C35.9879 9.76533 36.1905 9.56267 36.3719 9.36C36.5639 9.14667 36.7132 8.96533 36.8199 8.816C36.8519 8.77333 36.8892 8.752 36.9319 8.752C36.9852 8.752 37.0332 8.77867 37.0759 8.832C37.1292 8.88533 37.1292 8.944 37.0759 9.008C36.9799 9.14667 36.8305 9.328 36.6279 9.552C36.4359 9.76533 36.2172 9.97867 35.9719 10.192C35.7372 10.4053 35.4865 10.5867 35.2199 10.736C34.9639 10.8853 34.7239 10.96 34.4999 10.96ZM40.4091 10.624C40.3025 10.624 40.2491 10.5813 40.2491 10.496C40.2491 10.4427 40.2705 10.3947 40.3131 10.352C40.5798 10.064 40.7505 9.75467 40.8251 9.424C40.8998 9.09333 40.9371 8.76267 40.9371 8.432C40.9371 8.208 40.9265 7.99467 40.9051 7.792C40.8945 7.58933 40.8891 7.40267 40.8891 7.232C40.8891 6.93333 40.9318 6.71467 41.0171 6.576C41.0491 6.53333 41.1291 6.48533 41.2571 6.432C41.3851 6.37867 41.5078 6.30933 41.6251 6.224C41.7425 6.128 41.8011 6.01067 41.8011 5.872C41.8011 5.808 41.7851 5.744 41.7531 5.68C41.7425 5.63733 41.7051 5.59467 41.6411 5.552C41.5878 5.50933 41.5078 5.488 41.4011 5.488C41.2945 5.488 41.1558 5.52533 40.9851 5.6C40.8145 5.664 40.6065 5.78667 40.3611 5.968C39.9878 6.24533 39.5345 6.61867 39.0011 7.088C38.4785 7.54667 37.8385 8.18667 37.0811 9.008C37.0491 9.04 37.0118 9.056 36.9691 9.056C36.9158 9.056 36.8731 9.02933 36.8411 8.976C36.7985 8.912 36.8038 8.848 36.8571 8.784C36.9851 8.64533 37.1771 8.432 37.4331 8.144C37.6998 7.84533 38.0038 7.52533 38.3451 7.184C38.6971 6.84267 39.0598 6.51733 39.4331 6.208C39.8065 5.89867 40.1638 5.64267 40.5051 5.44C40.8571 5.23733 41.1665 5.136 41.4331 5.136C41.7105 5.136 41.9131 5.27467 42.0411 5.552C42.0625 5.59467 42.0785 5.64267 42.0891 5.696C42.0998 5.73867 42.1051 5.78667 42.1051 5.84C42.1051 6.032 42.0305 6.21867 41.8811 6.4C41.7425 6.58133 41.5345 6.71467 41.2571 6.8C41.2251 6.896 41.2091 7.04533 41.2091 7.248C41.2091 7.42933 41.2145 7.62133 41.2251 7.824C41.2465 8.02667 41.2571 8.18133 41.2571 8.288C41.2678 8.58667 41.2465 8.90133 41.1931 9.232C41.1398 9.552 41.0225 9.872 40.8411 10.192C41.1505 10.0533 41.4491 9.872 41.7371 9.648C42.0358 9.41333 42.3025 9.13067 42.5371 8.8C42.5691 8.75733 42.6065 8.736 42.6491 8.736C42.7025 8.736 42.7451 8.768 42.7771 8.832C42.8198 8.896 42.8198 8.95467 42.7771 9.008C42.5745 9.296 42.3238 9.56267 42.0251 9.808C41.7265 10.0533 41.4278 10.2507 41.1291 10.4C40.8411 10.5493 40.6011 10.624 40.4091 10.624ZM38.4411 11.12C38.1851 11.1093 37.9665 11.0133 37.7851 10.832C37.6145 10.6507 37.5291 10.4213 37.5291 10.144C37.5291 9.93067 37.5825 9.71733 37.6891 9.504C37.8171 9.216 38.0091 8.90133 38.2651 8.56C38.5318 8.208 38.8305 7.872 39.1611 7.552C39.5025 7.22133 39.8385 6.94933 40.1691 6.736C40.2118 6.71467 40.2438 6.704 40.2651 6.704C40.3611 6.704 40.4091 6.75733 40.4091 6.864C40.4091 6.91733 40.3825 6.96 40.3291 6.992C40.0198 7.184 39.7051 7.44 39.3851 7.76C39.0758 8.06933 38.7985 8.39467 38.5531 8.736C38.3078 9.06667 38.1211 9.36533 37.9931 9.632C37.9505 9.728 37.9185 9.81867 37.8971 9.904C37.8758 9.98933 37.8651 10.0693 37.8651 10.144C37.8651 10.3467 37.9291 10.5067 38.0571 10.624C38.1851 10.7413 38.3345 10.8 38.5051 10.8C38.7505 10.8 39.0011 10.6827 39.2571 10.448C39.5131 10.2027 39.6785 9.808 39.7531 9.264C39.8065 8.90133 39.8385 8.63467 39.8491 8.464C39.8598 8.29333 39.8705 8.08533 39.8811 7.84C39.8811 7.73333 39.9345 7.68 40.0411 7.68C40.1478 7.68 40.2011 7.73333 40.2011 7.84C40.1905 8.10667 40.1638 8.432 40.1211 8.816C40.0891 9.18933 40.0145 9.55733 39.8971 9.92C39.7798 10.2827 39.6038 10.5813 39.3691 10.816C39.1345 11.04 38.8251 11.1413 38.4411 11.12ZM38.4571 12.096C38.3291 12.096 38.1638 12.0747 37.9611 12.032C37.7585 12 37.5558 11.936 37.3531 11.84C37.1505 11.744 36.9798 11.6053 36.8411 11.424C36.7025 11.2427 36.6331 11.0133 36.6331 10.736C36.6331 10.6933 36.6331 10.656 36.6331 10.624C36.6331 10.5813 36.6385 10.5387 36.6491 10.496C36.6598 10.4107 36.7131 10.368 36.8091 10.368C36.9158 10.368 36.9691 10.416 36.9691 10.512C36.9691 10.5547 36.9638 10.5973 36.9531 10.64C36.9531 10.672 36.9531 10.6987 36.9531 10.72C36.9531 10.9867 37.0385 11.2 37.2091 11.36C37.3798 11.5093 37.5825 11.616 37.8171 11.68C38.0625 11.744 38.2811 11.776 38.4731 11.776C38.9531 11.776 39.3905 11.7173 39.7851 11.6C40.1905 11.472 40.5371 11.3227 40.8251 11.152C41.1238 10.9813 41.3531 10.8213 41.5131 10.672C41.5451 10.64 41.5825 10.624 41.6251 10.624C41.6891 10.624 41.7371 10.656 41.7691 10.72C41.8118 10.784 41.8011 10.8427 41.7371 10.896C41.5665 11.056 41.3158 11.232 40.9851 11.424C40.6651 11.6053 40.2918 11.7653 39.8651 11.904C39.4385 12.032 38.9691 12.096 38.4571 12.096ZM46.5283 12.464C45.7923 12.464 45.1416 12.3147 44.5763 12.016C44.0109 11.7173 43.5683 11.296 43.2483 10.752C42.9389 10.1973 42.7843 9.54133 42.7843 8.784C42.7843 7.87733 42.9763 7.00267 43.3603 6.16C43.7443 5.30667 44.2669 4.52267 44.9283 3.808C45.5896 3.09333 46.3309 2.46933 47.1523 1.936C47.9843 1.392 48.8429 0.970667 49.7283 0.672C50.6243 0.373333 51.4936 0.223999 52.3363 0.223999C53.1576 0.223999 53.8296 0.335999 54.3523 0.559999C54.8749 0.773333 55.2589 1.056 55.5043 1.408C55.7496 1.76 55.8723 2.144 55.8723 2.56C55.8723 2.95467 55.7709 3.34933 55.5683 3.744C55.3656 4.13867 55.0669 4.50133 54.6723 4.832C54.2883 5.152 53.8243 5.41333 53.2803 5.616C52.7363 5.808 52.1283 5.904 51.4563 5.904C51.2003 5.904 50.9016 5.87733 50.5603 5.824C50.2189 5.77067 49.8829 5.68 49.5523 5.552C49.2216 5.41333 48.9443 5.232 48.7203 5.008C48.5069 4.784 48.4003 4.496 48.4003 4.144V4.128C48.4003 4.02133 48.4536 3.968 48.5603 3.968C48.6669 3.968 48.7203 4.016 48.7203 4.112C48.7629 4.47467 48.9336 4.76267 49.2323 4.976C49.5416 5.18933 49.8989 5.344 50.3043 5.44C50.7203 5.536 51.1043 5.584 51.4563 5.584C52.2776 5.584 52.9923 5.42933 53.6003 5.12C54.2189 4.81067 54.6936 4.42667 55.0243 3.968C55.3656 3.49867 55.5363 3.02933 55.5363 2.56C55.5363 2.19733 55.4243 1.86667 55.2003 1.568C54.9869 1.25867 54.6456 1.01333 54.1763 0.832C53.7069 0.64 53.0936 0.544 52.3363 0.544C51.5256 0.544 50.6883 0.693333 49.8243 0.992C48.9603 1.28 48.1283 1.68533 47.3283 2.208C46.5283 2.73067 45.8083 3.33867 45.1683 4.032C44.5389 4.72533 44.0376 5.47733 43.6643 6.288C43.2909 7.088 43.1043 7.92 43.1043 8.784C43.1043 9.81867 43.4136 10.64 44.0323 11.248C44.6616 11.8453 45.4936 12.144 46.5283 12.144C47.1896 12.144 47.8403 12.0427 48.4803 11.84C49.1309 11.6267 49.7176 11.3173 50.2403 10.912C50.7629 10.496 51.1736 9.984 51.4722 9.376C51.5043 9.312 51.5416 9.216 51.5843 9.088C51.6376 8.96 51.6856 8.832 51.7283 8.704C51.7709 8.576 51.7923 8.49067 51.7923 8.448C51.7923 8.39467 51.7869 8.36267 51.7763 8.352C51.7763 8.33067 51.7763 8.32 51.7763 8.32C51.7549 8.29867 51.7123 8.288 51.6483 8.288C51.4883 8.288 51.3656 8.352 51.2803 8.48C51.1949 8.59733 51.1256 8.74133 51.0723 8.912C51.0189 9.072 50.9443 9.216 50.8483 9.344C50.5816 9.70667 50.2136 10.0587 49.7443 10.4C49.2856 10.7307 48.7949 11.0027 48.2723 11.216C47.7496 11.4293 47.2536 11.536 46.7843 11.536C45.9309 11.536 45.2589 11.2853 44.7682 10.784C44.2883 10.272 44.0483 9.59467 44.0483 8.752C44.0483 8.02667 44.2189 7.296 44.5603 6.56C44.9016 5.824 45.3549 5.12533 45.9203 4.464C46.4963 3.80267 47.1416 3.216 47.8563 2.704C48.5709 2.18133 49.3016 1.77067 50.0483 1.472C50.8056 1.17333 51.5309 1.024 52.2243 1.024C53.2589 1.024 53.9949 1.184 54.4323 1.504C54.8803 1.81333 55.1043 2.18133 55.1043 2.608C55.1043 2.90667 55.0136 3.21067 54.8323 3.52C54.6509 3.81867 54.3949 4.096 54.0643 4.352C53.7443 4.608 53.3709 4.816 52.9443 4.976C52.5176 5.136 52.0643 5.216 51.5843 5.216C51.4136 5.216 51.1843 5.184 50.8963 5.12C50.6083 5.056 50.3149 4.96533 50.0163 4.848C49.7283 4.73067 49.4829 4.58133 49.2803 4.4C49.0776 4.21867 48.9763 4.01067 48.9763 3.776V3.744C48.9763 3.648 49.0296 3.6 49.1363 3.6C49.2323 3.6 49.2856 3.64267 49.2963 3.728C49.3283 3.888 49.4296 4.03733 49.6003 4.176C49.7709 4.31467 49.9789 4.44267 50.2243 4.56C50.4696 4.66667 50.7149 4.752 50.9603 4.816C51.2056 4.86933 51.4136 4.896 51.5843 4.896C52.1496 4.896 52.6723 4.77867 53.1523 4.544C53.6429 4.30933 54.0376 4.016 54.3363 3.664C54.6349 3.312 54.7843 2.96533 54.7843 2.624C54.7843 2.28267 54.5869 1.984 54.1923 1.728C53.8083 1.472 53.1523 1.344 52.2243 1.344C51.5629 1.344 50.8696 1.488 50.1443 1.776C49.4189 2.064 48.7149 2.45867 48.0323 2.96C47.3496 3.46133 46.7309 4.032 46.1763 4.672C45.6216 5.30133 45.1789 5.968 44.8483 6.672C44.5283 7.376 44.3683 8.06933 44.3683 8.752C44.3683 9.49867 44.5816 10.096 45.0082 10.544C45.4349 10.992 46.0269 11.216 46.7843 11.216C47.1043 11.216 47.4616 11.152 47.8563 11.024C48.2616 10.8853 48.6616 10.704 49.0563 10.48C49.4509 10.2453 49.8029 9.984 50.1123 9.696C50.4216 9.408 50.6403 9.11467 50.7683 8.816C50.8643 8.60267 50.9603 8.41067 51.0563 8.24C51.1523 8.05867 51.3496 7.968 51.6483 7.968C51.9576 7.968 52.1123 8.128 52.1123 8.448C52.1123 8.52267 52.0856 8.63467 52.0323 8.784C51.9896 8.93333 51.9416 9.07733 51.8883 9.216C51.8349 9.35467 51.7923 9.456 51.7603 9.52C51.4509 10.1707 51.0136 10.7147 50.4483 11.152C49.8936 11.5893 49.2749 11.9147 48.5923 12.128C47.9096 12.352 47.2216 12.464 46.5283 12.464ZM58.3159 9.168C58.2519 9.168 58.1985 9.14133 58.1559 9.088C58.1239 9.03467 58.1292 8.976 58.1719 8.912C58.4919 8.44267 58.6519 7.98933 58.6519 7.552C58.6519 7.24267 58.5559 6.992 58.3639 6.8C58.1825 6.59733 57.9052 6.496 57.5319 6.496C56.9772 6.496 56.4332 6.74133 55.8999 7.232C55.3772 7.712 54.8385 8.31467 54.2839 9.04C54.2519 9.072 54.2199 9.088 54.1879 9.088C54.1345 9.088 54.0919 9.056 54.0599 8.992C54.0172 8.928 54.0172 8.864 54.0599 8.8C54.4225 8.32 54.7852 7.88267 55.1479 7.488C55.5105 7.09333 55.8839 6.77867 56.2679 6.544C56.6625 6.30933 57.0732 6.192 57.4999 6.192C58.0332 6.192 58.4119 6.32 58.6359 6.576C58.8599 6.832 58.9719 7.14133 58.9719 7.504C58.9719 7.77067 58.9239 8.04267 58.8279 8.32C58.7319 8.59733 58.5985 8.85867 58.4279 9.104C58.3959 9.14667 58.3585 9.168 58.3159 9.168ZM55.4359 11.152C55.2119 11.152 55.0359 11.0773 54.9079 10.928C54.7905 10.768 54.7319 10.5653 54.7319 10.32C54.7319 10 54.8279 9.648 55.0199 9.264C55.2119 8.88 55.4572 8.51733 55.7559 8.176C56.0652 7.824 56.3852 7.536 56.7159 7.312C57.0465 7.088 57.3452 6.976 57.6119 6.976C57.7612 6.976 57.8359 7.02933 57.8359 7.136C57.8359 7.17867 57.8199 7.22133 57.7879 7.264C57.7559 7.296 57.7132 7.30667 57.6599 7.296C57.4359 7.27467 57.1745 7.36533 56.8759 7.568C56.5879 7.77067 56.3052 8.032 56.0279 8.352C55.7505 8.672 55.5159 9.01333 55.3239 9.376C55.1425 9.728 55.0519 10.048 55.0519 10.336C55.0519 10.4747 55.0785 10.592 55.1319 10.688C55.1852 10.784 55.2865 10.832 55.4359 10.832C55.6065 10.832 55.7879 10.7787 55.9799 10.672C56.1719 10.5547 56.3479 10.416 56.5079 10.256C56.6679 10.096 56.7852 9.94667 56.8599 9.808C56.8919 9.75467 56.9345 9.728 56.9879 9.728C57.0412 9.728 57.0892 9.75467 57.1319 9.808C57.1745 9.85067 57.1745 9.904 57.1319 9.968C57.0359 10.128 56.8972 10.304 56.7159 10.496C56.5345 10.6773 56.3319 10.832 56.1079 10.96C55.8839 11.088 55.6599 11.152 55.4359 11.152ZM58.1239 9.872C57.7719 9.872 57.4679 9.76533 57.2119 9.552C56.9559 9.33867 56.8279 9.05067 56.8279 8.688C56.8279 8.56 56.8439 8.42667 56.8759 8.288C56.9185 8.13867 56.9772 7.984 57.0519 7.824C57.0839 7.76 57.1319 7.728 57.1959 7.728C57.2492 7.728 57.2919 7.74933 57.3239 7.792C57.3665 7.83467 57.3719 7.888 57.3399 7.952C57.2759 8.08 57.2279 8.20267 57.1959 8.32C57.1745 8.43733 57.1639 8.54933 57.1639 8.656C57.1639 8.944 57.2599 9.168 57.4519 9.328C57.6439 9.47733 57.8732 9.552 58.1399 9.552C58.3745 9.552 58.6145 9.49333 58.8599 9.376C59.1052 9.25867 59.3292 9.072 59.5319 8.816C59.5639 8.77333 59.6012 8.752 59.6439 8.752C59.6972 8.752 59.7452 8.784 59.7879 8.848C59.8305 8.90133 59.8305 8.95467 59.7879 9.008C59.5425 9.30667 59.2705 9.52533 58.9719 9.664C58.6839 9.80267 58.4012 9.872 58.1239 9.872ZM55.4039 12.16C54.9452 12.16 54.5612 12.0107 54.2519 11.712C53.9425 11.4027 53.8092 11.04 53.8519 10.624C53.8519 10.5173 53.9052 10.464 54.0119 10.464C54.0545 10.464 54.0972 10.4853 54.1399 10.528C54.1719 10.56 54.1825 10.6027 54.1719 10.656C54.1505 10.9333 54.2572 11.2053 54.4919 11.472C54.7372 11.728 55.0465 11.856 55.4199 11.856C55.6652 11.856 55.9265 11.7813 56.2039 11.632C56.4812 11.4827 56.7585 11.232 57.0359 10.88C57.0359 10.88 57.0679 10.8373 57.1319 10.752C57.2065 10.6667 57.2865 10.576 57.3719 10.48C57.4572 10.3733 57.5159 10.288 57.5479 10.224C57.5799 10.16 57.6225 10.128 57.6759 10.128C57.7292 10.128 57.7719 10.1547 57.8039 10.208C57.8465 10.2507 57.8519 10.304 57.8199 10.368C57.7559 10.496 57.6705 10.6187 57.5639 10.736C57.4572 10.8533 57.3612 10.9707 57.2759 11.088C56.9772 11.472 56.6625 11.7493 56.3319 11.92C56.0119 12.08 55.7025 12.16 55.4039 12.16ZM60.9843 9.76C60.9416 9.76 60.8989 9.73867 60.8563 9.696C60.8136 9.64267 60.8083 9.58933 60.8403 9.536C60.9683 9.26933 61.1709 8.928 61.4483 8.512C61.7363 8.096 62.0723 7.648 62.4563 7.168C62.8403 6.67733 63.2509 6.192 63.6883 5.712C64.1363 5.22133 64.5896 4.77867 65.0483 4.384C65.5069 3.97867 65.9496 3.65867 66.3763 3.424C66.8136 3.17867 67.2083 3.056 67.5603 3.056C67.6563 3.056 67.7896 3.05067 67.9603 3.04C68.1309 3.01867 68.2163 2.93333 68.2163 2.784C68.2163 2.63467 68.1149 2.512 67.9123 2.416C67.7203 2.30933 67.5283 2.256 67.3363 2.256C66.9416 2.256 66.5149 2.384 66.0563 2.64C65.6083 2.88533 65.1443 3.216 64.6643 3.632C64.1843 4.048 63.7043 4.50667 63.2243 5.008C62.7549 5.50933 62.3016 6.016 61.8643 6.528C61.4376 7.02933 61.0429 7.49867 60.6803 7.936C60.3283 8.37333 60.0296 8.736 59.7843 9.024C59.7523 9.06667 59.7096 9.088 59.6562 9.088C59.6029 9.088 59.5602 9.056 59.5282 8.992C59.4856 8.928 59.4856 8.86933 59.5282 8.816C59.7949 8.51733 60.1096 8.144 60.4723 7.696C60.8456 7.23733 61.2509 6.752 61.6883 6.24C62.1363 5.71733 62.6003 5.20533 63.0803 4.704C63.5603 4.192 64.0456 3.728 64.5363 3.312C65.0269 2.896 65.5069 2.56533 65.9763 2.32C66.4563 2.064 66.9096 1.936 67.3363 1.936C67.4643 1.936 67.6189 1.96267 67.8003 2.016C67.9923 2.06933 68.1629 2.16 68.3123 2.288C68.4616 2.40533 68.5363 2.57067 68.5363 2.784C68.5363 2.976 68.4829 3.11467 68.3763 3.2C68.2696 3.27467 68.1416 3.32267 67.9923 3.344C67.8429 3.36533 67.6989 3.376 67.5603 3.376C67.2509 3.376 66.8936 3.49333 66.4883 3.728C66.0829 3.952 65.6616 4.256 65.2243 4.64C64.7976 5.024 64.3656 5.45067 63.9283 5.92C63.5016 6.38933 63.1016 6.85867 62.7283 7.328C62.3549 7.79733 62.0296 8.24 61.7523 8.656C61.4749 9.06133 61.2669 9.39733 61.1283 9.664C61.0963 9.728 61.0483 9.76 60.9843 9.76ZM64.1043 10.896C63.8163 10.896 63.6029 10.8267 63.4643 10.688C63.3256 10.5493 63.2083 10.3893 63.1123 10.208C63.0269 10.016 62.9256 9.85067 62.8083 9.712C62.6909 9.57333 62.5203 9.504 62.2963 9.504C62.1896 9.504 62.1363 9.45067 62.1363 9.344C62.1363 9.23733 62.1896 9.184 62.2963 9.184C62.5843 9.184 62.7976 9.25333 62.9363 9.392C63.0856 9.53067 63.2029 9.696 63.2883 9.888C63.3843 10.0693 63.4856 10.2293 63.5923 10.368C63.7096 10.5067 63.8803 10.576 64.1043 10.576C64.3496 10.576 64.6056 10.4693 64.8723 10.256C65.1389 10.0427 65.3896 9.79733 65.6243 9.52C65.8589 9.232 66.0403 8.99733 66.1683 8.816C66.2003 8.77333 66.2376 8.752 66.2803 8.752C66.3336 8.752 66.3816 8.77867 66.4243 8.832C66.4776 8.88533 66.4776 8.944 66.4243 9.008C66.2749 9.22133 66.0723 9.47733 65.8163 9.776C65.5709 10.0747 65.2989 10.336 65.0003 10.56C64.7016 10.784 64.4029 10.896 64.1043 10.896ZM57.9762 16.224C57.9336 16.224 57.8962 16.208 57.8642 16.176C57.8216 16.144 57.8056 16.1013 57.8162 16.048C57.8589 15.2693 58.0189 14.5387 58.2962 13.856C58.5736 13.1733 58.9149 12.5707 59.3202 12.048C59.7256 11.536 60.1363 11.136 60.5523 10.848C60.9683 10.5493 61.3363 10.4 61.6562 10.4C61.8909 10.4 62.0616 10.4693 62.1683 10.608C62.2749 10.736 62.3283 10.9173 62.3283 11.152C62.3283 11.4293 62.2589 11.7493 62.1203 12.112C61.9816 12.4853 61.7896 12.864 61.5443 13.248C61.2989 13.632 61.0216 13.9893 60.7122 14.32C60.4029 14.6507 60.0776 14.9173 59.7363 15.12C59.4056 15.3227 59.0749 15.424 58.7442 15.424C58.6376 15.424 58.5842 15.3707 58.5842 15.264C58.5842 15.1573 58.6376 15.104 58.7442 15.104C59.0536 15.104 59.3789 14.9813 59.7203 14.736C60.0723 14.5013 60.4083 14.192 60.7283 13.808C61.0589 13.4347 61.3363 13.0347 61.5603 12.608C61.7843 12.1813 61.9283 11.776 61.9923 11.392C62.0029 11.3493 62.0082 11.312 62.0082 11.28C62.0082 11.2373 62.0082 11.2 62.0082 11.168C62.0082 10.8693 61.8909 10.72 61.6562 10.72C61.4003 10.72 61.0856 10.8587 60.7122 11.136C60.3389 11.4027 59.9656 11.776 59.5922 12.256C59.2082 12.7467 58.8829 13.3173 58.6162 13.968C58.3389 14.6187 58.1789 15.3227 58.1362 16.08C58.1362 16.176 58.0829 16.224 57.9762 16.224ZM58.0242 17.024C57.4802 17.024 57.1016 16.8907 56.8882 16.624C56.6642 16.3573 56.5522 16.016 56.5522 15.6C56.5522 15.2053 56.6269 14.7733 56.7762 14.304C56.9256 13.8347 57.1176 13.3707 57.3522 12.912C57.5762 12.4533 57.8056 12.0373 58.0402 11.664C58.2749 11.28 58.4776 10.9867 58.6482 10.784C58.6802 10.752 58.7176 10.736 58.7602 10.736C58.8136 10.736 58.8616 10.768 58.9042 10.832C58.9362 10.8853 58.9256 10.944 58.8722 11.008C58.7229 11.1893 58.5362 11.4613 58.3122 11.824C58.0882 12.176 57.8696 12.5707 57.6562 13.008C57.4322 13.456 57.2456 13.8987 57.0962 14.336C56.9469 14.784 56.8722 15.1893 56.8722 15.552C56.8722 15.8933 56.9576 16.1707 57.1282 16.384C57.2989 16.5973 57.5976 16.704 58.0242 16.704C58.4402 16.704 58.8722 16.608 59.3202 16.416C59.7683 16.224 60.2003 15.9573 60.6163 15.616C61.0323 15.2853 61.4056 14.912 61.7363 14.496C62.0669 14.0907 62.3283 13.664 62.5203 13.216C62.7229 12.768 62.8243 12.3307 62.8243 11.904C62.8243 11.7973 62.8776 11.744 62.9843 11.744C63.3256 11.744 63.7149 11.6747 64.1523 11.536C64.5896 11.3973 64.9416 11.2267 65.2083 11.024C65.2296 11.0027 65.2616 10.992 65.3043 10.992C65.4109 10.992 65.4643 11.0507 65.4643 11.168C65.4643 11.2107 65.4429 11.248 65.4003 11.28C65.1123 11.4933 64.7549 11.6747 64.3283 11.824C63.9016 11.9627 63.5016 12.0427 63.1283 12.064C63.1069 12.512 62.9896 12.9707 62.7763 13.44C62.5629 13.9093 62.2803 14.3573 61.9283 14.784C61.5763 15.2107 61.1816 15.5893 60.7443 15.92C60.3069 16.2613 59.8589 16.528 59.4002 16.72C58.9309 16.9227 58.4722 17.024 58.0242 17.024ZM67.6243 9.76C67.5816 9.76 67.5389 9.73867 67.4963 9.696C67.4536 9.64267 67.4483 9.58933 67.4803 9.536C67.6083 9.26933 67.8109 8.928 68.0883 8.512C68.3763 8.096 68.7123 7.648 69.0963 7.168C69.4803 6.67733 69.8909 6.192 70.3283 5.712C70.7763 5.22133 71.2296 4.77867 71.6883 4.384C72.1469 3.97867 72.5896 3.65867 73.0163 3.424C73.4536 3.17867 73.8483 3.056 74.2003 3.056C74.2963 3.056 74.4296 3.05067 74.6003 3.04C74.7709 3.01867 74.8563 2.93333 74.8563 2.784C74.8563 2.63467 74.7549 2.512 74.5523 2.416C74.3603 2.30933 74.1683 2.256 73.9763 2.256C73.5816 2.256 73.1549 2.384 72.6963 2.64C72.2483 2.88533 71.7843 3.216 71.3043 3.632C70.8243 4.048 70.3443 4.50667 69.8643 5.008C69.3949 5.50933 68.9416 6.016 68.5043 6.528C68.0776 7.02933 67.6829 7.49867 67.3203 7.936C66.9683 8.37333 66.6696 8.736 66.4243 9.024C66.3923 9.06667 66.3496 9.088 66.2963 9.088C66.2429 9.088 66.1949 9.056 66.1523 8.992C66.1203 8.928 66.1256 8.86933 66.1683 8.816C66.4349 8.51733 66.7496 8.144 67.1123 7.696C67.4856 7.23733 67.8909 6.752 68.3283 6.24C68.7763 5.71733 69.2403 5.20533 69.7203 4.704C70.2003 4.192 70.6856 3.728 71.1763 3.312C71.6669 2.896 72.1469 2.56533 72.6163 2.32C73.0963 2.064 73.5496 1.936 73.9763 1.936C74.1043 1.936 74.2589 1.96267 74.4403 2.016C74.6323 2.06933 74.8029 2.16 74.9523 2.288C75.1016 2.40533 75.1763 2.57067 75.1763 2.784C75.1763 2.976 75.1229 3.11467 75.0163 3.2C74.9096 3.27467 74.7816 3.32267 74.6323 3.344C74.4829 3.36533 74.3389 3.376 74.2003 3.376C73.8909 3.376 73.5336 3.49333 73.1283 3.728C72.7229 3.952 72.3016 4.256 71.8643 4.64C71.4376 5.024 71.0056 5.45067 70.5683 5.92C70.1416 6.38933 69.7416 6.85867 69.3683 7.328C68.9949 7.79733 68.6696 8.24 68.3923 8.656C68.1149 9.06133 67.9069 9.39733 67.7683 9.664C67.7363 9.728 67.6883 9.76 67.6243 9.76ZM70.7443 10.896C70.4563 10.896 70.2429 10.8267 70.1043 10.688C69.9656 10.5493 69.8483 10.3893 69.7523 10.208C69.6669 10.016 69.5656 9.85067 69.4483 9.712C69.3309 9.57333 69.1603 9.504 68.9363 9.504C68.8296 9.504 68.7763 9.45067 68.7763 9.344C68.7763 9.23733 68.8296 9.184 68.9363 9.184C69.2243 9.184 69.4376 9.25333 69.5763 9.392C69.7256 9.53067 69.8429 9.696 69.9283 9.888C70.0243 10.0693 70.1256 10.2293 70.2323 10.368C70.3496 10.5067 70.5203 10.576 70.7443 10.576C70.9896 10.576 71.2456 10.4693 71.5123 10.256C71.7789 10.0427 72.0296 9.79733 72.2643 9.52C72.4989 9.232 72.6803 8.99733 72.8083 8.816C72.8403 8.77333 72.8776 8.752 72.9203 8.752C72.9736 8.752 73.0216 8.77867 73.0643 8.832C73.1176 8.88533 73.1176 8.944 73.0643 9.008C72.9149 9.22133 72.7123 9.47733 72.4563 9.776C72.2109 10.0747 71.9389 10.336 71.6403 10.56C71.3416 10.784 71.0429 10.896 70.7443 10.896ZM64.6163 16.224C64.5736 16.224 64.5309 16.208 64.4883 16.176C64.4563 16.144 64.4456 16.1013 64.4563 16.048C64.4989 15.2693 64.6589 14.5387 64.9363 13.856C65.2136 13.1733 65.5549 12.5707 65.9603 12.048C66.3656 11.536 66.7763 11.136 67.1923 10.848C67.6083 10.5493 67.9763 10.4 68.2963 10.4C68.5309 10.4 68.7016 10.4693 68.8083 10.608C68.9149 10.736 68.9683 10.9173 68.9683 11.152C68.9683 11.4293 68.8989 11.7493 68.7603 12.112C68.6216 12.4853 68.4296 12.864 68.1843 13.248C67.9389 13.632 67.6616 13.9893 67.3523 14.32C67.0429 14.6507 66.7176 14.9173 66.3763 15.12C66.0456 15.3227 65.7149 15.424 65.3843 15.424C65.2776 15.424 65.2243 15.3707 65.2243 15.264C65.2243 15.1573 65.2776 15.104 65.3843 15.104C65.6936 15.104 66.0189 14.9813 66.3603 14.736C66.7123 14.5013 67.0483 14.192 67.3683 13.808C67.6989 13.4347 67.9763 13.0347 68.2003 12.608C68.4243 12.1813 68.5683 11.776 68.6323 11.392C68.6429 11.3493 68.6483 11.312 68.6483 11.28C68.6483 11.2373 68.6483 11.2 68.6483 11.168C68.6483 10.8693 68.5309 10.72 68.2963 10.72C68.0403 10.72 67.7256 10.8587 67.3523 11.136C66.9789 11.4027 66.6003 11.776 66.2163 12.256C65.8429 12.7467 65.5176 13.3173 65.2403 13.968C64.9736 14.6187 64.8189 15.3227 64.7763 16.08C64.7763 16.176 64.7229 16.224 64.6163 16.224ZM64.6643 17.024C64.1203 17.024 63.7363 16.8907 63.5123 16.624C63.2989 16.3573 63.1923 16.016 63.1923 15.6C63.1923 15.2053 63.2669 14.7733 63.4163 14.304C63.5656 13.8347 63.7523 13.3707 63.9763 12.912C64.2109 12.4533 64.4456 12.0373 64.6803 11.664C64.9149 11.28 65.1176 10.9867 65.2883 10.784C65.3203 10.752 65.3576 10.736 65.4003 10.736C65.4536 10.736 65.4963 10.768 65.5283 10.832C65.5709 10.8853 65.5656 10.944 65.5123 11.008C65.3629 11.1893 65.1763 11.4613 64.9523 11.824C64.7283 12.176 64.5043 12.5707 64.2803 13.008C64.0669 13.456 63.8856 13.8987 63.7363 14.336C63.5869 14.784 63.5123 15.1893 63.5123 15.552C63.5123 15.8933 63.5976 16.1707 63.7682 16.384C63.9389 16.5973 64.2376 16.704 64.6643 16.704C65.0803 16.704 65.5123 16.608 65.9603 16.416C66.4083 16.224 66.8403 15.9573 67.2563 15.616C67.6723 15.2853 68.0456 14.912 68.3763 14.496C68.7069 14.0907 68.9683 13.664 69.1603 13.216C69.3629 12.768 69.4643 12.3307 69.4643 11.904C69.4643 11.7973 69.5176 11.744 69.6243 11.744C69.9656 11.744 70.3549 11.6747 70.7923 11.536C71.2296 11.3973 71.5816 11.2267 71.8483 11.024C71.8696 11.0027 71.9016 10.992 71.9443 10.992C72.0509 10.992 72.1043 11.0507 72.1043 11.168C72.1043 11.2107 72.0829 11.248 72.0403 11.28C71.7523 11.4933 71.3949 11.6747 70.9683 11.824C70.5416 11.9627 70.1416 12.0427 69.7683 12.064C69.7469 12.512 69.6296 12.9707 69.4163 13.44C69.2029 13.9093 68.9203 14.3573 68.5683 14.784C68.2163 15.2107 67.8216 15.5893 67.3843 15.92C66.9469 16.2613 66.4936 16.528 66.0243 16.72C65.5656 16.9227 65.1123 17.024 64.6643 17.024ZM74.9375 9.536C74.7455 9.536 74.5802 9.49333 74.4415 9.408C74.3775 9.376 74.3455 9.33333 74.3455 9.28C74.3455 9.22667 74.3668 9.184 74.4095 9.152C74.4628 9.10933 74.5215 9.104 74.5855 9.136C74.7135 9.18933 74.8308 9.216 74.9375 9.216C75.1615 9.216 75.4068 9.152 75.6735 9.024C75.9402 8.88533 76.1962 8.70933 76.4415 8.496C76.6868 8.28267 76.8842 8.05333 77.0335 7.808C77.1935 7.56267 77.2735 7.328 77.2735 7.104C77.2735 6.66667 77.0495 6.448 76.6015 6.448C76.1002 6.448 75.6308 6.58133 75.1935 6.848C74.7668 7.104 74.3722 7.42933 74.0095 7.824C73.6575 8.208 73.3428 8.60267 73.0655 9.008C73.0335 9.06133 72.9908 9.088 72.9375 9.088C72.8842 9.088 72.8415 9.06133 72.8095 9.008C72.7668 8.95467 72.7668 8.896 72.8095 8.832C73.0868 8.42667 73.4122 8.016 73.7855 7.6C74.1588 7.184 74.5802 6.83733 75.0495 6.56C75.5295 6.272 76.0468 6.128 76.6015 6.128C76.8895 6.128 77.1242 6.21333 77.3055 6.384C77.4975 6.55467 77.5935 6.79467 77.5935 7.104C77.5935 7.392 77.5028 7.68 77.3215 7.968C77.1508 8.24533 76.9268 8.50667 76.6495 8.752C76.3828 8.98667 76.0948 9.17867 75.7855 9.328C75.4762 9.46667 75.1935 9.536 74.9375 9.536ZM74.5695 11.024C74.2815 11.024 74.0148 10.9493 73.7695 10.8C73.5348 10.6507 73.4175 10.3947 73.4175 10.032C73.4175 9.73333 73.5242 9.41333 73.7375 9.072C73.9615 8.73067 74.2335 8.40533 74.5535 8.096C74.8842 7.776 75.2202 7.49867 75.5615 7.264C75.9028 7.02933 76.1962 6.87467 76.4415 6.8C76.4522 6.8 76.4575 6.8 76.4575 6.8C76.4682 6.78933 76.4788 6.784 76.4895 6.784C76.5962 6.784 76.6495 6.84267 76.6495 6.96C76.6495 7.024 76.6122 7.072 76.5375 7.104C76.3028 7.17867 76.0255 7.328 75.7055 7.552C75.3962 7.776 75.0868 8.03733 74.7775 8.336C74.4788 8.624 74.2282 8.91733 74.0255 9.216C73.8335 9.51467 73.7375 9.78667 73.7375 10.032C73.7375 10.2667 73.8122 10.4373 73.9615 10.544C74.1215 10.6507 74.3242 10.704 74.5695 10.704C75.1988 10.704 75.8335 10.5387 76.4735 10.208C77.1242 9.86667 77.6788 9.39733 78.1375 8.8C78.1695 8.75733 78.2068 8.736 78.2495 8.736C78.3135 8.736 78.3615 8.768 78.3935 8.832C78.4362 8.88533 78.4308 8.944 78.3775 9.008C77.8975 9.62667 77.3108 10.1173 76.6175 10.48C75.9348 10.8427 75.2522 11.024 74.5695 11.024ZM74.4895 11.984C74.2122 11.984 73.9295 11.9413 73.6415 11.856C73.3535 11.7707 73.1135 11.632 72.9215 11.44C72.7188 11.2373 72.6175 10.9707 72.6175 10.64C72.6175 10.5227 72.6708 10.464 72.7775 10.464C72.8842 10.464 72.9375 10.5227 72.9375 10.64C72.9375 10.8427 72.9748 11.0027 73.0495 11.12C73.1348 11.2373 73.2788 11.344 73.4815 11.44C73.6415 11.5147 73.8122 11.5733 73.9935 11.616C74.1855 11.648 74.3508 11.664 74.4895 11.664C74.8842 11.664 75.2682 11.5893 75.6415 11.44C76.0255 11.2907 76.3775 11.0987 76.6975 10.864C76.7188 10.8427 76.7508 10.832 76.7935 10.832C76.9002 10.832 76.9535 10.8853 76.9535 10.992C76.9535 11.0453 76.9322 11.088 76.8895 11.12C76.5482 11.376 76.1695 11.584 75.7535 11.744C75.3482 11.904 74.9268 11.984 74.4895 11.984ZM80.25 9.536C80.058 9.536 79.8927 9.49333 79.754 9.408C79.69 9.376 79.658 9.33333 79.658 9.28C79.658 9.22667 79.6793 9.184 79.722 9.152C79.7753 9.10933 79.834 9.104 79.898 9.136C80.026 9.18933 80.1433 9.216 80.25 9.216C80.474 9.216 80.7193 9.152 80.986 9.024C81.2527 8.88533 81.5087 8.70933 81.754 8.496C81.9993 8.28267 82.1967 8.05333 82.346 7.808C82.506 7.56267 82.586 7.328 82.586 7.104C82.586 6.66667 82.362 6.448 81.914 6.448C81.4127 6.448 80.9433 6.58133 80.506 6.848C80.0793 7.104 79.6847 7.42933 79.322 7.824C78.97 8.208 78.6553 8.60267 78.378 9.008C78.346 9.06133 78.3033 9.088 78.25 9.088C78.1967 9.088 78.154 9.06133 78.122 9.008C78.0793 8.95467 78.0793 8.896 78.122 8.832C78.3993 8.42667 78.7247 8.016 79.098 7.6C79.4713 7.184 79.8927 6.83733 80.362 6.56C80.842 6.272 81.3593 6.128 81.914 6.128C82.202 6.128 82.4367 6.21333 82.618 6.384C82.81 6.55467 82.906 6.79467 82.906 7.104C82.906 7.392 82.8153 7.68 82.634 7.968C82.4633 8.24533 82.2393 8.50667 81.962 8.752C81.6953 8.98667 81.4073 9.17867 81.098 9.328C80.7887 9.46667 80.506 9.536 80.25 9.536ZM79.882 11.024C79.594 11.024 79.3273 10.9493 79.082 10.8C78.8473 10.6507 78.73 10.3947 78.73 10.032C78.73 9.73333 78.8367 9.41333 79.05 9.072C79.274 8.73067 79.546 8.40533 79.866 8.096C80.1967 7.776 80.5327 7.49867 80.874 7.264C81.2153 7.02933 81.5087 6.87467 81.754 6.8C81.7647 6.8 81.77 6.8 81.77 6.8C81.7807 6.78933 81.7913 6.784 81.802 6.784C81.9087 6.784 81.962 6.84267 81.962 6.96C81.962 7.024 81.9247 7.072 81.85 7.104C81.6153 7.17867 81.338 7.328 81.018 7.552C80.7087 7.776 80.3993 8.03733 80.09 8.336C79.7913 8.624 79.5407 8.91733 79.338 9.216C79.146 9.51467 79.05 9.78667 79.05 10.032C79.05 10.2667 79.1247 10.4373 79.274 10.544C79.434 10.6507 79.6367 10.704 79.882 10.704C80.5113 10.704 81.146 10.5387 81.786 10.208C82.4367 9.86667 82.9913 9.39733 83.45 8.8C83.482 8.75733 83.5193 8.736 83.562 8.736C83.626 8.736 83.674 8.768 83.706 8.832C83.7487 8.88533 83.7433 8.944 83.69 9.008C83.21 9.62667 82.6233 10.1173 81.93 10.48C81.2473 10.8427 80.5647 11.024 79.882 11.024ZM79.802 11.984C79.5247 11.984 79.242 11.9413 78.954 11.856C78.666 11.7707 78.426 11.632 78.234 11.44C78.0313 11.2373 77.93 10.9707 77.93 10.64C77.93 10.5227 77.9833 10.464 78.09 10.464C78.1967 10.464 78.25 10.5227 78.25 10.64C78.25 10.8427 78.2873 11.0027 78.362 11.12C78.4473 11.2373 78.5913 11.344 78.794 11.44C78.954 11.5147 79.1247 11.5733 79.306 11.616C79.498 11.648 79.6633 11.664 79.802 11.664C80.1967 11.664 80.5807 11.5893 80.954 11.44C81.338 11.2907 81.69 11.0987 82.01 10.864C82.0313 10.8427 82.0633 10.832 82.106 10.832C82.2127 10.832 82.266 10.8853 82.266 10.992C82.266 11.0453 82.2447 11.088 82.202 11.12C81.8607 11.376 81.482 11.584 81.066 11.744C80.6607 11.904 80.2393 11.984 79.802 11.984ZM102.303 8.56C102.197 8.56 102.143 8.50667 102.143 8.4C102.143 8.29333 102.191 8.24 102.287 8.24C102.949 8.18667 103.589 8.05333 104.207 7.84C104.837 7.616 105.402 7.328 105.903 6.976C106.415 6.624 106.821 6.21333 107.119 5.744C107.418 5.264 107.567 4.74667 107.567 4.192C107.567 3.66933 107.445 3.232 107.199 2.88C106.965 2.528 106.639 2.24533 106.223 2.032C105.818 1.81867 105.365 1.65867 104.863 1.552C104.362 1.44533 103.845 1.376 103.311 1.344C102.789 1.30133 102.287 1.27467 101.807 1.264C100.858 1.24267 99.9194 1.30133 98.9914 1.44C98.074 1.568 97.2207 1.76 96.4314 2.016C95.6527 2.272 94.986 2.576 94.4314 2.928C93.8874 3.28 93.514 3.66933 93.3114 4.096C93.2687 4.192 93.2367 4.26667 93.2154 4.32C93.194 4.37333 93.2154 4.4 93.2794 4.4C93.3967 4.4 93.53 4.35733 93.6794 4.272C93.8287 4.176 93.9407 4.09067 94.0154 4.016C94.3567 3.664 94.81 3.34933 95.3754 3.072C95.9407 2.79467 96.57 2.56 97.2634 2.368C97.9674 2.176 98.6927 2.032 99.4394 1.936C100.197 1.82933 100.933 1.776 101.647 1.776C102.266 1.776 102.863 1.81867 103.439 1.904C104.026 1.98933 104.549 2.13333 105.007 2.336C105.466 2.528 105.829 2.784 106.095 3.104C106.373 3.424 106.511 3.81867 106.511 4.288C106.511 4.85333 106.341 5.36 105.999 5.808C105.658 6.256 105.199 6.63467 104.623 6.944C104.058 7.25333 103.423 7.488 102.719 7.648C102.015 7.808 101.295 7.888 100.559 7.888H100.543C100.447 7.888 100.399 7.83467 100.399 7.728C100.399 7.62133 100.453 7.568 100.559 7.568C101.263 7.536 101.946 7.44 102.607 7.28C103.279 7.12 103.882 6.90133 104.415 6.624C104.959 6.34667 105.386 6.016 105.695 5.632C106.015 5.23733 106.175 4.8 106.175 4.32C106.175 3.79733 105.978 3.376 105.583 3.056C105.189 2.72533 104.65 2.48533 103.967 2.336C103.295 2.176 102.527 2.096 101.663 2.096C100.949 2.096 100.223 2.144 99.4874 2.24C98.7514 2.336 98.0474 2.48 97.3754 2.672C96.7034 2.85333 96.0954 3.07733 95.5514 3.344C95.0074 3.61067 94.57 3.90933 94.2394 4.24C94.1114 4.368 93.946 4.48 93.7434 4.576C93.5514 4.66133 93.3807 4.704 93.2314 4.704C93.0074 4.704 92.8954 4.608 92.8954 4.416C92.8954 4.288 92.938 4.13867 93.0234 3.968C93.2474 3.488 93.6527 3.056 94.2394 2.672C94.826 2.288 95.5247 1.968 96.3354 1.712C97.1567 1.44533 98.0367 1.248 98.9754 1.12C99.914 0.981333 100.858 0.922666 101.807 0.943999C102.255 0.954666 102.746 0.981332 103.279 1.024C103.823 1.056 104.367 1.13067 104.911 1.248C105.455 1.36533 105.951 1.54133 106.399 1.776C106.847 2 107.21 2.304 107.487 2.688C107.765 3.072 107.903 3.56267 107.903 4.16C107.903 4.8 107.743 5.38667 107.423 5.92C107.103 6.45333 106.671 6.91733 106.127 7.312C105.594 7.70667 104.997 8.016 104.335 8.24C103.674 8.45333 103.002 8.56 102.319 8.56H102.303ZM91.8554 12.544C90.8954 12.544 90.106 12.4107 89.4874 12.144C88.8794 11.8773 88.4314 11.5253 88.1434 11.088C87.8554 10.6507 87.7114 10.1813 87.7114 9.68C87.7114 9.168 87.8394 8.656 88.0954 8.144C88.362 7.632 88.7407 7.16267 89.2314 6.736C89.7327 6.29867 90.3247 5.952 91.0074 5.696C91.7007 5.42933 92.4794 5.296 93.3434 5.296C93.5994 5.296 93.9247 5.328 94.3194 5.392C94.7247 5.456 95.13 5.56267 95.5354 5.712C95.9407 5.85067 96.282 6.03733 96.5594 6.272C96.8474 6.50667 97.002 6.79467 97.0234 7.136C97.034 7.33867 96.9807 7.50933 96.8634 7.648C96.746 7.78667 96.6234 7.856 96.4954 7.856C96.3354 7.856 96.234 7.75467 96.1914 7.552C96.1594 7.41333 95.9887 7.25333 95.6794 7.072C95.37 6.88 94.9914 6.71467 94.5434 6.576C94.0954 6.42667 93.6314 6.352 93.1514 6.352C92.5754 6.352 92.042 6.448 91.5514 6.64C91.0714 6.832 90.6554 7.08267 90.3034 7.392C89.9514 7.70133 89.674 8.04267 89.4714 8.416C89.2794 8.77867 89.1834 9.136 89.1834 9.488C89.1834 10 89.4074 10.4427 89.8554 10.816C90.314 11.1893 91.0607 11.376 92.0954 11.376C92.7247 11.376 93.3647 11.2107 94.0154 10.88C94.666 10.5493 95.3007 10.1227 95.9194 9.6C96.5487 9.06667 97.1354 8.50133 97.6794 7.904C98.2234 7.30667 98.7034 6.736 99.1194 6.192C99.3114 5.94667 99.5354 5.65333 99.7914 5.312C100.058 4.97067 100.33 4.61333 100.607 4.24C100.895 3.86667 101.162 3.51467 101.407 3.184C101.663 2.85333 101.866 2.57067 102.015 2.336C102.047 2.28267 102.095 2.256 102.159 2.256C102.213 2.256 102.255 2.28267 102.287 2.336C102.319 2.37867 102.314 2.432 102.271 2.496C102.111 2.73067 101.909 3.01867 101.663 3.36C101.418 3.70133 101.151 4.05867 100.863 4.432C100.586 4.79467 100.314 5.152 100.047 5.504C99.7914 5.84533 99.5674 6.13867 99.3754 6.384C99.0447 6.81067 98.666 7.26933 98.2394 7.76C97.8234 8.24 97.37 8.71467 96.8794 9.184C96.3887 9.64267 95.8767 10.064 95.3434 10.448C94.81 10.8213 94.266 11.1253 93.7114 11.36C93.1674 11.584 92.6287 11.696 92.0954 11.696C91.338 11.696 90.7194 11.5947 90.2394 11.392C89.7594 11.1893 89.4074 10.9227 89.1834 10.592C88.97 10.2613 88.8634 9.89867 88.8634 9.504C88.8634 9.10933 88.9647 8.70933 89.1674 8.304C89.3807 7.888 89.6794 7.50933 90.0634 7.168C90.4474 6.82667 90.9007 6.55467 91.4234 6.352C91.946 6.13867 92.522 6.032 93.1514 6.032C93.5034 6.032 93.866 6.07467 94.2394 6.16C94.6127 6.24533 94.9594 6.36267 95.2794 6.512C95.61 6.65067 95.882 6.80533 96.0954 6.976C96.3194 7.14667 96.4527 7.31733 96.4954 7.488C96.4954 7.49867 96.4954 7.50933 96.4954 7.52C96.506 7.53067 96.5114 7.536 96.5114 7.536C96.5754 7.51467 96.6234 7.46133 96.6554 7.376C96.6874 7.28 96.7034 7.21067 96.7034 7.168C96.6927 6.88 96.5487 6.64 96.2714 6.448C96.0047 6.24533 95.6847 6.08533 95.3114 5.968C94.938 5.84 94.57 5.74933 94.2074 5.696C93.8447 5.64267 93.5567 5.616 93.3434 5.616C92.5434 5.616 91.8127 5.73867 91.1514 5.984C90.5007 6.22933 89.9407 6.54933 89.4714 6.944C89.002 7.33867 88.6394 7.776 88.3834 8.256C88.138 8.72533 88.0154 9.19467 88.0154 9.664C88.0154 10.1227 88.1487 10.5493 88.4154 10.944C88.682 11.328 89.098 11.6373 89.6634 11.872C90.2287 12.1067 90.9594 12.224 91.8554 12.224C92.9327 12.224 93.9247 12.016 94.8314 11.6C95.7487 11.184 96.5914 10.6347 97.3594 9.952C98.138 9.25867 98.8527 8.48533 99.5034 7.632C100.165 6.77867 100.783 5.90933 101.359 5.024C101.935 4.13867 102.479 3.30667 102.991 2.528C103.023 2.47467 103.066 2.448 103.119 2.448C103.173 2.448 103.221 2.47467 103.263 2.528C103.306 2.58133 103.306 2.64 103.263 2.704C102.73 3.51467 102.17 4.37333 101.583 5.28C101.007 6.176 100.383 7.056 99.7114 7.92C99.0394 8.77333 98.3087 9.552 97.5194 10.256C96.73 10.9493 95.866 11.504 94.9274 11.92C93.9994 12.336 92.9754 12.544 91.8554 12.544ZM104.703 12.416C104.223 12.416 103.775 12.304 103.359 12.08C102.943 11.8667 102.575 11.584 102.255 11.232C101.935 10.8693 101.685 10.48 101.503 10.064C101.322 9.63733 101.231 9.22667 101.231 8.832V8.8C101.231 8.704 101.285 8.656 101.391 8.656C101.487 8.656 101.541 8.704 101.551 8.8C101.605 9.17333 101.717 9.552 101.887 9.936C102.058 10.32 102.282 10.6773 102.559 11.008C102.847 11.328 103.173 11.5893 103.535 11.792C103.898 11.9947 104.287 12.096 104.703 12.096C105.034 12.096 105.407 11.984 105.823 11.76C106.239 11.536 106.655 11.2533 107.071 10.912C107.498 10.56 107.887 10.1973 108.239 9.824C108.602 9.45067 108.89 9.11467 109.103 8.816C109.135 8.76267 109.178 8.736 109.231 8.736C109.295 8.736 109.343 8.76267 109.375 8.816C109.418 8.86933 109.413 8.93333 109.359 9.008C109.125 9.328 108.821 9.68533 108.447 10.08C108.074 10.464 107.669 10.8373 107.231 11.2C106.794 11.552 106.357 11.84 105.919 12.064C105.482 12.2987 105.077 12.416 104.703 12.416ZM104.415 13.456C103.733 13.456 103.119 13.3333 102.575 13.088C102.042 12.8533 101.578 12.5387 101.183 12.144C100.799 11.7493 100.479 11.3227 100.223 10.864C99.9674 10.4053 99.77 9.95733 99.6314 9.52C99.6314 9.50933 99.626 9.504 99.6154 9.504C99.6154 9.49333 99.6154 9.48267 99.6154 9.472C99.6154 9.36533 99.674 9.312 99.7914 9.312C99.8554 9.312 99.9034 9.34933 99.9354 9.424C100.063 9.84 100.25 10.2667 100.495 10.704C100.741 11.1413 101.045 11.5467 101.407 11.92C101.781 12.2827 102.213 12.576 102.703 12.8C103.205 13.024 103.775 13.136 104.415 13.136C105.002 13.136 105.525 13.04 105.983 12.848C106.442 12.6667 106.869 12.4213 107.263 12.112C107.658 11.8027 108.047 11.4667 108.431 11.104C108.463 11.072 108.501 11.056 108.543 11.056C108.607 11.056 108.655 11.088 108.687 11.152C108.73 11.216 108.719 11.2747 108.655 11.328C108.25 11.712 107.834 12.064 107.407 12.384C106.991 12.7147 106.543 12.976 106.063 13.168C105.583 13.36 105.034 13.456 104.415 13.456ZM111.234 9.536C111.042 9.536 110.877 9.49333 110.738 9.408C110.674 9.376 110.642 9.33333 110.642 9.28C110.642 9.22667 110.664 9.184 110.706 9.152C110.76 9.10933 110.818 9.104 110.882 9.136C111.01 9.18933 111.128 9.216 111.234 9.216C111.458 9.216 111.704 9.152 111.97 9.024C112.237 8.88533 112.493 8.70933 112.738 8.496C112.984 8.28267 113.181 8.05333 113.33 7.808C113.49 7.56267 113.57 7.328 113.57 7.104C113.57 6.66667 113.346 6.448 112.898 6.448C112.397 6.448 111.928 6.58133 111.49 6.848C111.064 7.104 110.669 7.42933 110.306 7.824C109.954 8.208 109.64 8.60267 109.362 9.008C109.33 9.06133 109.288 9.088 109.234 9.088C109.181 9.088 109.138 9.06133 109.106 9.008C109.064 8.95467 109.064 8.896 109.106 8.832C109.384 8.42667 109.709 8.016 110.082 7.6C110.456 7.184 110.877 6.83733 111.346 6.56C111.826 6.272 112.344 6.128 112.898 6.128C113.186 6.128 113.421 6.21333 113.602 6.384C113.794 6.55467 113.89 6.79467 113.89 7.104C113.89 7.392 113.8 7.68 113.618 7.968C113.448 8.24533 113.224 8.50667 112.946 8.752C112.68 8.98667 112.392 9.17867 112.082 9.328C111.773 9.46667 111.49 9.536 111.234 9.536ZM110.866 11.024C110.578 11.024 110.312 10.9493 110.066 10.8C109.832 10.6507 109.714 10.3947 109.714 10.032C109.714 9.73333 109.821 9.41333 110.034 9.072C110.258 8.73067 110.53 8.40533 110.85 8.096C111.181 7.776 111.517 7.49867 111.858 7.264C112.2 7.02933 112.493 6.87467 112.738 6.8C112.749 6.8 112.754 6.8 112.754 6.8C112.765 6.78933 112.776 6.784 112.786 6.784C112.893 6.784 112.946 6.84267 112.946 6.96C112.946 7.024 112.909 7.072 112.834 7.104C112.6 7.17867 112.322 7.328 112.002 7.552C111.693 7.776 111.384 8.03733 111.074 8.336C110.776 8.624 110.525 8.91733 110.322 9.216C110.13 9.51467 110.034 9.78667 110.034 10.032C110.034 10.2667 110.109 10.4373 110.258 10.544C110.418 10.6507 110.621 10.704 110.866 10.704C111.496 10.704 112.13 10.5387 112.77 10.208C113.421 9.86667 113.976 9.39733 114.434 8.8C114.466 8.75733 114.504 8.736 114.546 8.736C114.61 8.736 114.658 8.768 114.69 8.832C114.733 8.88533 114.728 8.944 114.674 9.008C114.194 9.62667 113.608 10.1173 112.914 10.48C112.232 10.8427 111.549 11.024 110.866 11.024ZM110.786 11.984C110.509 11.984 110.226 11.9413 109.938 11.856C109.65 11.7707 109.41 11.632 109.218 11.44C109.016 11.2373 108.914 10.9707 108.914 10.64C108.914 10.5227 108.968 10.464 109.074 10.464C109.181 10.464 109.234 10.5227 109.234 10.64C109.234 10.8427 109.272 11.0027 109.346 11.12C109.432 11.2373 109.576 11.344 109.778 11.44C109.938 11.5147 110.109 11.5733 110.29 11.616C110.482 11.648 110.648 11.664 110.786 11.664C111.181 11.664 111.565 11.5893 111.938 11.44C112.322 11.2907 112.674 11.0987 112.994 10.864C113.016 10.8427 113.048 10.832 113.09 10.832C113.197 10.832 113.25 10.8853 113.25 10.992C113.25 11.0453 113.229 11.088 113.186 11.12C112.845 11.376 112.466 11.584 112.05 11.744C111.645 11.904 111.224 11.984 110.786 11.984ZM116.083 11.056C115.827 11.056 115.656 10.9547 115.571 10.752C115.496 10.5387 115.459 10.3627 115.459 10.224C115.459 9.95733 115.55 9.63733 115.731 9.264C115.923 8.89067 116.168 8.52267 116.467 8.16C116.766 7.79733 117.086 7.49867 117.427 7.264C117.768 7.01867 118.088 6.896 118.387 6.896C118.515 6.896 118.579 6.94933 118.579 7.056C118.579 7.09867 118.563 7.14133 118.531 7.184C118.499 7.216 118.456 7.22667 118.403 7.216C118.168 7.20533 117.902 7.30667 117.603 7.52C117.304 7.73333 117.016 8.00533 116.739 8.336C116.462 8.66667 116.232 9.00267 116.051 9.344C115.87 9.68533 115.779 9.97867 115.779 10.224C115.779 10.3733 115.806 10.496 115.859 10.592C115.912 10.688 115.987 10.736 116.083 10.736C116.243 10.736 116.424 10.624 116.627 10.4C116.83 10.176 117.054 9.888 117.299 9.536C117.544 9.17333 117.8 8.8 118.067 8.416C118.344 8 118.622 7.60533 118.899 7.232C119.187 6.848 119.464 6.53867 119.731 6.304C120.008 6.05867 120.27 5.936 120.515 5.936C120.654 5.936 120.782 5.97867 120.899 6.064C121.016 6.14933 121.075 6.28267 121.075 6.464C121.075 6.48533 121.043 6.60267 120.979 6.816C120.915 7.01867 120.835 7.26933 120.739 7.568C120.654 7.86667 120.563 8.16533 120.467 8.464C120.371 8.752 120.286 9.008 120.211 9.232C120.147 9.44533 120.104 9.57333 120.083 9.616C120.051 9.68 120.008 9.712 119.955 9.712C119.902 9.712 119.854 9.69067 119.811 9.648C119.779 9.60533 119.774 9.552 119.795 9.488C119.816 9.44533 119.859 9.31733 119.923 9.104C119.998 8.89067 120.078 8.64 120.163 8.352C120.259 8.064 120.35 7.776 120.435 7.488C120.531 7.2 120.606 6.96 120.659 6.768C120.723 6.576 120.755 6.47467 120.755 6.464C120.755 6.32533 120.675 6.256 120.515 6.256C120.376 6.256 120.238 6.30933 120.099 6.416C119.832 6.58667 119.544 6.88533 119.235 7.312C118.926 7.728 118.616 8.17067 118.307 8.64C118.04 9.03467 117.774 9.41867 117.507 9.792C117.251 10.1653 117 10.4693 116.755 10.704C116.51 10.9387 116.286 11.056 116.083 11.056ZM114.499 9.104C114.446 9.104 114.403 9.08267 114.371 9.04C114.339 8.98667 114.344 8.928 114.387 8.864C114.782 8.39467 115.182 7.952 115.587 7.536C115.992 7.12 116.414 6.77867 116.851 6.512C117.299 6.24533 117.774 6.112 118.275 6.112C118.424 6.112 118.558 6.12267 118.675 6.144C118.803 6.16533 118.91 6.208 118.995 6.272C119.038 6.304 119.059 6.34667 119.059 6.4C119.059 6.45333 119.032 6.50133 118.979 6.544C118.926 6.576 118.867 6.57067 118.803 6.528C118.728 6.464 118.552 6.432 118.275 6.432C117.838 6.432 117.416 6.55467 117.011 6.8C116.606 7.03467 116.211 7.34933 115.827 7.744C115.443 8.13867 115.054 8.56533 114.659 9.024C114.616 9.07733 114.563 9.104 114.499 9.104ZM113.907 15.696C113.768 15.7067 113.624 15.6693 113.475 15.584C113.315 15.5093 113.235 15.3707 113.235 15.168C113.235 14.9333 113.347 14.6827 113.571 14.416C113.795 14.16 114.078 13.904 114.419 13.648C114.75 13.4027 115.086 13.1733 115.427 12.96C115.768 12.7467 116.056 12.5653 116.291 12.416C116.334 12.3947 116.36 12.384 116.371 12.384C116.424 12.384 116.462 12.4 116.483 12.432C116.515 12.4747 116.531 12.5173 116.531 12.56C116.531 12.6133 116.51 12.656 116.467 12.688C116.275 12.816 116.024 12.976 115.715 13.168C115.406 13.36 115.096 13.5627 114.787 13.776C114.478 14 114.211 14.224 113.987 14.448C113.752 14.672 113.608 14.88 113.555 15.072C113.555 15.0827 113.555 15.0933 113.555 15.104C113.544 15.1253 113.539 15.1413 113.539 15.152C113.539 15.3013 113.64 15.376 113.843 15.376C114.216 15.376 114.622 15.2213 115.059 14.912C115.507 14.6027 115.95 14.1867 116.387 13.664C116.824 13.152 117.235 12.5867 117.619 11.968C118.003 11.3387 118.328 10.7093 118.595 10.08C118.862 9.45067 119.038 8.87467 119.123 8.352C119.134 8.26667 119.187 8.224 119.283 8.224C119.326 8.224 119.363 8.24 119.395 8.272C119.438 8.304 119.454 8.352 119.443 8.416C119.358 8.93867 119.182 9.52 118.915 10.16C118.648 10.8 118.318 11.44 117.923 12.08C117.528 12.72 117.102 13.3067 116.643 13.84C116.184 14.384 115.72 14.8213 115.251 15.152C114.782 15.4933 114.334 15.6747 113.907 15.696ZM113.779 16.816C113.523 16.816 113.283 16.7413 113.059 16.592C112.824 16.4533 112.728 16.2133 112.771 15.872C112.771 15.776 112.819 15.728 112.915 15.728C112.958 15.728 113 15.744 113.043 15.776C113.075 15.808 113.086 15.8507 113.075 15.904C113.054 16.1067 113.112 16.256 113.251 16.352C113.379 16.448 113.555 16.496 113.779 16.496C114.291 16.496 114.782 16.368 115.251 16.112C115.731 15.8667 116.184 15.5307 116.611 15.104C117.048 14.688 117.443 14.224 117.795 13.712C118.158 13.2 118.478 12.6773 118.755 12.144C119.043 11.6213 119.272 11.1253 119.443 10.656C119.486 10.5387 119.512 10.464 119.523 10.432C119.544 10.3893 119.614 10.3413 119.731 10.288C119.966 10.1813 120.259 10.0213 120.611 9.808C120.963 9.59467 121.326 9.248 121.699 8.768C121.731 8.72533 121.774 8.704 121.827 8.704C121.88 8.704 121.923 8.736 121.955 8.8C121.998 8.85333 121.998 8.90667 121.955 8.96C121.635 9.38667 121.294 9.72267 120.931 9.968C120.568 10.2027 120.184 10.4267 119.779 10.64C119.608 11.0987 119.384 11.6053 119.107 12.16C118.83 12.7147 118.499 13.264 118.115 13.808C117.742 14.352 117.326 14.848 116.867 15.296C116.419 15.7547 115.934 16.1227 115.411 16.4C114.888 16.6773 114.344 16.816 113.779 16.816ZM115.651 12.096C115.256 12.096 114.926 11.9733 114.659 11.728C114.392 11.4827 114.259 11.1467 114.259 10.72C114.259 10.6667 114.264 10.608 114.275 10.544C114.275 10.48 114.28 10.416 114.291 10.352C114.302 10.2667 114.35 10.224 114.435 10.224C114.552 10.224 114.611 10.2773 114.611 10.384C114.611 10.4373 114.606 10.496 114.595 10.56C114.584 10.6133 114.579 10.6613 114.579 10.704C114.579 11.0347 114.68 11.296 114.883 11.488C115.086 11.68 115.336 11.776 115.635 11.776C115.966 11.776 116.328 11.6587 116.723 11.424C117.118 11.1893 117.486 10.8 117.827 10.256C117.859 10.2027 117.902 10.176 117.955 10.176C118.008 10.176 118.051 10.2027 118.083 10.256C118.126 10.2987 118.126 10.352 118.083 10.416C117.72 10.992 117.32 11.4187 116.883 11.696C116.456 11.9627 116.046 12.096 115.651 12.096ZM123.701 11.152C123.626 11.152 123.546 11.104 123.461 11.008C123.386 10.9013 123.349 10.7413 123.349 10.528C123.349 10.304 123.397 10.0587 123.493 9.792C123.589 9.51467 123.706 9.24267 123.845 8.976C123.994 8.69867 124.133 8.45867 124.261 8.256C124.4 8.04267 124.506 7.888 124.581 7.792C124.741 7.58933 124.88 7.41333 124.997 7.264C125.114 7.11467 125.184 7.024 125.205 6.992C125.312 6.84267 125.365 6.704 125.365 6.576C125.365 6.416 125.29 6.29333 125.141 6.208C125.002 6.112 124.848 6.064 124.677 6.064C124.496 6.064 124.357 6.10667 124.261 6.192C124.112 6.33067 123.952 6.496 123.781 6.688C123.621 6.86933 123.45 7.08267 123.269 7.328C123.077 7.57333 122.874 7.83467 122.661 8.112C122.448 8.38933 122.202 8.688 121.925 9.008C121.893 9.05067 121.85 9.072 121.797 9.072C121.744 9.072 121.701 9.04533 121.669 8.992C121.626 8.928 121.626 8.86933 121.669 8.816C121.946 8.50667 122.192 8.208 122.405 7.92C122.629 7.632 122.832 7.37067 123.013 7.136C123.205 6.89067 123.381 6.672 123.541 6.48C123.712 6.27733 123.882 6.10133 124.053 5.952C124.202 5.81333 124.405 5.744 124.661 5.744C124.917 5.744 125.152 5.824 125.365 5.984C125.589 6.13333 125.701 6.33067 125.701 6.576C125.701 6.672 125.669 6.78933 125.605 6.928C125.541 7.056 125.392 7.27467 125.157 7.584C124.581 8.34133 124.192 8.93867 123.989 9.376C123.786 9.81333 123.685 10.2027 123.685 10.544C123.685 10.704 123.717 10.8107 123.781 10.864C123.824 10.896 123.845 10.9387 123.845 10.992C123.845 11.0987 123.797 11.152 123.701 11.152ZM124.341 10.8C124.234 10.8 124.181 10.7467 124.181 10.64C124.181 10.576 124.213 10.528 124.277 10.496C124.789 10.2187 125.226 9.84 125.589 9.36C125.952 8.88 126.272 8.36267 126.549 7.808C126.826 7.25333 127.093 6.736 127.349 6.256C127.413 6.128 127.504 6.03733 127.621 5.984C127.749 5.92 127.882 5.888 128.021 5.888C128.266 5.888 128.496 5.968 128.709 6.128C128.933 6.288 129.045 6.49067 129.045 6.736C129.045 6.91733 128.976 7.09867 128.837 7.28C128.805 7.32267 128.762 7.344 128.709 7.344C128.656 7.344 128.608 7.31733 128.565 7.264C128.533 7.21067 128.538 7.152 128.581 7.088C128.677 6.96 128.725 6.83733 128.725 6.72C128.725 6.56 128.65 6.43733 128.501 6.352C128.352 6.26667 128.202 6.224 128.053 6.224C127.968 6.224 127.882 6.24 127.797 6.272C127.722 6.304 127.669 6.352 127.637 6.416C127.37 6.91733 127.093 7.456 126.805 8.032C126.517 8.59733 126.181 9.12533 125.797 9.616C125.424 10.1067 124.965 10.496 124.421 10.784C124.4 10.7947 124.373 10.8 124.341 10.8ZM123.381 12.064C122.997 12.0533 122.688 11.92 122.453 11.664C122.229 11.408 122.117 11.0613 122.117 10.624C122.117 10.5493 122.117 10.4747 122.117 10.4C122.128 10.3253 122.138 10.2507 122.149 10.176C122.181 10.016 122.272 9.76533 122.421 9.424C122.57 9.08267 122.762 8.72 122.997 8.336C123.242 7.94133 123.498 7.6 123.765 7.312C123.797 7.26933 123.834 7.248 123.877 7.248C123.941 7.248 123.989 7.28 124.021 7.344C124.053 7.408 124.042 7.46667 123.989 7.52C123.733 7.808 123.493 8.13867 123.269 8.512C123.045 8.87467 122.858 9.216 122.709 9.536C122.57 9.856 122.49 10.0853 122.469 10.224C122.458 10.2987 122.448 10.3733 122.437 10.448C122.437 10.512 122.437 10.576 122.437 10.64C122.437 11.0133 122.533 11.2907 122.725 11.472C122.917 11.6533 123.152 11.744 123.429 11.744C123.77 11.744 124.165 11.6 124.613 11.312C125.061 11.024 125.498 10.56 125.925 9.92C125.957 9.86667 126 9.84 126.053 9.84C126.106 9.84 126.154 9.86667 126.197 9.92C126.24 9.97333 126.234 10.0373 126.181 10.112C125.733 10.7733 125.258 11.264 124.757 11.584C124.266 11.904 123.808 12.064 123.381 12.064ZM127.237 11.152C127.173 11.152 127.125 11.1467 127.093 11.136C126.944 11.0827 126.837 11.0027 126.773 10.896C126.72 10.7893 126.693 10.6667 126.693 10.528C126.693 10.3467 126.73 10.16 126.805 9.968C126.88 9.76533 126.96 9.57333 127.045 9.392C127.141 9.21067 127.216 9.072 127.269 8.976C127.386 8.752 127.504 8.528 127.621 8.304C127.749 8.08 127.866 7.89867 127.973 7.76C128.005 7.71733 128.048 7.696 128.101 7.696C128.154 7.696 128.202 7.72267 128.245 7.776C128.288 7.82933 128.282 7.888 128.229 7.952C127.994 8.26133 127.786 8.60267 127.605 8.976C127.424 9.33867 127.253 9.696 127.093 10.048C127.029 10.1867 126.997 10.3307 126.997 10.48C126.997 10.704 127.082 10.816 127.253 10.816C127.338 10.816 127.461 10.768 127.621 10.672C127.984 10.4373 128.309 10.1493 128.597 9.808C128.885 9.46667 129.162 9.136 129.429 8.816C129.461 8.77333 129.498 8.752 129.541 8.752C129.605 8.752 129.653 8.784 129.685 8.848C129.728 8.90133 129.722 8.96 129.669 9.024C129.594 9.12 129.461 9.28 129.269 9.504C129.088 9.728 128.874 9.968 128.629 10.224C128.384 10.48 128.138 10.6987 127.893 10.88C127.648 11.0613 127.429 11.152 127.237 11.152ZM126.757 12.08C126.554 12.08 126.336 12.048 126.101 11.984C125.866 11.9093 125.68 11.7707 125.541 11.568C125.52 11.5253 125.509 11.4933 125.509 11.472C125.509 11.3653 125.562 11.312 125.669 11.312C125.722 11.312 125.765 11.3333 125.797 11.376C125.893 11.5147 126.032 11.616 126.213 11.68C126.394 11.7333 126.576 11.76 126.757 11.76C127.034 11.76 127.344 11.7013 127.685 11.584C128.037 11.4667 128.389 11.2747 128.741 11.008C128.762 10.9867 128.794 10.976 128.837 10.976C128.944 10.976 128.997 11.0293 128.997 11.136C128.997 11.1893 128.976 11.232 128.933 11.264C128.56 11.552 128.181 11.76 127.797 11.888C127.424 12.016 127.077 12.08 126.757 12.08ZM129.562 9.088C129.509 9.088 129.466 9.056 129.434 8.992C129.392 8.928 129.392 8.86933 129.434 8.816C129.648 8.57067 129.845 8.31467 130.027 8.048C130.208 7.78133 130.384 7.51467 130.555 7.248C130.843 6.82133 131.157 6.36267 131.499 5.872C131.851 5.38133 132.224 4.896 132.619 4.416C133.024 3.936 133.44 3.49867 133.867 3.104C134.293 2.69867 134.725 2.37333 135.163 2.128C135.536 1.92533 135.861 1.824 136.139 1.824C136.416 1.824 136.624 1.91467 136.763 2.096C136.912 2.26667 136.987 2.49067 136.987 2.768C136.987 2.896 136.971 3.02933 136.939 3.168C136.917 3.296 136.875 3.43467 136.811 3.584C136.779 3.65867 136.656 3.824 136.443 4.08C136.24 4.32533 135.984 4.62933 135.675 4.992C135.365 5.344 135.035 5.712 134.683 6.096C134.341 6.48 134.011 6.848 133.691 7.2C133.371 7.552 133.093 7.84533 132.859 8.08C132.635 8.31467 132.491 8.45867 132.427 8.512C132.395 8.544 132.363 8.56 132.331 8.56C132.213 8.56 132.155 8.496 132.155 8.368C132.155 8.336 132.176 8.29867 132.219 8.256C132.283 8.20267 132.427 8.05867 132.651 7.824C132.875 7.58933 133.147 7.30133 133.467 6.96C133.787 6.61867 134.117 6.26133 134.459 5.888C134.8 5.504 135.12 5.14133 135.419 4.8C135.728 4.448 135.984 4.14933 136.187 3.904C136.389 3.65867 136.501 3.50933 136.523 3.456C136.629 3.21067 136.683 2.976 136.683 2.752C136.683 2.57067 136.635 2.42667 136.539 2.32C136.453 2.20267 136.32 2.144 136.139 2.144C135.915 2.144 135.643 2.23467 135.323 2.416C134.907 2.65067 134.491 2.96533 134.075 3.36C133.659 3.744 133.253 4.176 132.859 4.656C132.464 5.12533 132.096 5.6 131.755 6.08C131.413 6.56 131.104 7.008 130.827 7.424C130.645 7.69067 130.464 7.96267 130.283 8.24C130.101 8.51733 129.904 8.77867 129.691 9.024C129.659 9.06667 129.616 9.088 129.562 9.088ZM131.211 11.008C130.88 11.008 130.645 10.9387 130.507 10.8C130.379 10.6613 130.315 10.4907 130.315 10.288C130.315 10.0747 130.363 9.84533 130.459 9.6C130.565 9.344 130.672 9.12533 130.779 8.944C130.939 8.66667 131.157 8.336 131.435 7.952C131.712 7.568 132.016 7.168 132.347 6.752C132.688 6.32533 133.029 5.91467 133.371 5.52C133.723 5.12533 134.053 4.77867 134.363 4.48C134.672 4.17067 134.928 3.94133 135.131 3.792C135.152 3.77067 135.184 3.76 135.227 3.76C135.333 3.76 135.387 3.81333 135.387 3.92C135.387 3.97333 135.365 4.016 135.323 4.048C135.12 4.18667 134.869 4.40533 134.571 4.704C134.272 5.00267 133.952 5.34933 133.611 5.744C133.269 6.128 132.928 6.528 132.587 6.944C132.256 7.36 131.952 7.75467 131.674 8.128C131.408 8.50133 131.2 8.82667 131.051 9.104C130.976 9.24267 130.885 9.41867 130.779 9.632C130.672 9.84533 130.618 10.0427 130.618 10.224C130.618 10.3627 130.661 10.4747 130.747 10.56C130.832 10.6453 130.987 10.688 131.211 10.688C131.499 10.688 131.829 10.6187 132.203 10.48C132.587 10.3413 132.976 10.1333 133.371 9.856C133.765 9.568 134.128 9.216 134.459 8.8C134.491 8.75733 134.528 8.736 134.571 8.736C134.635 8.736 134.683 8.768 134.715 8.832C134.757 8.88533 134.752 8.944 134.699 9.008C134.357 9.44533 133.979 9.81333 133.562 10.112C133.147 10.4107 132.731 10.6347 132.315 10.784C131.909 10.9333 131.541 11.008 131.211 11.008ZM131.067 12C130.533 12 130.08 11.888 129.707 11.664C129.344 11.4293 129.162 11.088 129.162 10.64C129.162 10.5227 129.216 10.464 129.322 10.464C129.429 10.464 129.482 10.5227 129.482 10.64C129.482 10.9387 129.637 11.1893 129.947 11.392C130.267 11.584 130.672 11.68 131.163 11.68C131.568 11.68 132.011 11.5947 132.491 11.424C132.981 11.2533 133.461 10.9707 133.931 10.576C133.952 10.5547 133.984 10.544 134.027 10.544C134.133 10.544 134.187 10.5973 134.187 10.704C134.187 10.7573 134.165 10.8 134.123 10.832C133.664 11.2267 133.163 11.52 132.619 11.712C132.075 11.904 131.557 12 131.067 12ZM135.794 11.056C135.538 11.056 135.367 10.9547 135.282 10.752C135.207 10.5387 135.17 10.3627 135.17 10.224C135.17 9.95733 135.261 9.64267 135.442 9.28C135.623 8.91733 135.858 8.56 136.146 8.208C136.434 7.856 136.743 7.56267 137.074 7.328C137.405 7.09333 137.719 6.976 138.018 6.976C138.167 6.976 138.242 7.02933 138.242 7.136C138.242 7.17867 138.226 7.22133 138.194 7.264C138.162 7.296 138.119 7.30667 138.066 7.296C137.831 7.27467 137.565 7.37067 137.266 7.584C136.978 7.78667 136.695 8.05333 136.418 8.384C136.151 8.704 135.927 9.02933 135.746 9.36C135.575 9.69067 135.49 9.97867 135.49 10.224C135.49 10.3733 135.517 10.496 135.57 10.592C135.623 10.688 135.698 10.736 135.794 10.736C135.975 10.736 136.183 10.6293 136.418 10.416C136.663 10.192 136.914 9.91467 137.17 9.584C137.426 9.24267 137.671 8.89067 137.906 8.528C138.151 8.15467 138.365 7.81867 138.546 7.52C138.738 7.21067 138.882 6.98133 138.978 6.832C139.181 6.53333 139.383 6.32533 139.586 6.208C139.789 6.08 139.975 6.016 140.146 6.016C140.338 6.016 140.493 6.07467 140.61 6.192C140.738 6.30933 140.802 6.45867 140.802 6.64C140.802 6.8 140.743 6.97067 140.626 7.152C140.541 7.28 140.402 7.49333 140.21 7.792C140.018 8.08 139.821 8.39467 139.618 8.736C139.415 9.06667 139.245 9.37067 139.106 9.648C138.957 9.968 138.882 10.224 138.882 10.416C138.882 10.6293 138.989 10.736 139.202 10.736C139.394 10.736 139.607 10.672 139.842 10.544C140.087 10.416 140.333 10.2507 140.578 10.048C140.823 9.84533 141.053 9.63733 141.266 9.424C141.479 9.2 141.655 8.99733 141.794 8.816C141.826 8.77333 141.863 8.752 141.906 8.752C141.97 8.752 142.018 8.784 142.05 8.848C142.093 8.90133 142.093 8.95467 142.05 9.008C141.911 9.21067 141.719 9.42933 141.474 9.664C141.239 9.89867 140.983 10.1227 140.706 10.336C140.429 10.5493 140.151 10.7253 139.874 10.864C139.597 10.992 139.351 11.056 139.138 11.056C138.935 11.056 138.786 10.9973 138.69 10.88C138.605 10.7627 138.562 10.6133 138.562 10.432C138.562 10.208 138.626 9.952 138.754 9.664C138.893 9.36533 139.063 9.04 139.266 8.688C139.479 8.32533 139.687 7.98933 139.89 7.68C140.103 7.36 140.263 7.12 140.37 6.96C140.445 6.85333 140.482 6.74667 140.482 6.64C140.482 6.43733 140.375 6.336 140.162 6.336C140.045 6.336 139.901 6.38933 139.73 6.496C139.57 6.60267 139.405 6.77867 139.234 7.024C138.999 7.376 138.738 7.78133 138.45 8.24C138.173 8.69867 137.89 9.13067 137.602 9.536C137.314 9.93067 137.015 10.2827 136.706 10.592C136.407 10.9013 136.103 11.056 135.794 11.056ZM134.578 9.088C134.525 9.088 134.482 9.06133 134.45 9.008C134.407 8.95467 134.407 8.896 134.45 8.832C134.631 8.576 134.839 8.29867 135.074 8C135.319 7.69067 135.591 7.40267 135.89 7.136C136.189 6.85867 136.509 6.63467 136.85 6.464C137.191 6.28267 137.549 6.192 137.922 6.192C138.039 6.192 138.157 6.208 138.274 6.24C138.391 6.26133 138.503 6.29333 138.61 6.336C138.674 6.368 138.706 6.416 138.706 6.48C138.706 6.52267 138.685 6.56533 138.642 6.608C138.599 6.64 138.546 6.64533 138.482 6.624C138.482 6.624 138.466 6.61867 138.434 6.608C138.402 6.59733 138.359 6.58667 138.306 6.576C138.253 6.55467 138.194 6.53867 138.13 6.528C138.066 6.51733 137.997 6.512 137.922 6.512C137.485 6.512 137.069 6.64533 136.674 6.912C136.279 7.17867 135.911 7.504 135.57 7.888C135.239 8.272 134.951 8.64533 134.706 9.008C134.674 9.06133 134.631 9.088 134.578 9.088ZM138.626 12.08C138.146 12.08 137.799 11.952 137.586 11.696C137.383 11.4293 137.282 11.1413 137.282 10.832C137.282 10.576 137.346 10.3307 137.474 10.096C137.506 10.0427 137.554 10.016 137.618 10.016C137.671 10.016 137.714 10.0427 137.746 10.096C137.789 10.1387 137.794 10.192 137.762 10.256C137.655 10.448 137.602 10.64 137.602 10.832C137.602 11.0667 137.682 11.28 137.842 11.472C138.002 11.664 138.263 11.76 138.626 11.76C139.031 11.76 139.415 11.6747 139.778 11.504C140.151 11.3227 140.503 11.1093 140.834 10.864C140.855 10.8427 140.887 10.832 140.93 10.832C141.037 10.832 141.09 10.8853 141.09 10.992C141.09 11.0453 141.069 11.088 141.026 11.12C140.685 11.376 140.317 11.6 139.922 11.792C139.527 11.984 139.095 12.08 138.626 12.08ZM135.57 12.064C135.218 12.064 134.903 11.9467 134.626 11.712C134.359 11.4773 134.237 11.1147 134.258 10.624C134.258 10.528 134.311 10.48 134.418 10.48C134.461 10.48 134.503 10.496 134.546 10.528C134.578 10.5493 134.589 10.5867 134.578 10.64C134.567 11.024 134.663 11.3067 134.866 11.488C135.069 11.6587 135.303 11.744 135.57 11.744C135.783 11.744 135.997 11.696 136.21 11.6C136.423 11.4933 136.599 11.344 136.738 11.152C136.77 11.1093 136.813 11.088 136.866 11.088C136.919 11.088 136.967 11.1147 137.01 11.168C137.053 11.2213 137.047 11.28 136.994 11.344C136.823 11.5787 136.61 11.76 136.354 11.888C136.098 12.0053 135.837 12.064 135.57 12.064ZM141.922 9.072C141.869 9.072 141.826 9.04533 141.794 8.992C141.751 8.93867 141.751 8.88 141.794 8.816C142.039 8.496 142.279 8.144 142.514 7.76C142.759 7.36533 142.967 7.00267 143.138 6.672C143.319 6.33067 143.442 6.08533 143.506 5.936C143.677 5.52 143.879 5.22667 144.114 5.056C144.349 4.87467 144.573 4.784 144.786 4.784C145.021 4.784 145.218 4.864 145.378 5.024C145.549 5.184 145.634 5.38667 145.634 5.632C145.634 5.76 145.591 5.92 145.506 6.112C145.474 6.176 145.426 6.208 145.362 6.208C145.309 6.208 145.261 6.18667 145.218 6.144C145.186 6.10133 145.186 6.048 145.218 5.984C145.271 5.856 145.298 5.744 145.298 5.648C145.298 5.49867 145.25 5.37067 145.154 5.264C145.058 5.15733 144.935 5.104 144.786 5.104C144.626 5.104 144.455 5.17867 144.274 5.328C144.103 5.47733 143.943 5.72267 143.794 6.064C143.73 6.224 143.607 6.47467 143.426 6.816C143.245 7.15733 143.031 7.52533 142.786 7.92C142.541 8.31467 142.295 8.67733 142.05 9.008C142.018 9.05067 141.975 9.072 141.922 9.072ZM145.586 10.976C145.447 10.976 145.33 10.944 145.234 10.88C145.053 10.7627 144.962 10.592 144.962 10.368C144.962 10.1333 145.037 9.88267 145.186 9.616C145.346 9.33867 145.517 9.08267 145.698 8.848C145.89 8.60267 146.023 8.41067 146.098 8.272C146.183 8.13333 146.269 7.99467 146.354 7.856C146.439 7.71733 146.482 7.568 146.482 7.408C146.482 7.32267 146.455 7.23733 146.402 7.152C146.349 7.056 146.237 6.976 146.066 6.912C145.895 6.83733 145.623 6.8 145.25 6.8C145.175 6.8 145.09 6.80533 144.994 6.816C144.898 6.82667 144.791 6.832 144.674 6.832H144.658C144.551 6.832 144.498 6.77867 144.498 6.672C144.498 6.56533 144.546 6.512 144.642 6.512C144.727 6.50133 144.818 6.496 144.914 6.496C145.01 6.48533 145.101 6.48 145.186 6.48C145.602 6.48 145.975 6.544 146.306 6.672C146.647 6.78933 146.818 7.01867 146.818 7.36C146.818 7.57333 146.743 7.81333 146.594 8.08C146.402 8.44267 146.178 8.784 145.922 9.104C145.677 9.41333 145.474 9.75467 145.314 10.128C145.303 10.16 145.293 10.192 145.282 10.224C145.282 10.256 145.282 10.288 145.282 10.32C145.282 10.4587 145.325 10.5547 145.41 10.608C145.463 10.64 145.522 10.656 145.586 10.656C145.746 10.656 145.938 10.5813 146.162 10.432C146.397 10.272 146.631 10.0853 146.866 9.872C147.111 9.648 147.33 9.44 147.522 9.248C147.714 9.04533 147.847 8.896 147.922 8.8C147.954 8.75733 147.991 8.736 148.034 8.736C148.087 8.736 148.135 8.768 148.178 8.832C148.221 8.88533 148.215 8.944 148.162 9.008C148.045 9.15733 147.826 9.392 147.506 9.712C147.186 10.0213 146.855 10.3093 146.514 10.576C146.173 10.8427 145.863 10.976 145.586 10.976ZM141.81 10.48C141.746 10.48 141.698 10.448 141.666 10.384C141.623 10.32 141.634 10.2613 141.698 10.208C142.05 9.86667 142.386 9.488 142.706 9.072C143.026 8.64533 143.298 8.256 143.522 7.904C143.757 7.552 143.901 7.30667 143.954 7.168C143.986 7.104 144.034 7.072 144.098 7.072C144.151 7.072 144.194 7.09333 144.226 7.136C144.258 7.17867 144.263 7.232 144.242 7.296C144.189 7.44533 144.045 7.70133 143.81 8.064C143.575 8.42667 143.293 8.82667 142.962 9.264C142.631 9.69067 142.285 10.08 141.922 10.432C141.89 10.464 141.853 10.48 141.81 10.48ZM144.802 12.16C144.439 12.16 144.119 12.0693 143.842 11.888C143.575 11.7067 143.442 11.4027 143.442 10.976C143.442 10.6347 143.538 10.2613 143.73 9.856C143.922 9.44 144.146 9.04 144.402 8.656C144.658 8.26133 144.887 7.92533 145.09 7.648C145.122 7.60533 145.165 7.584 145.218 7.584C145.271 7.584 145.319 7.61067 145.362 7.664C145.405 7.71733 145.399 7.776 145.346 7.84C145.165 8.096 144.946 8.41067 144.69 8.784C144.445 9.15733 144.226 9.54133 144.034 9.936C143.853 10.32 143.762 10.6667 143.762 10.976C143.762 11.264 143.847 11.4827 144.018 11.632C144.199 11.7707 144.439 11.84 144.738 11.84C145.122 11.84 145.538 11.7387 145.986 11.536C146.445 11.3333 146.797 11.0773 147.042 10.768C147.074 10.7253 147.117 10.704 147.17 10.704C147.223 10.704 147.271 10.736 147.314 10.8C147.357 10.8533 147.351 10.9067 147.298 10.96C147.01 11.3013 146.631 11.5893 146.162 11.824C145.693 12.048 145.239 12.16 144.802 12.16Z" fill="#6A5542"/>
</svg>
