<svg width="120" height="41" viewBox="0 0 120 41" fill="none" xmlns="http://www.w3.org/2000/svg">
<path d="M10.616 6.4H13.256V7.792H10.616V6.4ZM9.384 0.688H11.064V15.312H9.384V0.688ZM0.248 2.112H1.912V11.184H0.248V2.112ZM0.248 10.272H1.448C3.576 10.272 5.816 10.128 8.2 9.648L8.392 11.024C5.928 11.536 3.64 11.68 1.448 11.68H0.248V10.272ZM24.8068 0.688H26.4868V15.344H24.8068V0.688ZM18.6948 1.776C20.8868 1.776 22.4708 3.776 22.4708 6.928C22.4708 10.08 20.8868 12.096 18.6948 12.096C16.5188 12.096 14.9348 10.08 14.9348 6.928C14.9348 3.776 16.5188 1.776 18.6948 1.776ZM18.6948 3.296C17.4148 3.296 16.5348 4.656 16.5348 6.928C16.5348 9.216 17.4148 10.592 18.6948 10.592C19.9748 10.592 20.8548 9.216 20.8548 6.928C20.8548 4.656 19.9748 3.296 18.6948 3.296ZM34.8375 1.632H36.2935V2.736C36.2935 5.904 33.6375 8.528 30.3415 9.232L29.6055 7.84C32.5015 7.312 34.8375 5.04 34.8375 2.736V1.632ZM35.1575 1.632H36.6135V2.736C36.6135 5.072 38.9495 7.312 41.8455 7.84L41.1095 9.232C37.8135 8.528 35.1575 5.936 35.1575 2.736V1.632ZM29.1735 12.064H42.4215V13.44H29.1735V12.064ZM47.5403 1.584C49.3963 1.584 50.7403 2.704 50.7403 4.32C50.7403 5.92 49.3963 7.04 47.5403 7.04C45.6843 7.04 44.3403 5.92 44.3403 4.32C44.3403 2.704 45.6843 1.584 47.5403 1.584ZM47.5403 2.848C46.5323 2.848 45.8283 3.424 45.8283 4.32C45.8283 5.2 46.5323 5.792 47.5403 5.792C48.5323 5.792 49.2523 5.2 49.2523 4.32C49.2523 3.424 48.5323 2.848 47.5403 2.848ZM54.8363 0.704H56.4363V15.328H54.8363V0.704ZM52.0203 0.992H53.5883V14.608H52.0203V0.992ZM49.4763 10.208H52.5483V11.504H49.4763V10.208ZM46.6923 8.704H48.2923V14.16H46.6923V8.704ZM43.8763 9.392L43.6683 8.016C45.6523 8.016 48.8363 7.984 51.1723 7.648L51.3003 8.88C48.8683 9.36 45.8283 9.392 43.8763 9.392ZM59.315 10.384H60.467C63.123 10.384 64.851 10.32 66.819 9.952L66.995 11.312C64.947 11.696 63.187 11.776 60.467 11.776H59.315V10.384ZM59.315 2.048H65.955V3.408H60.995V10.912H59.315V2.048ZM69.075 0.704H70.755V15.36H69.075V0.704ZM65.155 5.888H69.779V7.264H65.155V5.888ZM77.7235 14V2.224H81.3875C83.7875 2.224 85.5315 2.992 85.5315 5.12C85.5315 6.256 84.9235 7.312 83.8675 7.68V7.744C85.2115 8.032 86.1715 8.96 86.1715 10.544C86.1715 12.88 84.2835 14 81.6755 14H77.7235ZM79.5955 7.136H81.1795C82.9715 7.136 83.7075 6.464 83.7075 5.376C83.7075 4.144 82.8755 3.68 81.2275 3.68H79.5955V7.136ZM79.5955 12.544H81.4675C83.2915 12.544 84.3475 11.888 84.3475 10.464C84.3475 9.136 83.3395 8.544 81.4675 8.544H79.5955V12.544ZM91.7714 14.224C89.5794 14.224 87.6274 12.528 87.6274 9.616C87.6274 6.672 89.5794 4.976 91.7714 4.976C93.9474 4.976 95.9154 6.672 95.9154 9.616C95.9154 12.528 93.9474 14.224 91.7714 14.224ZM91.7714 12.704C93.1474 12.704 94.0274 11.472 94.0274 9.616C94.0274 7.744 93.1474 6.512 91.7714 6.512C90.3794 6.512 89.5314 7.744 89.5314 9.616C89.5314 11.472 90.3794 12.704 91.7714 12.704ZM99.9191 14.224C98.5751 14.224 98.0791 13.36 98.0791 11.936V1.264H99.9351V12.032C99.9351 12.528 100.143 12.704 100.367 12.704C100.447 12.704 100.511 12.704 100.671 12.672L100.911 14.064C100.671 14.144 100.383 14.224 99.9191 14.224ZM105.885 14.224C103.677 14.224 102.269 12.528 102.269 9.616C102.269 6.752 104.077 4.976 106.029 4.976C107.037 4.976 107.693 5.36 108.397 5.968L108.317 4.512V1.264H110.173V14H108.653L108.509 13.024H108.461C107.789 13.696 106.877 14.224 105.885 14.224ZM106.333 12.688C107.053 12.688 107.693 12.352 108.317 11.616V7.328C107.677 6.736 107.053 6.512 106.397 6.512C105.165 6.512 104.173 7.696 104.173 9.584C104.173 11.584 104.957 12.688 106.333 12.688ZM10.696 31.208H13.304V32.952H10.696V31.208ZM9.112 25.592H11.256V40.408H9.112V25.592ZM0.0880001 27.016H2.216V36.216H0.0880001V27.016ZM0.0880001 35.032H1.368C3.48 35.032 5.768 34.888 8.152 34.408L8.376 36.152C5.928 36.664 3.544 36.792 1.368 36.792H0.0880001V35.032ZM24.5188 25.592H26.6628V40.456H24.5188V25.592ZM18.6788 26.632C20.9188 26.632 22.5668 28.68 22.5668 31.912C22.5668 35.176 20.9188 37.224 18.6788 37.224C16.4388 37.224 14.7908 35.176 14.7908 31.912C14.7908 28.68 16.4388 26.632 18.6788 26.632ZM18.6788 28.568C17.5748 28.568 16.8228 29.736 16.8228 31.912C16.8228 34.12 17.5748 35.304 18.6788 35.304C19.7828 35.304 20.5188 34.12 20.5188 31.912C20.5188 29.736 19.7828 28.568 18.6788 28.568ZM34.5815 26.456H36.4375V27.528C36.4375 30.744 34.1495 33.592 30.3095 34.344L29.3975 32.584C32.7415 32.008 34.5815 29.656 34.5815 27.528V26.456ZM35.0135 26.456H36.8535V27.528C36.8535 29.704 38.6775 32.008 42.0375 32.584L41.1255 34.344C37.2855 33.592 35.0135 30.792 35.0135 27.528V26.456ZM29.0935 36.888H42.5015V38.616H29.0935V36.888ZM47.4763 26.44C49.3643 26.44 50.7563 27.592 50.7563 29.24C50.7563 30.888 49.3643 32.04 47.4763 32.04C45.5723 32.04 44.1963 30.888 44.1963 29.24C44.1963 27.592 45.5723 26.44 47.4763 26.44ZM47.4763 28.008C46.6443 28.008 46.0683 28.456 46.0683 29.24C46.0683 30.024 46.6443 30.472 47.4763 30.472C48.2923 30.472 48.8683 30.024 48.8683 29.24C48.8683 28.456 48.2923 28.008 47.4763 28.008ZM54.7403 25.608H56.7563V40.424H54.7403V25.608ZM51.7803 25.848H53.7643V39.752H51.7803V25.848ZM49.4443 35.144H52.4203V36.744H49.4443V35.144ZM46.4363 33.656H48.4523V39.272H46.4363V33.656ZM43.8123 34.552L43.5723 32.84C45.5563 32.84 48.7243 32.808 51.0443 32.472L51.2043 34.024C48.7883 34.504 45.7483 34.552 43.8123 34.552ZM59.219 35.144H60.419C63.043 35.144 64.755 35.08 66.675 34.728L66.883 36.44C64.899 36.808 63.123 36.888 60.419 36.888H59.219V35.144ZM59.219 26.92H65.923V28.616H61.347V35.8H59.219V26.92ZM68.835 25.608H70.963V40.472H68.835V25.608ZM65.203 30.712H69.731V32.44H65.203V30.712ZM77.6748 39V27.16H81.5788C84.0108 27.16 85.8668 27.88 85.8668 30.088C85.8668 31.176 85.2748 32.28 84.2668 32.648V32.712C85.5308 33.016 86.4748 33.928 86.4748 35.512C86.4748 37.896 84.4908 39 81.8988 39H77.6748ZM80.0428 31.976H81.4188C82.9228 31.976 83.5628 31.384 83.5628 30.424C83.5628 29.384 82.8748 28.984 81.4508 28.984H80.0428V31.976ZM80.0428 37.176H81.6908C83.2908 37.176 84.1708 36.6 84.1708 35.384C84.1708 34.232 83.3228 33.736 81.6908 33.736H80.0428V37.176ZM90.5814 39.224C88.9334 39.224 88.3734 38.152 88.3734 36.488V26.248H90.7254V36.584C90.7254 37.144 90.9654 37.32 91.1894 37.32C91.2694 37.32 91.3334 37.32 91.4934 37.288L91.7814 39.032C91.5094 39.128 91.1414 39.224 90.5814 39.224ZM95.6123 39.224C94.0123 39.224 92.9723 38.104 92.9723 36.568C92.9723 34.664 94.5243 33.656 98.1243 33.256C98.0763 32.376 97.7083 31.72 96.6043 31.72C95.7723 31.72 94.9563 32.072 94.1403 32.568L93.2923 31C94.3483 30.36 95.6123 29.832 97.0363 29.832C99.3083 29.832 100.476 31.176 100.476 33.784V39H98.5563L98.3803 38.056H98.3163C97.5323 38.728 96.6363 39.224 95.6123 39.224ZM96.3802 37.384C97.0523 37.384 97.5483 37.08 98.1243 36.52V34.712C95.9323 34.984 95.2123 35.576 95.2123 36.392C95.2123 37.08 95.6923 37.384 96.3802 37.384ZM106.665 39.224C104.201 39.224 102.313 37.496 102.313 34.536C102.313 31.56 104.441 29.832 106.873 29.832C107.993 29.832 108.825 30.248 109.481 30.824L108.377 32.328C107.929 31.944 107.497 31.752 107.017 31.752C105.625 31.752 104.713 32.84 104.713 34.536C104.713 36.216 105.641 37.32 106.921 37.32C107.577 37.32 108.185 37 108.681 36.6L109.609 38.152C108.761 38.888 107.657 39.224 106.665 39.224ZM111.311 39V26.248H113.615V33.896H113.695L116.735 30.056H119.327L116.255 33.736L119.599 39H117.055L114.879 35.288L113.615 36.744V39H111.311Z" fill="#6A5542"/>
</svg>
