<svg width="209" height="13" viewBox="0 0 209 13" fill="none" xmlns="http://www.w3.org/2000/svg">
<path d="M0.768 0.0959997H5.856L12.768 6.864V0.0959997H17.28V12H12.736L5.28 4.784V12H0.768V0.0959997ZM23.0389 0.0959997V2.672H18.6869V0.0959997H23.0389ZM23.0389 3.392V12H18.6869V3.392H23.0389ZM31.2719 12.24H30.3119C29.2559 12.24 28.3279 12.144 27.5279 11.952C26.7385 11.7493 26.1252 11.4987 25.6879 11.2C25.2505 10.9013 24.8932 10.544 24.6159 10.128C24.3492 9.70133 24.1732 9.312 24.0879 8.96C24.0132 8.59733 23.9759 8.208 23.9759 7.792V7.504C23.9759 4.60267 26.0825 3.152 30.2959 3.152H31.2879C32.3759 3.152 33.3252 3.25333 34.1359 3.456C34.9572 3.648 35.5812 3.88267 36.0079 4.16C36.4345 4.42667 36.7759 4.752 37.0319 5.136C37.2985 5.52 37.4639 5.85067 37.5279 6.128C37.5919 6.40533 37.6239 6.69333 37.6239 6.992V7.04H33.1759C33.1545 6.912 33.1119 6.784 33.0479 6.656C32.9945 6.528 32.8932 6.37333 32.7439 6.192C32.5945 6 32.3492 5.84533 32.0079 5.728C31.6772 5.61067 31.2719 5.552 30.7919 5.552H30.7279C29.8745 5.552 29.2719 5.744 28.9199 6.128C28.5679 6.50133 28.3919 6.976 28.3919 7.552V7.632C28.3919 8.24 28.5732 8.75733 28.9359 9.184C29.2985 9.6 29.8959 9.808 30.7279 9.808H30.7919C31.2612 9.808 31.6612 9.74933 31.9919 9.632C32.3332 9.504 32.5785 9.344 32.7279 9.152C32.8879 8.94933 32.9945 8.784 33.0479 8.656C33.1119 8.51733 33.1545 8.384 33.1759 8.256H37.6239V8.288C37.6239 8.49067 37.6079 8.688 37.5759 8.88C37.5545 9.072 37.4905 9.30667 37.3839 9.584C37.2879 9.85067 37.1545 10.1013 36.9839 10.336C36.8132 10.5707 36.5625 10.8107 36.2319 11.056C35.9119 11.2907 35.5332 11.4933 35.0959 11.664C34.6692 11.8347 34.1252 11.9733 33.4639 12.08C32.8132 12.1867 32.0825 12.24 31.2719 12.24ZM44.9634 5.264C43.5447 5.264 42.718 5.696 42.4834 6.56H47.4434C47.262 5.696 46.4354 5.264 44.9634 5.264ZM51.7634 8.864V8.896C51.7634 9.184 51.726 9.456 51.6514 9.712C51.5767 9.968 51.406 10.2613 51.1394 10.592C50.8727 10.912 50.5207 11.1893 50.0834 11.424C49.646 11.648 49.022 11.84 48.2114 12C47.4114 12.16 46.478 12.24 45.4114 12.24H44.5634C43.55 12.24 42.654 12.1493 41.8754 11.968C41.0967 11.7867 40.478 11.552 40.0194 11.264C39.5607 10.976 39.1874 10.6347 38.8994 10.24C38.6114 9.83467 38.414 9.44 38.3074 9.056C38.2114 8.66133 38.1634 8.24533 38.1634 7.808V7.488C38.1634 4.59733 40.2807 3.152 44.5154 3.152H45.3954C46.174 3.152 46.878 3.20533 47.5074 3.312C48.1474 3.408 48.686 3.54133 49.1234 3.712C49.5607 3.88267 49.9394 4.096 50.2594 4.352C50.59 4.608 50.8514 4.86933 51.0434 5.136C51.2354 5.392 51.39 5.68533 51.5074 6.016C51.6247 6.336 51.6994 6.64 51.7314 6.928C51.774 7.20533 51.7954 7.50933 51.7954 7.84V8.32H42.4354C42.5847 9.376 43.454 9.904 45.0434 9.904H45.0594C45.4434 9.904 45.7847 9.872 46.0834 9.808C46.3927 9.744 46.6274 9.67467 46.7874 9.6C46.958 9.51467 47.0967 9.41867 47.2034 9.312C47.31 9.20533 47.3794 9.12 47.4114 9.056C47.4434 8.98133 47.4647 8.91733 47.4754 8.864H51.7634ZM62.0465 12H56.5105L51.8705 0.0959997H56.9265L59.6305 7.952L62.0145 0.0959997H67.1345L69.5505 7.824L72.1745 0.0959997H76.8305L72.1905 12H66.9265L64.4465 4.48L62.0465 12ZM82.3071 5.264C80.8885 5.264 80.0618 5.696 79.8271 6.56H84.7871C84.6058 5.696 83.7791 5.264 82.3071 5.264ZM89.1071 8.864V8.896C89.1071 9.184 89.0698 9.456 88.9951 9.712C88.9205 9.968 88.7498 10.2613 88.4831 10.592C88.2165 10.912 87.8645 11.1893 87.4271 11.424C86.9898 11.648 86.3658 11.84 85.5551 12C84.7551 12.16 83.8218 12.24 82.7551 12.24H81.9071C80.8938 12.24 79.9978 12.1493 79.2191 11.968C78.4405 11.7867 77.8218 11.552 77.3631 11.264C76.9045 10.976 76.5311 10.6347 76.2431 10.24C75.9551 9.83467 75.7578 9.44 75.6511 9.056C75.5551 8.66133 75.5071 8.24533 75.5071 7.808V7.488C75.5071 4.59733 77.6245 3.152 81.8591 3.152H82.7391C83.5178 3.152 84.2218 3.20533 84.8511 3.312C85.4911 3.408 86.0298 3.54133 86.4671 3.712C86.9045 3.88267 87.2831 4.096 87.6031 4.352C87.9338 4.608 88.1951 4.86933 88.3871 5.136C88.5791 5.392 88.7338 5.68533 88.8511 6.016C88.9685 6.336 89.0431 6.64 89.0751 6.928C89.1178 7.20533 89.1391 7.50933 89.1391 7.84V8.32H79.7791C79.9285 9.376 80.7978 9.904 82.3871 9.904H82.4031C82.7871 9.904 83.1285 9.872 83.4271 9.808C83.7365 9.744 83.9711 9.67467 84.1311 9.6C84.3018 9.51467 84.4405 9.41867 84.5471 9.312C84.6538 9.20533 84.7231 9.12 84.7551 9.056C84.7871 8.98133 84.8085 8.91733 84.8191 8.864H89.1071ZM97.7423 8.304V7.936L94.8623 8.448C94.4783 8.512 94.2063 8.59733 94.0463 8.704C93.8863 8.81067 93.8063 8.97067 93.8063 9.184V9.2C93.8063 9.44533 93.9076 9.65333 94.1102 9.824C94.3236 9.99467 94.6756 10.08 95.1663 10.08C95.9343 10.08 96.5529 9.904 97.0223 9.552C97.5023 9.18933 97.7423 8.77333 97.7423 8.304ZM97.8223 10.848C96.9476 11.7227 95.6036 12.16 93.7903 12.16H93.6143C92.2703 12.16 91.2676 11.8933 90.6063 11.36C89.9556 10.8267 89.6303 10.1707 89.6303 9.392V9.2C89.6303 8.45333 89.8969 7.87733 90.4303 7.472C90.9743 7.056 91.8703 6.8 93.1183 6.704L97.2623 6.336C97.5823 6.29333 97.7423 6.15467 97.7423 5.92C97.7423 5.792 97.7049 5.68533 97.6302 5.6C97.5663 5.51467 97.3903 5.44 97.1023 5.376C96.8143 5.30133 96.4036 5.264 95.8703 5.264H95.8063C95.3796 5.264 95.0223 5.296 94.7343 5.36C94.4569 5.41333 94.2596 5.49867 94.1423 5.616C94.0356 5.73333 93.9663 5.824 93.9343 5.888C93.9129 5.94133 93.8916 6.02667 93.8703 6.144H89.8383V6.048C89.8383 5.76 89.8596 5.50933 89.9023 5.296C89.9556 5.08267 90.0889 4.832 90.3023 4.544C90.5156 4.256 90.8036 4.02133 91.1663 3.84C91.5396 3.65867 92.0836 3.504 92.7983 3.376C93.5236 3.23733 94.3769 3.168 95.3583 3.168H96.2543C97.2783 3.168 98.1636 3.232 98.9103 3.36C99.6569 3.47733 100.222 3.62667 100.606 3.808C100.99 3.97867 101.294 4.20267 101.518 4.48C101.742 4.74667 101.876 4.98667 101.918 5.2C101.972 5.40267 101.998 5.648 101.998 5.936V9.12C101.998 9.36533 102.121 9.488 102.366 9.488H102.83V12H99.2143C98.4143 12 97.9503 11.616 97.8223 10.848ZM110.402 12H106.722C105.197 12 104.434 11.184 104.434 9.552V6.032H102.786V3.392H104.434V0.879999H108.754V3.392H110.402V6.032H108.754V8.576C108.754 8.85333 108.797 9.05067 108.882 9.168C108.978 9.27467 109.175 9.328 109.474 9.328H110.402V12ZM111.437 12V0.0959997H115.789V4.896C116.92 3.76533 118.392 3.2 120.205 3.2H120.301C121.069 3.2 121.736 3.30667 122.301 3.52C122.877 3.72267 123.32 3.99467 123.629 4.336C123.938 4.66667 124.162 5.01333 124.301 5.376C124.45 5.728 124.525 6.09067 124.525 6.464V12H120.157V7.888C120.157 7.28 119.986 6.8 119.645 6.448C119.314 6.08533 118.792 5.904 118.077 5.904C117.362 5.904 116.802 6.096 116.397 6.48C115.992 6.864 115.789 7.37067 115.789 8V12H111.437ZM132.26 5.264C130.842 5.264 130.015 5.696 129.78 6.56H134.74C134.559 5.696 133.732 5.264 132.26 5.264ZM139.06 8.864V8.896C139.06 9.184 139.023 9.456 138.948 9.712C138.874 9.968 138.703 10.2613 138.436 10.592C138.17 10.912 137.818 11.1893 137.38 11.424C136.943 11.648 136.319 11.84 135.508 12C134.708 12.16 133.775 12.24 132.708 12.24H131.86C130.847 12.24 129.951 12.1493 129.172 11.968C128.394 11.7867 127.775 11.552 127.316 11.264C126.858 10.976 126.484 10.6347 126.196 10.24C125.908 9.83467 125.711 9.44 125.604 9.056C125.508 8.66133 125.46 8.24533 125.46 7.808V7.488C125.46 4.59733 127.578 3.152 131.812 3.152H132.692C133.471 3.152 134.175 3.20533 134.804 3.312C135.444 3.408 135.983 3.54133 136.42 3.712C136.858 3.88267 137.236 4.096 137.556 4.352C137.887 4.608 138.148 4.86933 138.34 5.136C138.532 5.392 138.687 5.68533 138.804 6.016C138.922 6.336 138.996 6.64 139.028 6.928C139.071 7.20533 139.092 7.50933 139.092 7.84V8.32H129.732C129.882 9.376 130.751 9.904 132.34 9.904H132.356C132.74 9.904 133.082 9.872 133.38 9.808C133.69 9.744 133.924 9.67467 134.084 9.6C134.255 9.51467 134.394 9.41867 134.5 9.312C134.607 9.20533 134.676 9.12 134.708 9.056C134.74 8.98133 134.762 8.91733 134.772 8.864H139.06ZM144.319 3.392V4.976C144.479 4.74133 144.677 4.512 144.911 4.288C145.157 4.05333 145.557 3.81333 146.111 3.568C146.666 3.32267 147.269 3.2 147.919 3.2H148.111C148.794 3.2 149.381 3.312 149.871 3.536C150.362 3.74933 150.735 4.048 150.991 4.432C151.247 4.80533 151.434 5.20533 151.551 5.632C151.669 6.048 151.727 6.50667 151.727 7.008V7.872H147.503V7.568C147.503 7.04533 147.375 6.624 147.119 6.304C146.874 5.97333 146.485 5.808 145.951 5.808C145.45 5.808 145.055 5.97867 144.767 6.32C144.49 6.66133 144.351 7.10933 144.351 7.664V12H139.999V3.392H144.319ZM157.627 12V0.0959997H168.827C170.427 0.0959997 171.558 0.352 172.219 0.863999C172.891 1.36533 173.227 2.01067 173.227 2.8V2.976C173.227 3.63733 173.014 4.16533 172.587 4.56C172.161 4.944 171.691 5.19467 171.179 5.312C171.499 5.38667 171.793 5.488 172.059 5.616C172.337 5.744 172.625 5.92 172.923 6.144C173.233 6.368 173.473 6.672 173.643 7.056C173.825 7.44 173.915 7.87733 173.915 8.368V8.56C173.915 10.8533 172.241 12 168.891 12H157.627ZM167.451 2.8H162.171V4.48H167.451C168.262 4.48 168.667 4.20267 168.667 3.648V3.616C168.667 3.072 168.262 2.8 167.451 2.8ZM167.739 7.152H162.171V9.2H167.739C168.678 9.2 169.147 8.85867 169.147 8.176V8.128C169.147 7.47733 168.678 7.152 167.739 7.152ZM182.125 12.24H180.941C179.885 12.24 178.957 12.144 178.157 11.952C177.357 11.7493 176.723 11.504 176.253 11.216C175.795 10.9173 175.421 10.56 175.133 10.144C174.845 9.728 174.653 9.33333 174.557 8.96C174.461 8.58667 174.413 8.192 174.413 7.776V7.52C174.413 7.11467 174.461 6.73067 174.557 6.368C174.653 5.99467 174.84 5.60533 175.117 5.2C175.405 4.79467 175.779 4.448 176.237 4.16C176.696 3.872 177.325 3.632 178.125 3.44C178.936 3.248 179.869 3.152 180.925 3.152H182.141C186.472 3.152 188.637 4.60267 188.637 7.504V7.792C188.637 8.21867 188.6 8.61333 188.525 8.976C188.451 9.328 188.275 9.71733 187.997 10.144C187.731 10.5707 187.373 10.928 186.925 11.216C186.477 11.504 185.843 11.7493 185.021 11.952C184.2 12.144 183.235 12.24 182.125 12.24ZM181.549 5.584H181.533C180.552 5.584 179.853 5.78133 179.437 6.176C179.032 6.56 178.829 7.03467 178.829 7.6V7.664C178.829 8.24 179.032 8.74133 179.437 9.168C179.853 9.584 180.552 9.792 181.533 9.792H181.549C182.509 9.792 183.197 9.57867 183.613 9.152C184.029 8.71467 184.237 8.21867 184.237 7.664V7.6C184.237 7.03467 184.029 6.56 183.613 6.176C183.208 5.78133 182.52 5.584 181.549 5.584ZM193.93 0.0959997V12H189.578V0.0959997H193.93ZM204.483 7.696V7.616C204.483 7.09333 204.243 6.63467 203.763 6.24C203.293 5.83467 202.632 5.632 201.779 5.632H201.699C200.835 5.632 200.216 5.824 199.843 6.208C199.469 6.58133 199.283 7.05067 199.283 7.616V7.696C199.283 8.24 199.48 8.71467 199.875 9.12C200.28 9.52533 200.893 9.728 201.715 9.728H201.779C202.643 9.728 203.309 9.52533 203.779 9.12C204.248 8.704 204.483 8.22933 204.483 7.696ZM204.483 0.0959997H208.835V12H204.499V10.752C204.392 10.8693 204.253 10.992 204.083 11.12C203.923 11.2373 203.677 11.3867 203.347 11.568C203.027 11.7387 202.605 11.8827 202.083 12C201.56 12.1067 200.984 12.16 200.355 12.16H200.083C198.323 12.16 197.011 11.7493 196.147 10.928C195.293 10.1067 194.867 9.06667 194.867 7.808V7.472C194.867 6.896 194.957 6.368 195.139 5.888C195.331 5.39733 195.619 4.94933 196.003 4.544C196.387 4.13867 196.915 3.81867 197.587 3.584C198.259 3.34933 199.048 3.232 199.955 3.232H200.259C201.976 3.232 203.384 3.648 204.483 4.48V0.0959997Z" fill="#6A5542"/>
</svg>
