<svg width="160" height="38" viewBox="0 0 160 38" fill="none" xmlns="http://www.w3.org/2000/svg">
<path d="M0.824 12V0.799999H1.8L9.528 10.528H9.016V0.799999H10.184V12H9.208L1.496 2.272H2.008V12H0.824ZM13.5996 12V3.6H14.7356V12H13.5996ZM14.1756 1.744C13.941 1.744 13.7436 1.664 13.5836 1.504C13.4236 1.344 13.3436 1.152 13.3436 0.927999C13.3436 0.703999 13.4236 0.517332 13.5836 0.367999C13.7436 0.207999 13.941 0.127999 14.1756 0.127999C14.4103 0.127999 14.6076 0.202666 14.7676 0.351999C14.9276 0.501333 15.0076 0.687999 15.0076 0.912C15.0076 1.14667 14.9276 1.344 14.7676 1.504C14.6183 1.664 14.421 1.744 14.1756 1.744ZM21.3845 12.08C20.5525 12.08 19.8058 11.8987 19.1445 11.536C18.4938 11.1627 17.9818 10.656 17.6085 10.016C17.2352 9.36533 17.0485 8.624 17.0485 7.792C17.0485 6.94933 17.2352 6.208 17.6085 5.568C17.9818 4.928 18.4938 4.42667 19.1445 4.064C19.8058 3.70133 20.5525 3.52 21.3845 3.52C22.0992 3.52 22.7445 3.65867 23.3205 3.936C23.8965 4.21333 24.3498 4.62933 24.6805 5.184L23.8325 5.76C23.5445 5.33333 23.1872 5.01867 22.7605 4.816C22.3338 4.61333 21.8698 4.512 21.3685 4.512C20.7712 4.512 20.2325 4.65067 19.7525 4.928C19.2725 5.19467 18.8938 5.57333 18.6165 6.064C18.3392 6.55467 18.2005 7.13067 18.2005 7.792C18.2005 8.45333 18.3392 9.02933 18.6165 9.52C18.8938 10.0107 19.2725 10.3947 19.7525 10.672C20.2325 10.9387 20.7712 11.072 21.3685 11.072C21.8698 11.072 22.3338 10.9707 22.7605 10.768C23.1872 10.5653 23.5445 10.256 23.8325 9.84L24.6805 10.416C24.3498 10.96 23.8965 11.376 23.3205 11.664C22.7445 11.9413 22.0992 12.08 21.3845 12.08ZM30.3395 12.08C29.4648 12.08 28.6968 11.8987 28.0355 11.536C27.3742 11.1627 26.8568 10.656 26.4835 10.016C26.1102 9.36533 25.9235 8.624 25.9235 7.792C25.9235 6.96 26.0995 6.224 26.4515 5.584C26.8142 4.944 27.3048 4.44267 27.9235 4.08C28.5528 3.70667 29.2568 3.52 30.0355 3.52C30.8248 3.52 31.5235 3.70133 32.1315 4.064C32.7502 4.416 33.2355 4.91733 33.5875 5.568C33.9395 6.208 34.1155 6.94933 34.1155 7.792C34.1155 7.84533 34.1102 7.904 34.0995 7.968C34.0995 8.02133 34.0995 8.08 34.0995 8.144H26.7875V7.296H33.4915L33.0435 7.632C33.0435 7.024 32.9102 6.48533 32.6435 6.016C32.3875 5.536 32.0355 5.16267 31.5875 4.896C31.1395 4.62933 30.6222 4.496 30.0355 4.496C29.4595 4.496 28.9422 4.62933 28.4835 4.896C28.0248 5.16267 27.6675 5.536 27.4115 6.016C27.1555 6.496 27.0275 7.04533 27.0275 7.664V7.84C27.0275 8.48 27.1662 9.04533 27.4435 9.536C27.7315 10.016 28.1262 10.3947 28.6275 10.672C29.1395 10.9387 29.7208 11.072 30.3715 11.072C30.8835 11.072 31.3582 10.9813 31.7955 10.8C32.2435 10.6187 32.6275 10.3413 32.9475 9.968L33.5875 10.704C33.2142 11.152 32.7448 11.4933 32.1795 11.728C31.6248 11.9627 31.0115 12.08 30.3395 12.08ZM38.8993 12L35.1233 0.799999H36.3393L39.8753 11.344H39.2673L42.9153 0.799999H44.0033L47.6033 11.344H47.0273L50.5953 0.799999H51.7313L47.9553 12H46.7073L43.2673 2H43.5873L40.1313 12H38.8993ZM56.5895 12.08C55.7148 12.08 54.9468 11.8987 54.2855 11.536C53.6242 11.1627 53.1068 10.656 52.7335 10.016C52.3602 9.36533 52.1735 8.624 52.1735 7.792C52.1735 6.96 52.3495 6.224 52.7015 5.584C53.0642 4.944 53.5548 4.44267 54.1735 4.08C54.8028 3.70667 55.5068 3.52 56.2855 3.52C57.0748 3.52 57.7735 3.70133 58.3815 4.064C59.0002 4.416 59.4855 4.91733 59.8375 5.568C60.1895 6.208 60.3655 6.94933 60.3655 7.792C60.3655 7.84533 60.3602 7.904 60.3495 7.968C60.3495 8.02133 60.3495 8.08 60.3495 8.144H53.0375V7.296H59.7415L59.2935 7.632C59.2935 7.024 59.1602 6.48533 58.8935 6.016C58.6375 5.536 58.2855 5.16267 57.8375 4.896C57.3895 4.62933 56.8722 4.496 56.2855 4.496C55.7095 4.496 55.1922 4.62933 54.7335 4.896C54.2748 5.16267 53.9175 5.536 53.6615 6.016C53.4055 6.496 53.2775 7.04533 53.2775 7.664V7.84C53.2775 8.48 53.4162 9.04533 53.6935 9.536C53.9815 10.016 54.3762 10.3947 54.8775 10.672C55.3895 10.9387 55.9708 11.072 56.6215 11.072C57.1335 11.072 57.6082 10.9813 58.0455 10.8C58.4935 10.6187 58.8775 10.3413 59.1975 9.968L59.8375 10.704C59.4642 11.152 58.9948 11.4933 58.4295 11.728C57.8748 11.9627 57.2615 12.08 56.5895 12.08ZM67.7074 12V10.144L67.6594 9.84V6.736C67.6594 6.02133 67.4567 5.472 67.0514 5.088C66.6567 4.704 66.0647 4.512 65.2754 4.512C64.7314 4.512 64.214 4.60267 63.7234 4.784C63.2327 4.96533 62.8167 5.20533 62.4754 5.504L61.9634 4.656C62.39 4.29333 62.902 4.016 63.4994 3.824C64.0967 3.62133 64.726 3.52 65.3874 3.52C66.4754 3.52 67.3127 3.792 67.8994 4.336C68.4967 4.86933 68.7954 5.68533 68.7954 6.784V12H67.7074ZM64.8114 12.08C64.182 12.08 63.6327 11.9787 63.1634 11.776C62.7047 11.5627 62.3527 11.2747 62.1074 10.912C61.862 10.5387 61.7394 10.112 61.7394 9.632C61.7394 9.19467 61.8407 8.8 62.0434 8.448C62.2567 8.08533 62.598 7.79733 63.0674 7.584C63.5474 7.36 64.1874 7.248 64.9874 7.248H67.8834V8.096H65.0194C64.2087 8.096 63.6434 8.24 63.3234 8.528C63.014 8.816 62.8594 9.17333 62.8594 9.6C62.8594 10.08 63.046 10.464 63.4194 10.752C63.7927 11.04 64.3154 11.184 64.9874 11.184C65.6274 11.184 66.1767 11.04 66.6354 10.752C67.1047 10.4533 67.446 10.0267 67.6594 9.472L67.9154 10.256C67.702 10.8107 67.3287 11.2533 66.7954 11.584C66.2727 11.9147 65.6114 12.08 64.8114 12.08ZM74.5369 12.08C73.7475 12.08 73.1395 11.8667 72.7129 11.44C72.2862 11.0133 72.0729 10.4107 72.0729 9.632V1.744H73.2089V9.568C73.2089 10.0587 73.3315 10.4373 73.5769 10.704C73.8329 10.9707 74.1955 11.104 74.6649 11.104C75.1662 11.104 75.5822 10.96 75.9129 10.672L76.3129 11.488C76.0889 11.6907 75.8169 11.84 75.4969 11.936C75.1875 12.032 74.8675 12.08 74.5369 12.08ZM70.5689 4.544V3.6H75.7689V4.544H70.5689ZM82.6689 3.52C83.3515 3.52 83.9489 3.65333 84.4609 3.92C84.9835 4.176 85.3889 4.57067 85.6769 5.104C85.9755 5.63733 86.1249 6.30933 86.1249 7.12V12H84.9889V7.232C84.9889 6.34667 84.7649 5.68 84.3169 5.232C83.8795 4.77333 83.2609 4.544 82.4609 4.544C81.8635 4.544 81.3409 4.66667 80.8929 4.912C80.4555 5.14667 80.1142 5.49333 79.8689 5.952C79.6342 6.4 79.5169 6.944 79.5169 7.584V12H78.3809V0.127999H79.5169V5.904L79.2929 5.472C79.5595 4.864 79.9862 4.38933 80.5729 4.048C81.1595 3.696 81.8582 3.52 82.6689 3.52ZM92.7614 12.08C91.8867 12.08 91.1187 11.8987 90.4574 11.536C89.796 11.1627 89.2787 10.656 88.9054 10.016C88.532 9.36533 88.3454 8.624 88.3454 7.792C88.3454 6.96 88.5214 6.224 88.8734 5.584C89.236 4.944 89.7267 4.44267 90.3454 4.08C90.9747 3.70667 91.6787 3.52 92.4574 3.52C93.2467 3.52 93.9454 3.70133 94.5534 4.064C95.172 4.416 95.6574 4.91733 96.0094 5.568C96.3614 6.208 96.5374 6.94933 96.5374 7.792C96.5374 7.84533 96.532 7.904 96.5214 7.968C96.5214 8.02133 96.5214 8.08 96.5214 8.144H89.2094V7.296H95.9134L95.4654 7.632C95.4654 7.024 95.332 6.48533 95.0654 6.016C94.8094 5.536 94.4574 5.16267 94.0094 4.896C93.5614 4.62933 93.044 4.496 92.4574 4.496C91.8814 4.496 91.364 4.62933 90.9054 4.896C90.4467 5.16267 90.0894 5.536 89.8334 6.016C89.5774 6.496 89.4494 7.04533 89.4494 7.664V7.84C89.4494 8.48 89.588 9.04533 89.8654 9.536C90.1534 10.016 90.548 10.3947 91.0494 10.672C91.5614 10.9387 92.1427 11.072 92.7934 11.072C93.3054 11.072 93.78 10.9813 94.2174 10.8C94.6654 10.6187 95.0494 10.3413 95.3694 9.968L96.0094 10.704C95.636 11.152 95.1667 11.4933 94.6014 11.728C94.0467 11.9627 93.4334 12.08 92.7614 12.08ZM98.8496 12V3.6H99.9376V5.888L99.8256 5.488C100.06 4.848 100.455 4.36267 101.01 4.032C101.564 3.69067 102.252 3.52 103.074 3.52V4.624C103.031 4.624 102.988 4.624 102.946 4.624C102.903 4.61333 102.86 4.608 102.818 4.608C101.932 4.608 101.239 4.88 100.738 5.424C100.236 5.95733 99.9856 6.72 99.9856 7.712V12H98.8496ZM109.699 12V0.799999H114.531C115.779 0.799999 116.744 1.05067 117.427 1.552C118.12 2.05333 118.467 2.76267 118.467 3.68C118.467 4.288 118.323 4.8 118.035 5.216C117.758 5.632 117.374 5.94667 116.883 6.16C116.403 6.37333 115.875 6.48 115.299 6.48L115.571 6.096C116.286 6.096 116.899 6.208 117.411 6.432C117.934 6.64533 118.339 6.97067 118.627 7.408C118.915 7.83467 119.059 8.368 119.059 9.008C119.059 9.95733 118.707 10.6933 118.003 11.216C117.31 11.7387 116.259 12 114.851 12H109.699ZM110.883 11.024H114.835C115.816 11.024 116.568 10.8587 117.091 10.528C117.614 10.1867 117.875 9.648 117.875 8.912C117.875 8.18667 117.614 7.65867 117.091 7.328C116.568 6.98667 115.816 6.816 114.835 6.816H110.755V5.84H114.451C115.347 5.84 116.04 5.66933 116.531 5.328C117.032 4.98667 117.283 4.48 117.283 3.808C117.283 3.12533 117.032 2.61867 116.531 2.288C116.04 1.94667 115.347 1.776 114.451 1.776H110.883V11.024ZM124.946 12.08C124.135 12.08 123.404 11.8987 122.754 11.536C122.114 11.1627 121.607 10.656 121.234 10.016C120.86 9.36533 120.674 8.624 120.674 7.792C120.674 6.94933 120.86 6.208 121.234 5.568C121.607 4.928 122.114 4.42667 122.754 4.064C123.394 3.70133 124.124 3.52 124.946 3.52C125.778 3.52 126.514 3.70133 127.154 4.064C127.804 4.42667 128.311 4.928 128.674 5.568C129.047 6.208 129.234 6.94933 129.234 7.792C129.234 8.624 129.047 9.36533 128.674 10.016C128.311 10.656 127.804 11.1627 127.154 11.536C126.503 11.8987 125.767 12.08 124.946 12.08ZM124.946 11.072C125.554 11.072 126.092 10.9387 126.562 10.672C127.031 10.3947 127.399 10.0107 127.666 9.52C127.943 9.01867 128.082 8.44267 128.082 7.792C128.082 7.13067 127.943 6.55467 127.666 6.064C127.399 5.57333 127.031 5.19467 126.562 4.928C126.092 4.65067 125.559 4.512 124.962 4.512C124.364 4.512 123.831 4.65067 123.362 4.928C122.892 5.19467 122.519 5.57333 122.242 6.064C121.964 6.55467 121.826 7.13067 121.826 7.792C121.826 8.44267 121.964 9.01867 122.242 9.52C122.519 10.0107 122.892 10.3947 123.362 10.672C123.831 10.9387 124.359 11.072 124.946 11.072ZM131.553 12V0.127999H132.689V12H131.553ZM139.194 12.08C138.394 12.08 137.674 11.8987 137.034 11.536C136.404 11.1733 135.908 10.672 135.546 10.032C135.183 9.38133 135.002 8.63467 135.002 7.792C135.002 6.93867 135.183 6.192 135.546 5.552C135.908 4.912 136.404 4.416 137.034 4.064C137.674 3.70133 138.394 3.52 139.194 3.52C139.93 3.52 140.586 3.68533 141.162 4.016C141.748 4.34667 142.212 4.832 142.554 5.472C142.906 6.10133 143.082 6.87467 143.082 7.792C143.082 8.69867 142.911 9.472 142.57 10.112C142.228 10.752 141.764 11.2427 141.178 11.584C140.602 11.9147 139.94 12.08 139.194 12.08ZM139.274 11.072C139.871 11.072 140.404 10.9387 140.874 10.672C141.354 10.3947 141.727 10.0107 141.994 9.52C142.271 9.01867 142.41 8.44267 142.41 7.792C142.41 7.13067 142.271 6.55467 141.994 6.064C141.727 5.57333 141.354 5.19467 140.874 4.928C140.404 4.65067 139.871 4.512 139.274 4.512C138.687 4.512 138.159 4.65067 137.69 4.928C137.22 5.19467 136.847 5.57333 136.57 6.064C136.292 6.55467 136.154 7.13067 136.154 7.792C136.154 8.44267 136.292 9.01867 136.57 9.52C136.847 10.0107 137.22 10.3947 137.69 10.672C138.159 10.9387 138.687 11.072 139.274 11.072ZM142.442 12V9.472L142.554 7.776L142.394 6.08V0.127999H143.53V12H142.442ZM0.328 37V25.8H2.472L9.08 33.864H8.04V25.8H10.6V37H8.472L1.848 28.936H2.888V37H0.328ZM13.0739 37V28.392H15.5699V37H13.0739ZM14.3219 27.192C13.8632 27.192 13.4899 27.0587 13.2019 26.792C12.9139 26.5253 12.7699 26.1947 12.7699 25.8C12.7699 25.4053 12.9139 25.0747 13.2019 24.808C13.4899 24.5413 13.8632 24.408 14.3219 24.408C14.7805 24.408 15.1539 24.536 15.4419 24.792C15.7299 25.0373 15.8739 25.3573 15.8739 25.752C15.8739 26.168 15.7299 26.5147 15.4419 26.792C15.1645 27.0587 14.7912 27.192 14.3219 27.192ZM22.0464 37.128C21.1184 37.128 20.2917 36.9413 19.5664 36.568C18.841 36.184 18.2704 35.656 17.8544 34.984C17.449 34.312 17.2464 33.5493 17.2464 32.696C17.2464 31.832 17.449 31.0693 17.8544 30.408C18.2704 29.736 18.841 29.2133 19.5664 28.84C20.2917 28.456 21.1184 28.264 22.0464 28.264C22.953 28.264 23.7424 28.456 24.4144 28.84C25.0864 29.2133 25.5824 29.752 25.9024 30.456L23.9664 31.496C23.7424 31.0907 23.4597 30.792 23.1184 30.6C22.7877 30.408 22.425 30.312 22.0304 30.312C21.6037 30.312 21.2197 30.408 20.8784 30.6C20.537 30.792 20.265 31.064 20.0624 31.416C19.8704 31.768 19.7744 32.1947 19.7744 32.696C19.7744 33.1973 19.8704 33.624 20.0624 33.976C20.265 34.328 20.537 34.6 20.8784 34.792C21.2197 34.984 21.6037 35.08 22.0304 35.08C22.425 35.08 22.7877 34.9893 23.1184 34.808C23.4597 34.616 23.7424 34.312 23.9664 33.896L25.9024 34.952C25.5824 35.6453 25.0864 36.184 24.4144 36.568C23.7424 36.9413 22.953 37.128 22.0464 37.128ZM31.5021 37.128C30.5208 37.128 29.6568 36.936 28.9101 36.552C28.1741 36.168 27.6035 35.6453 27.1981 34.984C26.7928 34.312 26.5901 33.5493 26.5901 32.696C26.5901 31.832 26.7875 31.0693 27.1821 30.408C27.5875 29.736 28.1368 29.2133 28.8301 28.84C29.5235 28.456 30.3075 28.264 31.1821 28.264C32.0248 28.264 32.7821 28.4453 33.4541 28.808C34.1368 29.16 34.6755 29.672 35.0701 30.344C35.4648 31.0053 35.6621 31.8 35.6621 32.728C35.6621 32.824 35.6568 32.936 35.6461 33.064C35.6355 33.1813 35.6248 33.2933 35.6141 33.4H28.6221V31.944H34.3021L33.3421 32.376C33.3421 31.928 33.2515 31.5387 33.0701 31.208C32.8888 30.8773 32.6381 30.6213 32.3181 30.44C31.9981 30.248 31.6248 30.152 31.1981 30.152C30.7715 30.152 30.3928 30.248 30.0621 30.44C29.7421 30.6213 29.4915 30.8827 29.3101 31.224C29.1288 31.5547 29.0381 31.9493 29.0381 32.408V32.792C29.0381 33.2613 29.1395 33.6773 29.3421 34.04C29.5555 34.392 29.8488 34.664 30.2221 34.856C30.6061 35.0373 31.0541 35.128 31.5661 35.128C32.0248 35.128 32.4248 35.0587 32.7661 34.92C33.1181 34.7813 33.4381 34.5733 33.7261 34.296L35.0541 35.736C34.6595 36.184 34.1635 36.5307 33.5661 36.776C32.9688 37.0107 32.2808 37.128 31.5021 37.128ZM39.8754 37L36.2114 25.8H38.8994L42.0834 35.72H40.7394L44.0674 25.8H46.4674L49.6674 35.72H48.3714L51.6354 25.8H54.1154L50.4514 37H47.6674L44.8354 28.296H45.5714L42.6594 37H39.8754ZM59.0178 37.128C58.0364 37.128 57.1724 36.936 56.4258 36.552C55.6898 36.168 55.1191 35.6453 54.7138 34.984C54.3084 34.312 54.1058 33.5493 54.1058 32.696C54.1058 31.832 54.3031 31.0693 54.6978 30.408C55.1031 29.736 55.6524 29.2133 56.3458 28.84C57.0391 28.456 57.8231 28.264 58.6978 28.264C59.5404 28.264 60.2978 28.4453 60.9698 28.808C61.6524 29.16 62.1911 29.672 62.5858 30.344C62.9804 31.0053 63.1778 31.8 63.1778 32.728C63.1778 32.824 63.1724 32.936 63.1618 33.064C63.1511 33.1813 63.1404 33.2933 63.1298 33.4H56.1378V31.944H61.8177L60.8578 32.376C60.8578 31.928 60.7671 31.5387 60.5858 31.208C60.4044 30.8773 60.1538 30.6213 59.8338 30.44C59.5138 30.248 59.1404 30.152 58.7138 30.152C58.2871 30.152 57.9084 30.248 57.5778 30.44C57.2578 30.6213 57.0071 30.8827 56.8258 31.224C56.6444 31.5547 56.5538 31.9493 56.5538 32.408V32.792C56.5538 33.2613 56.6551 33.6773 56.8578 34.04C57.0711 34.392 57.3644 34.664 57.7378 34.856C58.1218 35.0373 58.5698 35.128 59.0818 35.128C59.5404 35.128 59.9404 35.0587 60.2818 34.92C60.6338 34.7813 60.9538 34.5733 61.2418 34.296L62.5698 35.736C62.1751 36.184 61.6791 36.5307 61.0818 36.776C60.4844 37.0107 59.7964 37.128 59.0178 37.128ZM69.8851 37V35.32L69.7251 34.952V31.944C69.7251 31.4107 69.5598 30.9947 69.2291 30.696C68.9091 30.3973 68.4131 30.248 67.7411 30.248C67.2825 30.248 66.8291 30.3227 66.3811 30.472C65.9438 30.6107 65.5705 30.8027 65.2611 31.048L64.3651 29.304C64.8345 28.9733 65.3998 28.7173 66.0611 28.536C66.7225 28.3547 67.3945 28.264 68.0771 28.264C69.3891 28.264 70.4078 28.5733 71.1331 29.192C71.8585 29.8107 72.2211 30.776 72.2211 32.088V37H69.8851ZM67.2611 37.128C66.5891 37.128 66.0131 37.016 65.5331 36.792C65.0531 36.5573 64.6851 36.2427 64.4291 35.848C64.1731 35.4533 64.0451 35.0107 64.0451 34.52C64.0451 34.008 64.1678 33.56 64.4131 33.176C64.6691 32.792 65.0691 32.4933 65.6131 32.28C66.1571 32.056 66.8665 31.944 67.7411 31.944H70.0291V33.4H68.0131C67.4265 33.4 67.0211 33.496 66.7971 33.688C66.5838 33.88 66.4771 34.12 66.4771 34.408C66.4771 34.728 66.5998 34.984 66.8451 35.176C67.1011 35.3573 67.4478 35.448 67.8851 35.448C68.3011 35.448 68.6745 35.352 69.0051 35.16C69.3358 34.9573 69.5758 34.664 69.7251 34.28L70.1091 35.432C69.9278 35.9867 69.5971 36.408 69.1171 36.696C68.6371 36.984 68.0185 37.128 67.2611 37.128ZM78.0001 37.128C76.9868 37.128 76.1975 36.872 75.6321 36.36C75.0668 35.8373 74.7841 35.064 74.7841 34.04V26.488H77.2801V34.008C77.2801 34.3707 77.3761 34.6533 77.5681 34.856C77.7601 35.048 78.0215 35.144 78.3521 35.144C78.7468 35.144 79.0828 35.0373 79.3601 34.824L80.0321 36.584C79.7761 36.7653 79.4668 36.904 79.1041 37C78.7521 37.0853 78.3841 37.128 78.0001 37.128ZM73.4561 30.504V28.584H79.4241V30.504H73.4561ZM86.6653 28.264C87.3479 28.264 87.9559 28.4027 88.4893 28.68C89.0333 28.9467 89.4599 29.3627 89.7693 29.928C90.0786 30.4827 90.2333 31.1973 90.2333 32.072V37H87.7373V32.456C87.7373 31.7627 87.5826 31.2507 87.2733 30.92C86.9746 30.5893 86.5479 30.424 85.9933 30.424C85.5986 30.424 85.2413 30.5093 84.9213 30.68C84.6119 30.84 84.3666 31.0907 84.1853 31.432C84.0146 31.7733 83.9293 32.2107 83.9293 32.744V37H81.4333V25.128H83.9293V30.776L83.3693 30.056C83.6786 29.48 84.1213 29.0373 84.6973 28.728C85.2733 28.4187 85.9293 28.264 86.6653 28.264ZM96.8303 37.128C95.8489 37.128 94.9849 36.936 94.2383 36.552C93.5023 36.168 92.9316 35.6453 92.5263 34.984C92.1209 34.312 91.9183 33.5493 91.9183 32.696C91.9183 31.832 92.1156 31.0693 92.5103 30.408C92.9156 29.736 93.4649 29.2133 94.1583 28.84C94.8516 28.456 95.6356 28.264 96.5103 28.264C97.3529 28.264 98.1103 28.4453 98.7823 28.808C99.4649 29.16 100.004 29.672 100.398 30.344C100.793 31.0053 100.99 31.8 100.99 32.728C100.99 32.824 100.985 32.936 100.974 33.064C100.964 33.1813 100.953 33.2933 100.942 33.4H93.9503V31.944H99.6302L98.6703 32.376C98.6703 31.928 98.5796 31.5387 98.3983 31.208C98.2169 30.8773 97.9663 30.6213 97.6463 30.44C97.3263 30.248 96.9529 30.152 96.5263 30.152C96.0996 30.152 95.7209 30.248 95.3903 30.44C95.0703 30.6213 94.8196 30.8827 94.6383 31.224C94.4569 31.5547 94.3663 31.9493 94.3663 32.408V32.792C94.3663 33.2613 94.4676 33.6773 94.6703 34.04C94.8836 34.392 95.1769 34.664 95.5503 34.856C95.9343 35.0373 96.3823 35.128 96.8943 35.128C97.3529 35.128 97.7529 35.0587 98.0943 34.92C98.4463 34.7813 98.7663 34.5733 99.0543 34.296L100.382 35.736C99.9876 36.184 99.4916 36.5307 98.8943 36.776C98.2969 37.0107 97.6089 37.128 96.8303 37.128ZM102.652 37V28.392H105.036V30.824L104.7 30.12C104.956 29.512 105.367 29.0533 105.932 28.744C106.497 28.424 107.185 28.264 107.996 28.264V30.568C107.889 30.5573 107.793 30.552 107.708 30.552C107.623 30.5413 107.532 30.536 107.436 30.536C106.753 30.536 106.199 30.7333 105.772 31.128C105.356 31.512 105.148 32.1147 105.148 32.936V37H102.652ZM114.25 37V25.8H119.722C121.13 25.8 122.186 26.0667 122.89 26.6C123.605 27.1333 123.962 27.8373 123.962 28.712C123.962 29.2987 123.818 29.8107 123.53 30.248C123.242 30.6747 122.847 31.0053 122.346 31.24C121.845 31.4747 121.269 31.592 120.618 31.592L120.922 30.936C121.626 30.936 122.25 31.0533 122.794 31.288C123.338 31.512 123.759 31.848 124.058 32.296C124.367 32.744 124.522 33.2933 124.522 33.944C124.522 34.904 124.143 35.656 123.386 36.2C122.629 36.7333 121.514 37 120.042 37H114.25ZM116.826 35.048H119.85C120.522 35.048 121.029 34.9413 121.37 34.728C121.722 34.504 121.898 34.152 121.898 33.672C121.898 33.2027 121.722 32.856 121.37 32.632C121.029 32.3973 120.522 32.28 119.85 32.28H116.634V30.392H119.402C120.031 30.392 120.511 30.2853 120.842 30.072C121.183 29.848 121.354 29.512 121.354 29.064C121.354 28.6267 121.183 28.3013 120.842 28.088C120.511 27.864 120.031 27.752 119.402 27.752H116.826V35.048ZM126.308 37V25.128H128.804V37H126.308ZM136.401 37V35.32L136.241 34.952V31.944C136.241 31.4107 136.075 30.9947 135.745 30.696C135.425 30.3973 134.929 30.248 134.257 30.248C133.798 30.248 133.345 30.3227 132.897 30.472C132.459 30.6107 132.086 30.8027 131.777 31.048L130.881 29.304C131.35 28.9733 131.915 28.7173 132.577 28.536C133.238 28.3547 133.91 28.264 134.593 28.264C135.905 28.264 136.923 28.5733 137.649 29.192C138.374 29.8107 138.737 30.776 138.737 32.088V37H136.401ZM133.777 37.128C133.105 37.128 132.529 37.016 132.049 36.792C131.569 36.5573 131.201 36.2427 130.945 35.848C130.689 35.4533 130.561 35.0107 130.561 34.52C130.561 34.008 130.683 33.56 130.929 33.176C131.185 32.792 131.585 32.4933 132.129 32.28C132.673 32.056 133.382 31.944 134.257 31.944H136.545V33.4H134.529C133.942 33.4 133.537 33.496 133.313 33.688C133.099 33.88 132.993 34.12 132.993 34.408C132.993 34.728 133.115 34.984 133.361 35.176C133.617 35.3573 133.963 35.448 134.401 35.448C134.817 35.448 135.19 35.352 135.521 35.16C135.851 34.9573 136.091 34.664 136.241 34.28L136.625 35.432C136.443 35.9867 136.113 36.408 135.633 36.696C135.153 36.984 134.534 37.128 133.777 37.128ZM145.218 37.128C144.29 37.128 143.464 36.9413 142.738 36.568C142.013 36.184 141.442 35.656 141.026 34.984C140.621 34.312 140.418 33.5493 140.418 32.696C140.418 31.832 140.621 31.0693 141.026 30.408C141.442 29.736 142.013 29.2133 142.738 28.84C143.464 28.456 144.29 28.264 145.218 28.264C146.125 28.264 146.914 28.456 147.586 28.84C148.258 29.2133 148.754 29.752 149.074 30.456L147.138 31.496C146.914 31.0907 146.632 30.792 146.29 30.6C145.96 30.408 145.597 30.312 145.202 30.312C144.776 30.312 144.392 30.408 144.05 30.6C143.709 30.792 143.437 31.064 143.234 31.416C143.042 31.768 142.946 32.1947 142.946 32.696C142.946 33.1973 143.042 33.624 143.234 33.976C143.437 34.328 143.709 34.6 144.05 34.792C144.392 34.984 144.776 35.08 145.202 35.08C145.597 35.08 145.96 34.9893 146.29 34.808C146.632 34.616 146.914 34.312 147.138 33.896L149.074 34.952C148.754 35.6453 148.258 36.184 147.586 36.568C146.914 36.9413 146.125 37.128 145.218 37.128ZM152.529 35.24L152.593 32.2L156.609 28.392H159.585L155.729 32.312L154.433 33.368L152.529 35.24ZM150.465 37V25.128H152.961V37H150.465ZM156.881 37L153.969 33.384L155.537 31.448L159.905 37H156.881Z" fill="#6A5542"/>
</svg>
