<svg width="100" height="40" viewBox="0 0 100 40" fill="none" xmlns="http://www.w3.org/2000/svg">
<path d="M1.82812 3.57812H3.17188V1.35938H4.125V7.79688H0.84375V1.35938H1.82812V3.57812ZM3.17188 6.79688V4.57812H1.82812V6.79688H3.17188ZM5.84375 3.57812H7.20312V1.35938H8.17188V7.79688H4.89062V1.35938H5.84375V3.57812ZM7.20312 6.79688V4.57812H5.84375V6.79688H7.20312ZM12.7188 8.67188H11.6406V0.390625H12.7188V8.67188ZM12.0938 5.01562H9.75V4H12.0938V5.01562ZM10.25 8.625H9.1875V0.65625H10.25V8.625ZM12.7188 14.2656H11.4844V10.3281H2.76562V9.32812H12.7188V14.2656ZM25.1406 14.2969H23.9219V0.375H25.1406V14.2969ZM27.4688 6.90625H24.8594V5.875H27.4688V6.90625ZM16.0938 9.78125C17.4375 9.78125 18.6016 9.74479 19.5859 9.67188C20.5703 9.59896 21.5677 9.46875 22.5781 9.28125L22.7344 10.3438C21.7135 10.5312 20.7083 10.6562 19.7188 10.7188C18.7292 10.7812 17.5208 10.8125 16.0938 10.8125H15V9.78125H16.0938ZM21.4844 2.75H16.2188V10.25H15V1.73438H21.4844V2.75ZM34.625 9.10938C35.5729 9.10938 36.3906 9.20833 37.0781 9.40625C37.7656 9.60417 38.2917 9.89583 38.6562 10.2812C39.0208 10.6667 39.2031 11.1302 39.2031 11.6719C39.2031 12.2135 39.0208 12.6771 38.6562 13.0625C38.2917 13.4479 37.7682 13.7422 37.0859 13.9453C36.4036 14.1484 35.5833 14.2552 34.625 14.2656C33.6771 14.2552 32.8568 14.1484 32.1641 13.9453C31.4714 13.7422 30.9401 13.4479 30.5703 13.0625C30.2005 12.6771 30.0156 12.2135 30.0156 11.6719C30.0156 11.1302 30.2005 10.6667 30.5703 10.2812C30.9401 9.89583 31.4714 9.60417 32.1641 9.40625C32.8568 9.20833 33.6771 9.10938 34.625 9.10938ZM34.625 10.0781C33.9271 10.0781 33.3255 10.1432 32.8203 10.2734C32.3151 10.4036 31.9271 10.5859 31.6562 10.8203C31.3854 11.0547 31.25 11.3385 31.25 11.6719C31.25 11.9948 31.3854 12.276 31.6562 12.5156C31.9271 12.7552 32.3177 12.9401 32.8281 13.0703C33.3385 13.2005 33.9375 13.2656 34.625 13.2656C35.3229 13.2656 35.9271 13.2005 36.4375 13.0703C36.9479 12.9401 37.3385 12.7552 37.6094 12.5156C37.8802 12.276 38.0156 11.9948 38.0156 11.6719C38.0156 11.3385 37.8802 11.0547 37.6094 10.8203C37.3385 10.5859 36.9505 10.4036 36.4453 10.2734C35.9401 10.1432 35.3333 10.0781 34.625 10.0781ZM39.0781 8.73438H37.8594V0.375H39.0781V8.73438ZM41.1719 4.92188H38.7344V3.875H41.1719V4.92188ZM30.0156 3.375H34.0625V1.25H35.2812V7.65625H28.8125V1.25H30.0156V3.375ZM34.0625 6.65625V4.34375H30.0156V6.65625H34.0625ZM46.75 1.6875H50.5938C51.4583 1.6875 52.1797 1.83333 52.7578 2.125C53.3359 2.41667 53.763 2.82552 54.0391 3.35156C54.3151 3.8776 54.4531 4.48438 54.4531 5.17188C54.4531 5.84896 54.3151 6.44531 54.0391 6.96094C53.763 7.47656 53.3359 7.88021 52.7578 8.17188C52.1797 8.46354 51.4635 8.60938 50.6094 8.60938H47.5156V7.32812H50.5469C51.1406 7.32812 51.6224 7.24219 51.9922 7.07031C52.362 6.89844 52.6328 6.65365 52.8047 6.33594C52.9766 6.01823 53.0625 5.63021 53.0625 5.17188C53.0625 4.70312 52.9766 4.30208 52.8047 3.96875C52.6328 3.63542 52.3594 3.38021 51.9844 3.20312C51.6094 3.02604 51.125 2.9375 50.5312 2.9375H48.1562V13H46.75V1.6875ZM54.8906 13H53.25L50.5156 7.92188H52.1094L54.8906 13ZM59.7812 13.1719C58.9792 13.1719 58.2786 12.9922 57.6797 12.6328C57.0807 12.2734 56.6198 11.7656 56.2969 11.1094C55.974 10.4531 55.8125 9.69271 55.8125 8.82812C55.8125 7.96354 55.974 7.19531 56.2969 6.52344C56.6198 5.85156 57.0703 5.33073 57.6484 4.96094C58.2266 4.59115 58.8958 4.40625 59.6562 4.40625C60.3021 4.40625 60.901 4.54688 61.4531 4.82812C62.0052 5.10938 62.4531 5.56771 62.7969 6.20312C63.1406 6.83854 63.3125 7.65104 63.3125 8.64062V9.20312H56.75V8.0625H61.9531C61.9531 7.58333 61.8594 7.15885 61.6719 6.78906C61.4844 6.41927 61.2161 6.1276 60.8672 5.91406C60.5182 5.70052 60.1146 5.59375 59.6562 5.59375C59.1562 5.59375 58.7188 5.71615 58.3438 5.96094C57.9688 6.20573 57.6771 6.53385 57.4688 6.94531C57.2604 7.35677 57.1562 7.79688 57.1562 8.26562V9.03125C57.1562 9.65625 57.2656 10.1901 57.4844 10.6328C57.7031 11.0755 58.0104 11.4115 58.4062 11.6406C58.8021 11.8698 59.2604 11.9844 59.7812 11.9844C60.1042 11.9844 60.3958 11.9401 60.6562 11.8516C60.9167 11.763 61.138 11.6484 61.3203 11.5078C61.5026 11.3672 61.6458 11.2031 61.75 11.0156H63.1875C63.0521 11.4427 62.8281 11.8177 62.5156 12.1406C62.2031 12.4635 61.8125 12.7161 61.3438 12.8984C60.875 13.0807 60.3542 13.1719 59.7812 13.1719ZM68.5 16.3594C67.8229 16.3594 67.2214 16.263 66.6953 16.0703C66.1693 15.8776 65.7526 15.5964 65.4453 15.2266C65.138 14.8568 64.9583 14.4115 64.9062 13.8906H66.3125C66.4062 14.3177 66.6432 14.6406 67.0234 14.8594C67.4036 15.0781 67.8958 15.1875 68.5 15.1875C69.25 15.1875 69.8281 15.0208 70.2344 14.6875C70.6406 14.3542 70.8438 13.8438 70.8438 13.1562V11.4375H70.7344C70.5885 11.6875 70.4323 11.9089 70.2656 12.1016C70.099 12.2943 69.849 12.4714 69.5156 12.6328C69.1823 12.7943 68.7656 12.875 68.2656 12.875C67.5781 12.875 66.9609 12.7057 66.4141 12.3672C65.8672 12.0286 65.4375 11.5391 65.125 10.8984C64.8125 10.2578 64.6562 9.50521 64.6562 8.64062C64.6562 7.78646 64.8099 7.03906 65.1172 6.39844C65.4245 5.75781 65.8516 5.26562 66.3984 4.92188C66.9453 4.57812 67.5729 4.40625 68.2812 4.40625C68.7812 4.40625 69.1953 4.48698 69.5234 4.64844C69.8516 4.8099 70.0885 4.97396 70.2344 5.14062C70.3802 5.30729 70.5573 5.54688 70.7656 5.85938H70.875V4.51562H72.1875V13.2344C72.1875 13.9323 72.0286 14.5156 71.7109 14.9844C71.3932 15.4531 70.9583 15.7995 70.4062 16.0234C69.8542 16.2474 69.2188 16.3594 68.5 16.3594ZM68.4531 11.6719C68.9635 11.6719 69.401 11.5521 69.7656 11.3125C70.1302 11.0729 70.4062 10.7318 70.5938 10.2891C70.7812 9.84635 70.875 9.3125 70.875 8.6875C70.875 8.07292 70.7812 7.53385 70.5938 7.07031C70.4062 6.60677 70.1328 6.2474 69.7734 5.99219C69.4141 5.73698 68.974 5.60938 68.4531 5.60938C67.9323 5.60938 67.4896 5.74479 67.125 6.01562C66.7604 6.28646 66.4844 6.65365 66.2969 7.11719C66.1094 7.58073 66.0156 8.10417 66.0156 8.6875C66.0156 9.28125 66.1094 9.80208 66.2969 10.25C66.4844 10.6979 66.7604 11.0469 67.125 11.2969C67.4896 11.5469 67.9323 11.6719 68.4531 11.6719ZM79.6875 4.51562H81.0156V13H79.6875V11.5625H79.5938C79.375 12.0208 79.0547 12.3932 78.6328 12.6797C78.2109 12.9661 77.6927 13.1094 77.0781 13.1094C76.5365 13.1094 76.0599 12.9896 75.6484 12.75C75.237 12.5104 74.9141 12.151 74.6797 11.6719C74.4453 11.1927 74.3281 10.6042 74.3281 9.90625V4.51562H75.6719V9.8125C75.6719 10.2083 75.75 10.5573 75.9062 10.8594C76.0625 11.1615 76.2812 11.3958 76.5625 11.5625C76.8438 11.7292 77.1615 11.8125 77.5156 11.8125C77.8594 11.8125 78.1979 11.7266 78.5312 11.5547C78.8646 11.3828 79.1406 11.1224 79.3594 10.7734C79.5781 10.4245 79.6875 10.0052 79.6875 9.51562V4.51562ZM84.5156 13H83.1719V1.6875H84.5156V13ZM91.8438 9.0625C91.75 9.0625 91.2969 9.09375 90.4844 9.15625L89.5938 9.21875C88.9583 9.26042 88.4661 9.39844 88.1172 9.63281C87.7682 9.86719 87.5938 10.2083 87.5938 10.6562C87.5938 10.9479 87.6693 11.1927 87.8203 11.3906C87.9714 11.5885 88.1823 11.7396 88.4531 11.8438C88.724 11.9479 89.0312 12 89.375 12C89.8646 12 90.2865 11.9036 90.6406 11.7109C90.9948 11.5182 91.2656 11.263 91.4531 10.9453C91.6406 10.6276 91.7344 10.2865 91.7344 9.92188V7.28125C91.7344 6.91667 91.6641 6.60677 91.5234 6.35156C91.3828 6.09635 91.1693 5.90365 90.8828 5.77344C90.5964 5.64323 90.2396 5.57812 89.8125 5.57812C89.3021 5.57812 88.8828 5.68229 88.5547 5.89062C88.2266 6.09896 88.0104 6.375 87.9062 6.71875H86.5C86.5625 6.26042 86.7422 5.85677 87.0391 5.50781C87.3359 5.15885 87.7292 4.88802 88.2188 4.69531C88.7083 4.5026 89.2604 4.40625 89.875 4.40625C90.3646 4.40625 90.8438 4.47917 91.3125 4.625C91.7812 4.77083 92.1901 5.0651 92.5391 5.50781C92.888 5.95052 93.0625 6.58333 93.0625 7.40625V13H91.7344V11.8438H91.6719C91.5677 12.0625 91.4089 12.2734 91.1953 12.4766C90.9818 12.6797 90.7005 12.8516 90.3516 12.9922C90.0026 13.1328 89.599 13.2031 89.1406 13.2031C88.599 13.2031 88.1094 13.099 87.6719 12.8906C87.2344 12.6823 86.888 12.3802 86.6328 11.9844C86.3776 11.5885 86.25 11.125 86.25 10.5938C86.25 9.70833 86.5521 9.08594 87.1562 8.72656C87.7604 8.36719 88.5208 8.15625 89.4375 8.09375C89.5417 8.08333 90.0417 8.05208 90.9375 8L91.8281 7.96875L91.8438 9.0625ZM95.2188 4.51562H96.5156V5.8125H96.6094C96.7656 5.375 97.0443 5.02604 97.4453 4.76562C97.8464 4.50521 98.2969 4.375 98.7969 4.375C99.0573 4.375 99.2917 4.38542 99.5 4.40625V5.76562C99.4479 5.74479 99.3385 5.72396 99.1719 5.70312C99.0052 5.68229 98.8438 5.67188 98.6875 5.67188C98.2917 5.67188 97.9323 5.75781 97.6094 5.92969C97.2865 6.10156 97.0312 6.33854 96.8438 6.64062C96.6562 6.94271 96.5625 7.28125 96.5625 7.65625V13H95.2188V4.51562ZM1.96094 28.1562H2.71094V26.1875H4.14844V33.0234H0.492188V26.1875H1.96094V28.1562ZM2.71094 31.4531V29.7031H1.96094V31.4531H2.71094ZM6.125 28.1562H6.875V26.1875H8.34375V33.0234H4.6875V26.1875H6.125V28.1562ZM6.875 31.4531V29.7031H6.125V31.4531H6.875ZM13.2109 33.6328H11.5312V25.2344H13.2109V33.6328ZM12.2031 30.2109H10V28.625H12.2031V30.2109ZM10.6719 33.5859H9V25.4766H10.6719V33.5859ZM13.2109 39.4375H11.2109V35.7812H2.63281V34.1953H13.2109V39.4375ZM25.4688 39.4766H23.4688V25.2031H25.4688V39.4766ZM27.5781 32.125H25.0312V30.4922H27.5781V32.125ZM16.0156 34.375C17.3073 34.3802 18.4505 34.349 19.4453 34.2812C20.4401 34.2135 21.4401 34.0938 22.4453 33.9219L22.6641 35.5938C21.6432 35.7656 20.6276 35.8802 19.6172 35.9375C18.6068 35.9948 17.4062 36.0208 16.0156 36.0156H14.8125V34.375H16.0156ZM21.4844 28.1484H16.8047V35.1875H14.8125V26.5312H21.4844V28.1484ZM34.6953 33.9297C35.6797 33.9245 36.5312 34.0312 37.25 34.25C37.974 34.4635 38.5286 34.776 38.9141 35.1875C39.2995 35.599 39.4922 36.0938 39.4922 36.6719C39.4922 37.2552 39.2995 37.7526 38.9141 38.1641C38.5286 38.5807 37.9766 38.8984 37.2578 39.1172C36.5443 39.3411 35.6901 39.4557 34.6953 39.4609C33.7005 39.4557 32.8359 39.3411 32.1016 39.1172C31.3672 38.8984 30.8021 38.5807 30.4062 38.1641C30.0156 37.7526 29.8203 37.2552 29.8203 36.6719C29.8203 36.0938 30.0156 35.599 30.4062 35.1875C30.8021 34.776 31.3672 34.4635 32.1016 34.25C32.8359 34.0312 33.7005 33.9245 34.6953 33.9297ZM34.6953 35.4688C34.0703 35.4688 33.5443 35.513 33.1172 35.6016C32.6953 35.6901 32.375 35.8229 32.1562 36C31.9375 36.1719 31.8281 36.3958 31.8281 36.6719C31.8281 36.9375 31.9375 37.1615 32.1562 37.3438C32.375 37.526 32.6979 37.6667 33.125 37.7656C33.5573 37.8594 34.0807 37.9062 34.6953 37.9062C35.3151 37.9062 35.8333 37.8594 36.25 37.7656C36.6719 37.6667 36.9896 37.526 37.2031 37.3438C37.4219 37.1615 37.5312 36.9375 37.5312 36.6719C37.5312 36.3958 37.4245 36.1719 37.2109 36C36.9974 35.8229 36.6823 35.6901 36.2656 35.6016C35.849 35.513 35.3255 35.4688 34.6953 35.4688ZM39.3594 33.6016H37.3672V25.2031H39.3594V33.6016ZM41.2812 30.1875H38.7969V28.5234H41.2812V30.1875ZM30.4766 27.9141H33.3906V26.1172H35.3906V32.7891H28.5V26.1172H30.4766V27.9141ZM33.3906 31.2266V29.4531H30.4766V31.2266H33.3906ZM46.1484 26.6875H50.6484C51.4557 26.6875 52.1406 26.8099 52.7031 27.0547C53.2656 27.2943 53.6875 27.6328 53.9688 28.0703C54.2552 28.5026 54.3984 29.0104 54.3984 29.5938C54.3984 30.0208 54.3099 30.401 54.1328 30.7344C53.9609 31.0677 53.7214 31.3438 53.4141 31.5625C53.112 31.776 52.7604 31.9271 52.3594 32.0156V32.125C52.7917 32.1458 53.1979 32.2708 53.5781 32.5C53.9583 32.7292 54.263 33.0495 54.4922 33.4609C54.7214 33.8672 54.8359 34.3411 54.8359 34.8828C54.8359 35.487 54.6875 36.0234 54.3906 36.4922C54.0938 36.9609 53.651 37.3307 53.0625 37.6016C52.4792 37.8672 51.7734 38 50.9453 38H46.1484V26.6875ZM50.4688 36.0703C50.9115 36.0703 51.276 36.013 51.5625 35.8984C51.8542 35.7786 52.0677 35.6146 52.2031 35.4062C52.3385 35.1927 52.4062 34.9401 52.4062 34.6484C52.4062 34.3359 52.3307 34.0547 52.1797 33.8047C52.0286 33.5547 51.8099 33.3646 51.5234 33.2344C51.2422 33.099 50.9115 33.0312 50.5312 33.0312H48.4922V36.0703H50.4688ZM50.2969 31.4297C50.625 31.4297 50.9193 31.3698 51.1797 31.25C51.4453 31.1302 51.651 30.9609 51.7969 30.7422C51.9479 30.5234 52.0234 30.2656 52.0234 29.9688C52.0234 29.6875 51.9583 29.4453 51.8281 29.2422C51.6979 29.0339 51.5052 28.875 51.25 28.7656C51 28.651 50.6979 28.5938 50.3438 28.5938H48.4922V31.4297H50.2969ZM60.1016 38.1641C59.2578 38.1641 58.5208 37.9818 57.8906 37.6172C57.2604 37.2526 56.776 36.7396 56.4375 36.0781C56.099 35.4167 55.9297 34.6536 55.9297 33.7891C55.9297 32.9141 56.099 32.1484 56.4375 31.4922C56.776 30.8307 57.2604 30.3177 57.8906 29.9531C58.5208 29.5885 59.2578 29.4062 60.1016 29.4062C60.9401 29.4062 61.6745 29.5885 62.3047 29.9531C62.9401 30.3177 63.4245 30.8307 63.7578 31.4922C64.0911 32.1484 64.2578 32.9141 64.2578 33.7891C64.2578 34.6536 64.0911 35.4167 63.7578 36.0781C63.4245 36.7396 62.9401 37.2526 62.3047 37.6172C61.6745 37.9818 60.9401 38.1641 60.1016 38.1641ZM60.1172 36.375C60.5026 36.375 60.8281 36.263 61.0938 36.0391C61.3646 35.8151 61.5677 35.5078 61.7031 35.1172C61.8385 34.7214 61.9062 34.2734 61.9062 33.7734C61.9062 33.2682 61.8385 32.8203 61.7031 32.4297C61.5677 32.0391 61.3646 31.7318 61.0938 31.5078C60.8281 31.2839 60.5026 31.1719 60.1172 31.1719C59.7214 31.1719 59.3854 31.2839 59.1094 31.5078C58.8333 31.7318 58.625 32.0391 58.4844 32.4297C58.3438 32.8151 58.2734 33.263 58.2734 33.7734C58.2734 34.2786 58.3438 34.7266 58.4844 35.1172C58.625 35.5078 58.8333 35.8151 59.1094 36.0391C59.3854 36.263 59.7214 36.375 60.1172 36.375ZM68.0312 38H65.7188V26.6875H68.0312V38ZM72.9531 38.1328C72.3021 38.1328 71.7135 37.9635 71.1875 37.625C70.6667 37.2865 70.2552 36.7891 69.9531 36.1328C69.6562 35.4714 69.5078 34.6823 69.5078 33.7656C69.5078 32.8281 69.6615 32.0312 69.9688 31.375C70.276 30.7188 70.6875 30.2266 71.2031 29.8984C71.724 29.5703 72.3073 29.4062 72.9531 29.4062C73.401 29.4062 73.7865 29.4818 74.1094 29.6328C74.4323 29.7786 74.6875 29.9609 74.875 30.1797C75.0625 30.3984 75.224 30.651 75.3594 30.9375H75.4297V26.6875H77.7422V38H75.4688V36.6484H75.3594C75.2188 36.9297 75.0521 37.1745 74.8594 37.3828C74.6719 37.5911 74.4167 37.7682 74.0938 37.9141C73.7708 38.0599 73.3906 38.1328 72.9531 38.1328ZM73.6719 36.2891C74.0521 36.2891 74.3776 36.1849 74.6484 35.9766C74.9245 35.7682 75.1328 35.4714 75.2734 35.0859C75.4193 34.7005 75.4922 34.2552 75.4922 33.75C75.4922 33.2396 75.4219 32.7969 75.2812 32.4219C75.1406 32.0469 74.9323 31.7604 74.6562 31.5625C74.3854 31.3594 74.0573 31.2578 73.6719 31.2578C73.2865 31.2578 72.9583 31.362 72.6875 31.5703C72.4167 31.7734 72.2109 32.0625 72.0703 32.4375C71.9349 32.8125 71.8672 33.25 71.8672 33.75C71.8672 34.25 71.9349 34.6927 72.0703 35.0781C72.2109 35.4583 72.4167 35.7552 72.6875 35.9688C72.9583 36.1823 73.2865 36.2891 73.6719 36.2891Z" fill="#6A5542"/>
</svg>
