<svg width="108" height="17" viewBox="0 0 108 17" fill="none" xmlns="http://www.w3.org/2000/svg">
<path d="M3.04 8V11.6L4 11.84V12H0.72V11.84L1.68 11.6V1.2L0.72 0.959999V0.799999H3.6C4.26133 0.799999 4.848 0.890666 5.36 1.072C5.88267 1.25333 6.32 1.504 6.672 1.824C7.024 2.144 7.29067 2.52267 7.472 2.96C7.664 3.39733 7.76 3.87733 7.76 4.4C7.76 4.92267 7.664 5.40267 7.472 5.84C7.29067 6.27733 7.024 6.656 6.672 6.976C6.32 7.296 5.88267 7.54667 5.36 7.728C4.848 7.90933 4.26133 8 3.6 8H3.04ZM3.04 7.68H3.6C4.44267 7.68 5.09333 7.424 5.552 6.912C6.01067 6.4 6.24 5.56267 6.24 4.4C6.24 3.23733 6.01067 2.4 5.552 1.888C5.09333 1.376 4.44267 1.12 3.6 1.12H3.04V7.68ZM11.8381 4.64C11.6568 4.64 11.4701 4.704 11.2781 4.832C11.0968 4.94933 10.9261 5.152 10.7661 5.44C10.6168 5.71733 10.4888 6.09067 10.3821 6.56C10.2861 7.02933 10.2381 7.616 10.2381 8.32C10.2381 9.024 10.2861 9.61067 10.3821 10.08C10.4888 10.5493 10.6168 10.928 10.7661 11.216C10.9261 11.4933 11.0968 11.696 11.2781 11.824C11.4701 11.9413 11.6568 12 11.8381 12C12.0195 12 12.2008 11.9413 12.3821 11.824C12.5741 11.696 12.7448 11.4933 12.8941 11.216C13.0541 10.928 13.1821 10.5493 13.2781 10.08C13.3848 9.61067 13.4381 9.024 13.4381 8.32C13.4381 7.616 13.3848 7.02933 13.2781 6.56C13.1821 6.09067 13.0541 5.71733 12.8941 5.44C12.7448 5.152 12.5741 4.94933 12.3821 4.832C12.2008 4.704 12.0195 4.64 11.8381 4.64ZM11.8381 4.4C12.2328 4.4 12.6115 4.49067 12.9741 4.672C13.3475 4.84267 13.6728 5.09867 13.9501 5.44C14.2381 5.77067 14.4621 6.18133 14.6221 6.672C14.7928 7.152 14.8781 7.70133 14.8781 8.32C14.8781 8.93867 14.7928 9.49333 14.6221 9.984C14.4621 10.464 14.2381 10.8747 13.9501 11.216C13.6728 11.5467 13.3475 11.8027 12.9741 11.984C12.6115 12.1547 12.2328 12.24 11.8381 12.24C11.4328 12.24 11.0488 12.1547 10.6861 11.984C10.3235 11.8027 9.99813 11.5467 9.71013 11.216C9.43279 10.8747 9.20879 10.464 9.03813 9.984C8.87813 9.49333 8.79813 8.93867 8.79813 8.32C8.79813 7.70133 8.87813 7.152 9.03813 6.672C9.20879 6.18133 9.43279 5.77067 9.71013 5.44C9.99813 5.09867 10.3235 4.84267 10.6861 4.672C11.0488 4.49067 11.4328 4.4 11.8381 4.4ZM18.3938 11.6L19.3538 11.84V12H16.1538V11.84L17.1138 11.6V5.04L16.1538 4.8V4.64H18.3938V6.56C18.5324 6.16533 18.6978 5.808 18.8898 5.488C19.0604 5.21067 19.2684 4.96 19.5138 4.736C19.7591 4.512 20.0524 4.4 20.3938 4.4C20.5111 4.4 20.6231 4.41067 20.7298 4.432C20.8364 4.44267 20.9324 4.45867 21.0178 4.48C21.1138 4.512 21.1991 4.53867 21.2738 4.56L20.7938 5.76C20.7298 5.728 20.6604 5.69067 20.5858 5.648C20.5218 5.616 20.4418 5.58933 20.3458 5.568C20.2604 5.536 20.1698 5.52 20.0738 5.52C19.7964 5.52 19.5511 5.59467 19.3378 5.744C19.1244 5.89333 18.9484 6.05867 18.8098 6.24C18.6391 6.45333 18.5004 6.69333 18.3938 6.96V11.6ZM25.9994 4.64V4.96H24.1594V10.064C24.1594 10.7147 24.2767 11.1893 24.5114 11.488C24.746 11.776 25.002 11.92 25.2794 11.92C25.642 11.92 25.946 11.7867 26.1914 11.52C26.4474 11.2427 26.5967 10.8427 26.6394 10.32H26.8794C26.8367 10.928 26.65 11.4027 26.3194 11.744C25.9994 12.0747 25.5994 12.24 25.1194 12.24C24.4367 12.24 23.8927 12.0427 23.4874 11.648C23.082 11.2427 22.8794 10.72 22.8794 10.08V4.96H21.5194V4.64H22.8794V2.8L24.1594 1.92V4.64H25.9994ZM32.4944 2.16C32.4944 2.34133 32.4624 2.50667 32.3984 2.656C32.345 2.79467 32.281 2.91733 32.2064 3.024C32.121 3.14133 32.0304 3.25333 31.9344 3.36L30.7344 2.88C30.8304 2.77333 30.921 2.66133 31.0064 2.544C31.081 2.43733 31.145 2.31467 31.1984 2.176C31.2624 2.02667 31.2944 1.86133 31.2944 1.68C31.2944 1.40267 31.2197 1.18933 31.0704 1.04C30.9317 0.879999 30.7397 0.799999 30.4944 0.799999C30.377 0.799999 30.265 0.831999 30.1584 0.896C30.0517 0.949333 29.9557 1.05067 29.8704 1.2C29.7957 1.33867 29.7317 1.53067 29.6784 1.776C29.6357 2.02133 29.6144 2.336 29.6144 2.72V4.64H31.8544V4.96H29.6144V11.6L30.5744 11.84V12H27.3744V11.84L28.3344 11.6V4.96H27.3744V4.64H28.3344V2.72C28.3344 2.08 28.5317 1.56267 28.9264 1.168C29.3317 0.762666 29.8544 0.559999 30.4944 0.559999C30.793 0.559999 31.065 0.607999 31.3104 0.704C31.5557 0.789333 31.7637 0.906666 31.9344 1.056C32.1157 1.20533 32.2544 1.376 32.3504 1.568C32.4464 1.76 32.4944 1.95733 32.4944 2.16ZM35.4631 4.64C35.2818 4.64 35.0951 4.704 34.9031 4.832C34.7218 4.94933 34.5511 5.152 34.3911 5.44C34.2418 5.71733 34.1138 6.09067 34.0071 6.56C33.9111 7.02933 33.8631 7.616 33.8631 8.32C33.8631 9.024 33.9111 9.61067 34.0071 10.08C34.1138 10.5493 34.2418 10.928 34.3911 11.216C34.5511 11.4933 34.7218 11.696 34.9031 11.824C35.0951 11.9413 35.2818 12 35.4631 12C35.6445 12 35.8258 11.9413 36.0071 11.824C36.1991 11.696 36.3698 11.4933 36.5191 11.216C36.6791 10.928 36.8071 10.5493 36.9031 10.08C37.0098 9.61067 37.0631 9.024 37.0631 8.32C37.0631 7.616 37.0098 7.02933 36.9031 6.56C36.8071 6.09067 36.6791 5.71733 36.5191 5.44C36.3698 5.152 36.1991 4.94933 36.0071 4.832C35.8258 4.704 35.6445 4.64 35.4631 4.64ZM35.4631 4.4C35.8578 4.4 36.2365 4.49067 36.5991 4.672C36.9725 4.84267 37.2978 5.09867 37.5751 5.44C37.8631 5.77067 38.0871 6.18133 38.2471 6.672C38.4178 7.152 38.5031 7.70133 38.5031 8.32C38.5031 8.93867 38.4178 9.49333 38.2471 9.984C38.0871 10.464 37.8631 10.8747 37.5751 11.216C37.2978 11.5467 36.9725 11.8027 36.5991 11.984C36.2365 12.1547 35.8578 12.24 35.4631 12.24C35.0578 12.24 34.6738 12.1547 34.3111 11.984C33.9485 11.8027 33.6231 11.5467 33.3351 11.216C33.0578 10.8747 32.8338 10.464 32.6631 9.984C32.5031 9.49333 32.4231 8.93867 32.4231 8.32C32.4231 7.70133 32.5031 7.152 32.6631 6.672C32.8338 6.18133 33.0578 5.77067 33.3351 5.44C33.6231 5.09867 33.9485 4.84267 34.3111 4.672C34.6738 4.49067 35.0578 4.4 35.4631 4.4ZM40.6588 11.6V1.2L39.6988 0.959999V0.799999H41.9388V11.6L42.8988 11.84V12H39.6988V11.84L40.6588 11.6ZM44.8169 11.6V5.04L43.8569 4.8V4.64H46.0969V11.6L47.0569 11.84V12H43.8569V11.84L44.8169 11.6ZM46.1769 2.8C46.1769 3.00267 46.0915 3.18933 45.9209 3.36C45.7609 3.52 45.5795 3.6 45.3769 3.6C45.1742 3.6 44.9875 3.52 44.8169 3.36C44.6569 3.18933 44.5769 3.00267 44.5769 2.8C44.5769 2.59733 44.6569 2.416 44.8169 2.256C44.9875 2.08533 45.1742 2 45.3769 2C45.5795 2 45.7609 2.08533 45.9209 2.256C46.0915 2.416 46.1769 2.59733 46.1769 2.8ZM51.2131 4.64C51.0318 4.64 50.8451 4.704 50.6531 4.832C50.4718 4.94933 50.3011 5.152 50.1411 5.44C49.9918 5.71733 49.8638 6.09067 49.7571 6.56C49.6611 7.02933 49.6131 7.616 49.6131 8.32C49.6131 9.024 49.6611 9.61067 49.7571 10.08C49.8638 10.5493 49.9918 10.928 50.1411 11.216C50.3011 11.4933 50.4718 11.696 50.6531 11.824C50.8451 11.9413 51.0318 12 51.2131 12C51.3945 12 51.5758 11.9413 51.7571 11.824C51.9491 11.696 52.1198 11.4933 52.2691 11.216C52.4291 10.928 52.5571 10.5493 52.6531 10.08C52.7598 9.61067 52.8131 9.024 52.8131 8.32C52.8131 7.616 52.7598 7.02933 52.6531 6.56C52.5571 6.09067 52.4291 5.71733 52.2691 5.44C52.1198 5.152 51.9491 4.94933 51.7571 4.832C51.5758 4.704 51.3945 4.64 51.2131 4.64ZM51.2131 4.4C51.6078 4.4 51.9865 4.49067 52.3491 4.672C52.7225 4.84267 53.0478 5.09867 53.3251 5.44C53.6131 5.77067 53.8371 6.18133 53.9971 6.672C54.1678 7.152 54.2531 7.70133 54.2531 8.32C54.2531 8.93867 54.1678 9.49333 53.9971 9.984C53.8371 10.464 53.6131 10.8747 53.3251 11.216C53.0478 11.5467 52.7225 11.8027 52.3491 11.984C51.9865 12.1547 51.6078 12.24 51.2131 12.24C50.8078 12.24 50.4238 12.1547 50.0611 11.984C49.6985 11.8027 49.3731 11.5467 49.0851 11.216C48.8078 10.8747 48.5838 10.464 48.4131 9.984C48.2531 9.49333 48.1731 8.93867 48.1731 8.32C48.1731 7.70133 48.2531 7.152 48.4131 6.672C48.5838 6.18133 48.8078 5.77067 49.0851 5.44C49.3731 5.09867 49.6985 4.84267 50.0611 4.672C50.4238 4.49067 50.8078 4.4 51.2131 4.4ZM62.4925 0.799999C63.1752 0.799999 63.7672 0.874666 64.2685 1.024C64.7698 1.17333 65.1858 1.376 65.5165 1.632C65.8472 1.888 66.0925 2.18667 66.2525 2.528C66.4125 2.85867 66.4925 3.216 66.4925 3.6C66.4925 3.90933 66.4445 4.18667 66.3485 4.432C66.2632 4.66667 66.1458 4.88 65.9965 5.072C65.8578 5.25333 65.6925 5.408 65.5005 5.536C65.3085 5.664 65.1165 5.77067 64.9245 5.856C64.4658 6.05867 63.9485 6.18667 63.3725 6.24C63.8418 6.29333 64.2685 6.40533 64.6525 6.576C64.9832 6.72533 65.2925 6.944 65.5805 7.232C65.8685 7.52 66.0392 7.90933 66.0925 8.4L66.4125 11.2C66.4338 11.4027 66.4818 11.5467 66.5565 11.632C66.6312 11.7173 66.7165 11.76 66.8125 11.76C66.8658 11.76 66.9192 11.744 66.9725 11.712C67.0365 11.6693 67.0952 11.6213 67.1485 11.568C67.2018 11.5147 67.2498 11.4453 67.2925 11.36L67.4525 11.52C67.3885 11.6587 67.2978 11.7813 67.1805 11.888C67.0845 11.9733 66.9565 12.0533 66.7965 12.128C66.6472 12.2027 66.4658 12.24 66.2525 12.24C65.8898 12.24 65.5912 12.1387 65.3565 11.936C65.1325 11.7227 65.0045 11.4773 64.9725 11.2L64.6525 8.4C64.6098 8.03733 64.5405 7.73333 64.4445 7.488C64.3485 7.232 64.2152 7.024 64.0445 6.864C63.8845 6.704 63.6765 6.58667 63.4205 6.512C63.1645 6.43733 62.8552 6.4 62.4925 6.4H61.8525V11.6L62.8125 11.84V12H59.5325V11.84L60.4925 11.6V1.2L59.5325 0.959999V0.799999H62.4925ZM64.9725 3.6C64.9725 2.8 64.7592 2.18667 64.3325 1.76C63.9058 1.33333 63.2925 1.12 62.4925 1.12H61.8525V6.08H62.4925C63.2925 6.08 63.9058 5.86667 64.3325 5.44C64.7592 5.01333 64.9725 4.4 64.9725 3.6ZM69.7694 8.32C69.7694 9.00267 69.8174 9.57333 69.9134 10.032C70.02 10.4907 70.1534 10.864 70.3134 11.152C70.484 11.4293 70.6707 11.6267 70.8734 11.744C71.0867 11.8613 71.3054 11.92 71.5294 11.92C71.8067 11.92 72.068 11.8667 72.3134 11.76C72.5587 11.6533 72.7774 11.5093 72.9694 11.328C73.1614 11.1467 73.316 10.928 73.4334 10.672C73.5614 10.416 73.6467 10.1387 73.6894 9.84H73.9294C73.8867 10.1813 73.7907 10.5013 73.6414 10.8C73.5027 11.088 73.3214 11.3387 73.0974 11.552C72.8734 11.7653 72.612 11.9307 72.3134 12.048C72.0254 12.176 71.7107 12.24 71.3694 12.24C70.964 12.24 70.58 12.1547 70.2174 11.984C69.8547 11.8027 69.5294 11.5467 69.2414 11.216C68.964 10.8747 68.74 10.464 68.5694 9.984C68.4094 9.49333 68.3294 8.93867 68.3294 8.32C68.3294 7.68 68.4094 7.11467 68.5694 6.624C68.7294 6.13333 68.9374 5.728 69.1934 5.408C69.46 5.07733 69.764 4.82667 70.1054 4.656C70.4574 4.48533 70.8254 4.4 71.2094 4.4C71.5934 4.4 71.956 4.48533 72.2974 4.656C72.6494 4.82667 72.9534 5.07733 73.2094 5.408C73.476 5.728 73.6894 6.13333 73.8494 6.624C74.0094 7.11467 74.0894 7.68 74.0894 8.32H69.7694ZM71.2094 4.64C71.0494 4.64 70.8894 4.69333 70.7294 4.8C70.5694 4.896 70.42 5.072 70.2814 5.328C70.1427 5.584 70.0254 5.93067 69.9294 6.368C69.844 6.79467 69.7907 7.33867 69.7694 8H72.6494C72.628 7.33867 72.5694 6.79467 72.4734 6.368C72.388 5.93067 72.276 5.584 72.1374 5.328C71.9987 5.072 71.8494 4.896 71.6894 4.8C71.5294 4.69333 71.3694 4.64 71.2094 4.64ZM78.2544 9.6C78.4357 9.6 78.6117 9.55733 78.7824 9.472C78.953 9.376 79.1077 9.22667 79.2464 9.024C79.385 8.82133 79.4917 8.56533 79.5664 8.256C79.6517 7.936 79.6944 7.55733 79.6944 7.12C79.6944 6.68267 79.6517 6.30933 79.5664 6C79.4917 5.68 79.385 5.424 79.2464 5.232C79.1077 5.02933 78.953 4.88 78.7824 4.784C78.6117 4.688 78.4357 4.64 78.2544 4.64C78.073 4.64 77.897 4.688 77.7264 4.784C77.5557 4.88 77.401 5.02933 77.2624 5.232C77.1237 5.424 77.0117 5.68 76.9264 6C76.8517 6.30933 76.8144 6.68267 76.8144 7.12C76.8144 7.55733 76.8517 7.936 76.9264 8.256C77.0117 8.56533 77.1237 8.82133 77.2624 9.024C77.401 9.22667 77.5557 9.376 77.7264 9.472C77.897 9.55733 78.073 9.6 78.2544 9.6ZM78.5744 15.776C78.969 15.776 79.3264 15.7173 79.6464 15.6C79.9664 15.4933 80.233 15.344 80.4464 15.152C80.6704 14.96 80.841 14.736 80.9584 14.48C81.0757 14.224 81.1344 13.9573 81.1344 13.68C81.1344 12.6667 80.6277 12.16 79.6144 12.16H77.0544C76.4464 12.16 75.9984 12.0373 75.7104 11.792C75.433 11.5467 75.2944 11.2427 75.2944 10.88C75.2944 10.6347 75.353 10.4213 75.4704 10.24C75.5984 10.048 75.737 9.87733 75.8864 9.728C76.0677 9.568 76.2704 9.41867 76.4944 9.28C76.281 9.14133 76.0944 8.97067 75.9344 8.768C75.785 8.58667 75.6517 8.36267 75.5344 8.096C75.4277 7.82933 75.3744 7.504 75.3744 7.12C75.3744 6.736 75.4437 6.37867 75.5824 6.048C75.7317 5.71733 75.9344 5.42933 76.1904 5.184C76.4464 4.93867 76.7504 4.74667 77.1024 4.608C77.4544 4.46933 77.8384 4.4 78.2544 4.4C78.4357 4.4 78.6117 4.416 78.7824 4.448C78.953 4.48 79.1077 4.51733 79.2464 4.56C79.4064 4.60267 79.5557 4.656 79.6944 4.72C79.7797 4.60267 79.881 4.496 79.9984 4.4C80.105 4.31467 80.2384 4.24 80.3984 4.176C80.5584 4.112 80.7504 4.08 80.9744 4.08C81.337 4.08 81.6197 4.14933 81.8224 4.288C82.0357 4.416 82.201 4.56 82.3184 4.72C82.4464 4.912 82.5317 5.12533 82.5744 5.36L81.3744 5.6C81.3424 5.38667 81.2944 5.18933 81.2304 5.008C81.177 4.85867 81.1024 4.72 81.0064 4.592C80.9104 4.464 80.793 4.4 80.6544 4.4C80.537 4.4 80.4304 4.42667 80.3344 4.48C80.2384 4.53333 80.1637 4.58667 80.1104 4.64C80.0357 4.71467 79.977 4.79467 79.9344 4.88C80.3397 5.12533 80.6384 5.44 80.8304 5.824C81.033 6.208 81.1344 6.64 81.1344 7.12C81.1344 7.504 81.0597 7.86133 80.9104 8.192C80.7717 8.52267 80.5744 8.81067 80.3184 9.056C80.0624 9.30133 79.7584 9.49333 79.4064 9.632C79.0544 9.77067 78.6704 9.84 78.2544 9.84C78.0304 9.84 77.8277 9.824 77.6464 9.792C77.465 9.74933 77.305 9.70133 77.1664 9.648C77.0064 9.59467 76.8624 9.52533 76.7344 9.44C76.585 9.536 76.4517 9.63733 76.3344 9.744C76.2277 9.82933 76.1317 9.93067 76.0464 10.048C75.9717 10.1653 75.9344 10.2827 75.9344 10.4C75.9344 10.56 76.009 10.6933 76.1584 10.8C76.3077 10.896 76.6064 10.944 77.0544 10.944H79.6144C80.2544 10.944 80.7717 11.152 81.1664 11.568C81.5717 11.9733 81.7744 12.5173 81.7744 13.2C81.7744 13.6053 81.6944 13.9787 81.5344 14.32C81.385 14.672 81.1717 14.976 80.8944 15.232C80.617 15.4987 80.281 15.7067 79.8864 15.856C79.4917 16.0053 79.0544 16.08 78.5744 16.08C77.977 16.08 77.4544 16.0107 77.0064 15.872C76.569 15.744 76.2064 15.5627 75.9184 15.328C75.6304 15.104 75.4117 14.8373 75.2624 14.528C75.1237 14.2187 75.0544 13.8827 75.0544 13.52C75.0544 13.3813 75.0704 13.2533 75.1024 13.136C75.1344 13.0293 75.1717 12.9387 75.2144 12.864C75.257 12.7787 75.3104 12.704 75.3744 12.64L76.5744 13.12C76.5424 13.1947 76.5157 13.2747 76.4944 13.36C76.441 13.52 76.4144 13.68 76.4144 13.84C76.4144 14.4053 76.601 14.8693 76.9744 15.232C77.3584 15.5947 77.8917 15.776 78.5744 15.776ZM89.06 5.04V11.6L90.02 11.84V12H87.78V11.04C87.6627 11.264 87.5133 11.4667 87.332 11.648C87.1827 11.7973 86.9907 11.9307 86.756 12.048C86.532 12.176 86.26 12.24 85.94 12.24C85.62 12.24 85.3213 12.1813 85.044 12.064C84.7773 11.9467 84.5427 11.7867 84.34 11.584C84.1373 11.3707 83.9773 11.12 83.86 10.832C83.7533 10.5333 83.7 10.2027 83.7 9.84V5.04L82.74 4.8V4.64H85.86V4.8L84.98 5.04V9.84C84.98 10.5973 85.0973 11.136 85.332 11.456C85.5773 11.7653 85.86 11.92 86.18 11.92C86.436 11.92 86.66 11.8453 86.852 11.696C87.0547 11.5467 87.2253 11.3813 87.364 11.2C87.524 10.9973 87.6627 10.7573 87.78 10.48V5.04L86.9 4.8V4.64H90.02V4.8L89.06 5.04ZM92.0181 11.6V1.2L91.0581 0.959999V0.799999H93.2981V11.6L94.2581 11.84V12H91.0581V11.84L92.0181 11.6ZM99.4563 8.08C98.5283 8.08 97.8403 8.288 97.3923 8.704C96.9549 9.10933 96.7363 9.67467 96.7363 10.4C96.7363 10.88 96.8536 11.2533 97.0883 11.52C97.3229 11.7867 97.5789 11.92 97.8563 11.92C98.1123 11.92 98.3363 11.8453 98.5283 11.696C98.7309 11.5467 98.9016 11.3813 99.0403 11.2C99.2003 10.9973 99.3389 10.7573 99.4563 10.48V8.08ZM98.2563 4.64C97.9363 4.64 97.6696 4.752 97.4563 4.976C97.2429 5.18933 97.1363 5.47733 97.1363 5.84C97.1363 5.92533 97.1363 6 97.1363 6.064C97.1469 6.128 97.1576 6.18667 97.1683 6.24C97.1789 6.29333 97.1949 6.34667 97.2163 6.4L95.9363 6.72C95.9149 6.688 95.8989 6.64533 95.8883 6.592C95.8776 6.53867 95.8669 6.48 95.8563 6.416C95.8563 6.352 95.8563 6.26667 95.8563 6.16C95.8563 5.936 95.9096 5.72267 96.0163 5.52C96.1229 5.30667 96.2776 5.12 96.4803 4.96C96.6936 4.78933 96.9443 4.656 97.2323 4.56C97.5309 4.45333 97.8723 4.4 98.2563 4.4C99.0243 4.4 99.6269 4.61867 100.064 5.056C100.512 5.49333 100.736 6.07467 100.736 6.8V11.6L101.696 11.84V12H99.4563V11.04C99.3389 11.264 99.1896 11.4667 99.0083 11.648C98.8589 11.7973 98.6669 11.9307 98.4323 12.048C98.2083 12.176 97.9363 12.24 97.6163 12.24C96.8483 12.24 96.2669 12.0587 95.8723 11.696C95.4883 11.3333 95.2963 10.848 95.2963 10.24C95.2963 9.94133 95.3763 9.64267 95.5363 9.344C95.7069 9.04533 95.9576 8.77867 96.2883 8.544C96.6296 8.30933 97.0616 8.12267 97.5843 7.984C98.1069 7.83467 98.7309 7.76 99.4563 7.76V6.8C99.4563 6 99.3336 5.44 99.0883 5.12C98.8536 4.8 98.5763 4.64 98.2563 4.64ZM104.894 11.6L105.854 11.84V12H102.654V11.84L103.614 11.6V5.04L102.654 4.8V4.64H104.894V6.56C105.032 6.16533 105.198 5.808 105.39 5.488C105.56 5.21067 105.768 4.96 106.014 4.736C106.259 4.512 106.552 4.4 106.894 4.4C107.011 4.4 107.123 4.41067 107.23 4.432C107.336 4.44267 107.432 4.45867 107.518 4.48C107.614 4.512 107.699 4.53867 107.774 4.56L107.294 5.76C107.23 5.728 107.16 5.69067 107.086 5.648C107.022 5.616 106.942 5.58933 106.846 5.568C106.76 5.536 106.67 5.52 106.574 5.52C106.296 5.52 106.051 5.59467 105.838 5.744C105.624 5.89333 105.448 6.05867 105.31 6.24C105.139 6.45333 105 6.69333 104.894 6.96V11.6Z" fill="#6A5542"/>
</svg>
