<svg width="295" height="331" viewBox="0 0 295 331" fill="none" xmlns="http://www.w3.org/2000/svg">
<path d="M27.2381 95.4463L19.3233 95.2861L19.0381 94.0383L36.5074 90.0448L38.2189 97.5316C38.6705 95.6777 39.4417 93.882 40.5326 92.1446C41.431 90.7137 42.6811 89.29 44.283 87.8733C45.885 86.4567 47.9337 85.4632 50.4294 84.8926C53.0914 84.2841 55.8734 84.3922 58.7755 85.2168C61.7418 85.9393 64.5274 87.4033 67.1324 89.6089C69.8017 91.7123 72.1976 94.5347 74.3201 98.076C76.5069 101.515 78.1518 105.647 79.2547 110.472C80.3577 115.297 80.6811 119.775 80.2249 123.906C79.8328 127.934 78.8596 131.527 77.3053 134.683C75.732 137.757 73.7343 140.314 71.3124 142.356C68.8715 144.314 66.1537 145.636 63.159 146.321C60.7465 146.872 58.6324 147.005 56.8165 146.72C55.1028 146.499 53.6102 146.096 52.3386 145.512C50.8816 144.882 49.6456 144.07 48.6307 143.077L55.762 174.272L63.6767 174.432L63.962 175.68L39.0058 181.385L38.7205 180.137L45.7795 176.554L27.2381 95.4463ZM60.7167 144.253C62.4637 143.854 64.0228 143.016 65.3942 141.739C66.8488 140.444 67.9527 138.572 68.7061 136.124C69.5236 133.574 69.8979 130.424 69.8288 126.676C69.843 122.909 69.2415 118.363 68.0244 113.039C66.8074 107.715 65.374 103.36 63.7244 99.973C62.158 96.5671 60.5037 93.9254 58.7614 92.0477C57.1024 90.1511 55.4196 88.9164 53.713 88.3437C52.0706 87.6687 50.5423 87.4929 49.1282 87.8161C47.0485 88.2916 45.3931 89.2827 44.1619 90.7897C42.9308 92.2966 41.9361 93.8808 41.178 95.5422C40.3105 97.4912 39.657 99.6101 39.2173 101.899L47.7749 139.333C48.8469 140.576 50.0472 141.615 51.3759 142.449C52.5001 143.155 53.8644 143.762 55.4688 144.271C57.0541 144.696 58.8034 144.69 60.7167 144.253Z" fill="#EDE8DE"/>
<path d="M131.012 156.577C129.585 156.837 128.208 157.609 126.881 158.892C125.622 160.076 124.57 161.916 123.724 164.412C122.947 166.809 122.476 169.931 122.31 173.778C122.228 177.609 122.693 182.295 123.704 187.836C124.715 193.377 125.935 197.925 127.364 201.481C128.877 205.021 130.428 207.818 132.017 209.87C133.674 211.823 135.309 213.173 136.919 213.92C138.599 214.568 140.152 214.761 141.579 214.501C143.007 214.241 144.349 213.518 145.608 212.335C146.935 211.052 147.988 209.212 148.765 206.815C149.61 204.318 150.074 201.154 150.156 197.323C150.321 193.476 149.899 188.782 148.888 183.242C147.877 177.701 146.615 173.161 145.102 169.62C143.673 166.064 142.129 163.31 140.472 161.357C138.883 159.305 137.249 157.955 135.569 157.307C133.959 156.56 132.44 156.317 131.012 156.577ZM130.668 154.688C133.774 154.121 136.884 154.291 139.999 155.198C143.182 156.005 146.11 157.553 148.783 159.841C151.524 162.03 153.877 164.94 155.84 168.572C157.873 172.104 159.333 176.305 160.221 181.174C161.109 186.043 161.234 190.531 160.595 194.638C160.025 198.645 158.852 202.199 157.075 205.298C155.368 208.299 153.175 210.781 150.497 212.744C147.888 214.608 145.03 215.823 141.924 216.39C138.734 216.972 135.589 216.851 132.49 216.029C129.376 215.123 126.448 213.575 123.706 211.386C121.034 209.098 118.681 206.187 116.649 202.655C114.685 199.023 113.259 194.772 112.371 189.903C111.483 185.035 111.323 180.596 111.894 176.589C112.532 172.482 113.706 168.929 115.413 165.928C117.19 162.828 119.383 160.347 121.992 158.483C124.586 156.535 127.478 155.27 130.668 154.688Z" fill="#EDE8DE"/>
<path d="M238.012 150.577C236.585 150.837 235.208 151.609 233.881 152.892C232.622 154.076 231.57 155.916 230.724 158.412C229.947 160.809 229.476 163.931 229.31 167.778C229.228 171.609 229.693 176.295 230.704 181.836C231.715 187.377 232.935 191.925 234.364 195.481C235.877 199.021 237.428 201.818 239.017 203.87C240.674 205.823 242.309 207.173 243.919 207.92C245.599 208.568 247.152 208.761 248.579 208.501C250.007 208.241 251.349 207.518 252.608 206.335C253.935 205.052 254.988 203.212 255.765 200.815C256.61 198.318 257.074 195.154 257.156 191.323C257.321 187.476 256.899 182.782 255.888 177.242C254.877 171.701 253.615 167.161 252.102 163.62C250.673 160.064 249.129 157.31 247.472 155.357C245.883 153.305 244.249 151.955 242.569 151.307C240.959 150.56 239.44 150.317 238.012 150.577ZM237.668 148.688C240.774 148.121 243.884 148.291 246.999 149.198C250.182 150.005 253.11 151.553 255.783 153.841C258.524 156.03 260.877 158.94 262.84 162.572C264.873 166.104 266.333 170.305 267.221 175.174C268.109 180.043 268.234 184.531 267.595 188.638C267.025 192.645 265.852 196.199 264.075 199.298C262.368 202.299 260.175 204.781 257.497 206.744C254.888 208.608 252.03 209.823 248.924 210.39C245.734 210.972 242.589 210.851 239.49 210.029C236.376 209.123 233.448 207.575 230.706 205.386C228.034 203.098 225.681 200.187 223.649 196.655C221.685 193.023 220.259 188.772 219.371 183.903C218.483 179.035 218.323 174.596 218.894 170.589C219.532 166.482 220.706 162.929 222.413 159.928C224.19 156.828 226.383 154.347 228.992 152.483C231.586 150.535 234.478 149.27 237.668 148.688Z" fill="#EDE8DE"/>
<path d="M158.044 259.834L176.62 178.734L169.563 175.148L169.849 173.9L187.316 177.901L168.025 262.12L175.082 265.707L174.797 266.954L149.843 261.238L150.129 259.991L158.044 259.834Z" fill="#EDE8DE"/>
<path d="M198.306 242.273L201.057 189.865L193.488 187.545L193.555 186.267L211.451 187.207L208.532 242.81L216.1 245.13L216.033 246.408L190.468 245.066L190.536 243.788L198.306 242.273ZM212.861 172.54C212.776 174.16 212.016 175.615 210.581 176.907C209.236 178.118 207.754 178.681 206.135 178.596C204.516 178.511 203.058 177.794 201.761 176.444C200.555 175.013 199.994 173.489 200.079 171.869C200.164 170.25 200.879 168.835 202.225 167.624C203.66 166.332 205.187 165.729 206.806 165.814C208.425 165.899 209.838 166.657 211.044 168.087C212.341 169.437 212.946 170.921 212.861 172.54Z" fill="#EDE8DE"/>
<path d="M106.455 165.28C106.455 166.731 106.199 168.053 105.687 169.248C105.26 170.357 104.748 171.339 104.151 172.192C103.468 173.131 102.743 174.027 101.975 174.88L92.375 171.04C93.143 170.187 93.8683 169.291 94.551 168.352C95.1483 167.499 95.6603 166.517 96.087 165.408C96.599 164.213 96.855 162.891 96.855 161.44C96.855 159.221 96.2577 157.515 95.063 156.32C93.9537 155.04 92.4177 154.4 90.455 154.4C89.5163 154.4 88.6203 154.656 87.767 155.168C86.9137 155.595 86.1457 156.405 85.463 157.6C84.8657 158.709 84.3537 160.245 83.927 162.208C83.5857 164.171 83.415 166.688 83.415 169.76V185.12H101.335V187.68H83.415V240.8L91.095 242.72V244H65.495V242.72L73.175 240.8V187.68H65.495V185.12H73.175V169.76C73.175 164.64 74.7537 160.501 77.911 157.344C81.1537 154.101 85.335 152.48 90.455 152.48C92.8443 152.48 95.0203 152.864 96.983 153.632C98.9457 154.315 100.61 155.253 101.975 156.448C103.426 157.643 104.535 159.008 105.303 160.544C106.071 162.08 106.455 163.659 106.455 165.28Z" fill="#EDE8DE"/>
<path d="M163.232 116.605L171.136 117.047L171.377 118.304L146.233 123.116L145.993 121.859L153.175 118.53L143.31 66.9852L135.406 66.5431L135.165 65.2859L152.766 61.9173L155.653 77.0035C156.149 73.6939 156.911 70.6376 157.938 67.8345C158.862 65.3987 160.12 63.1164 161.71 60.9874C163.301 58.8584 165.438 57.5372 168.12 57.0239C169.042 56.8475 169.938 56.7629 170.808 56.7701C171.662 56.6935 172.44 56.6748 173.143 56.7141C173.945 56.8212 174.656 56.9024 175.275 56.9578L173.308 67.1085C172.757 66.9533 172.156 66.7642 171.505 66.5412C170.954 66.386 170.285 66.2968 169.499 66.2735C168.78 66.1504 168.044 66.1611 167.29 66.3054C165.11 66.7225 163.295 67.6781 161.843 69.1723C160.392 70.6665 159.257 72.2302 158.441 73.8636C157.42 75.7965 156.692 77.8908 156.255 80.1465L163.232 116.605Z" fill="#EDE8DE"/>
<path d="M119.785 87.3471C118.366 87.0413 116.799 87.2269 115.081 87.904C113.465 88.5157 111.789 89.8127 110.052 91.795C108.416 93.7119 106.786 96.4155 105.16 99.9059C103.617 103.414 102.252 107.921 101.065 113.426C99.8775 118.932 99.2633 123.601 99.2223 127.433C99.2648 131.283 99.6271 134.46 100.309 136.964C101.093 139.403 102.085 141.276 103.287 142.583C104.591 143.824 105.952 144.598 107.37 144.903C108.788 145.209 110.305 145.056 111.921 144.445C113.638 143.768 115.315 142.471 116.95 140.554C118.687 138.571 120.327 135.826 121.869 132.318C123.495 128.827 124.902 124.33 126.089 118.824C127.277 113.319 127.849 108.641 127.807 104.791C127.848 100.959 127.477 97.8232 126.693 95.3845C126.011 92.8804 125.018 91.0076 123.715 89.7662C122.513 88.4594 121.203 87.653 119.785 87.3471ZM120.189 85.4703C123.276 86.136 126.084 87.4838 128.614 89.5136C131.246 91.4779 133.358 94.0287 134.951 97.1657C136.646 100.237 137.705 103.827 138.128 107.934C138.653 111.975 138.394 116.415 137.35 121.253C136.307 126.091 134.704 130.285 132.542 133.834C130.481 137.318 128.036 140.151 125.208 142.335C122.482 144.453 119.506 145.906 116.281 146.695C113.157 147.417 110.051 147.446 106.965 146.78C103.795 146.097 100.936 144.782 98.388 142.835C95.8578 140.805 93.7454 138.255 92.051 135.183C90.458 132.046 89.399 128.457 88.874 124.415C88.4504 120.308 88.7604 115.836 89.8039 110.997C90.8475 106.159 92.3997 101.998 94.4606 98.5147C96.6229 94.9655 99.0673 92.1319 101.794 90.0138C104.622 87.8303 107.598 86.3771 110.722 85.6542C113.864 84.8479 117.02 84.7866 120.189 85.4703Z" fill="#EDE8DE"/>
<path d="M206.129 113.773L205.339 116.208L191.338 111.664L178.734 150.502C177.127 155.454 176.848 159.355 177.896 162.207C178.971 164.978 180.563 166.706 182.674 167.391C185.433 168.287 188.076 168.023 190.601 166.599C193.234 165.121 195.358 162.446 196.973 158.574L198.799 159.167C196.973 163.688 194.381 166.839 191.022 168.62C187.77 170.346 184.318 170.616 180.666 169.431C175.471 167.745 171.819 164.9 169.709 160.896C167.626 156.811 167.374 152.333 168.955 147.464L181.598 108.504L171.249 105.145L172.039 102.71L182.388 106.069L186.931 92.0673L198.844 88.5318L192.128 109.229L206.129 113.773Z" fill="#EDE8DE"/>
</svg>
