<svg width="131" height="65" viewBox="0 0 131 65" fill="none" xmlns="http://www.w3.org/2000/svg">
<path d="M13.2812 12.5469H0.5625V11.5H13.2812V12.5469ZM7.46875 11.9688H6.26562V7.85938H7.46875V11.9688ZM12.0625 2.75H1.6875V1.73438H12.0625V2.75ZM12.0312 8.29688H1.71875V7.3125H12.0312V8.29688ZM5.10938 7.5H3.89062V2.51562H5.10938V7.5ZM9.85938 7.5H8.65625V2.51562H9.85938V7.5ZM25.6406 8.89062H16.0312V7.89062H25.6406V8.89062ZM27.1094 12.4531H14.3906V11.4375H27.1094V12.4531ZM25.4844 2.60938H17.2812V8.1875H16.0312V1.57812H25.4844V2.60938ZM25.1875 5.65625H16.8906V4.67188H25.1875V5.65625ZM39.6719 1.70312H29.4062V0.75H39.6719V1.70312ZM39.625 5.35938H29.4531V4.42188H39.625V5.35938ZM32.7656 5.04688H31.5469V1.09375H32.7656V5.04688ZM37.5312 5.04688H36.3125V1.09375H37.5312V5.04688ZM40.875 7.70312H28.2188V6.71875H40.875V7.70312ZM35.1406 7.25H33.9219V5.09375H35.1406V7.25ZM39.25 11.7969H31V13.5469H29.7812V10.9062H38.0469V9.71875H29.75V8.8125H39.25V11.7969ZM39.6719 14.1094H29.7812V13.1719H39.6719V14.1094ZM53.5156 14.2969H52.2969V0.375H53.5156V14.2969ZM44.0156 9.89062C45.2969 9.89062 46.4792 9.85417 47.5625 9.78125C48.6458 9.70833 49.776 9.57812 50.9531 9.39062L51.0781 10.4219C49.8802 10.6094 48.7318 10.7396 47.6328 10.8125C46.5339 10.8854 45.3281 10.9219 44.0156 10.9219H42.8594V9.89062H44.0156ZM49.2969 6.60938H44.1094V10.2812H42.8594V5.60938H48.0625V2.6875H42.8281V1.67188H49.2969V6.60938ZM62.7969 11.7031H61.5938V8.21875H62.7969V11.7031ZM62.2031 1.28125C63.1823 1.28125 64.0573 1.43229 64.8281 1.73438C65.599 2.03646 66.2005 2.46354 66.6328 3.01562C67.0651 3.56771 67.2812 4.20312 67.2812 4.92188C67.2812 5.65104 67.0651 6.28906 66.6328 6.83594C66.2005 7.38281 65.599 7.80729 64.8281 8.10938C64.0573 8.41146 63.1823 8.5625 62.2031 8.5625C61.224 8.5625 60.349 8.41146 59.5781 8.10938C58.8073 7.80729 58.2057 7.38281 57.7734 6.83594C57.3411 6.28906 57.125 5.65104 57.125 4.92188C57.125 4.20312 57.3411 3.56771 57.7734 3.01562C58.2057 2.46354 58.8073 2.03646 59.5781 1.73438C60.349 1.43229 61.224 1.28125 62.2031 1.28125ZM62.2031 2.29688C61.4635 2.29688 60.7969 2.40625 60.2031 2.625C59.6094 2.84375 59.1458 3.15365 58.8125 3.55469C58.4792 3.95573 58.3125 4.41146 58.3125 4.92188C58.3125 5.44271 58.4792 5.90365 58.8125 6.30469C59.1458 6.70573 59.6068 7.01562 60.1953 7.23438C60.7839 7.45312 61.4531 7.56771 62.2031 7.57812C62.9531 7.56771 63.6224 7.45312 64.2109 7.23438C64.7995 7.01562 65.2604 6.70573 65.5938 6.30469C65.9271 5.90365 66.0938 5.44271 66.0938 4.92188C66.0938 4.41146 65.9271 3.95573 65.5938 3.55469C65.2604 3.15365 64.7995 2.84375 64.2109 2.625C63.6224 2.40625 62.9531 2.29688 62.2031 2.29688ZM68.5938 12.4844H55.875V11.4531H68.5938V12.4844ZM74.4062 1.6875H78.25C79.1146 1.6875 79.8359 1.83333 80.4141 2.125C80.9922 2.41667 81.4193 2.82552 81.6953 3.35156C81.9714 3.8776 82.1094 4.48438 82.1094 5.17188C82.1094 5.84896 81.9714 6.44531 81.6953 6.96094C81.4193 7.47656 80.9922 7.88021 80.4141 8.17188C79.8359 8.46354 79.1198 8.60938 78.2656 8.60938H75.1719V7.32812H78.2031C78.7969 7.32812 79.2786 7.24219 79.6484 7.07031C80.0182 6.89844 80.2891 6.65365 80.4609 6.33594C80.6328 6.01823 80.7188 5.63021 80.7188 5.17188C80.7188 4.70312 80.6328 4.30208 80.4609 3.96875C80.2891 3.63542 80.0156 3.38021 79.6406 3.20312C79.2656 3.02604 78.7812 2.9375 78.1875 2.9375H75.8125V13H74.4062V1.6875ZM82.5469 13H80.9062L78.1719 7.92188H79.7656L82.5469 13ZM87.4375 13.1719C86.6354 13.1719 85.9349 12.9922 85.3359 12.6328C84.737 12.2734 84.276 11.7656 83.9531 11.1094C83.6302 10.4531 83.4688 9.69271 83.4688 8.82812C83.4688 7.96354 83.6302 7.19531 83.9531 6.52344C84.276 5.85156 84.7266 5.33073 85.3047 4.96094C85.8828 4.59115 86.5521 4.40625 87.3125 4.40625C87.9583 4.40625 88.5573 4.54688 89.1094 4.82812C89.6615 5.10938 90.1094 5.56771 90.4531 6.20312C90.7969 6.83854 90.9688 7.65104 90.9688 8.64062V9.20312H84.4062V8.0625H89.6094C89.6094 7.58333 89.5156 7.15885 89.3281 6.78906C89.1406 6.41927 88.8724 6.1276 88.5234 5.91406C88.1745 5.70052 87.7708 5.59375 87.3125 5.59375C86.8125 5.59375 86.375 5.71615 86 5.96094C85.625 6.20573 85.3333 6.53385 85.125 6.94531C84.9167 7.35677 84.8125 7.79688 84.8125 8.26562V9.03125C84.8125 9.65625 84.9219 10.1901 85.1406 10.6328C85.3594 11.0755 85.6667 11.4115 86.0625 11.6406C86.4583 11.8698 86.9167 11.9844 87.4375 11.9844C87.7604 11.9844 88.0521 11.9401 88.3125 11.8516C88.5729 11.763 88.7943 11.6484 88.9766 11.5078C89.1589 11.3672 89.3021 11.2031 89.4062 11.0156H90.8438C90.7083 11.4427 90.4844 11.8177 90.1719 12.1406C89.8594 12.4635 89.4688 12.7161 89 12.8984C88.5312 13.0807 88.0104 13.1719 87.4375 13.1719ZM96.1562 16.3594C95.4792 16.3594 94.8776 16.263 94.3516 16.0703C93.8255 15.8776 93.4089 15.5964 93.1016 15.2266C92.7943 14.8568 92.6146 14.4115 92.5625 13.8906H93.9688C94.0625 14.3177 94.2995 14.6406 94.6797 14.8594C95.0599 15.0781 95.5521 15.1875 96.1562 15.1875C96.9062 15.1875 97.4844 15.0208 97.8906 14.6875C98.2969 14.3542 98.5 13.8438 98.5 13.1562V11.4375H98.3906L98.375 11.4688C98.2292 11.7083 98.0729 11.9245 97.9062 12.1172C97.7396 12.3099 97.4896 12.4844 97.1562 12.6406C96.8229 12.7969 96.4115 12.875 95.9219 12.875C95.2344 12.875 94.6172 12.7057 94.0703 12.3672C93.5234 12.0286 93.0938 11.5391 92.7812 10.8984C92.4688 10.2578 92.3125 9.50521 92.3125 8.64062C92.3125 7.78646 92.4661 7.03906 92.7734 6.39844C93.0807 5.75781 93.5078 5.26562 94.0547 4.92188C94.6016 4.57812 95.2292 4.40625 95.9375 4.40625C96.4062 4.40625 96.7969 4.47656 97.1094 4.61719C97.4219 4.75781 97.6641 4.91927 97.8359 5.10156C98.0078 5.28385 98.1771 5.5 98.3438 5.75L98.4219 5.85938H98.5312V4.51562H99.8438V13.2344C99.8438 13.9323 99.6849 14.5156 99.3672 14.9844C99.0495 15.4531 98.6146 15.7995 98.0625 16.0234C97.5104 16.2474 96.875 16.3594 96.1562 16.3594ZM96.1094 11.6719C96.6198 11.6719 97.0573 11.5521 97.4219 11.3125C97.7865 11.0729 98.0625 10.7318 98.25 10.2891C98.4375 9.84635 98.5312 9.3125 98.5312 8.6875C98.5312 8.07292 98.4375 7.53385 98.25 7.07031C98.0625 6.60677 97.7891 6.2474 97.4297 5.99219C97.0703 5.73698 96.6302 5.60938 96.1094 5.60938C95.5885 5.60938 95.1458 5.74479 94.7812 6.01562C94.4167 6.28646 94.1406 6.65365 93.9531 7.11719C93.7656 7.58073 93.6719 8.10417 93.6719 8.6875C93.6719 9.28125 93.7656 9.80208 93.9531 10.25C94.1406 10.6979 94.4167 11.0469 94.7812 11.2969C95.1458 11.5469 95.5885 11.6719 96.1094 11.6719ZM107.344 4.51562H108.672V13H107.344V11.5625H107.25C107.031 12.0208 106.711 12.3932 106.289 12.6797C105.867 12.9661 105.349 13.1094 104.734 13.1094C104.193 13.1094 103.716 12.9896 103.305 12.75C102.893 12.5104 102.57 12.151 102.336 11.6719C102.102 11.1927 101.984 10.6042 101.984 9.90625V4.51562H103.328V9.8125C103.328 10.2083 103.406 10.5573 103.562 10.8594C103.719 11.1615 103.938 11.3958 104.219 11.5625C104.5 11.7292 104.818 11.8125 105.172 11.8125C105.516 11.8125 105.854 11.7266 106.188 11.5547C106.521 11.3828 106.797 11.1224 107.016 10.7734C107.234 10.4245 107.344 10.0052 107.344 9.51562V4.51562ZM112.172 13H110.828V1.6875H112.172V13ZM119.5 9.0625C119.406 9.0625 118.953 9.09375 118.141 9.15625L117.25 9.21875C116.615 9.26042 116.122 9.39844 115.773 9.63281C115.424 9.86719 115.25 10.2083 115.25 10.6562C115.25 10.9479 115.326 11.1927 115.477 11.3906C115.628 11.5885 115.839 11.7396 116.109 11.8438C116.38 11.9479 116.688 12 117.031 12C117.521 12 117.943 11.9036 118.297 11.7109C118.651 11.5182 118.922 11.263 119.109 10.9453C119.297 10.6276 119.391 10.2865 119.391 9.92188V7.28125C119.391 6.91667 119.32 6.60677 119.18 6.35156C119.039 6.09635 118.826 5.90365 118.539 5.77344C118.253 5.64323 117.896 5.57812 117.469 5.57812C116.958 5.57812 116.539 5.68229 116.211 5.89062C115.883 6.09896 115.667 6.375 115.562 6.71875H114.156C114.219 6.26042 114.398 5.85677 114.695 5.50781C114.992 5.15885 115.385 4.88802 115.875 4.69531C116.365 4.5026 116.917 4.40625 117.531 4.40625C118.021 4.40625 118.5 4.47917 118.969 4.625C119.438 4.77083 119.846 5.0651 120.195 5.50781C120.544 5.95052 120.719 6.58333 120.719 7.40625V13H119.391V11.8438H119.328C119.224 12.0625 119.065 12.2734 118.852 12.4766C118.638 12.6797 118.357 12.8516 118.008 12.9922C117.659 13.1328 117.255 13.2031 116.797 13.2031C116.255 13.2031 115.766 13.099 115.328 12.8906C114.891 12.6823 114.544 12.3802 114.289 11.9844C114.034 11.5885 113.906 11.125 113.906 10.5938C113.906 9.70833 114.208 9.08594 114.812 8.72656C115.417 8.36719 116.177 8.15625 117.094 8.09375C117.198 8.08333 117.698 8.05208 118.594 8L119.484 7.96875L119.5 9.0625ZM122.875 4.51562H124.172V5.8125H124.266C124.422 5.375 124.701 5.02604 125.102 4.76562C125.503 4.50521 125.953 4.375 126.453 4.375C126.714 4.375 126.948 4.38542 127.156 4.40625V5.76562C127.104 5.74479 126.995 5.72396 126.828 5.70312C126.661 5.68229 126.5 5.67188 126.344 5.67188C125.948 5.67188 125.589 5.75781 125.266 5.92969C124.943 6.10156 124.688 6.33854 124.5 6.64062C124.312 6.94271 124.219 7.28125 124.219 7.65625V13H122.875V4.51562ZM13.3281 37.6484H0.515625V36.3984H13.3281V37.6484ZM7.60156 36.9609H6.14062V32.8828H7.60156V36.9609ZM12.1562 27.8359H1.60156V26.625H12.1562V27.8359ZM12.1172 33.4062H1.64844V32.2266H12.1172V33.4062ZM5.20312 32.4219H3.72656V27.5781H5.20312V32.4219ZM10.0234 32.4219H8.5625V27.5781H10.0234V32.4219ZM25.7109 33.9766H15.9453V32.7812H25.7109V33.9766ZM27.1562 37.5625H14.3438V36.3438H27.1562V37.5625ZM25.5703 27.7031H17.4609V33.125H15.9453V26.4688H25.5703V27.7031ZM25.2578 30.75H17V29.5781H25.2578V30.75ZM39.7422 26.8125H29.3438V25.6875H39.7422V26.8125ZM39.6797 30.3672H29.4062V29.25H39.6797V30.3672ZM32.8594 29.9922H31.3828V26.1016H32.8594V29.9922ZM37.7031 29.9922H36.2188V26.1016H37.7031V29.9922ZM40.9375 32.75H28.1719V31.5781H40.9375V32.75ZM35.2734 32.1719H33.7969V30.0547H35.2734V32.1719ZM39.3203 36.8828H31.1797V38.5078H29.7188V35.8438H37.8672V34.8125H29.6953V33.7344H39.3203V36.8828ZM39.7266 39.1875H29.7188V38.0703H39.7266V39.1875ZM53.6172 39.3594H52.1406V25.3203H53.6172V39.3594ZM43.9922 34.7578C45.2891 34.763 46.4766 34.7292 47.5547 34.6562C48.638 34.5833 49.7552 34.4557 50.9062 34.2734L51.0547 35.4922C49.888 35.6849 48.7578 35.8177 47.6641 35.8906C46.5703 35.9583 45.3464 35.9922 43.9922 35.9922H42.7969V34.7578H43.9922ZM49.3359 31.7031H44.3125V35.2266H42.7969V30.5156H47.8359V27.7969H42.7734V26.5859H49.3359V31.7031ZM62.9297 36.625H61.4766V33.2109H62.9297V36.625ZM62.2109 26.1719C63.2005 26.1719 64.0885 26.3281 64.875 26.6406C65.6615 26.9479 66.2734 27.3854 66.7109 27.9531C67.1536 28.5156 67.375 29.1641 67.375 29.8984C67.375 30.6432 67.1536 31.2969 66.7109 31.8594C66.2734 32.4219 65.6615 32.8594 64.875 33.1719C64.0885 33.4792 63.2005 33.6328 62.2109 33.6328C61.2161 33.6328 60.3255 33.4792 59.5391 33.1719C58.7578 32.8594 58.1458 32.4219 57.7031 31.8594C57.2604 31.2969 57.0391 30.6432 57.0391 29.8984C57.0391 29.1641 57.2604 28.5156 57.7031 27.9531C58.1458 27.3854 58.7578 26.9479 59.5391 26.6406C60.3255 26.3281 61.2161 26.1719 62.2109 26.1719ZM62.2109 27.375C61.4974 27.375 60.8568 27.4792 60.2891 27.6875C59.7214 27.8958 59.2786 28.1927 58.9609 28.5781C58.6484 28.9583 58.4922 29.3984 58.4922 29.8984C58.4922 30.4036 58.6484 30.849 58.9609 31.2344C59.2786 31.6198 59.7188 31.9167 60.2812 32.125C60.8438 32.3333 61.487 32.4401 62.2109 32.4453C62.9349 32.4401 63.5755 32.3333 64.1328 32.125C64.6953 31.9167 65.1354 31.6198 65.4531 31.2344C65.7708 30.849 65.9297 30.4036 65.9297 29.8984C65.9297 29.3984 65.7708 28.9583 65.4531 28.5781C65.1354 28.1927 64.6953 27.8958 64.1328 27.6875C63.5703 27.4792 62.9297 27.375 62.2109 27.375ZM68.6406 37.5781H55.8281V36.3516H68.6406V37.5781ZM76.2891 26.6875L79.8828 35.4531H80.0156L83.6094 26.6875H85.6953V38H84.0547V29.8281H83.9453L80.6172 37.9844H79.2656L75.9375 29.8281H75.8438V38H74.2031V26.6875H76.2891ZM91.5234 38.1719C90.7057 38.1719 89.9896 37.9922 89.375 37.6328C88.7656 37.2734 88.2969 36.7656 87.9688 36.1094C87.6406 35.4531 87.4766 34.6901 87.4766 33.8203C87.4766 32.9505 87.6406 32.1823 87.9688 31.5156C88.2969 30.8438 88.7578 30.3255 89.3516 29.9609C89.9453 29.5911 90.6302 29.4062 91.4062 29.4062C92.0938 29.4062 92.7214 29.5547 93.2891 29.8516C93.8568 30.1432 94.3125 30.6094 94.6562 31.25C95 31.8854 95.1719 32.6901 95.1719 33.6641V34.25H88.4141V33.0078H93.5391C93.5391 32.5755 93.4505 32.1927 93.2734 31.8594C93.1016 31.5208 92.8542 31.2552 92.5312 31.0625C92.2083 30.8698 91.8385 30.7734 91.4219 30.7734C90.9688 30.7734 90.5703 30.8828 90.2266 31.1016C89.8828 31.3203 89.6146 31.6146 89.4219 31.9844C89.2292 32.3542 89.1328 32.75 89.1328 33.1719V34.1406C89.1328 34.6979 89.2318 35.1771 89.4297 35.5781C89.6328 35.9792 89.9141 36.2839 90.2734 36.4922C90.638 36.7005 91.0573 36.8047 91.5312 36.8047C91.8333 36.8047 92.1068 36.763 92.3516 36.6797C92.5964 36.5911 92.8047 36.4818 92.9766 36.3516C93.1484 36.2161 93.2812 36.0573 93.375 35.875H95.0703C94.9453 36.3333 94.7214 36.7344 94.3984 37.0781C94.0755 37.4219 93.6667 37.6901 93.1719 37.8828C92.6823 38.0755 92.1328 38.1719 91.5234 38.1719ZM99.9922 38.1562C99.3099 38.1562 98.6979 37.9818 98.1562 37.6328C97.6198 37.2786 97.1979 36.7708 96.8906 36.1094C96.5885 35.4427 96.4375 34.6641 96.4375 33.7734C96.4375 32.8724 96.5911 32.0938 96.8984 31.4375C97.2057 30.776 97.6276 30.2734 98.1641 29.9297C98.7057 29.5807 99.3203 29.4062 100.008 29.4062C100.466 29.4062 100.854 29.4792 101.172 29.625C101.495 29.7708 101.745 29.9427 101.922 30.1406C102.104 30.3385 102.263 30.5625 102.398 30.8125L102.445 30.8828H102.531V26.6875H104.203V38H102.57V36.6875H102.445L102.398 36.7578C102.258 37.0026 102.096 37.2266 101.914 37.4297C101.732 37.6276 101.482 37.7995 101.164 37.9453C100.846 38.0859 100.456 38.1562 99.9922 38.1562ZM100.359 36.7422C100.828 36.7422 101.229 36.6172 101.562 36.3672C101.896 36.1172 102.148 35.7682 102.32 35.3203C102.492 34.8672 102.578 34.3438 102.578 33.75C102.578 33.1562 102.495 32.6406 102.328 32.2031C102.161 31.7656 101.909 31.4271 101.57 31.1875C101.237 30.9479 100.833 30.8281 100.359 30.8281C99.8854 30.8281 99.4818 30.9531 99.1484 31.2031C98.8151 31.4479 98.5625 31.7917 98.3906 32.2344C98.2188 32.6771 98.1328 33.1823 98.1328 33.75C98.1328 34.3281 98.2188 34.8438 98.3906 35.2969C98.5625 35.7448 98.8151 36.099 99.1484 36.3594C99.4818 36.6146 99.8854 36.7422 100.359 36.7422ZM106.383 29.5156H108.047V38H106.383V29.5156ZM107.211 28.2031C107.023 28.2031 106.849 28.1615 106.688 28.0781C106.526 27.9896 106.398 27.8698 106.305 27.7188C106.211 27.5625 106.164 27.3958 106.164 27.2188C106.164 27.0365 106.211 26.8724 106.305 26.7266C106.398 26.5755 106.526 26.4557 106.688 26.3672C106.849 26.2786 107.023 26.2344 107.211 26.2344C107.409 26.2344 107.589 26.2786 107.75 26.3672C107.911 26.4557 108.036 26.5755 108.125 26.7266C108.219 26.8724 108.266 27.0365 108.266 27.2188C108.266 27.3958 108.219 27.5625 108.125 27.7188C108.036 27.8698 107.911 27.9896 107.75 28.0781C107.589 28.1615 107.409 28.2031 107.211 28.2031ZM115.469 29.5156H117.125V38H115.5V36.5312H115.406C115.193 37.0052 114.87 37.388 114.438 37.6797C114.01 37.9661 113.49 38.1094 112.875 38.1094C112.323 38.1094 111.839 37.987 111.422 37.7422C111.005 37.4974 110.677 37.1354 110.438 36.6562C110.203 36.1719 110.086 35.5885 110.086 34.9062V29.5156H111.75V34.7109C111.75 35.0859 111.82 35.4167 111.961 35.7031C112.107 35.9844 112.31 36.2031 112.57 36.3594C112.836 36.5156 113.135 36.5938 113.469 36.5938C113.797 36.5938 114.115 36.513 114.422 36.3516C114.729 36.1901 114.979 35.9479 115.172 35.625C115.37 35.3021 115.469 34.9167 115.469 34.4688V29.5156ZM119.164 29.5156H120.758V30.8984H120.867C121.055 30.4245 121.346 30.0573 121.742 29.7969C122.138 29.5365 122.615 29.4062 123.172 29.4062C123.542 29.4062 123.875 29.4635 124.172 29.5781C124.474 29.6927 124.732 29.862 124.945 30.0859C125.159 30.3099 125.328 30.5807 125.453 30.8984H125.539C125.68 30.5859 125.872 30.3203 126.117 30.1016C126.362 29.8776 126.651 29.7057 126.984 29.5859C127.323 29.4661 127.693 29.4062 128.094 29.4062C128.62 29.4062 129.078 29.5156 129.469 29.7344C129.859 29.9531 130.164 30.2786 130.383 30.7109C130.607 31.1432 130.719 31.6797 130.719 32.3203V38H129.047V32.4766C129.047 31.9245 128.898 31.5156 128.602 31.25C128.305 30.9792 127.924 30.8438 127.461 30.8438C127.107 30.8438 126.802 30.9193 126.547 31.0703C126.292 31.2161 126.096 31.4219 125.961 31.6875C125.826 31.9479 125.758 32.25 125.758 32.5938V38H124.102V32.3594C124.102 32.0625 124.036 31.7995 123.906 31.5703C123.781 31.3359 123.602 31.1562 123.367 31.0312C123.133 30.9062 122.865 30.8438 122.562 30.8438C122.255 30.8438 121.969 30.9245 121.703 31.0859C121.438 31.2474 121.224 31.474 121.062 31.7656C120.906 32.0573 120.828 32.3906 120.828 32.7656V38H119.164V29.5156ZM13.4297 62.8594H0.429688V61.1875H13.4297V62.8594ZM7.86719 61.9453H5.89062V57.9375H7.86719V61.9453ZM12.3438 53.0078H1.4375V51.4141H12.3438V53.0078ZM12.2812 58.625H1.50781V57.0625H12.2812V58.625ZM5.39844 57.2578H3.40625V52.6953H5.39844V57.2578ZM10.3438 57.2578H8.38281V52.6953H10.3438V57.2578ZM25.8438 59.1406H15.7812V57.5703H25.8438V59.1406ZM27.2578 62.7812H14.2578V61.1641H27.2578V62.7812ZM25.7344 52.8828H17.8125V57.9922H15.7812V51.2578H25.7344V52.8828ZM25.3984 55.9375H17.2188V54.3828H25.3984V55.9375ZM39.8828 52.0312H29.2188V50.5547H39.8828V52.0312ZM39.7969 55.3828H29.3203V53.9062H39.7969V55.3828ZM33.0547 54.875H31.0625V51.1094H33.0547V54.875ZM38.0391 54.875H36.0391V51.1094H38.0391V54.875ZM41.0547 57.8359H28.0859V56.2891H41.0547V57.8359ZM35.5391 57.0078H33.5391V54.9844H35.5391V57.0078ZM39.4688 62.0625H31.5469V63.4375H29.5859V60.7188H37.5V59.9922H29.5781V58.5859H39.4688V62.0625ZM39.8438 64.3359H29.5859V62.875H39.8438V64.3359ZM53.8281 64.4766H51.8359V50.2031H53.8281V64.4766ZM43.9453 59.5C45.2786 59.5052 46.4818 59.474 47.5547 59.4062C48.6276 59.3333 49.7161 59.2083 50.8203 59.0312L51 60.6406C49.9062 60.8333 48.8151 60.9661 47.7266 61.0391C46.6432 61.1068 45.3828 61.1406 43.9453 61.1406H42.6719V59.5H43.9453ZM49.4141 56.8828H44.7266V60.125H42.6719V55.3203H47.3828V53.0156H42.6562V51.4062H49.4141V56.8828ZM63.1953 61.4766H61.2344V58.2031H63.1953V61.4766ZM62.2188 50.9453C63.2344 50.9453 64.1484 51.1094 64.9609 51.4375C65.7786 51.7604 66.4167 52.2188 66.875 52.8125C67.3385 53.401 67.5703 54.0781 67.5703 54.8438C67.5703 55.6302 67.3385 56.3203 66.875 56.9141C66.4167 57.5078 65.7812 57.9661 64.9688 58.2891C64.1562 58.612 63.2396 58.7734 62.2188 58.7734C61.2031 58.7734 60.2891 58.612 59.4766 58.2891C58.6693 57.9661 58.0339 57.5078 57.5703 56.9141C57.1068 56.3203 56.875 55.6302 56.875 54.8438C56.875 54.0781 57.1068 53.401 57.5703 52.8125C58.0339 52.2188 58.6693 51.7604 59.4766 51.4375C60.2891 51.1094 61.2031 50.9453 62.2188 50.9453ZM62.2188 52.5391C61.5625 52.5391 60.9766 52.6328 60.4609 52.8203C59.9505 53.0026 59.5521 53.2682 59.2656 53.6172C58.9844 53.9661 58.8438 54.375 58.8438 54.8438C58.8438 55.3281 58.9844 55.7474 59.2656 56.1016C59.5521 56.4557 59.9479 56.724 60.4531 56.9062C60.9635 57.0885 61.5521 57.1823 62.2188 57.1875C62.8958 57.1823 63.487 57.0885 63.9922 56.9062C64.4974 56.724 64.8906 56.4557 65.1719 56.1016C65.4583 55.7474 65.6016 55.3281 65.6016 54.8438C65.6016 54.375 65.4583 53.9661 65.1719 53.6172C64.8906 53.2682 64.4948 53.0026 63.9844 52.8203C63.474 52.6328 62.8854 52.5391 62.2188 52.5391ZM68.7422 62.7734H55.7422V61.1406H68.7422V62.7734ZM73.8047 51.6875H78.3047C79.112 51.6875 79.7969 51.8099 80.3594 52.0547C80.9219 52.2943 81.3438 52.6328 81.625 53.0703C81.9115 53.5026 82.0547 54.0104 82.0547 54.5938C82.0547 55.0208 81.9661 55.401 81.7891 55.7344C81.6172 56.0677 81.3776 56.3438 81.0703 56.5625C80.7682 56.776 80.4167 56.9271 80.0156 57.0156V57.125C80.4479 57.1458 80.8542 57.2708 81.2344 57.5C81.6146 57.7292 81.9193 58.0495 82.1484 58.4609C82.3776 58.8672 82.4922 59.3411 82.4922 59.8828C82.4922 60.487 82.3438 61.0234 82.0469 61.4922C81.75 61.9609 81.3073 62.3307 80.7188 62.6016C80.1354 62.8672 79.4297 63 78.6016 63H73.8047V51.6875ZM78.125 61.0703C78.5677 61.0703 78.9323 61.013 79.2188 60.8984C79.5104 60.7786 79.724 60.6146 79.8594 60.4062C79.9948 60.1927 80.0625 59.9401 80.0625 59.6484C80.0625 59.3359 79.987 59.0547 79.8359 58.8047C79.6849 58.5547 79.4661 58.3646 79.1797 58.2344C78.8984 58.099 78.5677 58.0312 78.1875 58.0312H76.1484V61.0703H78.125ZM77.9531 56.4297C78.2812 56.4297 78.5755 56.3698 78.8359 56.25C79.1016 56.1302 79.3073 55.9609 79.4531 55.7422C79.6042 55.5234 79.6797 55.2656 79.6797 54.9688C79.6797 54.6875 79.6146 54.4453 79.4844 54.2422C79.3542 54.0339 79.1615 53.875 78.9062 53.7656C78.6562 53.651 78.3542 53.5938 78 53.5938H76.1484V56.4297H77.9531ZM87.7578 63.1641C86.9141 63.1641 86.1771 62.9818 85.5469 62.6172C84.9167 62.2526 84.4323 61.7396 84.0938 61.0781C83.7552 60.4167 83.5859 59.6536 83.5859 58.7891C83.5859 57.9141 83.7552 57.1484 84.0938 56.4922C84.4323 55.8307 84.9167 55.3177 85.5469 54.9531C86.1771 54.5885 86.9141 54.4062 87.7578 54.4062C88.5964 54.4062 89.3307 54.5885 89.9609 54.9531C90.5964 55.3177 91.0807 55.8307 91.4141 56.4922C91.7474 57.1484 91.9141 57.9141 91.9141 58.7891C91.9141 59.6536 91.7474 60.4167 91.4141 61.0781C91.0807 61.7396 90.5964 62.2526 89.9609 62.6172C89.3307 62.9818 88.5964 63.1641 87.7578 63.1641ZM87.7734 61.375C88.1589 61.375 88.4844 61.263 88.75 61.0391C89.0208 60.8151 89.224 60.5078 89.3594 60.1172C89.4948 59.7214 89.5625 59.2734 89.5625 58.7734C89.5625 58.2682 89.4948 57.8203 89.3594 57.4297C89.224 57.0391 89.0208 56.7318 88.75 56.5078C88.4844 56.2839 88.1589 56.1719 87.7734 56.1719C87.3776 56.1719 87.0417 56.2839 86.7656 56.5078C86.4896 56.7318 86.2812 57.0391 86.1406 57.4297C86 57.8151 85.9297 58.263 85.9297 58.7734C85.9297 59.2786 86 59.7266 86.1406 60.1172C86.2812 60.5078 86.4896 60.8151 86.7656 61.0391C87.0417 61.263 87.3776 61.375 87.7734 61.375ZM95.6875 63H93.375V51.6875H95.6875V63ZM100.609 63.1328C99.9583 63.1328 99.3698 62.9635 98.8438 62.625C98.3229 62.2865 97.9115 61.7891 97.6094 61.1328C97.3125 60.4714 97.1641 59.6823 97.1641 58.7656C97.1641 57.8281 97.3177 57.0312 97.625 56.375C97.9323 55.7188 98.3438 55.2266 98.8594 54.8984C99.3802 54.5703 99.9635 54.4062 100.609 54.4062C101.036 54.4062 101.406 54.474 101.719 54.6094C102.031 54.7448 102.286 54.9193 102.484 55.1328C102.682 55.3411 102.844 55.5781 102.969 55.8438L103.016 55.9375H103.086V51.6875H105.398V63H103.125V61.6484H103.016L102.969 61.75C102.839 62.0052 102.672 62.2344 102.469 62.4375C102.271 62.6354 102.016 62.8021 101.703 62.9375C101.396 63.0677 101.031 63.1328 100.609 63.1328ZM101.328 61.2891C101.708 61.2891 102.034 61.1849 102.305 60.9766C102.581 60.7682 102.789 60.4714 102.93 60.0859C103.076 59.7005 103.148 59.2552 103.148 58.75C103.148 58.2396 103.078 57.7969 102.938 57.4219C102.797 57.0469 102.589 56.7604 102.312 56.5625C102.042 56.3594 101.714 56.2578 101.328 56.2578C100.943 56.2578 100.615 56.362 100.344 56.5703C100.073 56.7734 99.8672 57.0625 99.7266 57.4375C99.5911 57.8125 99.5234 58.25 99.5234 58.75C99.5234 59.25 99.5911 59.6927 99.7266 60.0781C99.8672 60.4583 100.073 60.7552 100.344 60.9688C100.615 61.1823 100.943 61.2891 101.328 61.2891Z" fill="#6A5542"/>
</svg>
