<svg width="247" height="292" viewBox="0 0 247 292" fill="none" xmlns="http://www.w3.org/2000/svg">
<path d="M27.2381 80.4462L19.3233 80.286L19.0381 79.0382L36.5074 75.0447L38.2189 82.5315C38.6705 80.6776 39.4417 78.8819 40.5326 77.1444C41.431 75.7136 42.6811 74.2898 44.283 72.8732C45.885 71.4566 47.9337 70.463 50.4294 69.8925C53.0914 69.284 55.8734 69.392 58.7755 70.2167C61.7418 70.9392 64.5274 72.4032 67.1324 74.6088C69.8017 76.7122 72.1976 79.5345 74.3201 83.0759C76.5069 86.5151 78.1518 90.6471 79.2547 95.4719C80.3577 100.297 80.6811 104.775 80.2249 108.906C79.8328 112.934 78.8596 116.527 77.3053 119.683C75.732 122.757 73.7343 125.314 71.3124 127.356C68.8715 129.314 66.1537 130.636 63.159 131.32C60.7465 131.872 58.6324 132.005 56.8165 131.72C55.1028 131.499 53.6102 131.096 52.3386 130.512C50.8816 129.882 49.6456 129.07 48.6307 128.077L55.762 159.272L63.6767 159.432L63.962 160.68L39.0058 166.385L38.7205 165.137L45.7795 161.554L27.2381 80.4462ZM60.7167 129.253C62.4637 128.853 64.0228 128.016 65.3942 126.739C66.8488 125.444 67.9527 123.572 68.7061 121.124C69.5236 118.574 69.8979 115.424 69.8288 111.676C69.843 107.909 69.2415 103.363 68.0244 98.0392C66.8074 92.7152 65.374 88.3598 63.7244 84.9729C62.158 81.567 60.5037 78.9252 58.7614 77.0476C57.1024 75.151 55.4196 73.9163 53.713 73.3435C52.0706 72.6686 50.5423 72.4927 49.1282 72.816C47.0485 73.2914 45.3931 74.2826 44.1619 75.7895C42.9308 77.2965 41.9361 78.8806 41.178 80.542C40.3105 82.491 39.657 84.61 39.2173 86.8988L47.7749 124.333C48.8469 125.576 50.0472 126.615 51.3759 127.449C52.5001 128.155 53.8644 128.762 55.4688 129.271C57.0541 129.696 58.8034 129.69 60.7167 129.253Z" fill="#6E6949"/>
<path d="M136.012 95.5767C134.585 95.8371 133.208 96.6088 131.881 97.8918C130.622 99.0756 129.57 100.916 128.724 103.412C127.947 105.809 127.476 108.931 127.31 112.778C127.228 116.609 127.693 121.295 128.704 126.836C129.715 132.376 130.935 136.925 132.364 140.481C133.877 144.021 135.428 146.818 137.017 148.87C138.674 150.823 140.309 152.173 141.919 152.92C143.599 153.567 145.152 153.761 146.579 153.501C148.007 153.24 149.349 152.518 150.608 151.335C151.935 150.052 152.988 148.212 153.765 145.814C154.61 143.318 155.074 140.154 155.156 136.323C155.321 132.476 154.899 127.782 153.888 122.242C152.877 116.701 151.615 112.16 150.102 108.62C148.673 105.064 147.129 102.31 145.472 100.357C143.883 98.3045 142.249 96.9545 140.569 96.3068C138.959 95.5597 137.44 95.3164 136.012 95.5767ZM135.668 93.6879C138.774 93.1213 141.884 93.2912 144.999 94.1976C148.182 95.0048 151.11 96.5524 153.783 98.8406C156.524 101.029 158.877 103.94 160.84 107.572C162.873 111.104 164.333 115.305 165.221 120.174C166.109 125.043 166.234 129.531 165.595 133.638C165.025 137.645 163.852 141.199 162.075 144.298C160.368 147.299 158.175 149.781 155.497 151.744C152.888 153.608 150.03 154.823 146.924 155.39C143.734 155.972 140.589 155.851 137.49 155.029C134.376 154.122 131.448 152.575 128.706 150.386C126.034 148.098 123.681 145.187 121.649 141.655C119.685 138.023 118.259 133.772 117.371 128.903C116.483 124.034 116.323 119.596 116.894 115.589C117.532 111.482 118.706 107.929 120.413 104.928C122.19 101.828 124.383 99.3464 126.992 97.4825C129.586 95.5347 132.478 94.2699 135.668 93.6879Z" fill="#6E6949"/>
<path d="M40.0222 226.312C40.3461 224.898 40.8494 223.656 41.532 222.587C42.1956 221.601 42.9138 220.758 43.6866 220.06C44.5616 219.297 45.5103 218.596 46.5326 217.954L55.0329 223.841C54.0105 224.482 53.0619 225.184 52.1869 225.947C51.4141 226.645 50.6959 227.487 50.0323 228.473C49.3497 229.543 48.8464 230.784 48.5225 232.198C48.0271 234.361 48.1867 236.148 49.0013 237.56C49.7968 239.056 50.9848 239.985 52.5652 240.347C53.3138 240.518 54.1196 240.44 54.9825 240.112C55.8264 239.868 56.6728 239.23 57.5218 238.199C58.3518 237.251 59.1522 235.859 59.9231 234.022C60.7773 232.204 61.5473 229.798 62.2332 226.803L77.9521 158.181L70.8946 154.594L71.1804 153.347L88.648 157.348L72.2147 229.09C71.6431 231.585 70.7032 233.777 69.3951 235.666C68.087 237.555 66.5639 239.045 64.826 240.135C63.069 241.308 61.0971 242.082 58.9102 242.457C56.7234 242.831 54.4655 242.752 52.1365 242.218C49.9738 241.723 48.0633 240.891 46.4048 239.723C44.7273 238.639 43.3565 237.362 42.2924 235.892C41.2282 234.423 40.4934 232.854 40.0877 231.185C39.682 229.517 39.6602 227.892 40.0222 226.312ZM92.5586 143.142C92.1966 144.723 91.1977 146.026 89.562 147.052C88.0285 148.014 86.4715 148.314 84.8911 147.952C83.3107 147.59 81.998 146.632 80.9529 145.08C80.0101 143.463 79.7197 141.865 80.0817 140.284C80.4437 138.704 81.3915 137.433 82.9249 136.471C84.5607 135.445 86.1687 135.113 87.7491 135.475C89.3295 135.837 90.5911 136.826 91.534 138.443C92.579 139.995 92.9206 141.562 92.5586 143.142Z" fill="#6E6949"/>
<path d="M101.936 193.715C101.649 199.169 101.793 203.748 102.368 207.453C103.028 211.162 103.936 214.2 105.094 216.568C106.341 218.855 107.749 220.51 109.319 221.533C110.974 222.559 112.697 223.12 114.486 223.214C116.702 223.33 118.812 223.014 120.817 222.264C122.822 221.515 124.629 220.456 126.239 219.088C127.849 217.72 129.176 216.038 130.221 214.042C131.351 212.051 132.149 209.871 132.615 207.503L134.532 207.603C134.048 210.312 133.147 212.828 131.829 215.152C130.6 217.395 129.046 219.321 127.167 220.931C125.288 222.542 123.131 223.753 120.696 224.565C118.342 225.467 115.801 225.846 113.074 225.703C109.836 225.533 106.804 224.69 103.978 223.175C101.157 221.574 98.6649 219.392 96.5028 216.63C94.4303 213.787 92.813 210.412 91.6509 206.506C90.5784 202.519 90.1719 198.054 90.4314 193.111C90.6998 187.998 91.576 183.515 93.0601 179.663C94.5441 175.81 96.3758 172.659 98.5552 170.21C100.824 167.68 103.358 165.805 106.157 164.584C109.04 163.369 112.016 162.841 115.084 163.002C118.152 163.163 121.013 163.997 123.668 165.504C126.409 167.015 128.733 169.145 130.639 171.894C132.635 174.562 134.17 177.89 135.242 181.877C136.314 185.864 136.716 190.414 136.448 195.527L101.936 193.715ZM114.983 164.92C113.705 164.853 112.404 165.212 111.081 165.997C109.763 166.696 108.496 168.04 107.281 170.027C106.066 172.014 104.983 174.734 104.032 178.188C103.172 181.561 102.518 185.884 102.07 191.159L125.078 192.367C125.185 187.074 124.944 182.704 124.356 179.255C123.858 175.725 123.109 172.909 122.108 170.805C121.108 168.702 119.989 167.233 118.751 166.399C117.517 165.48 116.261 164.987 114.983 164.92Z" fill="#6E6949"/>
<path d="M159.234 167.493C157.716 168.064 156.379 169.115 155.223 170.644C154.116 172.064 153.354 174.037 152.938 176.565C152.521 179.092 152.56 182.223 153.054 185.958C153.628 189.662 154.877 194.07 156.801 199.182C158.725 204.293 160.693 208.43 162.704 211.594C164.795 214.727 166.886 217.132 168.975 218.807C171.035 220.402 173.028 221.339 174.956 221.616C176.964 221.863 178.886 221.641 180.723 220.95C182.8 220.168 184.606 219.032 186.142 217.542C187.679 216.052 188.91 214.358 189.836 212.459C190.763 210.56 191.305 208.487 191.462 206.24C191.698 203.962 191.556 201.645 191.033 199.289L192.83 198.612C193.473 201.288 193.656 203.955 193.38 206.612C193.153 209.159 192.502 211.547 191.426 213.775C190.35 216.004 188.859 217.978 186.954 219.698C185.158 221.468 182.983 222.834 180.427 223.796C177.313 224.969 174.077 225.457 170.721 225.262C167.415 224.956 164.218 223.971 161.129 222.307C158.011 220.563 155.137 218.135 152.506 215.022C149.925 211.799 147.763 207.872 146.02 203.24C144.276 198.608 143.327 194.269 143.172 190.225C143.067 186.07 143.587 182.364 144.731 179.107C145.846 175.769 147.48 172.966 149.635 170.696C151.759 168.346 154.259 166.63 157.134 165.548C159.05 164.827 160.848 164.515 162.526 164.613C164.284 164.68 165.817 164.878 167.126 165.206C168.654 165.634 170.068 166.241 171.368 167.029C171.236 165.71 171.454 164.352 172.022 162.953C172.669 161.524 173.372 160.484 174.13 159.834L175.927 159.158C176.158 160.256 176.444 161.379 176.785 162.527C177.066 163.516 177.377 164.584 177.718 165.732C178.139 166.85 178.545 167.928 178.936 168.967C179.387 170.165 179.853 171.403 180.334 172.68C180.864 173.848 181.35 174.896 181.791 175.825C182.292 176.913 182.817 177.946 183.368 178.924L181.571 179.6C177.889 174.421 173.984 170.831 169.857 168.828C165.81 166.796 162.268 166.351 159.234 167.493Z" fill="#6E6949"/>
<path d="M102.38 116.632L109.482 120.128L109.213 121.379L84.1881 115.982L84.4579 114.73L92.3701 114.473L103.435 63.1727L96.3329 59.6766L96.6027 58.4254L114.12 62.2038L110.881 77.2185C112.631 74.366 114.527 71.8505 116.568 69.6719C118.371 67.791 120.42 66.1816 122.717 64.8437C125.013 63.5058 127.496 63.1247 130.165 63.7005C131.083 63.8984 131.94 64.1707 132.739 64.5175C133.555 64.7808 134.279 65.0679 134.91 65.3786C135.607 65.7908 136.229 66.1433 136.777 66.4361L130.999 75.0106C130.553 74.6524 130.073 74.2435 129.561 73.7839C129.115 73.4257 128.534 73.0822 127.819 72.7535C127.206 72.3593 126.524 72.0812 125.773 71.9193C123.605 71.4515 121.56 71.6216 119.64 72.4295C117.72 73.2375 116.064 74.2335 114.674 75.4177C112.98 76.7981 111.491 78.4411 110.207 80.3465L102.38 116.632Z" fill="#6E6949"/>
<path d="M210.461 120.312L210.78 122.852L196.174 124.683L201.251 165.198C201.899 170.363 203.302 174.014 205.462 176.151C207.611 178.204 209.787 179.092 211.988 178.816C214.867 178.455 217.148 177.095 218.83 174.734C220.586 172.278 221.373 168.954 221.192 164.763L223.097 164.524C223.363 169.393 222.354 173.346 220.069 176.385C217.857 179.328 214.847 181.038 211.037 181.515C205.618 182.195 201.103 181.169 197.493 178.44C193.872 175.625 191.744 171.678 191.107 166.598L186.013 125.956L175.218 127.309L174.9 124.769L185.695 123.416L183.865 108.81L193.15 100.551L195.856 122.142L210.461 120.312Z" fill="#6E6949"/>
</svg>
