<svg width="114" height="90" viewBox="0 0 114 90" fill="none" xmlns="http://www.w3.org/2000/svg">
<path d="M12.0312 8.67188H10.8125V0.390625H12.0312V8.67188ZM7.42188 9C8.38021 9 9.21094 9.10417 9.91406 9.3125C10.6172 9.52083 11.1562 9.82031 11.5312 10.2109C11.9062 10.6016 12.0938 11.0729 12.0938 11.625C12.0938 12.1667 11.9062 12.6302 11.5312 13.0156C11.1562 13.401 10.6172 13.6979 9.91406 13.9062C9.21094 14.1146 8.38021 14.2188 7.42188 14.2188C6.46354 14.2188 5.63021 14.1146 4.92188 13.9062C4.21354 13.6979 3.67188 13.401 3.29688 13.0156C2.92188 12.6302 2.73438 12.1667 2.73438 11.625C2.73438 11.0729 2.92188 10.6016 3.29688 10.2109C3.67188 9.82031 4.21354 9.52083 4.92188 9.3125C5.63021 9.10417 6.46354 9 7.42188 9ZM7.42188 9.96875C6.70312 9.96875 6.08333 10.0339 5.5625 10.1641C5.04167 10.2943 4.64062 10.4844 4.35938 10.7344C4.07812 10.9844 3.9375 11.2812 3.9375 11.625C3.9375 11.9583 4.07812 12.2474 4.35938 12.4922C4.64062 12.737 5.04427 12.9245 5.57031 13.0547C6.09635 13.1849 6.71354 13.25 7.42188 13.25C8.13021 13.25 8.74479 13.1849 9.26562 13.0547C9.78646 12.9245 10.1875 12.737 10.4688 12.4922C10.75 12.2474 10.8906 11.9583 10.8906 11.625C10.8906 11.2812 10.7526 10.9844 10.4766 10.7344C10.2005 10.4844 9.80208 10.2943 9.28125 10.1641C8.76042 10.0339 8.14062 9.96875 7.42188 9.96875ZM5.26562 2.35938C5.26562 3.23438 5.09896 4.0599 4.76562 4.83594C4.43229 5.61198 3.97135 6.28906 3.38281 6.86719C2.79427 7.44531 2.11458 7.88542 1.34375 8.1875L0.703125 7.20312C1.39062 6.94271 2.0026 6.5651 2.53906 6.07031C3.07552 5.57552 3.49219 5.00781 3.78906 4.36719C4.08594 3.72656 4.23438 3.05729 4.23438 2.35938V1.01562H5.26562V2.35938ZM5.48438 2.35938C5.48438 3.01562 5.63281 3.64062 5.92969 4.23438C6.22656 4.82812 6.64323 5.34896 7.17969 5.79688C7.71615 6.24479 8.32812 6.58854 9.01562 6.82812L8.39062 7.8125C7.61979 7.53125 6.9375 7.125 6.34375 6.59375C5.75 6.0625 5.28646 5.43229 4.95312 4.70312C4.61979 3.97396 4.45312 3.19271 4.45312 2.35938V1.01562H5.48438V2.35938ZM25.8594 8.67188H24.6406V0.390625H25.8594V8.67188ZM21.25 9C22.2083 9 23.0391 9.10417 23.7422 9.3125C24.4453 9.52083 24.9844 9.82031 25.3594 10.2109C25.7344 10.6016 25.9219 11.0729 25.9219 11.625C25.9219 12.1667 25.7344 12.6302 25.3594 13.0156C24.9844 13.401 24.4453 13.6979 23.7422 13.9062C23.0391 14.1146 22.2083 14.2188 21.25 14.2188C20.2917 14.2188 19.4583 14.1146 18.75 13.9062C18.0417 13.6979 17.5 13.401 17.125 13.0156C16.75 12.6302 16.5625 12.1667 16.5625 11.625C16.5625 11.0729 16.75 10.6016 17.125 10.2109C17.5 9.82031 18.0417 9.52083 18.75 9.3125C19.4583 9.10417 20.2917 9 21.25 9ZM21.25 9.96875C20.5312 9.96875 19.9115 10.0339 19.3906 10.1641C18.8698 10.2943 18.4688 10.4844 18.1875 10.7344C17.9062 10.9844 17.7656 11.2812 17.7656 11.625C17.7656 11.9583 17.9062 12.2474 18.1875 12.4922C18.4688 12.737 18.8724 12.9245 19.3984 13.0547C19.9245 13.1849 20.5417 13.25 21.25 13.25C21.9583 13.25 22.5729 13.1849 23.0938 13.0547C23.6146 12.9245 24.0156 12.737 24.2969 12.4922C24.5781 12.2474 24.7188 11.9583 24.7188 11.625C24.7188 11.2812 24.5807 10.9844 24.3047 10.7344C24.0286 10.4844 23.6302 10.2943 23.1094 10.1641C22.5885 10.0339 21.9688 9.96875 21.25 9.96875ZM19.0938 2.35938C19.0938 3.23438 18.9271 4.0599 18.5938 4.83594C18.2604 5.61198 17.7995 6.28906 17.2109 6.86719C16.6224 7.44531 15.9427 7.88542 15.1719 8.1875L14.5312 7.20312C15.2188 6.94271 15.8307 6.5651 16.3672 6.07031C16.9036 5.57552 17.3203 5.00781 17.6172 4.36719C17.9141 3.72656 18.0625 3.05729 18.0625 2.35938V1.01562H19.0938V2.35938ZM19.3125 2.35938C19.3125 3.01562 19.4609 3.64062 19.7578 4.23438C20.0547 4.82812 20.4714 5.34896 21.0078 5.79688C21.5443 6.24479 22.1562 6.58854 22.8438 6.82812L22.2188 7.8125C21.4479 7.53125 20.7656 7.125 20.1719 6.59375C19.5781 6.0625 19.1146 5.43229 18.7812 4.70312C18.4479 3.97396 18.2812 3.19271 18.2812 2.35938V1.01562H19.3125V2.35938ZM38.5938 2.79688H29.5625V1.78125H38.5938V2.79688ZM40.875 12.2969H28.2188V11.2812H40.875V12.2969ZM34.3906 11.8125H33.1875V6.3125H34.3906V11.8125ZM39.3594 3.17188C39.3594 3.99479 39.349 4.67969 39.3281 5.22656C39.3073 5.77344 39.2604 6.41927 39.1875 7.16406C39.1146 7.90885 39 8.71354 38.8438 9.57812L37.5938 9.4375C37.7604 8.61458 37.8828 7.83854 37.9609 7.10938C38.0391 6.38021 38.0859 5.73177 38.1016 5.16406C38.1172 4.59635 38.125 3.93229 38.125 3.17188V1.78125H39.3594V3.17188ZM46.75 1.6875H50.5938C51.4583 1.6875 52.1797 1.83333 52.7578 2.125C53.3359 2.41667 53.763 2.82552 54.0391 3.35156C54.3151 3.8776 54.4531 4.48438 54.4531 5.17188C54.4531 5.84896 54.3151 6.44531 54.0391 6.96094C53.763 7.47656 53.3359 7.88021 52.7578 8.17188C52.1797 8.46354 51.4635 8.60938 50.6094 8.60938H47.5156V7.32812H50.5469C51.1406 7.32812 51.6224 7.24219 51.9922 7.07031C52.362 6.89844 52.6328 6.65365 52.8047 6.33594C52.9766 6.01823 53.0625 5.63021 53.0625 5.17188C53.0625 4.70312 52.9766 4.30208 52.8047 3.96875C52.6328 3.63542 52.3594 3.38021 51.9844 3.20312C51.6094 3.02604 51.125 2.9375 50.5312 2.9375H48.1562V13H46.75V1.6875ZM54.8906 13H53.25L50.5156 7.92188H52.1094L54.8906 13ZM59.7812 13.1719C58.9792 13.1719 58.2786 12.9922 57.6797 12.6328C57.0807 12.2734 56.6198 11.7656 56.2969 11.1094C55.974 10.4531 55.8125 9.69271 55.8125 8.82812C55.8125 7.96354 55.974 7.19531 56.2969 6.52344C56.6198 5.85156 57.0703 5.33073 57.6484 4.96094C58.2266 4.59115 58.8958 4.40625 59.6562 4.40625C60.3021 4.40625 60.901 4.54688 61.4531 4.82812C62.0052 5.10938 62.4531 5.56771 62.7969 6.20312C63.1406 6.83854 63.3125 7.65104 63.3125 8.64062V9.20312H56.75V8.0625H61.9531C61.9531 7.58333 61.8594 7.15885 61.6719 6.78906C61.4844 6.41927 61.2161 6.1276 60.8672 5.91406C60.5182 5.70052 60.1146 5.59375 59.6562 5.59375C59.1562 5.59375 58.7188 5.71615 58.3438 5.96094C57.9688 6.20573 57.6771 6.53385 57.4688 6.94531C57.2604 7.35677 57.1562 7.79688 57.1562 8.26562V9.03125C57.1562 9.65625 57.2656 10.1901 57.4844 10.6328C57.7031 11.0755 58.0104 11.4115 58.4062 11.6406C58.8021 11.8698 59.2604 11.9844 59.7812 11.9844C60.1042 11.9844 60.3958 11.9401 60.6562 11.8516C60.9167 11.763 61.138 11.6484 61.3203 11.5078C61.5026 11.3672 61.6458 11.2031 61.75 11.0156H63.1875C63.0521 11.4427 62.8281 11.8177 62.5156 12.1406C62.2031 12.4635 61.8125 12.7161 61.3438 12.8984C60.875 13.0807 60.3542 13.1719 59.7812 13.1719ZM68.5 16.3594C67.8229 16.3594 67.2214 16.263 66.6953 16.0703C66.1693 15.8776 65.7526 15.5964 65.4453 15.2266C65.138 14.8568 64.9583 14.4115 64.9062 13.8906H66.3125C66.4062 14.3177 66.6432 14.6406 67.0234 14.8594C67.4036 15.0781 67.8958 15.1875 68.5 15.1875C69.25 15.1875 69.8281 15.0208 70.2344 14.6875C70.6406 14.3542 70.8438 13.8438 70.8438 13.1562V11.4375H70.7344C70.5885 11.6875 70.4323 11.9089 70.2656 12.1016C70.099 12.2943 69.849 12.4714 69.5156 12.6328C69.1823 12.7943 68.7656 12.875 68.2656 12.875C67.5781 12.875 66.9609 12.7057 66.4141 12.3672C65.8672 12.0286 65.4375 11.5391 65.125 10.8984C64.8125 10.2578 64.6562 9.50521 64.6562 8.64062C64.6562 7.78646 64.8099 7.03906 65.1172 6.39844C65.4245 5.75781 65.8516 5.26562 66.3984 4.92188C66.9453 4.57812 67.5729 4.40625 68.2812 4.40625C68.7812 4.40625 69.1953 4.48698 69.5234 4.64844C69.8516 4.8099 70.0885 4.97396 70.2344 5.14062C70.3802 5.30729 70.5573 5.54688 70.7656 5.85938H70.875V4.51562H72.1875V13.2344C72.1875 13.9323 72.0286 14.5156 71.7109 14.9844C71.3932 15.4531 70.9583 15.7995 70.4062 16.0234C69.8542 16.2474 69.2188 16.3594 68.5 16.3594ZM68.4531 11.6719C68.9635 11.6719 69.401 11.5521 69.7656 11.3125C70.1302 11.0729 70.4062 10.7318 70.5938 10.2891C70.7812 9.84635 70.875 9.3125 70.875 8.6875C70.875 8.07292 70.7812 7.53385 70.5938 7.07031C70.4062 6.60677 70.1328 6.2474 69.7734 5.99219C69.4141 5.73698 68.974 5.60938 68.4531 5.60938C67.9323 5.60938 67.4896 5.74479 67.125 6.01562C66.7604 6.28646 66.4844 6.65365 66.2969 7.11719C66.1094 7.58073 66.0156 8.10417 66.0156 8.6875C66.0156 9.28125 66.1094 9.80208 66.2969 10.25C66.4844 10.6979 66.7604 11.0469 67.125 11.2969C67.4896 11.5469 67.9323 11.6719 68.4531 11.6719ZM79.6875 4.51562H81.0156V13H79.6875V11.5625H79.5938C79.375 12.0208 79.0547 12.3932 78.6328 12.6797C78.2109 12.9661 77.6927 13.1094 77.0781 13.1094C76.5365 13.1094 76.0599 12.9896 75.6484 12.75C75.237 12.5104 74.9141 12.151 74.6797 11.6719C74.4453 11.1927 74.3281 10.6042 74.3281 9.90625V4.51562H75.6719V9.8125C75.6719 10.2083 75.75 10.5573 75.9062 10.8594C76.0625 11.1615 76.2812 11.3958 76.5625 11.5625C76.8438 11.7292 77.1615 11.8125 77.5156 11.8125C77.8594 11.8125 78.1979 11.7266 78.5312 11.5547C78.8646 11.3828 79.1406 11.1224 79.3594 10.7734C79.5781 10.4245 79.6875 10.0052 79.6875 9.51562V4.51562ZM84.5156 13H83.1719V1.6875H84.5156V13ZM91.8438 9.0625C91.75 9.0625 91.2969 9.09375 90.4844 9.15625L89.5938 9.21875C88.9583 9.26042 88.4661 9.39844 88.1172 9.63281C87.7682 9.86719 87.5938 10.2083 87.5938 10.6562C87.5938 10.9479 87.6693 11.1927 87.8203 11.3906C87.9714 11.5885 88.1823 11.7396 88.4531 11.8438C88.724 11.9479 89.0312 12 89.375 12C89.8646 12 90.2865 11.9036 90.6406 11.7109C90.9948 11.5182 91.2656 11.263 91.4531 10.9453C91.6406 10.6276 91.7344 10.2865 91.7344 9.92188V7.28125C91.7344 6.91667 91.6641 6.60677 91.5234 6.35156C91.3828 6.09635 91.1693 5.90365 90.8828 5.77344C90.5964 5.64323 90.2396 5.57812 89.8125 5.57812C89.3021 5.57812 88.8828 5.68229 88.5547 5.89062C88.2266 6.09896 88.0104 6.375 87.9062 6.71875H86.5C86.5625 6.26042 86.7422 5.85677 87.0391 5.50781C87.3359 5.15885 87.7292 4.88802 88.2188 4.69531C88.7083 4.5026 89.2604 4.40625 89.875 4.40625C90.3646 4.40625 90.8438 4.47917 91.3125 4.625C91.7812 4.77083 92.1901 5.0651 92.5391 5.50781C92.888 5.95052 93.0625 6.58333 93.0625 7.40625V13H91.7344V11.8438H91.6719C91.5677 12.0625 91.4089 12.2734 91.1953 12.4766C90.9818 12.6797 90.7005 12.8516 90.3516 12.9922C90.0026 13.1328 89.599 13.2031 89.1406 13.2031C88.599 13.2031 88.1094 13.099 87.6719 12.8906C87.2344 12.6823 86.888 12.3802 86.6328 11.9844C86.3776 11.5885 86.25 11.125 86.25 10.5938C86.25 9.70833 86.5521 9.08594 87.1562 8.72656C87.7604 8.36719 88.5208 8.15625 89.4375 8.09375C89.5417 8.08333 90.0417 8.05208 90.9375 8L91.8281 7.96875L91.8438 9.0625ZM95.2188 4.51562H96.5156V5.8125H96.6094C96.7656 5.375 97.0443 5.02604 97.4453 4.76562C97.8464 4.50521 98.2969 4.375 98.7969 4.375C99.0573 4.375 99.2917 4.38542 99.5 4.40625V5.76562C99.4479 5.74479 99.3385 5.72396 99.1719 5.70312C99.0052 5.68229 98.8438 5.67188 98.6875 5.67188C98.2917 5.67188 97.9323 5.75781 97.6094 5.92969C97.2865 6.10156 97.0312 6.33854 96.8438 6.64062C96.6562 6.94271 96.5625 7.28125 96.5625 7.65625V13H95.2188V4.51562ZM12.125 33.6562H10.6484V25.3359H12.125V33.6562ZM7.45312 33.9609C8.42188 33.9609 9.26302 34.0677 9.97656 34.2812C10.6901 34.4896 11.237 34.7943 11.6172 35.1953C12.0026 35.5911 12.1953 36.0703 12.1953 36.6328C12.1953 37.1849 12.0026 37.6562 11.6172 38.0469C11.237 38.4427 10.6901 38.7448 9.97656 38.9531C9.26302 39.1667 8.42188 39.2734 7.45312 39.2734C6.48438 39.2734 5.64062 39.1667 4.92188 38.9531C4.20312 38.7448 3.65104 38.4427 3.26562 38.0469C2.88542 37.6562 2.69531 37.1849 2.69531 36.6328C2.69531 36.0703 2.88542 35.5911 3.26562 35.1953C3.65104 34.7943 4.20312 34.4896 4.92188 34.2812C5.64062 34.0677 6.48438 33.9609 7.45312 33.9609ZM7.45312 35.1172C6.76042 35.1172 6.16927 35.1771 5.67969 35.2969C5.1901 35.4115 4.8151 35.5833 4.55469 35.8125C4.29427 36.0365 4.16406 36.3099 4.16406 36.6328C4.16406 36.9453 4.29427 37.2135 4.55469 37.4375C4.8151 37.6562 5.19271 37.8255 5.6875 37.9453C6.18229 38.0599 6.77083 38.1172 7.45312 38.1172C8.13542 38.1172 8.72135 38.0599 9.21094 37.9453C9.70573 37.8255 10.0833 37.6562 10.3438 37.4375C10.6094 37.2135 10.7422 36.9453 10.7422 36.6328C10.7422 36.3099 10.612 36.0365 10.3516 35.8125C10.0964 35.5833 9.72135 35.4115 9.22656 35.2969C8.73698 35.1771 8.14583 35.1172 7.45312 35.1172ZM5.32812 27.3047C5.32812 28.2005 5.16667 29.0443 4.84375 29.8359C4.52083 30.6224 4.0599 31.3099 3.46094 31.8984C2.86719 32.487 2.16406 32.9323 1.35156 33.2344L0.59375 32.0469C1.30729 31.7865 1.92708 31.4141 2.45312 30.9297C2.98438 30.4401 3.39062 29.8828 3.67188 29.2578C3.95312 28.6328 4.09375 27.9818 4.09375 27.3047V25.9531H5.32812V27.3047ZM5.61719 27.3047C5.61719 27.9505 5.75521 28.5625 6.03125 29.1406C6.30729 29.7135 6.70833 30.2214 7.23438 30.6641C7.76042 31.1016 8.3776 31.4401 9.08594 31.6797L8.33594 32.8594C7.52865 32.5781 6.82552 32.1667 6.22656 31.625C5.63281 31.0833 5.17448 30.4427 4.85156 29.7031C4.52865 28.9583 4.36719 28.1589 4.36719 27.3047V25.9531H5.61719V27.3047ZM25.9531 33.6562H24.4766V25.3359H25.9531V33.6562ZM21.2812 33.9609C22.25 33.9609 23.0911 34.0677 23.8047 34.2812C24.5182 34.4896 25.0651 34.7943 25.4453 35.1953C25.8307 35.5911 26.0234 36.0703 26.0234 36.6328C26.0234 37.1849 25.8307 37.6562 25.4453 38.0469C25.0651 38.4427 24.5182 38.7448 23.8047 38.9531C23.0911 39.1667 22.25 39.2734 21.2812 39.2734C20.3125 39.2734 19.4688 39.1667 18.75 38.9531C18.0312 38.7448 17.4792 38.4427 17.0938 38.0469C16.7135 37.6562 16.5234 37.1849 16.5234 36.6328C16.5234 36.0703 16.7135 35.5911 17.0938 35.1953C17.4792 34.7943 18.0312 34.4896 18.75 34.2812C19.4688 34.0677 20.3125 33.9609 21.2812 33.9609ZM21.2812 35.1172C20.5885 35.1172 19.9974 35.1771 19.5078 35.2969C19.0182 35.4115 18.6432 35.5833 18.3828 35.8125C18.1224 36.0365 17.9922 36.3099 17.9922 36.6328C17.9922 36.9453 18.1224 37.2135 18.3828 37.4375C18.6432 37.6562 19.0208 37.8255 19.5156 37.9453C20.0104 38.0599 20.599 38.1172 21.2812 38.1172C21.9635 38.1172 22.5495 38.0599 23.0391 37.9453C23.5339 37.8255 23.9115 37.6562 24.1719 37.4375C24.4375 37.2135 24.5703 36.9453 24.5703 36.6328C24.5703 36.3099 24.4401 36.0365 24.1797 35.8125C23.9245 35.5833 23.5495 35.4115 23.0547 35.2969C22.5651 35.1771 21.974 35.1172 21.2812 35.1172ZM19.1562 27.3047C19.1562 28.2005 18.9948 29.0443 18.6719 29.8359C18.349 30.6224 17.888 31.3099 17.2891 31.8984C16.6953 32.487 15.9922 32.9323 15.1797 33.2344L14.4219 32.0469C15.1354 31.7865 15.7552 31.4141 16.2812 30.9297C16.8125 30.4401 17.2188 29.8828 17.5 29.2578C17.7812 28.6328 17.9219 27.9818 17.9219 27.3047V25.9531H19.1562V27.3047ZM19.4453 27.3047C19.4453 27.9505 19.5833 28.5625 19.8594 29.1406C20.1354 29.7135 20.5365 30.2214 21.0625 30.6641C21.5885 31.1016 22.2057 31.4401 22.9141 31.6797L22.1641 32.8594C21.3568 32.5781 20.6536 32.1667 20.0547 31.625C19.4609 31.0833 19.0026 30.4427 18.6797 29.7031C18.3568 28.9583 18.1953 28.1589 18.1953 27.3047V25.9531H19.4453V27.3047ZM38.5703 27.875H29.5156V26.6719H38.5703V27.875ZM40.9375 37.4297H28.1719V36.2109H40.9375V37.4297ZM34.4922 36.8438H33.0312V31.2734H34.4922V36.8438ZM39.5 28.0469C39.5 28.875 39.4896 29.5703 39.4688 30.1328C39.4479 30.6901 39.401 31.3516 39.3281 32.1172C39.2552 32.8776 39.138 33.7005 38.9766 34.5859L37.4688 34.4219C37.6406 33.5833 37.7656 32.7917 37.8438 32.0469C37.9219 31.3021 37.9688 30.6432 37.9844 30.0703C38.0052 29.4922 38.0156 28.8177 38.0156 28.0469V26.6719H39.5V28.0469ZM48.6328 26.6875L52.2266 35.4531H52.3594L55.9531 26.6875H58.0391V38H56.3984V29.8281H56.2891L52.9609 37.9844H51.6094L48.2812 29.8281H48.1875V38H46.5469V26.6875H48.6328ZM63.8672 38.1719C63.0495 38.1719 62.3333 37.9922 61.7188 37.6328C61.1094 37.2734 60.6406 36.7656 60.3125 36.1094C59.9844 35.4531 59.8203 34.6901 59.8203 33.8203C59.8203 32.9505 59.9844 32.1823 60.3125 31.5156C60.6406 30.8438 61.1016 30.3255 61.6953 29.9609C62.2891 29.5911 62.974 29.4062 63.75 29.4062C64.4375 29.4062 65.0651 29.5547 65.6328 29.8516C66.2005 30.1432 66.6562 30.6094 67 31.25C67.3438 31.8854 67.5156 32.6901 67.5156 33.6641V34.25H60.7578V33.0078H65.8828C65.8828 32.5755 65.7943 32.1927 65.6172 31.8594C65.4453 31.5208 65.1979 31.2552 64.875 31.0625C64.5521 30.8698 64.1823 30.7734 63.7656 30.7734C63.3125 30.7734 62.9141 30.8828 62.5703 31.1016C62.2266 31.3203 61.9583 31.6146 61.7656 31.9844C61.5729 32.3542 61.4766 32.75 61.4766 33.1719V34.1406C61.4766 34.6979 61.5755 35.1771 61.7734 35.5781C61.9766 35.9792 62.2578 36.2839 62.6172 36.4922C62.9818 36.7005 63.401 36.8047 63.875 36.8047C64.1771 36.8047 64.4505 36.763 64.6953 36.6797C64.9401 36.5911 65.1484 36.4818 65.3203 36.3516C65.4922 36.2161 65.625 36.0573 65.7188 35.875H67.4141C67.2891 36.3333 67.0651 36.7344 66.7422 37.0781C66.4193 37.4219 66.0104 37.6901 65.5156 37.8828C65.026 38.0755 64.4766 38.1719 63.8672 38.1719ZM72.3359 38.1562C71.6536 38.1562 71.0417 37.9818 70.5 37.6328C69.9635 37.2786 69.5417 36.7708 69.2344 36.1094C68.9323 35.4427 68.7812 34.6641 68.7812 33.7734C68.7812 32.8724 68.9349 32.0938 69.2422 31.4375C69.5495 30.776 69.9714 30.2734 70.5078 29.9297C71.0495 29.5807 71.6641 29.4062 72.3516 29.4062C72.8307 29.4062 73.2344 29.4844 73.5625 29.6406C73.8906 29.7969 74.138 29.974 74.3047 30.1719C74.4714 30.3698 74.6328 30.6068 74.7891 30.8828H74.875V26.6875H76.5469V38H74.9141V36.6875H74.7891C74.6224 36.9583 74.4557 37.1927 74.2891 37.3906C74.1224 37.5833 73.875 37.7604 73.5469 37.9219C73.2188 38.0781 72.8151 38.1562 72.3359 38.1562ZM72.7031 36.7422C73.1719 36.7422 73.5729 36.6172 73.9062 36.3672C74.2396 36.1172 74.4922 35.7682 74.6641 35.3203C74.8359 34.8672 74.9219 34.3438 74.9219 33.75C74.9219 33.1562 74.8385 32.6406 74.6719 32.2031C74.5052 31.7656 74.2526 31.4271 73.9141 31.1875C73.5807 30.9479 73.1771 30.8281 72.7031 30.8281C72.2292 30.8281 71.8255 30.9531 71.4922 31.2031C71.1589 31.4479 70.9062 31.7917 70.7344 32.2344C70.5625 32.6771 70.4766 33.1823 70.4766 33.75C70.4766 34.3281 70.5625 34.8438 70.7344 35.2969C70.9062 35.7448 71.1589 36.099 71.4922 36.3594C71.8255 36.6146 72.2292 36.7422 72.7031 36.7422ZM78.7266 29.5156H80.3906V38H78.7266V29.5156ZM79.5547 28.2031C79.3672 28.2031 79.1927 28.1615 79.0312 28.0781C78.8698 27.9896 78.7422 27.8698 78.6484 27.7188C78.5547 27.5625 78.5078 27.3958 78.5078 27.2188C78.5078 27.0365 78.5547 26.8724 78.6484 26.7266C78.7422 26.5755 78.8698 26.4557 79.0312 26.3672C79.1927 26.2786 79.3672 26.2344 79.5547 26.2344C79.7526 26.2344 79.9323 26.2786 80.0938 26.3672C80.2552 26.4557 80.3802 26.5755 80.4688 26.7266C80.5625 26.8724 80.6094 27.0365 80.6094 27.2188C80.6094 27.3958 80.5625 27.5625 80.4688 27.7188C80.3802 27.8698 80.2552 27.9896 80.0938 28.0781C79.9323 28.1615 79.7526 28.2031 79.5547 28.2031ZM87.8125 29.5156H89.4688V38H87.8438V36.5312H87.75C87.5365 37.0052 87.2135 37.388 86.7812 37.6797C86.3542 37.9661 85.8333 38.1094 85.2188 38.1094C84.6667 38.1094 84.1823 37.987 83.7656 37.7422C83.349 37.4974 83.0208 37.1354 82.7812 36.6562C82.5469 36.1719 82.4297 35.5885 82.4297 34.9062V29.5156H84.0938V34.7109C84.0938 35.0859 84.1641 35.4167 84.3047 35.7031C84.4505 35.9844 84.6536 36.2031 84.9141 36.3594C85.1797 36.5156 85.4792 36.5938 85.8125 36.5938C86.1406 36.5938 86.4583 36.513 86.7656 36.3516C87.0729 36.1901 87.3229 35.9479 87.5156 35.625C87.7135 35.3021 87.8125 34.9167 87.8125 34.4688V29.5156ZM91.5078 29.5156H93.1016V30.8984H93.2109C93.3984 30.4245 93.6901 30.0573 94.0859 29.7969C94.4818 29.5365 94.9583 29.4062 95.5156 29.4062C95.8854 29.4062 96.2188 29.4635 96.5156 29.5781C96.8177 29.6927 97.0755 29.862 97.2891 30.0859C97.5026 30.3099 97.6719 30.5807 97.7969 30.8984H97.8828C98.0234 30.5859 98.2161 30.3203 98.4609 30.1016C98.7057 29.8776 98.9948 29.7057 99.3281 29.5859C99.6667 29.4661 100.036 29.4062 100.438 29.4062C100.964 29.4062 101.422 29.5156 101.812 29.7344C102.203 29.9531 102.508 30.2786 102.727 30.7109C102.951 31.1432 103.062 31.6797 103.062 32.3203V38H101.391V32.4766C101.391 31.9245 101.242 31.5156 100.945 31.25C100.648 30.9792 100.268 30.8438 99.8047 30.8438C99.4505 30.8438 99.1458 30.9193 98.8906 31.0703C98.6354 31.2161 98.4401 31.4219 98.3047 31.6875C98.1693 31.9479 98.1016 32.25 98.1016 32.5938V38H96.4453V32.3594C96.4453 32.0625 96.3802 31.7995 96.25 31.5703C96.125 31.3359 95.9453 31.1562 95.7109 31.0312C95.4766 30.9062 95.2083 30.8438 94.9062 30.8438C94.599 30.8438 94.3125 30.9245 94.0469 31.0859C93.7812 31.2474 93.5677 31.474 93.4062 31.7656C93.25 32.0573 93.1719 32.3906 93.1719 32.7656V38H91.5078V29.5156ZM12.2266 58.6484H10.4844V50.2812H12.2266V58.6484ZM7.48438 58.9219C8.46875 58.9167 9.32031 59.0234 10.0391 59.2422C10.763 59.4557 11.3203 59.7656 11.7109 60.1719C12.1016 60.5781 12.2969 61.0677 12.2969 61.6406C12.2969 62.1979 12.1016 62.6771 11.7109 63.0781C11.3203 63.4844 10.763 63.7943 10.0391 64.0078C9.32031 64.2214 8.46875 64.3281 7.48438 64.3281C6.5 64.3281 5.64323 64.2214 4.91406 64.0078C4.1849 63.7943 3.6276 63.4844 3.24219 63.0781C2.85677 62.6771 2.66406 62.1979 2.66406 61.6406C2.66406 61.0677 2.85677 60.5781 3.24219 60.1719C3.6276 59.7656 4.1849 59.4557 4.91406 59.2422C5.64323 59.0234 6.5 58.9167 7.48438 58.9219ZM7.48438 60.2656C6.82292 60.2656 6.26042 60.3177 5.79688 60.4219C5.33854 60.526 4.98698 60.6797 4.74219 60.8828C4.5026 61.0859 4.38281 61.3385 4.38281 61.6406C4.38281 61.9271 4.5026 62.1719 4.74219 62.375C4.98698 62.5781 5.34115 62.7318 5.80469 62.8359C6.26823 62.9349 6.82812 62.9844 7.48438 62.9844C8.14062 62.9844 8.70052 62.9349 9.16406 62.8359C9.6276 62.7318 9.98177 62.5781 10.2266 62.375C10.4714 62.1719 10.5938 61.9271 10.5938 61.6406C10.5938 61.3385 10.4714 61.0859 10.2266 60.8828C9.98698 60.6797 9.63542 60.526 9.17188 60.4219C8.71354 60.3177 8.15104 60.2656 7.48438 60.2656ZM5.39844 52.25C5.39844 53.1667 5.23958 54.026 4.92188 54.8281C4.60417 55.6302 4.14323 56.3307 3.53906 56.9297C2.9349 57.5234 2.20833 57.9714 1.35938 58.2734L0.484375 56.8828C1.22396 56.6276 1.85417 56.2604 2.375 55.7812C2.90104 55.3021 3.29427 54.7604 3.55469 54.1562C3.8151 53.5469 3.94531 52.9115 3.94531 52.25V50.8906H5.39844V52.25ZM5.74219 52.25C5.74219 52.8802 5.86979 53.4766 6.125 54.0391C6.38021 54.5964 6.76562 55.0911 7.28125 55.5234C7.79688 55.9557 8.41927 56.2917 9.14844 56.5312L8.28125 57.8984C7.4375 57.6172 6.71615 57.2031 6.11719 56.6562C5.51823 56.1042 5.0625 55.4531 4.75 54.7031C4.44271 53.9479 4.28906 53.1302 4.28906 52.25V50.8906H5.74219V52.25ZM26.0547 58.6484H24.3125V50.2812H26.0547V58.6484ZM21.3125 58.9219C22.2969 58.9167 23.1484 59.0234 23.8672 59.2422C24.5911 59.4557 25.1484 59.7656 25.5391 60.1719C25.9297 60.5781 26.125 61.0677 26.125 61.6406C26.125 62.1979 25.9297 62.6771 25.5391 63.0781C25.1484 63.4844 24.5911 63.7943 23.8672 64.0078C23.1484 64.2214 22.2969 64.3281 21.3125 64.3281C20.3281 64.3281 19.4714 64.2214 18.7422 64.0078C18.013 63.7943 17.4557 63.4844 17.0703 63.0781C16.6849 62.6771 16.4922 62.1979 16.4922 61.6406C16.4922 61.0677 16.6849 60.5781 17.0703 60.1719C17.4557 59.7656 18.013 59.4557 18.7422 59.2422C19.4714 59.0234 20.3281 58.9167 21.3125 58.9219ZM21.3125 60.2656C20.651 60.2656 20.0885 60.3177 19.625 60.4219C19.1667 60.526 18.8151 60.6797 18.5703 60.8828C18.3307 61.0859 18.2109 61.3385 18.2109 61.6406C18.2109 61.9271 18.3307 62.1719 18.5703 62.375C18.8151 62.5781 19.1693 62.7318 19.6328 62.8359C20.0964 62.9349 20.6562 62.9844 21.3125 62.9844C21.9688 62.9844 22.5286 62.9349 22.9922 62.8359C23.4557 62.7318 23.8099 62.5781 24.0547 62.375C24.2995 62.1719 24.4219 61.9271 24.4219 61.6406C24.4219 61.3385 24.2995 61.0859 24.0547 60.8828C23.8151 60.6797 23.4635 60.526 23 60.4219C22.5417 60.3177 21.9792 60.2656 21.3125 60.2656ZM19.2266 52.25C19.2266 53.1667 19.0677 54.026 18.75 54.8281C18.4323 55.6302 17.9714 56.3307 17.3672 56.9297C16.763 57.5234 16.0365 57.9714 15.1875 58.2734L14.3125 56.8828C15.0521 56.6276 15.6823 56.2604 16.2031 55.7812C16.7292 55.3021 17.1224 54.7604 17.3828 54.1562C17.6432 53.5469 17.7734 52.9115 17.7734 52.25V50.8906H19.2266V52.25ZM19.5703 52.25C19.5703 52.8802 19.6979 53.4766 19.9531 54.0391C20.2083 54.5964 20.5938 55.0911 21.1094 55.5234C21.625 55.9557 22.2474 56.2917 22.9766 56.5312L22.1094 57.8984C21.2656 57.6172 20.5443 57.2031 19.9453 56.6562C19.3464 56.1042 18.8906 55.4531 18.5781 54.7031C18.2708 53.9479 18.1172 53.1302 18.1172 52.25V50.8906H19.5703V52.25ZM38.5469 52.9531H29.4609V51.5547H38.5469V52.9531ZM40.9922 62.5625H28.1328V61.1484H40.9922V62.5625ZM34.5938 61.875H32.8828V56.2266H34.5938V61.875ZM39.6484 52.9219C39.6484 53.75 39.638 54.4531 39.6172 55.0312C39.5964 55.6042 39.5469 56.2812 39.4688 57.0625C39.3906 57.8385 39.2682 58.6823 39.1016 59.5938L37.3438 59.4062C37.5156 58.5521 37.6432 57.7474 37.7266 56.9922C37.8099 56.2318 37.8594 55.5573 37.875 54.9688C37.8906 54.3802 37.8984 53.6979 37.8984 52.9219V51.5547H39.6484V52.9219ZM52.4922 54.7891C52.4609 54.4714 52.3542 54.1953 52.1719 53.9609C51.9948 53.7266 51.75 53.5521 51.4375 53.4375C51.1302 53.3177 50.7708 53.2578 50.3594 53.2578C49.9427 53.2578 49.5781 53.3203 49.2656 53.4453C48.9583 53.5703 48.7188 53.7448 48.5469 53.9688C48.3802 54.1927 48.2969 54.4505 48.2969 54.7422C48.2969 55.1693 48.474 55.5 48.8281 55.7344C49.1875 55.9688 49.6562 56.1589 50.2344 56.3047L51.2891 56.5703C52.2943 56.8047 53.099 57.1771 53.7031 57.6875C54.3073 58.1979 54.612 58.9089 54.6172 59.8203C54.6172 60.4818 54.4453 61.0651 54.1016 61.5703C53.763 62.0755 53.2708 62.4688 52.625 62.75C51.9844 63.0312 51.2161 63.1719 50.3203 63.1719C49.4453 63.1719 48.6823 63.0365 48.0312 62.7656C47.3854 62.4896 46.8828 62.0885 46.5234 61.5625C46.1641 61.0365 45.9688 60.4036 45.9375 59.6641H47.9375C47.9688 60.0495 48.0911 60.375 48.3047 60.6406C48.5182 60.901 48.7969 61.099 49.1406 61.2344C49.4844 61.3646 49.8724 61.4297 50.3047 61.4297C50.7526 61.4297 51.1484 61.362 51.4922 61.2266C51.8359 61.0911 52.1016 60.901 52.2891 60.6562C52.4818 60.4062 52.5781 60.1224 52.5781 59.8047C52.5781 59.5234 52.4974 59.2865 52.3359 59.0938C52.1745 58.8958 51.9453 58.7318 51.6484 58.6016C51.3568 58.4714 50.987 58.349 50.5391 58.2344L49.25 57.9062C48.2812 57.651 47.5365 57.276 47.0156 56.7812C46.5 56.2865 46.2422 55.6458 46.2422 54.8594C46.2422 54.2031 46.4219 53.625 46.7812 53.125C47.1406 52.6198 47.6354 52.2292 48.2656 51.9531C48.8958 51.6719 49.6042 51.5312 50.3906 51.5312C51.1771 51.5312 51.875 51.6693 52.4844 51.9453C53.099 52.2214 53.5781 52.6068 53.9219 53.1016C54.2656 53.5911 54.4453 54.1536 54.4609 54.7891H52.4922ZM59.9688 63.1641C59.1302 63.1641 58.401 62.987 57.7812 62.6328C57.1615 62.2786 56.6823 61.7734 56.3438 61.1172C56.0104 60.4609 55.8438 59.6927 55.8438 58.8125C55.8438 57.9427 56.0104 57.1745 56.3438 56.5078C56.6823 55.8359 57.1536 55.3177 57.7578 54.9531C58.362 54.5885 59.0651 54.4062 59.8672 54.4062C60.5911 54.4062 61.2448 54.5599 61.8281 54.8672C62.4115 55.1745 62.875 55.651 63.2188 56.2969C63.5625 56.9375 63.7344 57.7318 63.7344 58.6797V59.3047H56.7891V57.9531H61.8281C61.8281 57.5677 61.7474 57.224 61.5859 56.9219C61.4245 56.6198 61.1953 56.3828 60.8984 56.2109C60.6068 56.0391 60.2708 55.9531 59.8906 55.9531C59.4844 55.9531 59.125 56.0495 58.8125 56.2422C58.5 56.4349 58.2552 56.6953 58.0781 57.0234C57.9062 57.3464 57.8177 57.7005 57.8125 58.0859V59.2422C57.8125 59.737 57.901 60.1641 58.0781 60.5234C58.2604 60.8776 58.5156 61.1484 58.8438 61.3359C59.1719 61.5234 59.5547 61.6172 59.9922 61.6172C60.2734 61.6172 60.526 61.5781 60.75 61.5C60.9792 61.4219 61.1745 61.3203 61.3359 61.1953C61.4974 61.0651 61.6198 60.9115 61.7031 60.7344H63.6562C63.5365 61.2188 63.3099 61.6458 62.9766 62.0156C62.6484 62.3802 62.2266 62.6641 61.7109 62.8672C61.1953 63.0651 60.6146 63.1641 59.9688 63.1641ZM65.2969 54.5156H67.1953V55.9531H67.2891C67.4766 55.4635 67.7708 55.0833 68.1719 54.8125C68.5781 54.5417 69.0651 54.4062 69.6328 54.4062C70.0078 54.4062 70.349 54.4688 70.6562 54.5938C70.9635 54.7135 71.224 54.888 71.4375 55.1172C71.651 55.3464 71.8125 55.625 71.9219 55.9531H72.0078C72.138 55.6354 72.3255 55.362 72.5703 55.1328C72.8151 54.8984 73.1068 54.7188 73.4453 54.5938C73.7891 54.4688 74.1615 54.4062 74.5625 54.4062C75.0885 54.4062 75.5495 54.5182 75.9453 54.7422C76.3464 54.9609 76.6562 55.2891 76.875 55.7266C77.099 56.1589 77.2109 56.6875 77.2109 57.3125V63H75.2188V57.6094C75.2188 57.1042 75.0833 56.724 74.8125 56.4688C74.5417 56.2083 74.1901 56.0781 73.7578 56.0781C73.4401 56.0781 73.1641 56.1484 72.9297 56.2891C72.7005 56.4245 72.5234 56.612 72.3984 56.8516C72.2786 57.0911 72.2188 57.3724 72.2188 57.6953V63H70.2734V57.5234C70.2734 57.237 70.2135 56.9844 70.0938 56.7656C69.974 56.5417 69.8073 56.3724 69.5938 56.2578C69.3802 56.138 69.1328 56.0781 68.8516 56.0781C68.5651 56.0781 68.3021 56.151 68.0625 56.2969C67.8229 56.4427 67.6328 56.6484 67.4922 56.9141C67.3516 57.1797 67.2812 57.487 67.2812 57.8359V63H65.2969V54.5156ZM79.125 54.5156H81.1094V63H79.125V54.5156ZM80.1094 53.3047C79.9062 53.3047 79.7161 53.2578 79.5391 53.1641C79.362 53.0651 79.2214 52.9323 79.1172 52.7656C79.013 52.599 78.9609 52.4193 78.9609 52.2266C78.9609 52.0286 79.013 51.8464 79.1172 51.6797C79.2214 51.513 79.362 51.3828 79.5391 51.2891C79.7161 51.1953 79.9062 51.1484 80.1094 51.1484C80.3229 51.1484 80.5182 51.1953 80.6953 51.2891C80.8724 51.3828 81.013 51.513 81.1172 51.6797C81.2214 51.8464 81.2734 52.0286 81.2734 52.2266C81.2734 52.4193 81.2214 52.599 81.1172 52.7656C81.013 52.9323 80.8724 53.0651 80.6953 53.1641C80.5182 53.2578 80.3229 53.3047 80.1094 53.3047ZM83.1172 51.6875H85.1016V55.9141H85.1875C85.3646 55.6068 85.5365 55.3568 85.7031 55.1641C85.8698 54.9661 86.1146 54.7917 86.4375 54.6406C86.7604 54.4844 87.1536 54.4062 87.6172 54.4062C88.2786 54.4062 88.875 54.5755 89.4062 54.9141C89.9375 55.2474 90.3568 55.7448 90.6641 56.4062C90.9714 57.0625 91.125 57.849 91.125 58.7656C91.125 59.6719 90.974 60.4557 90.6719 61.1172C90.3698 61.7786 89.9531 62.2839 89.4219 62.6328C88.8958 62.9766 88.2943 63.1484 87.6172 63.1484C87.1693 63.1484 86.7839 63.0729 86.4609 62.9219C86.138 62.7656 85.8828 62.5885 85.6953 62.3906C85.513 62.1875 85.3438 61.9453 85.1875 61.6641H85.0625V63H83.1172V51.6875ZM85.0625 58.75C85.0625 59.3021 85.1406 59.7865 85.2969 60.2031C85.4583 60.6198 85.6875 60.9427 85.9844 61.1719C86.2865 61.401 86.6484 61.5156 87.0703 61.5156C87.4974 61.5156 87.862 61.3984 88.1641 61.1641C88.4714 60.9245 88.7031 60.599 88.8594 60.1875C89.0156 59.7708 89.0938 59.2917 89.0938 58.75C89.0938 58.2188 89.0182 57.7474 88.8672 57.3359C88.7161 56.9245 88.487 56.6068 88.1797 56.3828C87.8724 56.1536 87.5026 56.0391 87.0703 56.0391C86.6432 56.0391 86.2812 56.151 85.9844 56.375C85.6875 56.5938 85.4583 56.9062 85.2969 57.3125C85.1406 57.7188 85.0625 58.1979 85.0625 58.75ZM96.3984 63.1641C95.5859 63.1641 94.8698 62.9818 94.25 62.6172C93.6354 62.2526 93.1615 61.7396 92.8281 61.0781C92.4948 60.4167 92.3281 59.6536 92.3281 58.7891C92.3281 57.9141 92.4948 57.1484 92.8281 56.4922C93.1615 55.8307 93.6354 55.3177 94.25 54.9531C94.8698 54.5885 95.5859 54.4062 96.3984 54.4062C97.2161 54.4062 97.9323 54.5885 98.5469 54.9531C99.1615 55.3177 99.6328 55.8307 99.9609 56.4922C100.289 57.1484 100.453 57.9141 100.453 58.7891C100.453 59.6536 100.289 60.4167 99.9609 61.0781C99.6328 61.7396 99.1615 62.2526 98.5469 62.6172C97.9323 62.9818 97.2161 63.1641 96.3984 63.1641ZM96.4141 61.5781C96.8516 61.5781 97.2214 61.4557 97.5234 61.2109C97.8307 60.9609 98.0599 60.625 98.2109 60.2031C98.362 59.7812 98.4375 59.3073 98.4375 58.7812C98.4375 58.25 98.362 57.7734 98.2109 57.3516C98.0599 56.9297 97.8307 56.5964 97.5234 56.3516C97.2214 56.1016 96.8516 55.9766 96.4141 55.9766C95.9661 55.9766 95.5859 56.1016 95.2734 56.3516C94.9609 56.5964 94.7266 56.9297 94.5703 57.3516C94.4141 57.7734 94.3359 58.25 94.3359 58.7812C94.3359 59.3125 94.4141 59.7891 94.5703 60.2109C94.7266 60.6276 94.9609 60.9609 95.2734 61.2109C95.5859 61.4557 95.9661 61.5781 96.4141 61.5781ZM104 63H102.016V51.6875H104V63ZM109.07 63.1484C108.404 63.1484 107.805 62.9766 107.273 62.6328C106.742 62.2839 106.323 61.7786 106.016 61.1172C105.714 60.4557 105.562 59.6719 105.562 58.7656C105.562 57.849 105.716 57.0625 106.023 56.4062C106.331 55.7448 106.75 55.2474 107.281 54.9141C107.812 54.5755 108.409 54.4062 109.07 54.4062C109.539 54.4062 109.935 54.4844 110.258 54.6406C110.581 54.7917 110.831 54.9714 111.008 55.1797C111.185 55.388 111.349 55.6328 111.5 55.9141H111.57V51.6875H113.57V63H111.617V61.6641H111.5C111.344 61.9453 111.174 62.1875 110.992 62.3906C110.815 62.5885 110.565 62.7656 110.242 62.9219C109.919 63.0729 109.529 63.1484 109.07 63.1484ZM109.609 61.5156C110.036 61.5156 110.401 61.401 110.703 61.1719C111.005 60.9427 111.234 60.6198 111.391 60.2031C111.552 59.7812 111.633 59.2969 111.633 58.75C111.633 58.1979 111.555 57.7188 111.398 57.3125C111.242 56.9062 111.013 56.5938 110.711 56.375C110.409 56.151 110.042 56.0391 109.609 56.0391C109.182 56.0391 108.818 56.1536 108.516 56.3828C108.214 56.6068 107.984 56.9245 107.828 57.3359C107.672 57.7474 107.594 58.2188 107.594 58.75C107.594 59.2917 107.672 59.7708 107.828 60.1875C107.984 60.599 108.214 60.9245 108.516 61.1641C108.818 61.3984 109.182 61.5156 109.609 61.5156ZM12.3203 83.6328H10.3281V75.2344H12.3203V83.6328ZM7.51562 83.8828C8.51042 83.8776 9.375 83.987 10.1094 84.2109C10.8438 84.4297 11.4062 84.7448 11.7969 85.1562C12.1927 85.5677 12.3906 86.0625 12.3906 86.6406C12.3906 87.2135 12.1927 87.7057 11.7969 88.1172C11.4062 88.5286 10.8438 88.8438 10.1094 89.0625C9.375 89.2812 8.51042 89.3906 7.51562 89.3906C6.52083 89.3906 5.65365 89.2812 4.91406 89.0625C4.17448 88.8438 3.60677 88.5286 3.21094 88.1172C2.82031 87.7057 2.625 87.2135 2.625 86.6406C2.625 86.0625 2.82031 85.5677 3.21094 85.1562C3.60677 84.7448 4.17448 84.4297 4.91406 84.2109C5.65365 83.987 6.52083 83.8776 7.51562 83.8828ZM7.51562 85.4219C6.88021 85.4219 6.34635 85.4661 5.91406 85.5547C5.48177 85.6432 5.15625 85.7786 4.9375 85.9609C4.71875 86.138 4.60938 86.3646 4.60938 86.6406C4.60938 86.9115 4.71875 87.138 4.9375 87.3203C5.16146 87.4974 5.48958 87.6302 5.92188 87.7188C6.35417 87.8073 6.88542 87.8516 7.51562 87.8516C8.15104 87.8516 8.6849 87.8073 9.11719 87.7188C9.54948 87.6302 9.8776 87.4974 10.1016 87.3203C10.3255 87.138 10.4375 86.9115 10.4375 86.6406C10.4375 86.3646 10.3255 86.138 10.1016 85.9609C9.88281 85.7786 9.55729 85.6432 9.125 85.5547C8.69271 85.4661 8.15625 85.4219 7.51562 85.4219ZM5.46094 77.2031C5.46094 78.1354 5.30729 79.0104 5 79.8281C4.69271 80.6406 4.23177 81.3516 3.61719 81.9609C3.00781 82.5651 2.25781 83.0182 1.36719 83.3203L0.375 81.7266C1.14062 81.4714 1.78125 81.1094 2.29688 80.6406C2.8125 80.1667 3.19271 79.6354 3.4375 79.0469C3.68229 78.4531 3.80469 77.8385 3.80469 77.2031V75.8281H5.46094V77.2031ZM5.875 77.2031C5.875 77.8177 5.99219 78.3958 6.22656 78.9375C6.46094 79.4792 6.83073 79.9635 7.33594 80.3906C7.84115 80.8125 8.46875 81.1406 9.21875 81.375L8.23438 82.9453C7.34896 82.6641 6.60417 82.2448 6 81.6875C5.40104 81.125 4.95052 80.4609 4.64844 79.6953C4.35156 78.9297 4.20312 78.099 4.20312 77.2031V75.8281H5.875V77.2031ZM26.1484 83.6328H24.1562V75.2344H26.1484V83.6328ZM21.3438 83.8828C22.3385 83.8776 23.2031 83.987 23.9375 84.2109C24.6719 84.4297 25.2344 84.7448 25.625 85.1562C26.0208 85.5677 26.2188 86.0625 26.2188 86.6406C26.2188 87.2135 26.0208 87.7057 25.625 88.1172C25.2344 88.5286 24.6719 88.8438 23.9375 89.0625C23.2031 89.2812 22.3385 89.3906 21.3438 89.3906C20.349 89.3906 19.4818 89.2812 18.7422 89.0625C18.0026 88.8438 17.4349 88.5286 17.0391 88.1172C16.6484 87.7057 16.4531 87.2135 16.4531 86.6406C16.4531 86.0625 16.6484 85.5677 17.0391 85.1562C17.4349 84.7448 18.0026 84.4297 18.7422 84.2109C19.4818 83.987 20.349 83.8776 21.3438 83.8828ZM21.3438 85.4219C20.7083 85.4219 20.1745 85.4661 19.7422 85.5547C19.3099 85.6432 18.9844 85.7786 18.7656 85.9609C18.5469 86.138 18.4375 86.3646 18.4375 86.6406C18.4375 86.9115 18.5469 87.138 18.7656 87.3203C18.9896 87.4974 19.3177 87.6302 19.75 87.7188C20.1823 87.8073 20.7135 87.8516 21.3438 87.8516C21.9792 87.8516 22.513 87.8073 22.9453 87.7188C23.3776 87.6302 23.7057 87.4974 23.9297 87.3203C24.1536 87.138 24.2656 86.9115 24.2656 86.6406C24.2656 86.3646 24.1536 86.138 23.9297 85.9609C23.7109 85.7786 23.3854 85.6432 22.9531 85.5547C22.5208 85.4661 21.9844 85.4219 21.3438 85.4219ZM19.2891 77.2031C19.2891 78.1354 19.1354 79.0104 18.8281 79.8281C18.5208 80.6406 18.0599 81.3516 17.4453 81.9609C16.8359 82.5651 16.0859 83.0182 15.1953 83.3203L14.2031 81.7266C14.9688 81.4714 15.6094 81.1094 16.125 80.6406C16.6406 80.1667 17.0208 79.6354 17.2656 79.0469C17.5104 78.4531 17.6328 77.8385 17.6328 77.2031V75.8281H19.2891V77.2031ZM19.7031 77.2031C19.7031 77.8177 19.8203 78.3958 20.0547 78.9375C20.2891 79.4792 20.6589 79.9635 21.1641 80.3906C21.6693 80.8125 22.2969 81.1406 23.0469 81.375L22.0625 82.9453C21.1771 82.6641 20.4323 82.2448 19.8281 81.6875C19.2292 81.125 18.7786 80.4609 18.4766 79.6953C18.1797 78.9297 18.0312 78.099 18.0312 77.2031V75.8281H19.7031V77.2031ZM38.5234 78.0234H29.4141V76.4453H38.5234V78.0234ZM41.0547 87.6953H28.0859V86.0781H41.0547V87.6953ZM34.7031 86.9062H32.7266V81.1875H34.7031V86.9062ZM39.7891 77.7969C39.7891 78.6302 39.7786 79.3411 39.7578 79.9297C39.737 80.513 39.6875 81.2057 39.6094 82.0078C39.5312 82.8047 39.4062 83.6693 39.2344 84.6016L37.2109 84.3906C37.3932 83.5208 37.526 82.7005 37.6094 81.9297C37.6927 81.1536 37.7422 80.4688 37.7578 79.875C37.7786 79.276 37.7891 78.5833 37.7891 77.7969V76.4453H39.7891V77.7969ZM46.1484 76.6875H50.6484C51.4557 76.6875 52.1406 76.8099 52.7031 77.0547C53.2656 77.2943 53.6875 77.6328 53.9688 78.0703C54.2552 78.5026 54.3984 79.0104 54.3984 79.5938C54.3984 80.0208 54.3099 80.401 54.1328 80.7344C53.9609 81.0677 53.7214 81.3438 53.4141 81.5625C53.112 81.776 52.7604 81.9271 52.3594 82.0156V82.125C52.7917 82.1458 53.1979 82.2708 53.5781 82.5C53.9583 82.7292 54.263 83.0495 54.4922 83.4609C54.7214 83.8672 54.8359 84.3411 54.8359 84.8828C54.8359 85.487 54.6875 86.0234 54.3906 86.4922C54.0938 86.9609 53.651 87.3307 53.0625 87.6016C52.4792 87.8672 51.7734 88 50.9453 88H46.1484V76.6875ZM50.4688 86.0703C50.9115 86.0703 51.276 86.013 51.5625 85.8984C51.8542 85.7786 52.0677 85.6146 52.2031 85.4062C52.3385 85.1927 52.4062 84.9401 52.4062 84.6484C52.4062 84.3359 52.3307 84.0547 52.1797 83.8047C52.0286 83.5547 51.8099 83.3646 51.5234 83.2344C51.2422 83.099 50.9115 83.0312 50.5312 83.0312H48.4922V86.0703H50.4688ZM50.2969 81.4297C50.625 81.4297 50.9193 81.3698 51.1797 81.25C51.4453 81.1302 51.651 80.9609 51.7969 80.7422C51.9479 80.5234 52.0234 80.2656 52.0234 79.9688C52.0234 79.6875 51.9583 79.4453 51.8281 79.2422C51.6979 79.0339 51.5052 78.875 51.25 78.7656C51 78.651 50.6979 78.5938 50.3438 78.5938H48.4922V81.4297H50.2969ZM60.1016 88.1641C59.2578 88.1641 58.5208 87.9818 57.8906 87.6172C57.2604 87.2526 56.776 86.7396 56.4375 86.0781C56.099 85.4167 55.9297 84.6536 55.9297 83.7891C55.9297 82.9141 56.099 82.1484 56.4375 81.4922C56.776 80.8307 57.2604 80.3177 57.8906 79.9531C58.5208 79.5885 59.2578 79.4062 60.1016 79.4062C60.9401 79.4062 61.6745 79.5885 62.3047 79.9531C62.9401 80.3177 63.4245 80.8307 63.7578 81.4922C64.0911 82.1484 64.2578 82.9141 64.2578 83.7891C64.2578 84.6536 64.0911 85.4167 63.7578 86.0781C63.4245 86.7396 62.9401 87.2526 62.3047 87.6172C61.6745 87.9818 60.9401 88.1641 60.1016 88.1641ZM60.1172 86.375C60.5026 86.375 60.8281 86.263 61.0938 86.0391C61.3646 85.8151 61.5677 85.5078 61.7031 85.1172C61.8385 84.7214 61.9062 84.2734 61.9062 83.7734C61.9062 83.2682 61.8385 82.8203 61.7031 82.4297C61.5677 82.0391 61.3646 81.7318 61.0938 81.5078C60.8281 81.2839 60.5026 81.1719 60.1172 81.1719C59.7214 81.1719 59.3854 81.2839 59.1094 81.5078C58.8333 81.7318 58.625 82.0391 58.4844 82.4297C58.3438 82.8151 58.2734 83.263 58.2734 83.7734C58.2734 84.2786 58.3438 84.7266 58.4844 85.1172C58.625 85.5078 58.8333 85.8151 59.1094 86.0391C59.3854 86.263 59.7214 86.375 60.1172 86.375ZM68.0312 88H65.7188V76.6875H68.0312V88ZM72.9531 88.1328C72.3021 88.1328 71.7135 87.9635 71.1875 87.625C70.6667 87.2865 70.2552 86.7891 69.9531 86.1328C69.6562 85.4714 69.5078 84.6823 69.5078 83.7656C69.5078 82.8281 69.6615 82.0312 69.9688 81.375C70.276 80.7188 70.6875 80.2266 71.2031 79.8984C71.724 79.5703 72.3073 79.4062 72.9531 79.4062C73.401 79.4062 73.7865 79.4818 74.1094 79.6328C74.4323 79.7786 74.6875 79.9609 74.875 80.1797C75.0625 80.3984 75.224 80.651 75.3594 80.9375H75.4297V76.6875H77.7422V88H75.4688V86.6484H75.3594C75.2188 86.9297 75.0521 87.1745 74.8594 87.3828C74.6719 87.5911 74.4167 87.7682 74.0938 87.9141C73.7708 88.0599 73.3906 88.1328 72.9531 88.1328ZM73.6719 86.2891C74.0521 86.2891 74.3776 86.1849 74.6484 85.9766C74.9245 85.7682 75.1328 85.4714 75.2734 85.0859C75.4193 84.7005 75.4922 84.2552 75.4922 83.75C75.4922 83.2396 75.4219 82.7969 75.2812 82.4219C75.1406 82.0469 74.9323 81.7604 74.6562 81.5625C74.3854 81.3594 74.0573 81.2578 73.6719 81.2578C73.2865 81.2578 72.9583 81.362 72.6875 81.5703C72.4167 81.7734 72.2109 82.0625 72.0703 82.4375C71.9349 82.8125 71.8672 83.25 71.8672 83.75C71.8672 84.25 71.9349 84.6927 72.0703 85.0781C72.2109 85.4583 72.4167 85.7552 72.6875 85.9688C72.9583 86.1823 73.2865 86.2891 73.6719 86.2891Z" fill="#6A5542"/>
</svg>
