<svg width="274" height="263" viewBox="0 0 274 263" fill="none" xmlns="http://www.w3.org/2000/svg">
<path d="M62.206 157.538C59.544 158.147 57.1803 158.337 55.1149 158.109C53.0684 157.964 51.3678 157.609 50.013 157.043C48.3897 156.451 46.9873 155.678 45.806 154.722C45.7585 156.046 45.3177 157.372 44.4835 158.701C43.7324 160.011 42.9374 160.937 42.0984 161.478L40.2267 161.906C40.0627 160.806 39.8892 159.664 39.7061 158.48C39.5611 157.463 39.4066 156.404 39.2425 155.304C39.0595 154.12 38.8348 152.946 38.5686 151.781C38.2834 150.533 37.9565 149.295 37.5881 148.066C37.2196 146.838 36.8797 145.734 36.5683 144.754C36.2189 143.609 35.8695 142.463 35.52 141.317L37.3918 140.89C40.3415 146.518 43.8094 150.583 47.7954 153.086C51.7813 155.588 55.9788 156.336 60.3877 155.328C63.8816 154.529 66.4627 152.801 68.1312 150.144C69.8828 147.468 70.3973 144.549 69.6746 141.388C69.1612 139.142 67.924 137.367 65.9631 136.065C64.0854 134.744 61.8298 133.684 59.1963 132.885C56.5437 132.003 53.7343 131.201 50.7681 130.479C47.8018 129.756 44.9639 128.829 42.2543 127.698C39.5447 126.567 37.1429 125.059 35.0489 123.174C33.0381 121.27 31.6618 118.696 30.9202 115.452C30.5018 113.622 30.5089 111.738 30.9414 109.801C31.3739 107.864 32.1451 106.068 33.255 104.414C34.4481 102.741 35.999 101.292 37.9075 100.068C39.797 98.7608 41.9896 97.8219 44.4852 97.2514C46.6481 96.7569 48.5959 96.6618 50.3285 96.966C52.1444 97.2511 53.7203 97.635 55.056 98.1174C56.513 98.7472 57.8322 99.5398 59.0135 100.495C59.061 99.1714 59.4602 97.8546 60.2113 96.545C61.0455 95.2163 61.8821 94.281 62.7211 93.7391L64.5928 93.3112C64.6736 94.4307 64.8056 95.5823 64.9886 96.7659C65.1336 97.7832 65.2977 98.8836 65.4807 100.067C65.747 101.232 66.0037 102.355 66.2509 103.436C66.5362 104.684 66.8309 105.974 67.1352 107.305C67.5036 108.533 67.8436 109.637 68.1549 110.617C68.5044 111.762 68.8859 112.857 69.2995 113.9L67.4278 114.328C64.478 108.7 61.0933 104.615 57.2737 102.075C53.4541 99.534 49.7974 98.663 46.3035 99.4617C43.4751 100.108 41.323 101.607 39.8471 103.958C38.3521 106.225 37.8899 108.607 38.4604 111.102C38.9359 113.182 40.135 114.79 42.0579 115.926C43.9807 117.062 46.2589 118.029 48.8924 118.828C51.5069 119.543 54.3389 120.253 57.3884 120.956C60.521 121.64 63.4516 122.59 66.1802 123.804C68.9088 125.019 71.3391 126.652 73.4712 128.703C75.6032 130.754 77.0591 133.485 77.8388 136.895C78.2952 138.892 78.2525 141.002 77.7106 143.227C77.233 145.35 76.3013 147.401 74.9157 149.381C73.5943 151.258 71.8319 152.931 69.6287 154.397C67.5086 155.845 65.0344 156.892 62.206 157.538Z" fill="#6E6949"/>
<path d="M115.595 117.157L106.177 65.5292L98.2772 65.0187L98.0474 63.7595L115.676 60.5435L125.669 115.319L133.569 115.83L133.799 117.089L108.614 121.684L108.385 120.424L115.595 117.157ZM113.664 45.9476C113.955 47.5426 113.552 49.1342 112.454 50.7224C111.424 52.2113 110.112 53.1013 108.517 53.3923C106.922 53.6833 105.338 53.3216 103.765 52.3075C102.261 51.194 101.363 49.8398 101.072 48.2448C100.781 46.6498 101.15 45.1078 102.18 43.6189C103.278 42.0307 104.625 41.0911 106.22 40.8001C107.815 40.5091 109.364 40.9204 110.869 42.0338C112.441 43.048 113.373 44.3526 113.664 45.9476Z" fill="#6E6949"/>
<path d="M165.137 137.307L164.071 54.1139L156.367 52.2925L156.351 51.0126L174.27 50.783L175.377 137.176L183.081 138.997L183.097 140.277L157.499 140.605L157.483 139.325L165.137 137.307Z" fill="#6E6949"/>
<path d="M179.548 179.24C177.303 177.685 175.567 176.069 174.342 174.391C173.069 172.782 172.183 171.288 171.687 169.906C171.028 168.308 170.653 166.751 170.561 165.235C169.552 166.093 168.276 166.662 166.732 166.943C165.259 167.272 164.039 167.31 163.073 167.057L161.495 165.964C162.196 165.1 162.922 164.202 163.672 163.268C164.325 162.475 165.002 161.646 165.704 160.783C166.454 159.849 167.169 158.891 167.849 157.909C168.578 156.856 169.271 155.779 169.93 154.678C170.588 153.577 171.173 152.582 171.686 151.691C172.296 150.66 172.906 149.63 173.516 148.599L175.094 149.692C172.93 155.666 172.269 160.969 173.111 165.599C173.954 170.23 176.234 173.832 179.952 176.406C182.899 178.446 185.916 179.186 189.003 178.624C192.16 178.111 194.662 176.522 196.508 173.856C197.819 171.961 198.294 169.851 197.932 167.525C197.641 165.247 196.901 162.867 195.714 160.385C194.575 157.832 193.271 155.217 191.803 152.541C190.335 149.864 189.105 147.144 188.112 144.38C187.118 141.617 186.611 138.827 186.589 136.01C186.638 133.241 187.609 130.489 189.503 127.752C190.572 126.209 191.967 124.943 193.689 123.956C195.41 122.968 197.256 122.325 199.226 122.029C201.266 121.78 203.381 121.947 205.573 122.53C207.812 123.043 209.985 124.028 212.09 125.485C213.914 126.748 215.298 128.121 216.243 129.605C217.257 131.138 218.037 132.56 218.582 133.872C219.101 135.372 219.406 136.88 219.497 138.397C220.507 137.539 221.748 136.945 223.221 136.616C224.765 136.335 226.019 136.322 226.986 136.575L228.564 137.668C227.792 138.483 227.032 139.357 226.281 140.291C225.628 141.084 224.927 141.948 224.177 142.882C223.497 143.864 222.841 144.811 222.21 145.723C221.481 146.776 220.728 147.863 219.951 148.986C219.293 150.087 218.707 151.082 218.194 151.973C217.585 153.004 217.034 154.024 216.543 155.033L214.964 153.94C217.128 147.966 217.859 142.712 217.158 138.178C216.456 133.645 214.632 130.358 211.685 128.318C209.299 126.667 206.741 126.09 204.01 126.586C201.328 127.013 199.258 128.278 197.801 130.383C196.587 132.137 196.209 134.107 196.668 136.293C197.127 138.479 197.95 140.813 199.137 143.295C200.373 145.708 201.761 148.277 203.299 151.002C204.907 153.776 206.184 156.58 207.128 159.413C208.073 162.246 208.507 165.142 208.432 168.099C208.356 171.057 207.323 173.974 205.332 176.851C204.166 178.535 202.579 179.927 200.572 181.028C198.683 182.108 196.54 182.804 194.144 183.117C191.866 183.408 189.443 183.236 186.874 182.599C184.375 182.011 181.933 180.891 179.548 179.24Z" fill="#6E6949"/>
<path d="M87.247 173.886L83.5226 191.153L89.9995 194.514L89.7296 195.765L65.3308 190.503L65.6006 189.251L73.5128 188.994L91.0553 107.664L83.9528 104.168L84.2227 102.917L101.74 106.695L87.9757 170.508L114.963 145.557L107.505 140.675L107.775 139.424L126.543 143.472L126.273 144.723L117.466 146.097L101.604 160.746L114.178 197.765L121.28 201.261L121.01 202.512L95.3601 196.98L95.63 195.729L102.917 195.336L93.6112 168.057L87.247 173.886Z" fill="#6E6949"/>
<path d="M124.762 174.889L144.406 94.0418L137.397 90.3627L137.699 89.1189L155.112 93.3501L134.712 177.307L141.722 180.986L141.419 182.23L116.543 176.186L116.845 174.942L124.762 174.889Z" fill="#6E6949"/>
</svg>
