<svg width="87" height="17" viewBox="0 0 87 17" fill="none" xmlns="http://www.w3.org/2000/svg">
<path d="M7.688 16.12C6.70667 16.12 5.84267 15.9707 5.096 15.672C4.34933 15.3733 3.77333 14.952 3.368 14.408C2.96267 13.8747 2.76 13.2613 2.76 12.568C2.76 11.8747 2.96267 11.2613 3.368 10.728C3.77333 10.184 4.34933 9.76267 5.096 9.464C5.84267 9.16533 6.70667 9.016 7.688 9.016C8.66933 9.016 9.53333 9.16533 10.28 9.464C11.0267 9.76267 11.6027 10.184 12.008 10.728C12.4133 11.2613 12.616 11.8747 12.616 12.568C12.616 13.2613 12.4133 13.8747 12.008 14.408C11.6027 14.952 11.0267 15.3733 10.28 15.672C9.53333 15.9707 8.66933 16.12 7.688 16.12ZM0.024 7.432C0.024 7.06933 0.226667 6.78667 0.632 6.584C1.176 6.30667 1.66667 5.95467 2.104 5.528C2.552 5.10133 2.89867 4.64267 3.144 4.152C3.31467 3.81067 3.42667 3.512 3.48 3.256C3.53333 2.98933 3.56 2.68533 3.56 2.344V1.688C3.56 1.37867 3.672 1.13867 3.896 0.967999C4.12 0.797333 4.36533 0.712 4.632 0.712C4.89867 0.712 5.144 0.797333 5.368 0.967999C5.592 1.13867 5.704 1.37867 5.704 1.688V2.296C5.704 2.65867 5.72533 2.97333 5.768 3.24C5.82133 3.50667 5.928 3.8 6.088 4.12C6.49333 4.96267 7.28267 5.73067 8.456 6.424C8.872 6.66933 9.08 6.95733 9.08 7.288C9.08 7.55467 8.984 7.784 8.792 7.976C8.6 8.15733 8.36 8.248 8.072 8.248C7.89067 8.248 7.69333 8.2 7.48 8.104C6.968 7.85867 6.456 7.512 5.944 7.064C5.432 6.616 4.99467 6.12533 4.632 5.592C4.25867 6.15733 3.82133 6.66933 3.32 7.128C2.81867 7.576 2.29067 7.93867 1.736 8.216C1.52267 8.32267 1.27733 8.376 1 8.376C0.722667 8.376 0.488 8.28533 0.296 8.104C0.114667 7.92267 0.024 7.69867 0.024 7.432ZM4.904 12.568C4.904 13.0907 5.144 13.5067 5.624 13.816C6.104 14.136 6.792 14.296 7.688 14.296C8.584 14.296 9.272 14.136 9.752 13.816C10.232 13.5067 10.472 13.0907 10.472 12.568C10.472 12.0453 10.232 11.6293 9.752 11.32C9.272 11 8.584 10.84 7.688 10.84C6.792 10.84 6.104 11 5.624 11.32C5.144 11.6293 4.904 12.0453 4.904 12.568ZM10.552 1.144C10.552 0.834666 10.664 0.594666 10.888 0.424C11.112 0.253333 11.3573 0.167999 11.624 0.167999C11.8907 0.167999 12.136 0.253333 12.36 0.424C12.584 0.594666 12.696 0.834666 12.696 1.144V7.912C12.696 8.22133 12.584 8.46133 12.36 8.632C12.136 8.80267 11.8907 8.888 11.624 8.888C11.3573 8.888 11.112 8.80267 10.888 8.632C10.664 8.46133 10.552 8.22133 10.552 7.912V1.144ZM23.0474 16.12C22.066 16.12 21.202 15.9707 20.4554 15.672C19.7087 15.3733 19.1327 14.952 18.7274 14.408C18.322 13.8747 18.1194 13.2613 18.1194 12.568C18.1194 11.8747 18.322 11.2613 18.7274 10.728C19.1327 10.184 19.7087 9.76267 20.4554 9.464C21.202 9.16533 22.066 9.016 23.0474 9.016C24.0287 9.016 24.8927 9.16533 25.6394 9.464C26.386 9.76267 26.962 10.184 27.3674 10.728C27.7727 11.2613 27.9754 11.8747 27.9754 12.568C27.9754 13.2613 27.7727 13.8747 27.3674 14.408C26.962 14.952 26.386 15.3733 25.6394 15.672C24.8927 15.9707 24.0287 16.12 23.0474 16.12ZM15.3834 7.432C15.3834 7.06933 15.586 6.78667 15.9914 6.584C16.5354 6.30667 17.026 5.95467 17.4634 5.528C17.9114 5.10133 18.258 4.64267 18.5034 4.152C18.674 3.81067 18.786 3.512 18.8394 3.256C18.8927 2.98933 18.9194 2.68533 18.9194 2.344V1.688C18.9194 1.37867 19.0314 1.13867 19.2554 0.967999C19.4794 0.797333 19.7247 0.712 19.9914 0.712C20.258 0.712 20.5034 0.797333 20.7274 0.967999C20.9514 1.13867 21.0634 1.37867 21.0634 1.688V2.296C21.0634 2.65867 21.0847 2.97333 21.1274 3.24C21.1807 3.50667 21.2874 3.8 21.4474 4.12C21.8527 4.96267 22.642 5.73067 23.8154 6.424C24.2314 6.66933 24.4394 6.95733 24.4394 7.288C24.4394 7.55467 24.3434 7.784 24.1514 7.976C23.9594 8.15733 23.7194 8.248 23.4314 8.248C23.25 8.248 23.0527 8.2 22.8394 8.104C22.3274 7.85867 21.8154 7.512 21.3034 7.064C20.7914 6.616 20.354 6.12533 19.9914 5.592C19.618 6.15733 19.1807 6.66933 18.6794 7.128C18.178 7.576 17.65 7.93867 17.0954 8.216C16.882 8.32267 16.6367 8.376 16.3594 8.376C16.082 8.376 15.8474 8.28533 15.6554 8.104C15.474 7.92267 15.3834 7.69867 15.3834 7.432ZM20.2634 12.568C20.2634 13.0907 20.5034 13.5067 20.9834 13.816C21.4634 14.136 22.1514 14.296 23.0474 14.296C23.9434 14.296 24.6314 14.136 25.1114 13.816C25.5914 13.5067 25.8314 13.0907 25.8314 12.568C25.8314 12.0453 25.5914 11.6293 25.1114 11.32C24.6314 11 23.9434 10.84 23.0474 10.84C22.1514 10.84 21.4634 11 20.9834 11.32C20.5034 11.6293 20.2634 12.0453 20.2634 12.568ZM25.9114 1.144C25.9114 0.834666 26.0234 0.594666 26.2474 0.424C26.4714 0.253333 26.7167 0.167999 26.9834 0.167999C27.25 0.167999 27.4954 0.253333 27.7194 0.424C27.9434 0.594666 28.0554 0.834666 28.0554 1.144V7.912C28.0554 8.22133 27.9434 8.46133 27.7194 8.632C27.4954 8.80267 27.25 8.888 26.9834 8.888C26.7167 8.888 26.4714 8.80267 26.2474 8.632C26.0234 8.46133 25.9114 8.22133 25.9114 7.912V1.144ZM39.8148 8.728C40.1988 7.02133 40.3801 5.18133 40.3588 3.208H32.9668C32.6894 3.208 32.4708 3.12267 32.3108 2.952C32.1614 2.78133 32.0868 2.55733 32.0868 2.28C32.0868 2.00267 32.1614 1.77867 32.3108 1.608C32.4708 1.43733 32.6894 1.352 32.9668 1.352H41.4308C41.7188 1.352 41.9694 1.44267 42.1828 1.624C42.3961 1.80533 42.5028 2.04 42.5028 2.328C42.5028 3.94933 42.4654 5.19733 42.3908 6.072C42.3268 6.936 42.1561 8.008 41.8788 9.288C41.8254 9.52267 41.6974 9.69867 41.4948 9.816C41.3028 9.92267 41.1054 9.976 40.9028 9.976C40.6041 9.976 40.3374 9.88533 40.1028 9.704C39.8788 9.52267 39.7668 9.29333 39.7668 9.016C39.7668 9.016 39.7828 8.92 39.8148 8.728ZM30.2308 12.584C30.2308 12.3387 30.3161 12.1253 30.4868 11.944C30.6574 11.752 30.8761 11.656 31.1428 11.656C31.2388 11.656 31.3348 11.672 31.4308 11.704C32.6681 12.0347 34.0068 12.248 35.4468 12.344V7.032C35.4468 6.744 35.5534 6.50933 35.7668 6.328C35.9801 6.136 36.2308 6.04 36.5188 6.04C36.8068 6.04 37.0574 6.136 37.2708 6.328C37.4841 6.50933 37.5908 6.744 37.5908 7.032V12.408C39.6921 12.3867 41.6174 12.152 43.3668 11.704C43.4308 11.6827 43.5268 11.672 43.6548 11.672C43.9214 11.672 44.1401 11.7627 44.3108 11.944C44.4814 12.1253 44.5668 12.3387 44.5668 12.584C44.5668 12.7867 44.5028 12.9733 44.3748 13.144C44.2468 13.3147 44.0548 13.432 43.7988 13.496C41.9534 14.008 39.8201 14.264 37.3988 14.264C34.9774 14.264 32.8441 14.008 30.9988 13.496C30.7428 13.432 30.5508 13.3147 30.4228 13.144C30.2948 12.9733 30.2308 12.7867 30.2308 12.584ZM55.115 12.136C55.8083 12.136 56.3363 12.0027 56.699 11.736C57.0617 11.4693 57.243 11.0267 57.243 10.408C57.243 9.75733 57.0457 9.29333 56.651 9.016C56.267 8.73867 55.7017 8.6 54.955 8.6H52.395V12.136H55.115ZM50.267 2.792C50.267 2.39733 50.395 2.08267 50.651 1.848C50.907 1.61333 51.243 1.496 51.659 1.496H54.619C55.9523 1.496 57.003 1.80533 57.771 2.424C58.539 3.032 58.923 3.90133 58.923 5.032C58.923 5.52267 58.8163 5.98133 58.603 6.408C58.4003 6.83467 58.1017 7.20267 57.707 7.512C58.2403 7.77867 58.6563 8.168 58.955 8.68C59.2643 9.18133 59.419 9.768 59.419 10.44C59.419 11.5813 59.035 12.4613 58.267 13.08C57.499 13.6987 56.4483 14.008 55.115 14.008H51.931C51.3337 14.008 50.907 13.8907 50.651 13.656C50.395 13.432 50.267 13.0373 50.267 12.472V2.792ZM54.459 6.728C55.2377 6.728 55.8137 6.59467 56.187 6.328C56.5603 6.06133 56.747 5.61867 56.747 5C56.747 4.36 56.5763 3.928 56.235 3.704C55.8937 3.48 55.355 3.368 54.619 3.368H52.395V6.728H54.459ZM66.1339 14.088C65.2912 14.088 64.5232 13.8853 63.8299 13.48C63.1472 13.0853 62.6085 12.552 62.2139 11.88C61.8192 11.1973 61.6219 10.4453 61.6219 9.624C61.6219 8.81333 61.8192 8.06667 62.2139 7.384C62.6085 6.70133 63.1472 6.16267 63.8299 5.768C64.5232 5.37333 65.2912 5.176 66.1339 5.176C66.9659 5.176 67.7232 5.37333 68.4059 5.768C69.0992 6.16267 69.6432 6.70133 70.0379 7.384C70.4325 8.06667 70.6299 8.81333 70.6299 9.624C70.6299 10.4453 70.4325 11.1973 70.0379 11.88C69.6432 12.552 69.0992 13.0853 68.4059 13.48C67.7232 13.8853 66.9659 14.088 66.1339 14.088ZM63.7659 9.64C63.7659 10.4507 63.9845 11.096 64.4219 11.576C64.8699 12.0453 65.4405 12.28 66.1339 12.28C66.8165 12.28 67.3765 12.0453 67.8139 11.576C68.2619 11.096 68.4859 10.4507 68.4859 9.64C68.4859 8.82933 68.2619 8.18933 67.8139 7.72C67.3765 7.24 66.8165 7 66.1339 7C65.4405 7 64.8699 7.24 64.4219 7.72C63.9845 8.18933 63.7659 8.82933 63.7659 9.64ZM75.3001 11.992C75.3001 12.088 75.3161 12.1573 75.3481 12.2C75.3908 12.232 75.4921 12.2533 75.6521 12.264C75.9081 12.2853 76.1055 12.3653 76.2441 12.504C76.3828 12.632 76.4521 12.84 76.4521 13.128C76.4521 13.4373 76.3508 13.672 76.1481 13.832C75.9455 14.0027 75.6521 14.088 75.2681 14.088C74.5428 14.088 74.0095 13.928 73.6681 13.608C73.3375 13.2987 73.1721 12.776 73.1721 12.04V2.248C73.1721 1.90667 73.2681 1.656 73.4601 1.496C73.6628 1.32533 73.9241 1.24 74.2441 1.24C74.5535 1.24 74.8041 1.32533 74.9961 1.496C75.1988 1.66667 75.3001 1.91733 75.3001 2.248V11.992ZM82.0914 14.104C81.2274 14.104 80.4967 13.9067 79.8994 13.512C79.302 13.1173 78.8487 12.584 78.5394 11.912C78.2407 11.2293 78.0914 10.472 78.0914 9.64C78.0914 8.808 78.2407 8.056 78.5394 7.384C78.8487 6.712 79.302 6.17867 79.8994 5.784C80.4967 5.38933 81.2274 5.192 82.0914 5.192C83.2114 5.192 84.07 5.58133 84.6674 6.36V2.264C84.6674 1.92267 84.7634 1.672 84.9554 1.512C85.158 1.34133 85.4194 1.256 85.7394 1.256C86.0594 1.256 86.3154 1.34133 86.5074 1.512C86.71 1.672 86.8114 1.92267 86.8114 2.264V13.08C86.8114 13.4107 86.71 13.6613 86.5074 13.832C86.3047 14.0027 86.0487 14.088 85.7394 14.088C85.4194 14.088 85.158 14.0027 84.9554 13.832C84.7634 13.672 84.6674 13.4213 84.6674 13.08V12.936C84.07 13.7147 83.2114 14.104 82.0914 14.104ZM80.2354 9.656C80.2354 10.488 80.4274 11.1333 80.8114 11.592C81.1954 12.0507 81.7394 12.28 82.4434 12.28C83.094 12.28 83.6274 12.0453 84.0434 11.576C84.4594 11.1067 84.6674 10.4667 84.6674 9.656C84.6674 8.84533 84.4594 8.20533 84.0434 7.736C83.6274 7.256 83.094 7.016 82.4434 7.016C81.7394 7.016 81.1954 7.25067 80.8114 7.72C80.4274 8.17867 80.2354 8.824 80.2354 9.656Z" fill="#6A5542"/>
</svg>
